G04 #@! TF.GenerationSoftware,KiCad,Pcbnew,(6.0.0)*
G04 #@! TF.CreationDate,2022-02-12T17:35:16+01:00*
G04 #@! TF.ProjectId,canned-ercf-board,63616e6e-6564-42d6-9572-63662d626f61,v1.0-beta1*
G04 #@! TF.SameCoordinates,Original*
G04 #@! TF.FileFunction,Paste,Top*
G04 #@! TF.FilePolarity,Positive*
%FSLAX46Y46*%
G04 Gerber Fmt 4.6, Leading zero omitted, Abs format (unit mm)*
G04 Created by KiCad (PCBNEW (6.0.0)) date 2022-02-12 17:35:16*
%MOMM*%
%LPD*%
G01*
G04 APERTURE LIST*
G04 Aperture macros list*
%AMRoundRect*
0 Rectangle with rounded corners*
0 $1 Rounding radius*
0 $2 $3 $4 $5 $6 $7 $8 $9 X,Y pos of 4 corners*
0 Add a 4 corners polygon primitive as box body*
4,1,4,$2,$3,$4,$5,$6,$7,$8,$9,$2,$3,0*
0 Add four circle primitives for the rounded corners*
1,1,$1+$1,$2,$3*
1,1,$1+$1,$4,$5*
1,1,$1+$1,$6,$7*
1,1,$1+$1,$8,$9*
0 Add four rect primitives between the rounded corners*
20,1,$1+$1,$2,$3,$4,$5,0*
20,1,$1+$1,$4,$5,$6,$7,0*
20,1,$1+$1,$6,$7,$8,$9,0*
20,1,$1+$1,$8,$9,$2,$3,0*%
G04 Aperture macros list end*
%ADD10RoundRect,0.250000X1.500000X0.550000X-1.500000X0.550000X-1.500000X-0.550000X1.500000X-0.550000X0*%
%ADD11RoundRect,0.225000X-0.250000X0.225000X-0.250000X-0.225000X0.250000X-0.225000X0.250000X0.225000X0*%
%ADD12RoundRect,0.200000X-0.275000X0.200000X-0.275000X-0.200000X0.275000X-0.200000X0.275000X0.200000X0*%
%ADD13RoundRect,0.200000X0.275000X-0.200000X0.275000X0.200000X-0.275000X0.200000X-0.275000X-0.200000X0*%
%ADD14RoundRect,0.250000X0.475000X-0.250000X0.475000X0.250000X-0.475000X0.250000X-0.475000X-0.250000X0*%
%ADD15RoundRect,0.150000X-0.150000X0.587500X-0.150000X-0.587500X0.150000X-0.587500X0.150000X0.587500X0*%
%ADD16RoundRect,0.200000X0.200000X0.275000X-0.200000X0.275000X-0.200000X-0.275000X0.200000X-0.275000X0*%
%ADD17RoundRect,0.218750X-0.256250X0.218750X-0.256250X-0.218750X0.256250X-0.218750X0.256250X0.218750X0*%
%ADD18RoundRect,0.250000X-0.475000X0.250000X-0.475000X-0.250000X0.475000X-0.250000X0.475000X0.250000X0*%
%ADD19RoundRect,0.225000X0.250000X-0.225000X0.250000X0.225000X-0.250000X0.225000X-0.250000X-0.225000X0*%
G04 APERTURE END LIST*
D10*
X155608000Y-126136400D03*
X150208000Y-126136400D03*
D11*
X140589000Y-109715000D03*
X140589000Y-111265000D03*
D12*
X94996000Y-132017000D03*
X94996000Y-133667000D03*
D13*
X142367000Y-111315000D03*
X142367000Y-109665000D03*
D12*
X144145000Y-109665000D03*
X144145000Y-111315000D03*
X85039200Y-115722400D03*
X85039200Y-117372400D03*
D14*
X124764800Y-115123000D03*
X124764800Y-113223000D03*
D13*
X86741000Y-133667000D03*
X86741000Y-132017000D03*
X83439000Y-133667000D03*
X83439000Y-132017000D03*
D15*
X92034400Y-135562100D03*
X90134400Y-135562100D03*
X91084400Y-137437100D03*
D16*
X92710000Y-122100000D03*
X91060000Y-122100000D03*
X134557000Y-121564400D03*
X136207000Y-121564400D03*
D10*
X134526000Y-126187200D03*
X129126000Y-126187200D03*
D16*
X139636000Y-121564400D03*
X137986000Y-121564400D03*
D12*
X145923000Y-109665000D03*
X145923000Y-111315000D03*
D17*
X151765000Y-109702500D03*
X151765000Y-111277500D03*
D13*
X85090000Y-133667000D03*
X85090000Y-132017000D03*
D18*
X124764800Y-109540000D03*
X124764800Y-111440000D03*
D19*
X90068400Y-133617000D03*
X90068400Y-132067000D03*
D13*
X160390000Y-121045000D03*
X160390000Y-122695000D03*
D17*
X154813000Y-109702500D03*
X154813000Y-111277500D03*
D13*
X93370400Y-133667000D03*
X93370400Y-132017000D03*
D17*
X158115000Y-109702500D03*
X158115000Y-111277500D03*
D13*
X91744800Y-133667000D03*
X91744800Y-132017000D03*
D19*
X80137000Y-133617000D03*
X80137000Y-132067000D03*
D12*
X149733000Y-109665000D03*
X149733000Y-111315000D03*
D19*
X88392000Y-132067000D03*
X88392000Y-133617000D03*
D15*
X84389000Y-135587500D03*
X82489000Y-135587500D03*
X83439000Y-137462500D03*
D13*
X81788000Y-133667000D03*
X81788000Y-132017000D03*
D12*
X147828000Y-109665000D03*
X147828000Y-111315000D03*
M02*
