G04 #@! TF.GenerationSoftware,KiCad,Pcbnew,(6.0.0)*
G04 #@! TF.CreationDate,2022-02-12T17:35:16+01:00*
G04 #@! TF.ProjectId,canned-ercf-board,63616e6e-6564-42d6-9572-63662d626f61,v1.0-beta1*
G04 #@! TF.SameCoordinates,Original*
G04 #@! TF.FileFunction,Legend,Top*
G04 #@! TF.FilePolarity,Positive*
%FSLAX46Y46*%
G04 Gerber Fmt 4.6, Leading zero omitted, Abs format (unit mm)*
G04 Created by KiCad (PCBNEW (6.0.0)) date 2022-02-12 17:35:16*
%MOMM*%
%LPD*%
G01*
G04 APERTURE LIST*
%ADD10C,0.150000*%
%ADD11C,0.200000*%
%ADD12C,0.300000*%
%ADD13C,0.120000*%
%ADD14C,0.127000*%
%ADD15C,0.010000*%
G04 APERTURE END LIST*
D10*
X84702857Y-120807142D02*
X84755238Y-120859523D01*
X84807619Y-121016666D01*
X84807619Y-121121428D01*
X84755238Y-121278571D01*
X84650476Y-121383333D01*
X84545714Y-121435714D01*
X84336190Y-121488095D01*
X84179047Y-121488095D01*
X83969523Y-121435714D01*
X83864761Y-121383333D01*
X83760000Y-121278571D01*
X83707619Y-121121428D01*
X83707619Y-121016666D01*
X83760000Y-120859523D01*
X83812380Y-120807142D01*
X84493333Y-120388095D02*
X84493333Y-119864285D01*
X84807619Y-120492857D02*
X83707619Y-120126190D01*
X84807619Y-119759523D01*
X84807619Y-119392857D02*
X83707619Y-119392857D01*
X84807619Y-118764285D01*
X83707619Y-118764285D01*
X138162857Y-110984285D02*
X139362857Y-110584285D01*
X138162857Y-110184285D01*
X139362857Y-109784285D02*
X138162857Y-109784285D01*
X139362857Y-109212857D02*
X138162857Y-109212857D01*
X139362857Y-108527142D01*
X138162857Y-108527142D01*
D11*
X114357476Y-113638590D02*
X113107476Y-113638590D01*
X113107476Y-112805257D02*
X113107476Y-112567161D01*
X113167000Y-112448114D01*
X113286047Y-112329066D01*
X113524142Y-112269542D01*
X113940809Y-112269542D01*
X114178904Y-112329066D01*
X114297952Y-112448114D01*
X114357476Y-112567161D01*
X114357476Y-112805257D01*
X114297952Y-112924304D01*
X114178904Y-113043352D01*
X113940809Y-113102876D01*
X113524142Y-113102876D01*
X113286047Y-113043352D01*
X113167000Y-112924304D01*
X113107476Y-112805257D01*
X114476523Y-112031447D02*
X114476523Y-111079066D01*
X114357476Y-110126685D02*
X114357476Y-110840971D01*
X114357476Y-110483828D02*
X113107476Y-110483828D01*
X113286047Y-110602876D01*
X113405095Y-110721923D01*
X113464619Y-110840971D01*
D12*
X138118571Y-112177142D02*
X139261428Y-112177142D01*
X138690000Y-112748571D02*
X138690000Y-111605714D01*
D11*
X94951876Y-120527180D02*
X93701876Y-120527180D01*
X93701876Y-119693847D02*
X93701876Y-119455752D01*
X93761400Y-119336704D01*
X93880447Y-119217657D01*
X94118542Y-119158133D01*
X94535209Y-119158133D01*
X94773304Y-119217657D01*
X94892352Y-119336704D01*
X94951876Y-119455752D01*
X94951876Y-119693847D01*
X94892352Y-119812895D01*
X94773304Y-119931942D01*
X94535209Y-119991466D01*
X94118542Y-119991466D01*
X93880447Y-119931942D01*
X93761400Y-119812895D01*
X93701876Y-119693847D01*
X95070923Y-118920038D02*
X95070923Y-117967657D01*
X93701876Y-117789085D02*
X93701876Y-117015276D01*
X94178066Y-117431942D01*
X94178066Y-117253371D01*
X94237590Y-117134323D01*
X94297114Y-117074800D01*
X94416161Y-117015276D01*
X94713780Y-117015276D01*
X94832828Y-117074800D01*
X94892352Y-117134323D01*
X94951876Y-117253371D01*
X94951876Y-117610514D01*
X94892352Y-117729561D01*
X94832828Y-117789085D01*
X147844380Y-135795076D02*
X147844380Y-134545076D01*
X148142000Y-134545076D01*
X148320571Y-134604600D01*
X148439619Y-134723647D01*
X148499142Y-134842695D01*
X148558666Y-135080790D01*
X148558666Y-135259361D01*
X148499142Y-135497457D01*
X148439619Y-135616504D01*
X148320571Y-135735552D01*
X148142000Y-135795076D01*
X147844380Y-135795076D01*
X149808666Y-135795076D02*
X149392000Y-135199838D01*
X149094380Y-135795076D02*
X149094380Y-134545076D01*
X149570571Y-134545076D01*
X149689619Y-134604600D01*
X149749142Y-134664123D01*
X149808666Y-134783171D01*
X149808666Y-134961742D01*
X149749142Y-135080790D01*
X149689619Y-135140314D01*
X149570571Y-135199838D01*
X149094380Y-135199838D01*
X150344380Y-135795076D02*
X150344380Y-134545076D01*
X150761047Y-134545076D02*
X151177714Y-135795076D01*
X151594380Y-134545076D01*
X152011047Y-135140314D02*
X152427714Y-135140314D01*
X152606285Y-135795076D02*
X152011047Y-135795076D01*
X152011047Y-134545076D01*
X152606285Y-134545076D01*
X153856285Y-135795076D02*
X153439619Y-135199838D01*
X153142000Y-135795076D02*
X153142000Y-134545076D01*
X153618190Y-134545076D01*
X153737238Y-134604600D01*
X153796761Y-134664123D01*
X153856285Y-134783171D01*
X153856285Y-134961742D01*
X153796761Y-135080790D01*
X153737238Y-135140314D01*
X153618190Y-135199838D01*
X153142000Y-135199838D01*
X154094380Y-135914123D02*
X155046761Y-135914123D01*
X155582476Y-134545076D02*
X155701523Y-134545076D01*
X155820571Y-134604600D01*
X155880095Y-134664123D01*
X155939619Y-134783171D01*
X155999142Y-135021266D01*
X155999142Y-135318885D01*
X155939619Y-135556980D01*
X155880095Y-135676028D01*
X155820571Y-135735552D01*
X155701523Y-135795076D01*
X155582476Y-135795076D01*
X155463428Y-135735552D01*
X155403904Y-135676028D01*
X155344380Y-135556980D01*
X155284857Y-135318885D01*
X155284857Y-135021266D01*
X155344380Y-134783171D01*
X155403904Y-134664123D01*
X155463428Y-134604600D01*
X155582476Y-134545076D01*
X135449180Y-135744276D02*
X135449180Y-134494276D01*
X135746800Y-134494276D01*
X135925371Y-134553800D01*
X136044419Y-134672847D01*
X136103942Y-134791895D01*
X136163466Y-135029990D01*
X136163466Y-135208561D01*
X136103942Y-135446657D01*
X136044419Y-135565704D01*
X135925371Y-135684752D01*
X135746800Y-135744276D01*
X135449180Y-135744276D01*
X137413466Y-135744276D02*
X136996800Y-135149038D01*
X136699180Y-135744276D02*
X136699180Y-134494276D01*
X137175371Y-134494276D01*
X137294419Y-134553800D01*
X137353942Y-134613323D01*
X137413466Y-134732371D01*
X137413466Y-134910942D01*
X137353942Y-135029990D01*
X137294419Y-135089514D01*
X137175371Y-135149038D01*
X136699180Y-135149038D01*
X137949180Y-135744276D02*
X137949180Y-134494276D01*
X138365847Y-134494276D02*
X138782514Y-135744276D01*
X139199180Y-134494276D01*
X139615847Y-135089514D02*
X140032514Y-135089514D01*
X140211085Y-135744276D02*
X139615847Y-135744276D01*
X139615847Y-134494276D01*
X140211085Y-134494276D01*
X141461085Y-135744276D02*
X141044419Y-135149038D01*
X140746800Y-135744276D02*
X140746800Y-134494276D01*
X141222990Y-134494276D01*
X141342038Y-134553800D01*
X141401561Y-134613323D01*
X141461085Y-134732371D01*
X141461085Y-134910942D01*
X141401561Y-135029990D01*
X141342038Y-135089514D01*
X141222990Y-135149038D01*
X140746800Y-135149038D01*
X141699180Y-135863323D02*
X142651561Y-135863323D01*
X143603942Y-135744276D02*
X142889657Y-135744276D01*
X143246800Y-135744276D02*
X143246800Y-134494276D01*
X143127752Y-134672847D01*
X143008704Y-134791895D01*
X142889657Y-134851419D01*
X114357476Y-119937790D02*
X113107476Y-119937790D01*
X113107476Y-119104457D02*
X113107476Y-118866361D01*
X113167000Y-118747314D01*
X113286047Y-118628266D01*
X113524142Y-118568742D01*
X113940809Y-118568742D01*
X114178904Y-118628266D01*
X114297952Y-118747314D01*
X114357476Y-118866361D01*
X114357476Y-119104457D01*
X114297952Y-119223504D01*
X114178904Y-119342552D01*
X113940809Y-119402076D01*
X113524142Y-119402076D01*
X113286047Y-119342552D01*
X113167000Y-119223504D01*
X113107476Y-119104457D01*
X114476523Y-118330647D02*
X114476523Y-117378266D01*
X113107476Y-116842552D02*
X113107476Y-116723504D01*
X113167000Y-116604457D01*
X113226523Y-116544933D01*
X113345571Y-116485409D01*
X113583666Y-116425885D01*
X113881285Y-116425885D01*
X114119380Y-116485409D01*
X114238428Y-116544933D01*
X114297952Y-116604457D01*
X114357476Y-116723504D01*
X114357476Y-116842552D01*
X114297952Y-116961600D01*
X114238428Y-117021123D01*
X114119380Y-117080647D01*
X113881285Y-117140171D01*
X113583666Y-117140171D01*
X113345571Y-117080647D01*
X113226523Y-117021123D01*
X113167000Y-116961600D01*
X113107476Y-116842552D01*
D10*
X84702857Y-113337142D02*
X84755238Y-113389523D01*
X84807619Y-113546666D01*
X84807619Y-113651428D01*
X84755238Y-113808571D01*
X84650476Y-113913333D01*
X84545714Y-113965714D01*
X84336190Y-114018095D01*
X84179047Y-114018095D01*
X83969523Y-113965714D01*
X83864761Y-113913333D01*
X83760000Y-113808571D01*
X83707619Y-113651428D01*
X83707619Y-113546666D01*
X83760000Y-113389523D01*
X83812380Y-113337142D01*
X84493333Y-112918095D02*
X84493333Y-112394285D01*
X84807619Y-113022857D02*
X83707619Y-112656190D01*
X84807619Y-112289523D01*
X84807619Y-111922857D02*
X83707619Y-111922857D01*
X84807619Y-111294285D01*
X83707619Y-111294285D01*
X159710428Y-112283714D02*
X159710428Y-111521809D01*
X160091380Y-111902761D02*
X159329476Y-111902761D01*
X159091380Y-110569428D02*
X159091380Y-111045619D01*
X159567571Y-111093238D01*
X159519952Y-111045619D01*
X159472333Y-110950380D01*
X159472333Y-110712285D01*
X159519952Y-110617047D01*
X159567571Y-110569428D01*
X159662809Y-110521809D01*
X159900904Y-110521809D01*
X159996142Y-110569428D01*
X160043761Y-110617047D01*
X160091380Y-110712285D01*
X160091380Y-110950380D01*
X160043761Y-111045619D01*
X159996142Y-111093238D01*
X159091380Y-110236095D02*
X160091380Y-109902761D01*
X159091380Y-109569428D01*
D12*
X140389714Y-116685142D02*
X140308761Y-116766095D01*
X140065904Y-116847047D01*
X139904000Y-116847047D01*
X139661142Y-116766095D01*
X139499238Y-116604190D01*
X139418285Y-116442285D01*
X139337333Y-116118476D01*
X139337333Y-115875619D01*
X139418285Y-115551809D01*
X139499238Y-115389904D01*
X139661142Y-115228000D01*
X139904000Y-115147047D01*
X140065904Y-115147047D01*
X140308761Y-115228000D01*
X140389714Y-115308952D01*
X141037333Y-116361333D02*
X141846857Y-116361333D01*
X140875428Y-116847047D02*
X141442095Y-115147047D01*
X142008761Y-116847047D01*
X142575428Y-116847047D02*
X142575428Y-115147047D01*
X143546857Y-116847047D01*
X143546857Y-115147047D01*
X144356380Y-116847047D02*
X144356380Y-115147047D01*
X145327809Y-116847047D01*
X145327809Y-115147047D01*
X146137333Y-115956571D02*
X146704000Y-115956571D01*
X146946857Y-116847047D02*
X146137333Y-116847047D01*
X146137333Y-115147047D01*
X146946857Y-115147047D01*
X147675428Y-116847047D02*
X147675428Y-115147047D01*
X148080190Y-115147047D01*
X148323047Y-115228000D01*
X148484952Y-115389904D01*
X148565904Y-115551809D01*
X148646857Y-115875619D01*
X148646857Y-116118476D01*
X148565904Y-116442285D01*
X148484952Y-116604190D01*
X148323047Y-116766095D01*
X148080190Y-116847047D01*
X147675428Y-116847047D01*
X150670666Y-115956571D02*
X151237333Y-115956571D01*
X151480190Y-116847047D02*
X150670666Y-116847047D01*
X150670666Y-115147047D01*
X151480190Y-115147047D01*
X153180190Y-116847047D02*
X152613523Y-116037523D01*
X152208761Y-116847047D02*
X152208761Y-115147047D01*
X152856380Y-115147047D01*
X153018285Y-115228000D01*
X153099238Y-115308952D01*
X153180190Y-115470857D01*
X153180190Y-115713714D01*
X153099238Y-115875619D01*
X153018285Y-115956571D01*
X152856380Y-116037523D01*
X152208761Y-116037523D01*
X154880190Y-116685142D02*
X154799238Y-116766095D01*
X154556380Y-116847047D01*
X154394476Y-116847047D01*
X154151619Y-116766095D01*
X153989714Y-116604190D01*
X153908761Y-116442285D01*
X153827809Y-116118476D01*
X153827809Y-115875619D01*
X153908761Y-115551809D01*
X153989714Y-115389904D01*
X154151619Y-115228000D01*
X154394476Y-115147047D01*
X154556380Y-115147047D01*
X154799238Y-115228000D01*
X154880190Y-115308952D01*
X156175428Y-115956571D02*
X155608761Y-115956571D01*
X155608761Y-116847047D02*
X155608761Y-115147047D01*
X156418285Y-115147047D01*
X158927809Y-115956571D02*
X159170666Y-116037523D01*
X159251619Y-116118476D01*
X159332571Y-116280380D01*
X159332571Y-116523238D01*
X159251619Y-116685142D01*
X159170666Y-116766095D01*
X159008761Y-116847047D01*
X158361142Y-116847047D01*
X158361142Y-115147047D01*
X158927809Y-115147047D01*
X159089714Y-115228000D01*
X159170666Y-115308952D01*
X159251619Y-115470857D01*
X159251619Y-115632761D01*
X159170666Y-115794666D01*
X159089714Y-115875619D01*
X158927809Y-115956571D01*
X158361142Y-115956571D01*
X160384952Y-115147047D02*
X160708761Y-115147047D01*
X160870666Y-115228000D01*
X161032571Y-115389904D01*
X161113523Y-115713714D01*
X161113523Y-116280380D01*
X161032571Y-116604190D01*
X160870666Y-116766095D01*
X160708761Y-116847047D01*
X160384952Y-116847047D01*
X160223047Y-116766095D01*
X160061142Y-116604190D01*
X159980190Y-116280380D01*
X159980190Y-115713714D01*
X160061142Y-115389904D01*
X160223047Y-115228000D01*
X160384952Y-115147047D01*
X161761142Y-116361333D02*
X162570666Y-116361333D01*
X161599238Y-116847047D02*
X162165904Y-115147047D01*
X162732571Y-116847047D01*
X164270666Y-116847047D02*
X163704000Y-116037523D01*
X163299238Y-116847047D02*
X163299238Y-115147047D01*
X163946857Y-115147047D01*
X164108761Y-115228000D01*
X164189714Y-115308952D01*
X164270666Y-115470857D01*
X164270666Y-115713714D01*
X164189714Y-115875619D01*
X164108761Y-115956571D01*
X163946857Y-116037523D01*
X163299238Y-116037523D01*
X164999238Y-116847047D02*
X164999238Y-115147047D01*
X165404000Y-115147047D01*
X165646857Y-115228000D01*
X165808761Y-115389904D01*
X165889714Y-115551809D01*
X165970666Y-115875619D01*
X165970666Y-116118476D01*
X165889714Y-116442285D01*
X165808761Y-116604190D01*
X165646857Y-116766095D01*
X165404000Y-116847047D01*
X164999238Y-116847047D01*
D11*
X118856857Y-128634057D02*
X118214000Y-128634057D01*
X118085428Y-128591200D01*
X117999714Y-128505485D01*
X117956857Y-128376914D01*
X117956857Y-128291200D01*
X117956857Y-129491200D02*
X117956857Y-129062628D01*
X118856857Y-129062628D01*
X118042571Y-130305485D02*
X117999714Y-130262628D01*
X117956857Y-130134057D01*
X117956857Y-130048342D01*
X117999714Y-129919771D01*
X118085428Y-129834057D01*
X118171142Y-129791200D01*
X118342571Y-129748342D01*
X118471142Y-129748342D01*
X118642571Y-129791200D01*
X118728285Y-129834057D01*
X118814000Y-129919771D01*
X118856857Y-130048342D01*
X118856857Y-130134057D01*
X118814000Y-130262628D01*
X118771142Y-130305485D01*
X118856857Y-130948342D02*
X118214000Y-130948342D01*
X118085428Y-130905485D01*
X117999714Y-130819771D01*
X117956857Y-130691200D01*
X117956857Y-130605485D01*
X117956857Y-131805485D02*
X117956857Y-131376914D01*
X118856857Y-131376914D01*
X118042571Y-132619771D02*
X117999714Y-132576914D01*
X117956857Y-132448342D01*
X117956857Y-132362628D01*
X117999714Y-132234057D01*
X118085428Y-132148342D01*
X118171142Y-132105485D01*
X118342571Y-132062628D01*
X118471142Y-132062628D01*
X118642571Y-132105485D01*
X118728285Y-132148342D01*
X118814000Y-132234057D01*
X118856857Y-132362628D01*
X118856857Y-132448342D01*
X118814000Y-132576914D01*
X118771142Y-132619771D01*
X118856857Y-133262628D02*
X118214000Y-133262628D01*
X118085428Y-133219771D01*
X117999714Y-133134057D01*
X117956857Y-133005485D01*
X117956857Y-132919771D01*
X117956857Y-134119771D02*
X117956857Y-133691200D01*
X118856857Y-133691200D01*
X118042571Y-134934057D02*
X117999714Y-134891200D01*
X117956857Y-134762628D01*
X117956857Y-134676914D01*
X117999714Y-134548342D01*
X118085428Y-134462628D01*
X118171142Y-134419771D01*
X118342571Y-134376914D01*
X118471142Y-134376914D01*
X118642571Y-134419771D01*
X118728285Y-134462628D01*
X118814000Y-134548342D01*
X118856857Y-134676914D01*
X118856857Y-134762628D01*
X118814000Y-134891200D01*
X118771142Y-134934057D01*
X118856857Y-135576914D02*
X118214000Y-135576914D01*
X118085428Y-135534057D01*
X117999714Y-135448342D01*
X117956857Y-135319771D01*
X117956857Y-135234057D01*
X117956857Y-136434057D02*
X117956857Y-136005485D01*
X118856857Y-136005485D01*
X118042571Y-137248342D02*
X117999714Y-137205485D01*
X117956857Y-137076914D01*
X117956857Y-136991200D01*
X117999714Y-136862628D01*
X118085428Y-136776914D01*
X118171142Y-136734057D01*
X118342571Y-136691200D01*
X118471142Y-136691200D01*
X118642571Y-136734057D01*
X118728285Y-136776914D01*
X118814000Y-136862628D01*
X118856857Y-136991200D01*
X118856857Y-137076914D01*
X118814000Y-137205485D01*
X118771142Y-137248342D01*
D10*
X152741380Y-111585238D02*
X153741380Y-111251904D01*
X152741380Y-110918571D01*
X153741380Y-110585238D02*
X152741380Y-110585238D01*
X153741380Y-110109047D02*
X152741380Y-110109047D01*
X153741380Y-109537619D01*
X152741380Y-109537619D01*
X156408428Y-113013904D02*
X156408428Y-112252000D01*
X156789380Y-112632952D02*
X156027476Y-112632952D01*
X155789380Y-111871047D02*
X155789380Y-111252000D01*
X156170333Y-111585333D01*
X156170333Y-111442476D01*
X156217952Y-111347238D01*
X156265571Y-111299619D01*
X156360809Y-111252000D01*
X156598904Y-111252000D01*
X156694142Y-111299619D01*
X156741761Y-111347238D01*
X156789380Y-111442476D01*
X156789380Y-111728190D01*
X156741761Y-111823428D01*
X156694142Y-111871047D01*
X155789380Y-110966285D02*
X156789380Y-110632952D01*
X155789380Y-110299619D01*
X155789380Y-110061523D02*
X155789380Y-109442476D01*
X156170333Y-109775809D01*
X156170333Y-109632952D01*
X156217952Y-109537714D01*
X156265571Y-109490095D01*
X156360809Y-109442476D01*
X156598904Y-109442476D01*
X156694142Y-109490095D01*
X156741761Y-109537714D01*
X156789380Y-109632952D01*
X156789380Y-109918666D01*
X156741761Y-110013904D01*
X156694142Y-110061523D01*
D11*
X95053476Y-113567580D02*
X93803476Y-113567580D01*
X93803476Y-112734247D02*
X93803476Y-112496152D01*
X93863000Y-112377104D01*
X93982047Y-112258057D01*
X94220142Y-112198533D01*
X94636809Y-112198533D01*
X94874904Y-112258057D01*
X94993952Y-112377104D01*
X95053476Y-112496152D01*
X95053476Y-112734247D01*
X94993952Y-112853295D01*
X94874904Y-112972342D01*
X94636809Y-113031866D01*
X94220142Y-113031866D01*
X93982047Y-112972342D01*
X93863000Y-112853295D01*
X93803476Y-112734247D01*
X95172523Y-111960438D02*
X95172523Y-111008057D01*
X93922523Y-110769961D02*
X93863000Y-110710438D01*
X93803476Y-110591390D01*
X93803476Y-110293771D01*
X93863000Y-110174723D01*
X93922523Y-110115200D01*
X94041571Y-110055676D01*
X94160619Y-110055676D01*
X94339190Y-110115200D01*
X95053476Y-110829485D01*
X95053476Y-110055676D01*
D10*
X158735733Y-126595142D02*
X158688114Y-126642761D01*
X158545257Y-126690380D01*
X158450019Y-126690380D01*
X158307161Y-126642761D01*
X158211923Y-126547523D01*
X158164304Y-126452285D01*
X158116685Y-126261809D01*
X158116685Y-126118952D01*
X158164304Y-125928476D01*
X158211923Y-125833238D01*
X158307161Y-125738000D01*
X158450019Y-125690380D01*
X158545257Y-125690380D01*
X158688114Y-125738000D01*
X158735733Y-125785619D01*
X159069066Y-125690380D02*
X159735733Y-125690380D01*
X159307161Y-126690380D01*
X78336666Y-139944285D02*
X78336666Y-139468095D01*
X78622380Y-140039523D02*
X77622380Y-139706190D01*
X78622380Y-139372857D01*
X78622380Y-138515714D02*
X78622380Y-139087142D01*
X78622380Y-138801428D02*
X77622380Y-138801428D01*
X77765238Y-138896666D01*
X77860476Y-138991904D01*
X77908095Y-139087142D01*
D12*
X97429180Y-133956323D02*
X97714895Y-134051561D01*
X98191085Y-134051561D01*
X98381561Y-133956323D01*
X98476800Y-133861085D01*
X98572038Y-133670609D01*
X98572038Y-133480133D01*
X98476800Y-133289657D01*
X98381561Y-133194419D01*
X98191085Y-133099180D01*
X97810133Y-133003942D01*
X97619657Y-132908704D01*
X97524419Y-132813466D01*
X97429180Y-132622990D01*
X97429180Y-132432514D01*
X97524419Y-132242038D01*
X97619657Y-132146800D01*
X97810133Y-132051561D01*
X98286323Y-132051561D01*
X98572038Y-132146800D01*
X100286323Y-134051561D02*
X100286323Y-133003942D01*
X100191085Y-132813466D01*
X100000609Y-132718228D01*
X99619657Y-132718228D01*
X99429180Y-132813466D01*
X100286323Y-133956323D02*
X100095847Y-134051561D01*
X99619657Y-134051561D01*
X99429180Y-133956323D01*
X99333942Y-133765847D01*
X99333942Y-133575371D01*
X99429180Y-133384895D01*
X99619657Y-133289657D01*
X100095847Y-133289657D01*
X100286323Y-133194419D01*
X101238704Y-134051561D02*
X101238704Y-132718228D01*
X101238704Y-132908704D02*
X101333942Y-132813466D01*
X101524419Y-132718228D01*
X101810133Y-132718228D01*
X102000609Y-132813466D01*
X102095847Y-133003942D01*
X102095847Y-134051561D01*
X102095847Y-133003942D02*
X102191085Y-132813466D01*
X102381561Y-132718228D01*
X102667276Y-132718228D01*
X102857752Y-132813466D01*
X102952990Y-133003942D01*
X102952990Y-134051561D01*
X103905371Y-134051561D02*
X103905371Y-132718228D01*
X103905371Y-132908704D02*
X104000609Y-132813466D01*
X104191085Y-132718228D01*
X104476800Y-132718228D01*
X104667276Y-132813466D01*
X104762514Y-133003942D01*
X104762514Y-134051561D01*
X104762514Y-133003942D02*
X104857752Y-132813466D01*
X105048228Y-132718228D01*
X105333942Y-132718228D01*
X105524419Y-132813466D01*
X105619657Y-133003942D01*
X105619657Y-134051561D01*
X106381561Y-132718228D02*
X106857752Y-134051561D01*
X107333942Y-132718228D02*
X106857752Y-134051561D01*
X106667276Y-134527752D01*
X106572038Y-134622990D01*
X106381561Y-134718228D01*
X108095847Y-133289657D02*
X109619657Y-133289657D01*
X111714895Y-133861085D02*
X111619657Y-133956323D01*
X111333942Y-134051561D01*
X111143466Y-134051561D01*
X110857752Y-133956323D01*
X110667276Y-133765847D01*
X110572038Y-133575371D01*
X110476800Y-133194419D01*
X110476800Y-132908704D01*
X110572038Y-132527752D01*
X110667276Y-132337276D01*
X110857752Y-132146800D01*
X111143466Y-132051561D01*
X111333942Y-132051561D01*
X111619657Y-132146800D01*
X111714895Y-132242038D01*
X112476800Y-132242038D02*
X112572038Y-132146800D01*
X112762514Y-132051561D01*
X113238704Y-132051561D01*
X113429180Y-132146800D01*
X113524419Y-132242038D01*
X113619657Y-132432514D01*
X113619657Y-132622990D01*
X113524419Y-132908704D01*
X112381561Y-134051561D01*
X113619657Y-134051561D01*
X115524419Y-134051561D02*
X114381561Y-134051561D01*
X114952990Y-134051561D02*
X114952990Y-132051561D01*
X114762514Y-132337276D01*
X114572038Y-132527752D01*
X114381561Y-132622990D01*
D10*
X82216666Y-108469180D02*
X82216666Y-109183466D01*
X82169047Y-109326323D01*
X82073809Y-109421561D01*
X81930952Y-109469180D01*
X81835714Y-109469180D01*
X83216666Y-109469180D02*
X82645238Y-109469180D01*
X82930952Y-109469180D02*
X82930952Y-108469180D01*
X82835714Y-108612038D01*
X82740476Y-108707276D01*
X82645238Y-108754895D01*
X77576666Y-123202380D02*
X77576666Y-123916666D01*
X77529047Y-124059523D01*
X77433809Y-124154761D01*
X77290952Y-124202380D01*
X77195714Y-124202380D01*
X78100476Y-124202380D02*
X78290952Y-124202380D01*
X78386190Y-124154761D01*
X78433809Y-124107142D01*
X78529047Y-123964285D01*
X78576666Y-123773809D01*
X78576666Y-123392857D01*
X78529047Y-123297619D01*
X78481428Y-123250000D01*
X78386190Y-123202380D01*
X78195714Y-123202380D01*
X78100476Y-123250000D01*
X78052857Y-123297619D01*
X78005238Y-123392857D01*
X78005238Y-123630952D01*
X78052857Y-123726190D01*
X78100476Y-123773809D01*
X78195714Y-123821428D01*
X78386190Y-123821428D01*
X78481428Y-123773809D01*
X78529047Y-123726190D01*
X78576666Y-123630952D01*
X124968095Y-133615180D02*
X124968095Y-134424704D01*
X125015714Y-134519942D01*
X125063333Y-134567561D01*
X125158571Y-134615180D01*
X125349047Y-134615180D01*
X125444285Y-134567561D01*
X125491904Y-134519942D01*
X125539523Y-134424704D01*
X125539523Y-133615180D01*
X125920476Y-133615180D02*
X126539523Y-133615180D01*
X126206190Y-133996133D01*
X126349047Y-133996133D01*
X126444285Y-134043752D01*
X126491904Y-134091371D01*
X126539523Y-134186609D01*
X126539523Y-134424704D01*
X126491904Y-134519942D01*
X126444285Y-134567561D01*
X126349047Y-134615180D01*
X126063333Y-134615180D01*
X125968095Y-134567561D01*
X125920476Y-134519942D01*
X164338095Y-133716780D02*
X164338095Y-134526304D01*
X164385714Y-134621542D01*
X164433333Y-134669161D01*
X164528571Y-134716780D01*
X164719047Y-134716780D01*
X164814285Y-134669161D01*
X164861904Y-134621542D01*
X164909523Y-134526304D01*
X164909523Y-133716780D01*
X165338095Y-133812019D02*
X165385714Y-133764400D01*
X165480952Y-133716780D01*
X165719047Y-133716780D01*
X165814285Y-133764400D01*
X165861904Y-133812019D01*
X165909523Y-133907257D01*
X165909523Y-134002495D01*
X165861904Y-134145352D01*
X165290476Y-134716780D01*
X165909523Y-134716780D01*
X140946142Y-113247466D02*
X140993761Y-113295085D01*
X141041380Y-113437942D01*
X141041380Y-113533180D01*
X140993761Y-113676038D01*
X140898523Y-113771276D01*
X140803285Y-113818895D01*
X140612809Y-113866514D01*
X140469952Y-113866514D01*
X140279476Y-113818895D01*
X140184238Y-113771276D01*
X140089000Y-113676038D01*
X140041380Y-113533180D01*
X140041380Y-113437942D01*
X140089000Y-113295085D01*
X140136619Y-113247466D01*
X141041380Y-112295085D02*
X141041380Y-112866514D01*
X141041380Y-112580800D02*
X140041380Y-112580800D01*
X140184238Y-112676038D01*
X140279476Y-112771276D01*
X140327095Y-112866514D01*
X93900666Y-121524780D02*
X93900666Y-122239066D01*
X93853047Y-122381923D01*
X93757809Y-122477161D01*
X93614952Y-122524780D01*
X93519714Y-122524780D01*
X94281619Y-121524780D02*
X94900666Y-121524780D01*
X94567333Y-121905733D01*
X94710190Y-121905733D01*
X94805428Y-121953352D01*
X94853047Y-122000971D01*
X94900666Y-122096209D01*
X94900666Y-122334304D01*
X94853047Y-122429542D01*
X94805428Y-122477161D01*
X94710190Y-122524780D01*
X94424476Y-122524780D01*
X94329238Y-122477161D01*
X94281619Y-122429542D01*
X93849866Y-108367580D02*
X93849866Y-109081866D01*
X93802247Y-109224723D01*
X93707009Y-109319961D01*
X93564152Y-109367580D01*
X93468914Y-109367580D01*
X94754628Y-108700914D02*
X94754628Y-109367580D01*
X94516533Y-108319961D02*
X94278438Y-109034247D01*
X94897485Y-109034247D01*
X138553866Y-113599980D02*
X138553866Y-114314266D01*
X138506247Y-114457123D01*
X138411009Y-114552361D01*
X138268152Y-114599980D01*
X138172914Y-114599980D01*
X139458628Y-113599980D02*
X139268152Y-113599980D01*
X139172914Y-113647600D01*
X139125295Y-113695219D01*
X139030057Y-113838076D01*
X138982438Y-114028552D01*
X138982438Y-114409504D01*
X139030057Y-114504742D01*
X139077676Y-114552361D01*
X139172914Y-114599980D01*
X139363390Y-114599980D01*
X139458628Y-114552361D01*
X139506247Y-114504742D01*
X139553866Y-114409504D01*
X139553866Y-114171409D01*
X139506247Y-114076171D01*
X139458628Y-114028552D01*
X139363390Y-113980933D01*
X139172914Y-113980933D01*
X139077676Y-114028552D01*
X139030057Y-114076171D01*
X138982438Y-114171409D01*
X157694380Y-139906333D02*
X158408666Y-139906333D01*
X158551523Y-139953952D01*
X158646761Y-140049190D01*
X158694380Y-140192047D01*
X158694380Y-140287285D01*
X157694380Y-139525380D02*
X157694380Y-138858714D01*
X158694380Y-139287285D01*
X132294380Y-140033333D02*
X133008666Y-140033333D01*
X133151523Y-140080952D01*
X133246761Y-140176190D01*
X133294380Y-140319047D01*
X133294380Y-140414285D01*
X132722952Y-139414285D02*
X132675333Y-139509523D01*
X132627714Y-139557142D01*
X132532476Y-139604761D01*
X132484857Y-139604761D01*
X132389619Y-139557142D01*
X132342000Y-139509523D01*
X132294380Y-139414285D01*
X132294380Y-139223809D01*
X132342000Y-139128571D01*
X132389619Y-139080952D01*
X132484857Y-139033333D01*
X132532476Y-139033333D01*
X132627714Y-139080952D01*
X132675333Y-139128571D01*
X132722952Y-139223809D01*
X132722952Y-139414285D01*
X132770571Y-139509523D01*
X132818190Y-139557142D01*
X132913428Y-139604761D01*
X133103904Y-139604761D01*
X133199142Y-139557142D01*
X133246761Y-139509523D01*
X133294380Y-139414285D01*
X133294380Y-139223809D01*
X133246761Y-139128571D01*
X133199142Y-139080952D01*
X133103904Y-139033333D01*
X132913428Y-139033333D01*
X132818190Y-139080952D01*
X132770571Y-139128571D01*
X132722952Y-139223809D01*
X95499180Y-130570266D02*
X95022990Y-130903600D01*
X95499180Y-131141695D02*
X94499180Y-131141695D01*
X94499180Y-130760742D01*
X94546800Y-130665504D01*
X94594419Y-130617885D01*
X94689657Y-130570266D01*
X94832514Y-130570266D01*
X94927752Y-130617885D01*
X94975371Y-130665504D01*
X95022990Y-130760742D01*
X95022990Y-131141695D01*
X95499180Y-129617885D02*
X95499180Y-130189314D01*
X95499180Y-129903600D02*
X94499180Y-129903600D01*
X94642038Y-129998838D01*
X94737276Y-130094076D01*
X94784895Y-130189314D01*
X142819380Y-113247466D02*
X142343190Y-113580800D01*
X142819380Y-113818895D02*
X141819380Y-113818895D01*
X141819380Y-113437942D01*
X141867000Y-113342704D01*
X141914619Y-113295085D01*
X142009857Y-113247466D01*
X142152714Y-113247466D01*
X142247952Y-113295085D01*
X142295571Y-113342704D01*
X142343190Y-113437942D01*
X142343190Y-113818895D01*
X141914619Y-112866514D02*
X141867000Y-112818895D01*
X141819380Y-112723657D01*
X141819380Y-112485561D01*
X141867000Y-112390323D01*
X141914619Y-112342704D01*
X142009857Y-112295085D01*
X142105095Y-112295085D01*
X142247952Y-112342704D01*
X142819380Y-112914133D01*
X142819380Y-112295085D01*
X144571980Y-113247466D02*
X144095790Y-113580800D01*
X144571980Y-113818895D02*
X143571980Y-113818895D01*
X143571980Y-113437942D01*
X143619600Y-113342704D01*
X143667219Y-113295085D01*
X143762457Y-113247466D01*
X143905314Y-113247466D01*
X144000552Y-113295085D01*
X144048171Y-113342704D01*
X144095790Y-113437942D01*
X144095790Y-113818895D01*
X143571980Y-112914133D02*
X143571980Y-112295085D01*
X143952933Y-112628419D01*
X143952933Y-112485561D01*
X144000552Y-112390323D01*
X144048171Y-112342704D01*
X144143409Y-112295085D01*
X144381504Y-112295085D01*
X144476742Y-112342704D01*
X144524361Y-112390323D01*
X144571980Y-112485561D01*
X144571980Y-112771276D01*
X144524361Y-112866514D01*
X144476742Y-112914133D01*
X86921580Y-116476808D02*
X86445390Y-116810142D01*
X86921580Y-117048237D02*
X85921580Y-117048237D01*
X85921580Y-116667284D01*
X85969200Y-116572046D01*
X86016819Y-116524427D01*
X86112057Y-116476808D01*
X86254914Y-116476808D01*
X86350152Y-116524427D01*
X86397771Y-116572046D01*
X86445390Y-116667284D01*
X86445390Y-117048237D01*
X86254914Y-115619665D02*
X86921580Y-115619665D01*
X85873961Y-115857761D02*
X86588247Y-116095856D01*
X86588247Y-115476808D01*
X121564495Y-120635780D02*
X121564495Y-121445304D01*
X121612114Y-121540542D01*
X121659733Y-121588161D01*
X121754971Y-121635780D01*
X121945447Y-121635780D01*
X122040685Y-121588161D01*
X122088304Y-121540542D01*
X122135923Y-121445304D01*
X122135923Y-120635780D01*
X123135923Y-121635780D02*
X122564495Y-121635780D01*
X122850209Y-121635780D02*
X122850209Y-120635780D01*
X122754971Y-120778638D01*
X122659733Y-120873876D01*
X122564495Y-120921495D01*
X118745180Y-117334914D02*
X118745180Y-117811104D01*
X117745180Y-117811104D01*
X118745180Y-117001580D02*
X117745180Y-117001580D01*
X118459466Y-116668247D01*
X117745180Y-116334914D01*
X118745180Y-116334914D01*
X118745180Y-115858723D02*
X117745180Y-115858723D01*
X117745180Y-115477771D01*
X117792800Y-115382533D01*
X117840419Y-115334914D01*
X117935657Y-115287295D01*
X118078514Y-115287295D01*
X118173752Y-115334914D01*
X118221371Y-115382533D01*
X118268990Y-115477771D01*
X118268990Y-115858723D01*
X117745180Y-114953961D02*
X117745180Y-114287295D01*
X118745180Y-114715866D01*
X118173752Y-113763485D02*
X118126133Y-113858723D01*
X118078514Y-113906342D01*
X117983276Y-113953961D01*
X117935657Y-113953961D01*
X117840419Y-113906342D01*
X117792800Y-113858723D01*
X117745180Y-113763485D01*
X117745180Y-113573009D01*
X117792800Y-113477771D01*
X117840419Y-113430152D01*
X117935657Y-113382533D01*
X117983276Y-113382533D01*
X118078514Y-113430152D01*
X118126133Y-113477771D01*
X118173752Y-113573009D01*
X118173752Y-113763485D01*
X118221371Y-113858723D01*
X118268990Y-113906342D01*
X118364228Y-113953961D01*
X118554704Y-113953961D01*
X118649942Y-113906342D01*
X118697561Y-113858723D01*
X118745180Y-113763485D01*
X118745180Y-113573009D01*
X118697561Y-113477771D01*
X118649942Y-113430152D01*
X118554704Y-113382533D01*
X118364228Y-113382533D01*
X118268990Y-113430152D01*
X118221371Y-113477771D01*
X118173752Y-113573009D01*
X118840419Y-113192057D02*
X118840419Y-112430152D01*
X118745180Y-111668247D02*
X118745180Y-112239676D01*
X118745180Y-111953961D02*
X117745180Y-111953961D01*
X117888038Y-112049200D01*
X117983276Y-112144438D01*
X118030895Y-112239676D01*
X118649942Y-111239676D02*
X118697561Y-111192057D01*
X118745180Y-111239676D01*
X118697561Y-111287295D01*
X118649942Y-111239676D01*
X118745180Y-111239676D01*
X117745180Y-110287295D02*
X117745180Y-110763485D01*
X118221371Y-110811104D01*
X118173752Y-110763485D01*
X118126133Y-110668247D01*
X118126133Y-110430152D01*
X118173752Y-110334914D01*
X118221371Y-110287295D01*
X118316609Y-110239676D01*
X118554704Y-110239676D01*
X118649942Y-110287295D01*
X118697561Y-110334914D01*
X118745180Y-110430152D01*
X118745180Y-110668247D01*
X118697561Y-110763485D01*
X118649942Y-110811104D01*
X113357066Y-121423180D02*
X113357066Y-122137466D01*
X113309447Y-122280323D01*
X113214209Y-122375561D01*
X113071352Y-122423180D01*
X112976114Y-122423180D01*
X113785638Y-121518419D02*
X113833257Y-121470800D01*
X113928495Y-121423180D01*
X114166590Y-121423180D01*
X114261828Y-121470800D01*
X114309447Y-121518419D01*
X114357066Y-121613657D01*
X114357066Y-121708895D01*
X114309447Y-121851752D01*
X113738019Y-122423180D01*
X114357066Y-122423180D01*
X126899942Y-114263466D02*
X126947561Y-114311085D01*
X126995180Y-114453942D01*
X126995180Y-114549180D01*
X126947561Y-114692038D01*
X126852323Y-114787276D01*
X126757085Y-114834895D01*
X126566609Y-114882514D01*
X126423752Y-114882514D01*
X126233276Y-114834895D01*
X126138038Y-114787276D01*
X126042800Y-114692038D01*
X125995180Y-114549180D01*
X125995180Y-114453942D01*
X126042800Y-114311085D01*
X126090419Y-114263466D01*
X126090419Y-113882514D02*
X126042800Y-113834895D01*
X125995180Y-113739657D01*
X125995180Y-113501561D01*
X126042800Y-113406323D01*
X126090419Y-113358704D01*
X126185657Y-113311085D01*
X126280895Y-113311085D01*
X126423752Y-113358704D01*
X126995180Y-113930133D01*
X126995180Y-113311085D01*
X113407866Y-108316780D02*
X113407866Y-109031066D01*
X113360247Y-109173923D01*
X113265009Y-109269161D01*
X113122152Y-109316780D01*
X113026914Y-109316780D01*
X114360247Y-108316780D02*
X113884057Y-108316780D01*
X113836438Y-108792971D01*
X113884057Y-108745352D01*
X113979295Y-108697733D01*
X114217390Y-108697733D01*
X114312628Y-108745352D01*
X114360247Y-108792971D01*
X114407866Y-108888209D01*
X114407866Y-109126304D01*
X114360247Y-109221542D01*
X114312628Y-109269161D01*
X114217390Y-109316780D01*
X113979295Y-109316780D01*
X113884057Y-109269161D01*
X113836438Y-109221542D01*
X87193380Y-130595666D02*
X86717190Y-130929000D01*
X87193380Y-131167095D02*
X86193380Y-131167095D01*
X86193380Y-130786142D01*
X86241000Y-130690904D01*
X86288619Y-130643285D01*
X86383857Y-130595666D01*
X86526714Y-130595666D01*
X86621952Y-130643285D01*
X86669571Y-130690904D01*
X86717190Y-130786142D01*
X86717190Y-131167095D01*
X86621952Y-130024238D02*
X86574333Y-130119476D01*
X86526714Y-130167095D01*
X86431476Y-130214714D01*
X86383857Y-130214714D01*
X86288619Y-130167095D01*
X86241000Y-130119476D01*
X86193380Y-130024238D01*
X86193380Y-129833761D01*
X86241000Y-129738523D01*
X86288619Y-129690904D01*
X86383857Y-129643285D01*
X86431476Y-129643285D01*
X86526714Y-129690904D01*
X86574333Y-129738523D01*
X86621952Y-129833761D01*
X86621952Y-130024238D01*
X86669571Y-130119476D01*
X86717190Y-130167095D01*
X86812428Y-130214714D01*
X87002904Y-130214714D01*
X87098142Y-130167095D01*
X87145761Y-130119476D01*
X87193380Y-130024238D01*
X87193380Y-129833761D01*
X87145761Y-129738523D01*
X87098142Y-129690904D01*
X87002904Y-129643285D01*
X86812428Y-129643285D01*
X86717190Y-129690904D01*
X86669571Y-129738523D01*
X86621952Y-129833761D01*
X83891380Y-130563857D02*
X83415190Y-130897190D01*
X83891380Y-131135285D02*
X82891380Y-131135285D01*
X82891380Y-130754333D01*
X82939000Y-130659095D01*
X82986619Y-130611476D01*
X83081857Y-130563857D01*
X83224714Y-130563857D01*
X83319952Y-130611476D01*
X83367571Y-130659095D01*
X83415190Y-130754333D01*
X83415190Y-131135285D01*
X83891380Y-129611476D02*
X83891380Y-130182904D01*
X83891380Y-129897190D02*
X82891380Y-129897190D01*
X83034238Y-129992428D01*
X83129476Y-130087666D01*
X83177095Y-130182904D01*
X82986619Y-129230523D02*
X82939000Y-129182904D01*
X82891380Y-129087666D01*
X82891380Y-128849571D01*
X82939000Y-128754333D01*
X82986619Y-128706714D01*
X83081857Y-128659095D01*
X83177095Y-128659095D01*
X83319952Y-128706714D01*
X83891380Y-129278142D01*
X83891380Y-128659095D01*
X93936780Y-137237695D02*
X92936780Y-137237695D01*
X92936780Y-136999600D01*
X92984400Y-136856742D01*
X93079638Y-136761504D01*
X93174876Y-136713885D01*
X93365352Y-136666266D01*
X93508209Y-136666266D01*
X93698685Y-136713885D01*
X93793923Y-136761504D01*
X93889161Y-136856742D01*
X93936780Y-136999600D01*
X93936780Y-137237695D01*
X93032019Y-136285314D02*
X92984400Y-136237695D01*
X92936780Y-136142457D01*
X92936780Y-135904361D01*
X92984400Y-135809123D01*
X93032019Y-135761504D01*
X93127257Y-135713885D01*
X93222495Y-135713885D01*
X93365352Y-135761504D01*
X93936780Y-136332933D01*
X93936780Y-135713885D01*
X88257142Y-122472380D02*
X87923809Y-121996190D01*
X87685714Y-122472380D02*
X87685714Y-121472380D01*
X88066666Y-121472380D01*
X88161904Y-121520000D01*
X88209523Y-121567619D01*
X88257142Y-121662857D01*
X88257142Y-121805714D01*
X88209523Y-121900952D01*
X88161904Y-121948571D01*
X88066666Y-121996190D01*
X87685714Y-121996190D01*
X89209523Y-122472380D02*
X88638095Y-122472380D01*
X88923809Y-122472380D02*
X88923809Y-121472380D01*
X88828571Y-121615238D01*
X88733333Y-121710476D01*
X88638095Y-121758095D01*
X90066666Y-121805714D02*
X90066666Y-122472380D01*
X89828571Y-121424761D02*
X89590476Y-122139047D01*
X90209523Y-122139047D01*
X131538742Y-122016780D02*
X131205409Y-121540590D01*
X130967314Y-122016780D02*
X130967314Y-121016780D01*
X131348266Y-121016780D01*
X131443504Y-121064400D01*
X131491123Y-121112019D01*
X131538742Y-121207257D01*
X131538742Y-121350114D01*
X131491123Y-121445352D01*
X131443504Y-121492971D01*
X131348266Y-121540590D01*
X130967314Y-121540590D01*
X132491123Y-122016780D02*
X131919695Y-122016780D01*
X132205409Y-122016780D02*
X132205409Y-121016780D01*
X132110171Y-121159638D01*
X132014933Y-121254876D01*
X131919695Y-121302495D01*
X133395885Y-121016780D02*
X132919695Y-121016780D01*
X132872076Y-121492971D01*
X132919695Y-121445352D01*
X133014933Y-121397733D01*
X133253028Y-121397733D01*
X133348266Y-121445352D01*
X133395885Y-121492971D01*
X133443504Y-121588209D01*
X133443504Y-121826304D01*
X133395885Y-121921542D01*
X133348266Y-121969161D01*
X133253028Y-122016780D01*
X133014933Y-122016780D01*
X132919695Y-121969161D01*
X132872076Y-121921542D01*
X137501333Y-126544342D02*
X137453714Y-126591961D01*
X137310857Y-126639580D01*
X137215619Y-126639580D01*
X137072761Y-126591961D01*
X136977523Y-126496723D01*
X136929904Y-126401485D01*
X136882285Y-126211009D01*
X136882285Y-126068152D01*
X136929904Y-125877676D01*
X136977523Y-125782438D01*
X137072761Y-125687200D01*
X137215619Y-125639580D01*
X137310857Y-125639580D01*
X137453714Y-125687200D01*
X137501333Y-125734819D01*
X138072761Y-126068152D02*
X137977523Y-126020533D01*
X137929904Y-125972914D01*
X137882285Y-125877676D01*
X137882285Y-125830057D01*
X137929904Y-125734819D01*
X137977523Y-125687200D01*
X138072761Y-125639580D01*
X138263238Y-125639580D01*
X138358476Y-125687200D01*
X138406095Y-125734819D01*
X138453714Y-125830057D01*
X138453714Y-125877676D01*
X138406095Y-125972914D01*
X138358476Y-126020533D01*
X138263238Y-126068152D01*
X138072761Y-126068152D01*
X137977523Y-126115771D01*
X137929904Y-126163390D01*
X137882285Y-126258628D01*
X137882285Y-126449104D01*
X137929904Y-126544342D01*
X137977523Y-126591961D01*
X138072761Y-126639580D01*
X138263238Y-126639580D01*
X138358476Y-126591961D01*
X138406095Y-126544342D01*
X138453714Y-126449104D01*
X138453714Y-126258628D01*
X138406095Y-126163390D01*
X138358476Y-126115771D01*
X138263238Y-126068152D01*
X138168142Y-123540780D02*
X137834809Y-123064590D01*
X137596714Y-123540780D02*
X137596714Y-122540780D01*
X137977666Y-122540780D01*
X138072904Y-122588400D01*
X138120523Y-122636019D01*
X138168142Y-122731257D01*
X138168142Y-122874114D01*
X138120523Y-122969352D01*
X138072904Y-123016971D01*
X137977666Y-123064590D01*
X137596714Y-123064590D01*
X139120523Y-123540780D02*
X138549095Y-123540780D01*
X138834809Y-123540780D02*
X138834809Y-122540780D01*
X138739571Y-122683638D01*
X138644333Y-122778876D01*
X138549095Y-122826495D01*
X139453857Y-122540780D02*
X140120523Y-122540780D01*
X139691952Y-123540780D01*
X146299180Y-113298266D02*
X145822990Y-113631600D01*
X146299180Y-113869695D02*
X145299180Y-113869695D01*
X145299180Y-113488742D01*
X145346800Y-113393504D01*
X145394419Y-113345885D01*
X145489657Y-113298266D01*
X145632514Y-113298266D01*
X145727752Y-113345885D01*
X145775371Y-113393504D01*
X145822990Y-113488742D01*
X145822990Y-113869695D01*
X145299180Y-112393504D02*
X145299180Y-112869695D01*
X145775371Y-112917314D01*
X145727752Y-112869695D01*
X145680133Y-112774457D01*
X145680133Y-112536361D01*
X145727752Y-112441123D01*
X145775371Y-112393504D01*
X145870609Y-112345885D01*
X146108704Y-112345885D01*
X146203942Y-112393504D01*
X146251561Y-112441123D01*
X146299180Y-112536361D01*
X146299180Y-112774457D01*
X146251561Y-112869695D01*
X146203942Y-112917314D01*
X152217380Y-113818895D02*
X151217380Y-113818895D01*
X151217380Y-113580800D01*
X151265000Y-113437942D01*
X151360238Y-113342704D01*
X151455476Y-113295085D01*
X151645952Y-113247466D01*
X151788809Y-113247466D01*
X151979285Y-113295085D01*
X152074523Y-113342704D01*
X152169761Y-113437942D01*
X152217380Y-113580800D01*
X152217380Y-113818895D01*
X151217380Y-112914133D02*
X151217380Y-112295085D01*
X151598333Y-112628419D01*
X151598333Y-112485561D01*
X151645952Y-112390323D01*
X151693571Y-112342704D01*
X151788809Y-112295085D01*
X152026904Y-112295085D01*
X152122142Y-112342704D01*
X152169761Y-112390323D01*
X152217380Y-112485561D01*
X152217380Y-112771276D01*
X152169761Y-112866514D01*
X152122142Y-112914133D01*
X85542380Y-130563857D02*
X85066190Y-130897190D01*
X85542380Y-131135285D02*
X84542380Y-131135285D01*
X84542380Y-130754333D01*
X84590000Y-130659095D01*
X84637619Y-130611476D01*
X84732857Y-130563857D01*
X84875714Y-130563857D01*
X84970952Y-130611476D01*
X85018571Y-130659095D01*
X85066190Y-130754333D01*
X85066190Y-131135285D01*
X85542380Y-129611476D02*
X85542380Y-130182904D01*
X85542380Y-129897190D02*
X84542380Y-129897190D01*
X84685238Y-129992428D01*
X84780476Y-130087666D01*
X84828095Y-130182904D01*
X84542380Y-129278142D02*
X84542380Y-128659095D01*
X84923333Y-128992428D01*
X84923333Y-128849571D01*
X84970952Y-128754333D01*
X85018571Y-128706714D01*
X85113809Y-128659095D01*
X85351904Y-128659095D01*
X85447142Y-128706714D01*
X85494761Y-128754333D01*
X85542380Y-128849571D01*
X85542380Y-129135285D01*
X85494761Y-129230523D01*
X85447142Y-129278142D01*
X126899942Y-110707466D02*
X126947561Y-110755085D01*
X126995180Y-110897942D01*
X126995180Y-110993180D01*
X126947561Y-111136038D01*
X126852323Y-111231276D01*
X126757085Y-111278895D01*
X126566609Y-111326514D01*
X126423752Y-111326514D01*
X126233276Y-111278895D01*
X126138038Y-111231276D01*
X126042800Y-111136038D01*
X125995180Y-110993180D01*
X125995180Y-110897942D01*
X126042800Y-110755085D01*
X126090419Y-110707466D01*
X125995180Y-110374133D02*
X125995180Y-109755085D01*
X126376133Y-110088419D01*
X126376133Y-109945561D01*
X126423752Y-109850323D01*
X126471371Y-109802704D01*
X126566609Y-109755085D01*
X126804704Y-109755085D01*
X126899942Y-109802704D01*
X126947561Y-109850323D01*
X126995180Y-109945561D01*
X126995180Y-110231276D01*
X126947561Y-110326514D01*
X126899942Y-110374133D01*
X90425542Y-130468666D02*
X90473161Y-130516285D01*
X90520780Y-130659142D01*
X90520780Y-130754380D01*
X90473161Y-130897238D01*
X90377923Y-130992476D01*
X90282685Y-131040095D01*
X90092209Y-131087714D01*
X89949352Y-131087714D01*
X89758876Y-131040095D01*
X89663638Y-130992476D01*
X89568400Y-130897238D01*
X89520780Y-130754380D01*
X89520780Y-130659142D01*
X89568400Y-130516285D01*
X89616019Y-130468666D01*
X89854114Y-129611523D02*
X90520780Y-129611523D01*
X89473161Y-129849619D02*
X90187447Y-130087714D01*
X90187447Y-129468666D01*
X159318380Y-122512857D02*
X158842190Y-122846190D01*
X159318380Y-123084285D02*
X158318380Y-123084285D01*
X158318380Y-122703333D01*
X158366000Y-122608095D01*
X158413619Y-122560476D01*
X158508857Y-122512857D01*
X158651714Y-122512857D01*
X158746952Y-122560476D01*
X158794571Y-122608095D01*
X158842190Y-122703333D01*
X158842190Y-123084285D01*
X159318380Y-121560476D02*
X159318380Y-122131904D01*
X159318380Y-121846190D02*
X158318380Y-121846190D01*
X158461238Y-121941428D01*
X158556476Y-122036666D01*
X158604095Y-122131904D01*
X158318380Y-120703333D02*
X158318380Y-120893809D01*
X158366000Y-120989047D01*
X158413619Y-121036666D01*
X158556476Y-121131904D01*
X158746952Y-121179523D01*
X159127904Y-121179523D01*
X159223142Y-121131904D01*
X159270761Y-121084285D01*
X159318380Y-120989047D01*
X159318380Y-120798571D01*
X159270761Y-120703333D01*
X159223142Y-120655714D01*
X159127904Y-120608095D01*
X158889809Y-120608095D01*
X158794571Y-120655714D01*
X158746952Y-120703333D01*
X158699333Y-120798571D01*
X158699333Y-120989047D01*
X158746952Y-121084285D01*
X158794571Y-121131904D01*
X158889809Y-121179523D01*
X155265380Y-113818895D02*
X154265380Y-113818895D01*
X154265380Y-113580800D01*
X154313000Y-113437942D01*
X154408238Y-113342704D01*
X154503476Y-113295085D01*
X154693952Y-113247466D01*
X154836809Y-113247466D01*
X155027285Y-113295085D01*
X155122523Y-113342704D01*
X155217761Y-113437942D01*
X155265380Y-113580800D01*
X155265380Y-113818895D01*
X154265380Y-112342704D02*
X154265380Y-112818895D01*
X154741571Y-112866514D01*
X154693952Y-112818895D01*
X154646333Y-112723657D01*
X154646333Y-112485561D01*
X154693952Y-112390323D01*
X154741571Y-112342704D01*
X154836809Y-112295085D01*
X155074904Y-112295085D01*
X155170142Y-112342704D01*
X155217761Y-112390323D01*
X155265380Y-112485561D01*
X155265380Y-112723657D01*
X155217761Y-112818895D01*
X155170142Y-112866514D01*
X93822780Y-130563857D02*
X93346590Y-130897190D01*
X93822780Y-131135285D02*
X92822780Y-131135285D01*
X92822780Y-130754333D01*
X92870400Y-130659095D01*
X92918019Y-130611476D01*
X93013257Y-130563857D01*
X93156114Y-130563857D01*
X93251352Y-130611476D01*
X93298971Y-130659095D01*
X93346590Y-130754333D01*
X93346590Y-131135285D01*
X93822780Y-129611476D02*
X93822780Y-130182904D01*
X93822780Y-129897190D02*
X92822780Y-129897190D01*
X92965638Y-129992428D01*
X93060876Y-130087666D01*
X93108495Y-130182904D01*
X93822780Y-128659095D02*
X93822780Y-129230523D01*
X93822780Y-128944809D02*
X92822780Y-128944809D01*
X92965638Y-129040047D01*
X93060876Y-129135285D01*
X93108495Y-129230523D01*
X158567380Y-113818895D02*
X157567380Y-113818895D01*
X157567380Y-113580800D01*
X157615000Y-113437942D01*
X157710238Y-113342704D01*
X157805476Y-113295085D01*
X157995952Y-113247466D01*
X158138809Y-113247466D01*
X158329285Y-113295085D01*
X158424523Y-113342704D01*
X158519761Y-113437942D01*
X158567380Y-113580800D01*
X158567380Y-113818895D01*
X157900714Y-112390323D02*
X158567380Y-112390323D01*
X157519761Y-112628419D02*
X158234047Y-112866514D01*
X158234047Y-112247466D01*
X92197180Y-130563857D02*
X91720990Y-130897190D01*
X92197180Y-131135285D02*
X91197180Y-131135285D01*
X91197180Y-130754333D01*
X91244800Y-130659095D01*
X91292419Y-130611476D01*
X91387657Y-130563857D01*
X91530514Y-130563857D01*
X91625752Y-130611476D01*
X91673371Y-130659095D01*
X91720990Y-130754333D01*
X91720990Y-131135285D01*
X92197180Y-129611476D02*
X92197180Y-130182904D01*
X92197180Y-129897190D02*
X91197180Y-129897190D01*
X91340038Y-129992428D01*
X91435276Y-130087666D01*
X91482895Y-130182904D01*
X91197180Y-128992428D02*
X91197180Y-128897190D01*
X91244800Y-128801952D01*
X91292419Y-128754333D01*
X91387657Y-128706714D01*
X91578133Y-128659095D01*
X91816228Y-128659095D01*
X92006704Y-128706714D01*
X92101942Y-128754333D01*
X92149561Y-128801952D01*
X92197180Y-128897190D01*
X92197180Y-128992428D01*
X92149561Y-129087666D01*
X92101942Y-129135285D01*
X92006704Y-129182904D01*
X91816228Y-129230523D01*
X91578133Y-129230523D01*
X91387657Y-129182904D01*
X91292419Y-129135285D01*
X91244800Y-129087666D01*
X91197180Y-128992428D01*
X80570342Y-130468666D02*
X80617961Y-130516285D01*
X80665580Y-130659142D01*
X80665580Y-130754380D01*
X80617961Y-130897238D01*
X80522723Y-130992476D01*
X80427485Y-131040095D01*
X80237009Y-131087714D01*
X80094152Y-131087714D01*
X79903676Y-131040095D01*
X79808438Y-130992476D01*
X79713200Y-130897238D01*
X79665580Y-130754380D01*
X79665580Y-130659142D01*
X79713200Y-130516285D01*
X79760819Y-130468666D01*
X79665580Y-129563904D02*
X79665580Y-130040095D01*
X80141771Y-130087714D01*
X80094152Y-130040095D01*
X80046533Y-129944857D01*
X80046533Y-129706761D01*
X80094152Y-129611523D01*
X80141771Y-129563904D01*
X80237009Y-129516285D01*
X80475104Y-129516285D01*
X80570342Y-129563904D01*
X80617961Y-129611523D01*
X80665580Y-129706761D01*
X80665580Y-129944857D01*
X80617961Y-130040095D01*
X80570342Y-130087714D01*
X150185380Y-113298266D02*
X149709190Y-113631600D01*
X150185380Y-113869695D02*
X149185380Y-113869695D01*
X149185380Y-113488742D01*
X149233000Y-113393504D01*
X149280619Y-113345885D01*
X149375857Y-113298266D01*
X149518714Y-113298266D01*
X149613952Y-113345885D01*
X149661571Y-113393504D01*
X149709190Y-113488742D01*
X149709190Y-113869695D01*
X149185380Y-112441123D02*
X149185380Y-112631600D01*
X149233000Y-112726838D01*
X149280619Y-112774457D01*
X149423476Y-112869695D01*
X149613952Y-112917314D01*
X149994904Y-112917314D01*
X150090142Y-112869695D01*
X150137761Y-112822076D01*
X150185380Y-112726838D01*
X150185380Y-112536361D01*
X150137761Y-112441123D01*
X150090142Y-112393504D01*
X149994904Y-112345885D01*
X149756809Y-112345885D01*
X149661571Y-112393504D01*
X149613952Y-112441123D01*
X149566333Y-112536361D01*
X149566333Y-112726838D01*
X149613952Y-112822076D01*
X149661571Y-112869695D01*
X149756809Y-112917314D01*
X88850742Y-130570266D02*
X88898361Y-130617885D01*
X88945980Y-130760742D01*
X88945980Y-130855980D01*
X88898361Y-130998838D01*
X88803123Y-131094076D01*
X88707885Y-131141695D01*
X88517409Y-131189314D01*
X88374552Y-131189314D01*
X88184076Y-131141695D01*
X88088838Y-131094076D01*
X87993600Y-130998838D01*
X87945980Y-130855980D01*
X87945980Y-130760742D01*
X87993600Y-130617885D01*
X88041219Y-130570266D01*
X87945980Y-129713123D02*
X87945980Y-129903600D01*
X87993600Y-129998838D01*
X88041219Y-130046457D01*
X88184076Y-130141695D01*
X88374552Y-130189314D01*
X88755504Y-130189314D01*
X88850742Y-130141695D01*
X88898361Y-130094076D01*
X88945980Y-129998838D01*
X88945980Y-129808361D01*
X88898361Y-129713123D01*
X88850742Y-129665504D01*
X88755504Y-129617885D01*
X88517409Y-129617885D01*
X88422171Y-129665504D01*
X88374552Y-129713123D01*
X88326933Y-129808361D01*
X88326933Y-129998838D01*
X88374552Y-130094076D01*
X88422171Y-130141695D01*
X88517409Y-130189314D01*
X86291380Y-137263095D02*
X85291380Y-137263095D01*
X85291380Y-137025000D01*
X85339000Y-136882142D01*
X85434238Y-136786904D01*
X85529476Y-136739285D01*
X85719952Y-136691666D01*
X85862809Y-136691666D01*
X86053285Y-136739285D01*
X86148523Y-136786904D01*
X86243761Y-136882142D01*
X86291380Y-137025000D01*
X86291380Y-137263095D01*
X86291380Y-135739285D02*
X86291380Y-136310714D01*
X86291380Y-136025000D02*
X85291380Y-136025000D01*
X85434238Y-136120238D01*
X85529476Y-136215476D01*
X85577095Y-136310714D01*
X82240380Y-130595666D02*
X81764190Y-130929000D01*
X82240380Y-131167095D02*
X81240380Y-131167095D01*
X81240380Y-130786142D01*
X81288000Y-130690904D01*
X81335619Y-130643285D01*
X81430857Y-130595666D01*
X81573714Y-130595666D01*
X81668952Y-130643285D01*
X81716571Y-130690904D01*
X81764190Y-130786142D01*
X81764190Y-131167095D01*
X82240380Y-130119476D02*
X82240380Y-129929000D01*
X82192761Y-129833761D01*
X82145142Y-129786142D01*
X82002285Y-129690904D01*
X81811809Y-129643285D01*
X81430857Y-129643285D01*
X81335619Y-129690904D01*
X81288000Y-129738523D01*
X81240380Y-129833761D01*
X81240380Y-130024238D01*
X81288000Y-130119476D01*
X81335619Y-130167095D01*
X81430857Y-130214714D01*
X81668952Y-130214714D01*
X81764190Y-130167095D01*
X81811809Y-130119476D01*
X81859428Y-130024238D01*
X81859428Y-129833761D01*
X81811809Y-129738523D01*
X81764190Y-129690904D01*
X81668952Y-129643285D01*
X148178780Y-113298266D02*
X147702590Y-113631600D01*
X148178780Y-113869695D02*
X147178780Y-113869695D01*
X147178780Y-113488742D01*
X147226400Y-113393504D01*
X147274019Y-113345885D01*
X147369257Y-113298266D01*
X147512114Y-113298266D01*
X147607352Y-113345885D01*
X147654971Y-113393504D01*
X147702590Y-113488742D01*
X147702590Y-113869695D01*
X147178780Y-112964933D02*
X147178780Y-112298266D01*
X148178780Y-112726838D01*
D13*
X155253563Y-122726400D02*
X149498000Y-122726400D01*
X156951750Y-128377650D02*
X156951750Y-127590150D01*
X157345500Y-127983900D02*
X156558000Y-127983900D01*
X156318000Y-128481963D02*
X156318000Y-127196400D01*
X155253563Y-129546400D02*
X149498000Y-129546400D01*
X156318000Y-123790837D02*
X155253563Y-122726400D01*
X156318000Y-128481963D02*
X155253563Y-129546400D01*
X156318000Y-123790837D02*
X156318000Y-125076400D01*
X149498000Y-129546400D02*
X149498000Y-127196400D01*
X149498000Y-122726400D02*
X149498000Y-125076400D01*
X78994000Y-141859000D02*
X119634000Y-141859000D01*
X119634000Y-141859000D02*
X119634000Y-124079000D01*
X119634000Y-124079000D02*
X78994000Y-124079000D01*
X78994000Y-124079000D02*
X78994000Y-141859000D01*
X77724000Y-136779000D02*
X78994000Y-136779000D01*
X78994000Y-136779000D02*
X78994000Y-129159000D01*
X78994000Y-129159000D02*
X77724000Y-129159000D01*
X77724000Y-129159000D02*
X77724000Y-136779000D01*
X77203200Y-115375200D02*
X83223200Y-115375200D01*
X83223200Y-115375200D02*
X83223200Y-110075200D01*
X83223200Y-110075200D02*
X77203200Y-110075200D01*
X77203200Y-110075200D02*
X77203200Y-115375200D01*
X78233200Y-115665200D02*
X82233200Y-115665200D01*
X83223200Y-113995200D02*
X82223200Y-113995200D01*
X82223200Y-113995200D02*
X82223200Y-111455200D01*
X82223200Y-111455200D02*
X83223200Y-111455200D01*
X82223200Y-113995200D02*
X81693200Y-113745200D01*
X81693200Y-113745200D02*
X81693200Y-111705200D01*
X81693200Y-111705200D02*
X82223200Y-111455200D01*
X83223200Y-113745200D02*
X82223200Y-113745200D01*
X83223200Y-111705200D02*
X82223200Y-111705200D01*
X77203200Y-114795200D02*
X77803200Y-114795200D01*
X77803200Y-114795200D02*
X77803200Y-113195200D01*
X77803200Y-113195200D02*
X77203200Y-113195200D01*
X77203200Y-112255200D02*
X77803200Y-112255200D01*
X77803200Y-112255200D02*
X77803200Y-110655200D01*
X77803200Y-110655200D02*
X77203200Y-110655200D01*
X77234000Y-122030000D02*
X83254000Y-122030000D01*
X83254000Y-122030000D02*
X83254000Y-116730000D01*
X83254000Y-116730000D02*
X77234000Y-116730000D01*
X77234000Y-116730000D02*
X77234000Y-122030000D01*
X78264000Y-122320000D02*
X82264000Y-122320000D01*
X83254000Y-120650000D02*
X82254000Y-120650000D01*
X82254000Y-120650000D02*
X82254000Y-118110000D01*
X82254000Y-118110000D02*
X83254000Y-118110000D01*
X82254000Y-120650000D02*
X81724000Y-120400000D01*
X81724000Y-120400000D02*
X81724000Y-118360000D01*
X81724000Y-118360000D02*
X82254000Y-118110000D01*
X83254000Y-120400000D02*
X82254000Y-120400000D01*
X83254000Y-118360000D02*
X82254000Y-118360000D01*
X77234000Y-121450000D02*
X77834000Y-121450000D01*
X77834000Y-121450000D02*
X77834000Y-119850000D01*
X77834000Y-119850000D02*
X77234000Y-119850000D01*
X77234000Y-118910000D02*
X77834000Y-118910000D01*
X77834000Y-118910000D02*
X77834000Y-117310000D01*
X77834000Y-117310000D02*
X77234000Y-117310000D01*
D14*
X144780000Y-133096000D02*
X144780000Y-117856000D01*
X144780000Y-117856000D02*
X124460000Y-117856000D01*
X124460000Y-133096000D02*
X144780000Y-133096000D01*
X124460000Y-117856000D02*
X124460000Y-133096000D01*
X145923000Y-117856000D02*
X145923000Y-133096000D01*
X145923000Y-133096000D02*
X166243000Y-133096000D01*
X166243000Y-117856000D02*
X145923000Y-117856000D01*
X166243000Y-133096000D02*
X166243000Y-117856000D01*
D13*
X141099000Y-110349420D02*
X141099000Y-110630580D01*
X140079000Y-110349420D02*
X140079000Y-110630580D01*
X96228000Y-116223000D02*
X96228000Y-116823000D01*
X101308000Y-116223000D02*
X101308000Y-116823000D01*
X96228000Y-116823000D02*
X97828000Y-116823000D01*
X97828000Y-116823000D02*
X97828000Y-116223000D01*
X98768000Y-116223000D02*
X98768000Y-116823000D01*
X102108000Y-121243000D02*
X102108000Y-122243000D01*
X103488000Y-122243000D02*
X103488000Y-116223000D01*
X95358000Y-117253000D02*
X95358000Y-121253000D01*
X97028000Y-121243000D02*
X97278000Y-120713000D01*
X97028000Y-121243000D02*
X102108000Y-121243000D01*
X102908000Y-116823000D02*
X102908000Y-116223000D01*
X97278000Y-122243000D02*
X97278000Y-121243000D01*
X95648000Y-116223000D02*
X95648000Y-122243000D01*
X97028000Y-122243000D02*
X97028000Y-121243000D01*
X98768000Y-116823000D02*
X100368000Y-116823000D01*
X100368000Y-116823000D02*
X100368000Y-116223000D01*
X95648000Y-122243000D02*
X103488000Y-122243000D01*
X101858000Y-122243000D02*
X101858000Y-121243000D01*
X101308000Y-116823000D02*
X102908000Y-116823000D01*
X103488000Y-116223000D02*
X95648000Y-116223000D01*
X97278000Y-120713000D02*
X101858000Y-120713000D01*
X101858000Y-120713000D02*
X102108000Y-121243000D01*
X98768000Y-109076000D02*
X100368000Y-109076000D01*
X101308000Y-109076000D02*
X102908000Y-109076000D01*
X97278000Y-112966000D02*
X101858000Y-112966000D01*
X102908000Y-109076000D02*
X102908000Y-108476000D01*
X103488000Y-114496000D02*
X103488000Y-108476000D01*
X102108000Y-113496000D02*
X102108000Y-114496000D01*
X95648000Y-108476000D02*
X95648000Y-114496000D01*
X96228000Y-109076000D02*
X97828000Y-109076000D01*
X101308000Y-108476000D02*
X101308000Y-109076000D01*
X96228000Y-108476000D02*
X96228000Y-109076000D01*
X95648000Y-114496000D02*
X103488000Y-114496000D01*
X97028000Y-114496000D02*
X97028000Y-113496000D01*
X95358000Y-109506000D02*
X95358000Y-113506000D01*
X103488000Y-108476000D02*
X95648000Y-108476000D01*
X101858000Y-112966000D02*
X102108000Y-113496000D01*
X98768000Y-108476000D02*
X98768000Y-109076000D01*
X97028000Y-113496000D02*
X102108000Y-113496000D01*
X97828000Y-109076000D02*
X97828000Y-108476000D01*
X101858000Y-114496000D02*
X101858000Y-113496000D01*
X100368000Y-109076000D02*
X100368000Y-108476000D01*
X97278000Y-114496000D02*
X97278000Y-113496000D01*
X97028000Y-113496000D02*
X97278000Y-112966000D01*
X127508000Y-108458000D02*
X127508000Y-116078000D01*
X137668000Y-116078000D02*
X137668000Y-108458000D01*
X127508000Y-109728000D02*
X137668000Y-109728000D01*
X137668000Y-108458000D02*
X127508000Y-108458000D01*
X127508000Y-116078000D02*
X137668000Y-116078000D01*
X156828000Y-142730000D02*
X156828000Y-136710000D01*
X153708000Y-142730000D02*
X153708000Y-142130000D01*
X147828000Y-137710000D02*
X147828000Y-136710000D01*
X155198000Y-138240000D02*
X148078000Y-138240000D01*
X148628000Y-142730000D02*
X148628000Y-142130000D01*
X148078000Y-136710000D02*
X148078000Y-137710000D01*
X151168000Y-142730000D02*
X151168000Y-142130000D01*
X148628000Y-142130000D02*
X147028000Y-142130000D01*
X152108000Y-142130000D02*
X152108000Y-142730000D01*
X149568000Y-142130000D02*
X149568000Y-142730000D01*
X156828000Y-136710000D02*
X146448000Y-136710000D01*
X151168000Y-142130000D02*
X149568000Y-142130000D01*
X155448000Y-137710000D02*
X155198000Y-138240000D01*
X147028000Y-142130000D02*
X147028000Y-142730000D01*
X155448000Y-137710000D02*
X147828000Y-137710000D01*
X155448000Y-136710000D02*
X155448000Y-137710000D01*
X153708000Y-142130000D02*
X152108000Y-142130000D01*
X156248000Y-142130000D02*
X154648000Y-142130000D01*
X155198000Y-136710000D02*
X155198000Y-137710000D01*
X148078000Y-138240000D02*
X147828000Y-137710000D01*
X157118000Y-141700000D02*
X157118000Y-137700000D01*
X146448000Y-136710000D02*
X146448000Y-142730000D01*
X154648000Y-142130000D02*
X154648000Y-142730000D01*
X156248000Y-142730000D02*
X156248000Y-142130000D01*
X146448000Y-142730000D02*
X156828000Y-142730000D01*
X138722000Y-142110000D02*
X137122000Y-142110000D01*
X141262000Y-142110000D02*
X139662000Y-142110000D01*
X144382000Y-142710000D02*
X144382000Y-136690000D01*
X144672000Y-141680000D02*
X144672000Y-137680000D01*
X143002000Y-137690000D02*
X135382000Y-137690000D01*
X142752000Y-136690000D02*
X142752000Y-137690000D01*
X143802000Y-142110000D02*
X142202000Y-142110000D01*
X143002000Y-136690000D02*
X143002000Y-137690000D01*
X143002000Y-137690000D02*
X142752000Y-138220000D01*
X135632000Y-138220000D02*
X135382000Y-137690000D01*
X135632000Y-136690000D02*
X135632000Y-137690000D01*
X142752000Y-138220000D02*
X135632000Y-138220000D01*
X144382000Y-136690000D02*
X134002000Y-136690000D01*
X139662000Y-142110000D02*
X139662000Y-142710000D01*
X142202000Y-142110000D02*
X142202000Y-142710000D01*
X134002000Y-136690000D02*
X134002000Y-142710000D01*
X134002000Y-142710000D02*
X144382000Y-142710000D01*
X143802000Y-142710000D02*
X143802000Y-142110000D01*
X135382000Y-137690000D02*
X135382000Y-136690000D01*
X136182000Y-142710000D02*
X136182000Y-142110000D01*
X138722000Y-142710000D02*
X138722000Y-142110000D01*
X137122000Y-142110000D02*
X137122000Y-142710000D01*
X141262000Y-142710000D02*
X141262000Y-142110000D01*
X136182000Y-142110000D02*
X134582000Y-142110000D01*
X134582000Y-142110000D02*
X134582000Y-142710000D01*
X95518500Y-132604742D02*
X95518500Y-133079258D01*
X94473500Y-132604742D02*
X94473500Y-133079258D01*
X142889500Y-110727258D02*
X142889500Y-110252742D01*
X141844500Y-110727258D02*
X141844500Y-110252742D01*
X144667500Y-110252742D02*
X144667500Y-110727258D01*
X143622500Y-110252742D02*
X143622500Y-110727258D01*
X84516700Y-116310142D02*
X84516700Y-116784658D01*
X85561700Y-116310142D02*
X85561700Y-116784658D01*
X122892800Y-120049200D02*
X115392800Y-120049200D01*
X115392800Y-120049200D02*
X115392800Y-108449200D01*
X115392800Y-108449200D02*
X122892800Y-108449200D01*
X122892800Y-108449200D02*
X122892800Y-120049200D01*
X109258000Y-116843000D02*
X109258000Y-116243000D01*
X104538000Y-122263000D02*
X112378000Y-122263000D01*
X105918000Y-121263000D02*
X106168000Y-120733000D01*
X110748000Y-120733000D02*
X110998000Y-121263000D01*
X105118000Y-116243000D02*
X105118000Y-116843000D01*
X105918000Y-121263000D02*
X110998000Y-121263000D01*
X106168000Y-120733000D02*
X110748000Y-120733000D01*
X112378000Y-122263000D02*
X112378000Y-116243000D01*
X104538000Y-116243000D02*
X104538000Y-122263000D01*
X106718000Y-116843000D02*
X106718000Y-116243000D01*
X104248000Y-117273000D02*
X104248000Y-121273000D01*
X105918000Y-122263000D02*
X105918000Y-121263000D01*
X110998000Y-121263000D02*
X110998000Y-122263000D01*
X110198000Y-116243000D02*
X110198000Y-116843000D01*
X110748000Y-122263000D02*
X110748000Y-121263000D01*
X107658000Y-116843000D02*
X109258000Y-116843000D01*
X105118000Y-116843000D02*
X106718000Y-116843000D01*
X110198000Y-116843000D02*
X111798000Y-116843000D01*
X111798000Y-116843000D02*
X111798000Y-116243000D01*
X107658000Y-116243000D02*
X107658000Y-116843000D01*
X106168000Y-122263000D02*
X106168000Y-121263000D01*
X112378000Y-116243000D02*
X104538000Y-116243000D01*
X124029800Y-114434252D02*
X124029800Y-113911748D01*
X125499800Y-114434252D02*
X125499800Y-113911748D01*
X104538000Y-114496000D02*
X112378000Y-114496000D01*
X105118000Y-109076000D02*
X106718000Y-109076000D01*
X105118000Y-108476000D02*
X105118000Y-109076000D01*
X104538000Y-108476000D02*
X104538000Y-114496000D01*
X112378000Y-114496000D02*
X112378000Y-108476000D01*
X107658000Y-109076000D02*
X109258000Y-109076000D01*
X106168000Y-114496000D02*
X106168000Y-113496000D01*
X104248000Y-109506000D02*
X104248000Y-113506000D01*
X110998000Y-113496000D02*
X110998000Y-114496000D01*
X110748000Y-114496000D02*
X110748000Y-113496000D01*
X105918000Y-113496000D02*
X106168000Y-112966000D01*
X110748000Y-112966000D02*
X110998000Y-113496000D01*
X105918000Y-113496000D02*
X110998000Y-113496000D01*
X106718000Y-109076000D02*
X106718000Y-108476000D01*
X106168000Y-112966000D02*
X110748000Y-112966000D01*
X111798000Y-109076000D02*
X111798000Y-108476000D01*
X110198000Y-109076000D02*
X111798000Y-109076000D01*
X109258000Y-109076000D02*
X109258000Y-108476000D01*
X107658000Y-108476000D02*
X107658000Y-109076000D01*
X105918000Y-114496000D02*
X105918000Y-113496000D01*
X110198000Y-108476000D02*
X110198000Y-109076000D01*
X112378000Y-108476000D02*
X104538000Y-108476000D01*
X86218500Y-133079258D02*
X86218500Y-132604742D01*
X87263500Y-133079258D02*
X87263500Y-132604742D01*
X83961500Y-133079258D02*
X83961500Y-132604742D01*
X82916500Y-133079258D02*
X82916500Y-132604742D01*
X89524400Y-136499600D02*
X89524400Y-137149600D01*
X89524400Y-136499600D02*
X89524400Y-135849600D01*
X92644400Y-136499600D02*
X92644400Y-137149600D01*
X92644400Y-136499600D02*
X92644400Y-134824600D01*
X92122258Y-121577500D02*
X91647742Y-121577500D01*
X92122258Y-122622500D02*
X91647742Y-122622500D01*
X135619258Y-122086900D02*
X135144742Y-122086900D01*
X135619258Y-121041900D02*
X135144742Y-121041900D01*
X135236000Y-123841637D02*
X134171563Y-122777200D01*
X135236000Y-128532763D02*
X134171563Y-129597200D01*
X135236000Y-123841637D02*
X135236000Y-125127200D01*
X135236000Y-128532763D02*
X135236000Y-127247200D01*
X136263500Y-128034700D02*
X135476000Y-128034700D01*
X134171563Y-129597200D02*
X128416000Y-129597200D01*
X128416000Y-129597200D02*
X128416000Y-127247200D01*
X134171563Y-122777200D02*
X128416000Y-122777200D01*
X128416000Y-122777200D02*
X128416000Y-125127200D01*
X135869750Y-128428450D02*
X135869750Y-127640950D01*
X139048258Y-121041900D02*
X138573742Y-121041900D01*
X139048258Y-122086900D02*
X138573742Y-122086900D01*
X145400500Y-110252742D02*
X145400500Y-110727258D01*
X146445500Y-110252742D02*
X146445500Y-110727258D01*
X152500000Y-109005000D02*
X151030000Y-109005000D01*
X152500000Y-111290000D02*
X152500000Y-109005000D01*
X151030000Y-109005000D02*
X151030000Y-111290000D01*
X85612500Y-133079258D02*
X85612500Y-132604742D01*
X84567500Y-133079258D02*
X84567500Y-132604742D01*
X124029800Y-110228748D02*
X124029800Y-110751252D01*
X125499800Y-110228748D02*
X125499800Y-110751252D01*
X89558400Y-132982580D02*
X89558400Y-132701420D01*
X90578400Y-132982580D02*
X90578400Y-132701420D01*
X160912500Y-122107258D02*
X160912500Y-121632742D01*
X159867500Y-122107258D02*
X159867500Y-121632742D01*
X155548000Y-111290000D02*
X155548000Y-109005000D01*
X154078000Y-109005000D02*
X154078000Y-111290000D01*
X155548000Y-109005000D02*
X154078000Y-109005000D01*
X92847900Y-133079258D02*
X92847900Y-132604742D01*
X93892900Y-133079258D02*
X93892900Y-132604742D01*
X158850000Y-109005000D02*
X157380000Y-109005000D01*
X158850000Y-111290000D02*
X158850000Y-109005000D01*
X157380000Y-109005000D02*
X157380000Y-111290000D01*
X92267300Y-133079258D02*
X92267300Y-132604742D01*
X91222300Y-133079258D02*
X91222300Y-132604742D01*
X80647000Y-132982580D02*
X80647000Y-132701420D01*
X79627000Y-132982580D02*
X79627000Y-132701420D01*
X150255500Y-110252742D02*
X150255500Y-110727258D01*
X149210500Y-110252742D02*
X149210500Y-110727258D01*
D15*
X161845903Y-113640439D02*
X161903127Y-113678935D01*
X161903127Y-113678935D02*
X161947349Y-113734535D01*
X161947349Y-113734535D02*
X161973767Y-113805286D01*
X161973767Y-113805286D02*
X161979110Y-113857362D01*
X161979110Y-113857362D02*
X161978503Y-113879093D01*
X161978503Y-113879093D02*
X161973422Y-113895731D01*
X161973422Y-113895731D02*
X161959455Y-113910637D01*
X161959455Y-113910637D02*
X161932189Y-113927173D01*
X161932189Y-113927173D02*
X161887212Y-113948698D01*
X161887212Y-113948698D02*
X161820111Y-113978574D01*
X161820111Y-113978574D02*
X161819771Y-113978724D01*
X161819771Y-113978724D02*
X161758007Y-114007013D01*
X161758007Y-114007013D02*
X161707359Y-114032133D01*
X161707359Y-114032133D02*
X161673004Y-114051379D01*
X161673004Y-114051379D02*
X161660118Y-114062048D01*
X161660118Y-114062048D02*
X161660114Y-114062134D01*
X161660114Y-114062134D02*
X161671472Y-114085366D01*
X161671472Y-114085366D02*
X161698031Y-114110974D01*
X161698031Y-114110974D02*
X161728523Y-114129421D01*
X161728523Y-114129421D02*
X161743970Y-114133086D01*
X161743970Y-114133086D02*
X161786115Y-114120412D01*
X161786115Y-114120412D02*
X161822408Y-114088671D01*
X161822408Y-114088671D02*
X161840117Y-114053772D01*
X161840117Y-114053772D02*
X161857152Y-114028045D01*
X161857152Y-114028045D02*
X161890522Y-113998746D01*
X161890522Y-113998746D02*
X161929749Y-113973435D01*
X161929749Y-113973435D02*
X161964356Y-113959671D01*
X161964356Y-113959671D02*
X161971593Y-113958914D01*
X161971593Y-113958914D02*
X161979739Y-113971360D01*
X161979739Y-113971360D02*
X161980230Y-114003172D01*
X161980230Y-114003172D02*
X161974243Y-114046066D01*
X161974243Y-114046066D02*
X161962957Y-114091758D01*
X161962957Y-114091758D02*
X161947550Y-114131961D01*
X161947550Y-114131961D02*
X161946771Y-114133522D01*
X161946771Y-114133522D02*
X161900404Y-114198262D01*
X161900404Y-114198262D02*
X161840311Y-114242297D01*
X161840311Y-114242297D02*
X161772065Y-114263911D01*
X161772065Y-114263911D02*
X161701238Y-114261385D01*
X161701238Y-114261385D02*
X161633404Y-114233004D01*
X161633404Y-114233004D02*
X161630388Y-114231008D01*
X161630388Y-114231008D02*
X161577027Y-114182648D01*
X161577027Y-114182648D02*
X161541940Y-114119552D01*
X161541940Y-114119552D02*
X161522522Y-114036587D01*
X161522522Y-114036587D02*
X161519916Y-114013278D01*
X161519916Y-114013278D02*
X161515301Y-113903255D01*
X161515301Y-113903255D02*
X161520833Y-113851948D01*
X161520833Y-113851948D02*
X161660114Y-113851948D01*
X161660114Y-113851948D02*
X161661924Y-113883953D01*
X161661924Y-113883953D02*
X161671822Y-113893293D01*
X161671822Y-113893293D02*
X161696498Y-113886305D01*
X161696498Y-113886305D02*
X161735395Y-113869787D01*
X161735395Y-113869787D02*
X161778875Y-113849081D01*
X161778875Y-113849081D02*
X161779956Y-113848533D01*
X161779956Y-113848533D02*
X161816809Y-113829149D01*
X161816809Y-113829149D02*
X161831600Y-113816213D01*
X161831600Y-113816213D02*
X161827953Y-113802651D01*
X161827953Y-113802651D02*
X161812595Y-113784832D01*
X161812595Y-113784832D02*
X161773523Y-113759045D01*
X161773523Y-113759045D02*
X161731446Y-113757150D01*
X161731446Y-113757150D02*
X161693703Y-113775917D01*
X161693703Y-113775917D02*
X161667634Y-113812115D01*
X161667634Y-113812115D02*
X161660114Y-113851948D01*
X161660114Y-113851948D02*
X161520833Y-113851948D01*
X161520833Y-113851948D02*
X161524794Y-113815227D01*
X161524794Y-113815227D02*
X161549150Y-113745412D01*
X161549150Y-113745412D02*
X161583056Y-113696502D01*
X161583056Y-113696502D02*
X161644253Y-113647078D01*
X161644253Y-113647078D02*
X161711663Y-113622559D01*
X161711663Y-113622559D02*
X161780480Y-113620997D01*
X161780480Y-113620997D02*
X161845903Y-113640439D01*
X161845903Y-113640439D02*
X161845903Y-113640439D01*
G36*
X161549150Y-113745412D02*
G01*
X161583056Y-113696502D01*
X161644253Y-113647078D01*
X161711663Y-113622559D01*
X161780480Y-113620997D01*
X161845903Y-113640439D01*
X161903127Y-113678935D01*
X161947349Y-113734535D01*
X161973767Y-113805286D01*
X161979110Y-113857362D01*
X161978503Y-113879093D01*
X161973422Y-113895731D01*
X161959455Y-113910637D01*
X161932189Y-113927173D01*
X161887212Y-113948698D01*
X161820111Y-113978574D01*
X161819771Y-113978724D01*
X161758007Y-114007013D01*
X161707359Y-114032133D01*
X161673004Y-114051379D01*
X161660118Y-114062048D01*
X161660114Y-114062134D01*
X161671472Y-114085366D01*
X161698031Y-114110974D01*
X161728523Y-114129421D01*
X161743970Y-114133086D01*
X161786115Y-114120412D01*
X161822408Y-114088671D01*
X161840117Y-114053772D01*
X161857152Y-114028045D01*
X161890522Y-113998746D01*
X161929749Y-113973435D01*
X161964356Y-113959671D01*
X161971593Y-113958914D01*
X161979739Y-113971360D01*
X161980230Y-114003172D01*
X161974243Y-114046066D01*
X161962957Y-114091758D01*
X161947550Y-114131961D01*
X161946771Y-114133522D01*
X161900404Y-114198262D01*
X161840311Y-114242297D01*
X161772065Y-114263911D01*
X161701238Y-114261385D01*
X161633404Y-114233004D01*
X161630388Y-114231008D01*
X161577027Y-114182648D01*
X161541940Y-114119552D01*
X161522522Y-114036587D01*
X161519916Y-114013278D01*
X161515301Y-113903255D01*
X161520833Y-113851948D01*
X161660114Y-113851948D01*
X161661924Y-113883953D01*
X161671822Y-113893293D01*
X161696498Y-113886305D01*
X161735395Y-113869787D01*
X161778875Y-113849081D01*
X161779956Y-113848533D01*
X161816809Y-113829149D01*
X161831600Y-113816213D01*
X161827953Y-113802651D01*
X161812595Y-113784832D01*
X161773523Y-113759045D01*
X161731446Y-113757150D01*
X161693703Y-113775917D01*
X161667634Y-113812115D01*
X161660114Y-113851948D01*
X161520833Y-113851948D01*
X161524794Y-113815227D01*
X161549150Y-113745412D01*
G37*
X161549150Y-113745412D02*
X161583056Y-113696502D01*
X161644253Y-113647078D01*
X161711663Y-113622559D01*
X161780480Y-113620997D01*
X161845903Y-113640439D01*
X161903127Y-113678935D01*
X161947349Y-113734535D01*
X161973767Y-113805286D01*
X161979110Y-113857362D01*
X161978503Y-113879093D01*
X161973422Y-113895731D01*
X161959455Y-113910637D01*
X161932189Y-113927173D01*
X161887212Y-113948698D01*
X161820111Y-113978574D01*
X161819771Y-113978724D01*
X161758007Y-114007013D01*
X161707359Y-114032133D01*
X161673004Y-114051379D01*
X161660118Y-114062048D01*
X161660114Y-114062134D01*
X161671472Y-114085366D01*
X161698031Y-114110974D01*
X161728523Y-114129421D01*
X161743970Y-114133086D01*
X161786115Y-114120412D01*
X161822408Y-114088671D01*
X161840117Y-114053772D01*
X161857152Y-114028045D01*
X161890522Y-113998746D01*
X161929749Y-113973435D01*
X161964356Y-113959671D01*
X161971593Y-113958914D01*
X161979739Y-113971360D01*
X161980230Y-114003172D01*
X161974243Y-114046066D01*
X161962957Y-114091758D01*
X161947550Y-114131961D01*
X161946771Y-114133522D01*
X161900404Y-114198262D01*
X161840311Y-114242297D01*
X161772065Y-114263911D01*
X161701238Y-114261385D01*
X161633404Y-114233004D01*
X161630388Y-114231008D01*
X161577027Y-114182648D01*
X161541940Y-114119552D01*
X161522522Y-114036587D01*
X161519916Y-114013278D01*
X161515301Y-113903255D01*
X161520833Y-113851948D01*
X161660114Y-113851948D01*
X161661924Y-113883953D01*
X161671822Y-113893293D01*
X161696498Y-113886305D01*
X161735395Y-113869787D01*
X161778875Y-113849081D01*
X161779956Y-113848533D01*
X161816809Y-113829149D01*
X161831600Y-113816213D01*
X161827953Y-113802651D01*
X161812595Y-113784832D01*
X161773523Y-113759045D01*
X161731446Y-113757150D01*
X161693703Y-113775917D01*
X161667634Y-113812115D01*
X161660114Y-113851948D01*
X161520833Y-113851948D01*
X161524794Y-113815227D01*
X161549150Y-113745412D01*
X165457433Y-113667863D02*
X165459648Y-113706050D01*
X165459648Y-113706050D02*
X165461384Y-113764086D01*
X165461384Y-113764086D02*
X165462499Y-113837380D01*
X165462499Y-113837380D02*
X165462857Y-113914255D01*
X165462857Y-113914255D02*
X165462857Y-114174396D01*
X165462857Y-114174396D02*
X165416926Y-114220327D01*
X165416926Y-114220327D02*
X165385275Y-114248629D01*
X165385275Y-114248629D02*
X165357490Y-114260093D01*
X165357490Y-114260093D02*
X165319515Y-114259368D01*
X165319515Y-114259368D02*
X165304440Y-114257521D01*
X165304440Y-114257521D02*
X165257326Y-114252148D01*
X165257326Y-114252148D02*
X165218356Y-114249069D01*
X165218356Y-114249069D02*
X165208857Y-114248785D01*
X165208857Y-114248785D02*
X165176833Y-114250645D01*
X165176833Y-114250645D02*
X165131032Y-114255314D01*
X165131032Y-114255314D02*
X165113274Y-114257521D01*
X165113274Y-114257521D02*
X165069657Y-114260935D01*
X165069657Y-114260935D02*
X165040345Y-114253520D01*
X165040345Y-114253520D02*
X165011280Y-114230627D01*
X165011280Y-114230627D02*
X165000788Y-114220327D01*
X165000788Y-114220327D02*
X164954857Y-114174396D01*
X164954857Y-114174396D02*
X164954857Y-113687802D01*
X164954857Y-113687802D02*
X164991826Y-113670958D01*
X164991826Y-113670958D02*
X165023659Y-113658482D01*
X165023659Y-113658482D02*
X165042283Y-113654114D01*
X165042283Y-113654114D02*
X165047058Y-113667918D01*
X165047058Y-113667918D02*
X165051521Y-113706486D01*
X165051521Y-113706486D02*
X165055375Y-113765556D01*
X165055375Y-113765556D02*
X165058322Y-113840863D01*
X165058322Y-113840863D02*
X165059743Y-113904486D01*
X165059743Y-113904486D02*
X165063714Y-114154857D01*
X165063714Y-114154857D02*
X165098359Y-114159756D01*
X165098359Y-114159756D02*
X165129868Y-114156331D01*
X165129868Y-114156331D02*
X165145308Y-114145241D01*
X165145308Y-114145241D02*
X165149623Y-114124508D01*
X165149623Y-114124508D02*
X165153308Y-114080345D01*
X165153308Y-114080345D02*
X165156069Y-114018346D01*
X165156069Y-114018346D02*
X165157612Y-113944109D01*
X165157612Y-113944109D02*
X165157835Y-113905906D01*
X165157835Y-113905906D02*
X165158057Y-113685983D01*
X165158057Y-113685983D02*
X165203766Y-113670049D01*
X165203766Y-113670049D02*
X165236118Y-113659215D01*
X165236118Y-113659215D02*
X165253715Y-113654162D01*
X165253715Y-113654162D02*
X165254223Y-113654114D01*
X165254223Y-113654114D02*
X165255988Y-113667848D01*
X165255988Y-113667848D02*
X165257929Y-113705930D01*
X165257929Y-113705930D02*
X165259882Y-113763682D01*
X165259882Y-113763682D02*
X165261684Y-113836427D01*
X165261684Y-113836427D02*
X165262943Y-113904486D01*
X165262943Y-113904486D02*
X165266914Y-114154857D01*
X165266914Y-114154857D02*
X165354000Y-114154857D01*
X165354000Y-114154857D02*
X165357996Y-113926440D01*
X165357996Y-113926440D02*
X165361992Y-113698022D01*
X165361992Y-113698022D02*
X165404447Y-113676068D01*
X165404447Y-113676068D02*
X165435792Y-113660993D01*
X165435792Y-113660993D02*
X165454344Y-113654151D01*
X165454344Y-113654151D02*
X165454879Y-113654114D01*
X165454879Y-113654114D02*
X165457433Y-113667863D01*
X165457433Y-113667863D02*
X165457433Y-113667863D01*
G36*
X165457433Y-113667863D02*
G01*
X165459648Y-113706050D01*
X165461384Y-113764086D01*
X165462499Y-113837380D01*
X165462857Y-113914255D01*
X165462857Y-114174396D01*
X165416926Y-114220327D01*
X165385275Y-114248629D01*
X165357490Y-114260093D01*
X165319515Y-114259368D01*
X165304440Y-114257521D01*
X165257326Y-114252148D01*
X165218356Y-114249069D01*
X165208857Y-114248785D01*
X165176833Y-114250645D01*
X165131032Y-114255314D01*
X165113274Y-114257521D01*
X165069657Y-114260935D01*
X165040345Y-114253520D01*
X165011280Y-114230627D01*
X165000788Y-114220327D01*
X164954857Y-114174396D01*
X164954857Y-113687802D01*
X164991826Y-113670958D01*
X165023659Y-113658482D01*
X165042283Y-113654114D01*
X165047058Y-113667918D01*
X165051521Y-113706486D01*
X165055375Y-113765556D01*
X165058322Y-113840863D01*
X165059743Y-113904486D01*
X165063714Y-114154857D01*
X165098359Y-114159756D01*
X165129868Y-114156331D01*
X165145308Y-114145241D01*
X165149623Y-114124508D01*
X165153308Y-114080345D01*
X165156069Y-114018346D01*
X165157612Y-113944109D01*
X165157835Y-113905906D01*
X165158057Y-113685983D01*
X165203766Y-113670049D01*
X165236118Y-113659215D01*
X165253715Y-113654162D01*
X165254223Y-113654114D01*
X165255988Y-113667848D01*
X165257929Y-113705930D01*
X165259882Y-113763682D01*
X165261684Y-113836427D01*
X165262943Y-113904486D01*
X165266914Y-114154857D01*
X165354000Y-114154857D01*
X165357996Y-113926440D01*
X165361992Y-113698022D01*
X165404447Y-113676068D01*
X165435792Y-113660993D01*
X165454344Y-113654151D01*
X165454879Y-113654114D01*
X165457433Y-113667863D01*
G37*
X165457433Y-113667863D02*
X165459648Y-113706050D01*
X165461384Y-113764086D01*
X165462499Y-113837380D01*
X165462857Y-113914255D01*
X165462857Y-114174396D01*
X165416926Y-114220327D01*
X165385275Y-114248629D01*
X165357490Y-114260093D01*
X165319515Y-114259368D01*
X165304440Y-114257521D01*
X165257326Y-114252148D01*
X165218356Y-114249069D01*
X165208857Y-114248785D01*
X165176833Y-114250645D01*
X165131032Y-114255314D01*
X165113274Y-114257521D01*
X165069657Y-114260935D01*
X165040345Y-114253520D01*
X165011280Y-114230627D01*
X165000788Y-114220327D01*
X164954857Y-114174396D01*
X164954857Y-113687802D01*
X164991826Y-113670958D01*
X165023659Y-113658482D01*
X165042283Y-113654114D01*
X165047058Y-113667918D01*
X165051521Y-113706486D01*
X165055375Y-113765556D01*
X165058322Y-113840863D01*
X165059743Y-113904486D01*
X165063714Y-114154857D01*
X165098359Y-114159756D01*
X165129868Y-114156331D01*
X165145308Y-114145241D01*
X165149623Y-114124508D01*
X165153308Y-114080345D01*
X165156069Y-114018346D01*
X165157612Y-113944109D01*
X165157835Y-113905906D01*
X165158057Y-113685983D01*
X165203766Y-113670049D01*
X165236118Y-113659215D01*
X165253715Y-113654162D01*
X165254223Y-113654114D01*
X165255988Y-113667848D01*
X165257929Y-113705930D01*
X165259882Y-113763682D01*
X165261684Y-113836427D01*
X165262943Y-113904486D01*
X165266914Y-114154857D01*
X165354000Y-114154857D01*
X165357996Y-113926440D01*
X165361992Y-113698022D01*
X165404447Y-113676068D01*
X165435792Y-113660993D01*
X165454344Y-113654151D01*
X165454879Y-113654114D01*
X165457433Y-113667863D01*
X164867717Y-113774558D02*
X164867533Y-113883037D01*
X164867533Y-113883037D02*
X164866819Y-113966487D01*
X164866819Y-113966487D02*
X164865275Y-114028904D01*
X164865275Y-114028904D02*
X164862601Y-114074285D01*
X164862601Y-114074285D02*
X164858494Y-114106629D01*
X164858494Y-114106629D02*
X164852655Y-114129933D01*
X164852655Y-114129933D02*
X164844782Y-114148195D01*
X164844782Y-114148195D02*
X164838821Y-114158618D01*
X164838821Y-114158618D02*
X164789455Y-114215145D01*
X164789455Y-114215145D02*
X164726864Y-114250577D01*
X164726864Y-114250577D02*
X164657613Y-114263290D01*
X164657613Y-114263290D02*
X164588268Y-114251663D01*
X164588268Y-114251663D02*
X164546975Y-114230768D01*
X164546975Y-114230768D02*
X164503625Y-114194622D01*
X164503625Y-114194622D02*
X164474081Y-114150476D01*
X164474081Y-114150476D02*
X164456255Y-114092662D01*
X164456255Y-114092662D02*
X164448063Y-114015513D01*
X164448063Y-114015513D02*
X164446902Y-113958914D01*
X164446902Y-113958914D02*
X164447058Y-113954847D01*
X164447058Y-113954847D02*
X164548457Y-113954847D01*
X164548457Y-113954847D02*
X164549076Y-114019750D01*
X164549076Y-114019750D02*
X164551914Y-114062714D01*
X164551914Y-114062714D02*
X164558440Y-114090822D01*
X164558440Y-114090822D02*
X164570123Y-114111153D01*
X164570123Y-114111153D02*
X164584083Y-114126488D01*
X164584083Y-114126488D02*
X164630965Y-114156090D01*
X164630965Y-114156090D02*
X164681301Y-114158619D01*
X164681301Y-114158619D02*
X164728876Y-114133905D01*
X164728876Y-114133905D02*
X164732579Y-114130556D01*
X164732579Y-114130556D02*
X164748383Y-114113135D01*
X164748383Y-114113135D02*
X164758293Y-114092409D01*
X164758293Y-114092409D02*
X164763658Y-114061562D01*
X164763658Y-114061562D02*
X164765828Y-114013777D01*
X164765828Y-114013777D02*
X164766171Y-113960948D01*
X164766171Y-113960948D02*
X164765427Y-113894581D01*
X164765427Y-113894581D02*
X164762348Y-113850306D01*
X164762348Y-113850306D02*
X164755661Y-113821209D01*
X164755661Y-113821209D02*
X164744096Y-113800373D01*
X164744096Y-113800373D02*
X164734613Y-113789307D01*
X164734613Y-113789307D02*
X164690560Y-113761398D01*
X164690560Y-113761398D02*
X164639824Y-113758043D01*
X164639824Y-113758043D02*
X164591396Y-113779359D01*
X164591396Y-113779359D02*
X164582050Y-113787273D01*
X164582050Y-113787273D02*
X164566140Y-113804847D01*
X164566140Y-113804847D02*
X164556210Y-113825787D01*
X164556210Y-113825787D02*
X164550878Y-113856982D01*
X164550878Y-113856982D02*
X164548763Y-113905322D01*
X164548763Y-113905322D02*
X164548457Y-113954847D01*
X164548457Y-113954847D02*
X164447058Y-113954847D01*
X164447058Y-113954847D02*
X164450410Y-113867768D01*
X164450410Y-113867768D02*
X164462326Y-113799286D01*
X164462326Y-113799286D02*
X164484735Y-113747800D01*
X164484735Y-113747800D02*
X164519724Y-113707643D01*
X164519724Y-113707643D02*
X164546975Y-113687061D01*
X164546975Y-113687061D02*
X164596507Y-113664825D01*
X164596507Y-113664825D02*
X164653916Y-113654504D01*
X164653916Y-113654504D02*
X164707282Y-113657267D01*
X164707282Y-113657267D02*
X164737143Y-113668412D01*
X164737143Y-113668412D02*
X164748861Y-113671583D01*
X164748861Y-113671583D02*
X164756637Y-113659757D01*
X164756637Y-113659757D02*
X164762065Y-113628066D01*
X164762065Y-113628066D02*
X164766171Y-113579793D01*
X164766171Y-113579793D02*
X164770667Y-113526029D01*
X164770667Y-113526029D02*
X164776913Y-113493682D01*
X164776913Y-113493682D02*
X164788276Y-113475185D01*
X164788276Y-113475185D02*
X164808128Y-113462970D01*
X164808128Y-113462970D02*
X164820600Y-113457562D01*
X164820600Y-113457562D02*
X164867771Y-113437801D01*
X164867771Y-113437801D02*
X164867717Y-113774558D01*
X164867717Y-113774558D02*
X164867717Y-113774558D01*
G36*
X164462326Y-113799286D02*
G01*
X164484735Y-113747800D01*
X164519724Y-113707643D01*
X164546975Y-113687061D01*
X164596507Y-113664825D01*
X164653916Y-113654504D01*
X164707282Y-113657267D01*
X164737143Y-113668412D01*
X164748861Y-113671583D01*
X164756637Y-113659757D01*
X164762065Y-113628066D01*
X164766171Y-113579793D01*
X164770667Y-113526029D01*
X164776913Y-113493682D01*
X164788276Y-113475185D01*
X164808128Y-113462970D01*
X164820600Y-113457562D01*
X164867771Y-113437801D01*
X164867717Y-113774558D01*
X164867533Y-113883037D01*
X164866819Y-113966487D01*
X164865275Y-114028904D01*
X164862601Y-114074285D01*
X164858494Y-114106629D01*
X164852655Y-114129933D01*
X164844782Y-114148195D01*
X164838821Y-114158618D01*
X164789455Y-114215145D01*
X164726864Y-114250577D01*
X164657613Y-114263290D01*
X164588268Y-114251663D01*
X164546975Y-114230768D01*
X164503625Y-114194622D01*
X164474081Y-114150476D01*
X164456255Y-114092662D01*
X164448063Y-114015513D01*
X164446902Y-113958914D01*
X164447058Y-113954847D01*
X164548457Y-113954847D01*
X164549076Y-114019750D01*
X164551914Y-114062714D01*
X164558440Y-114090822D01*
X164570123Y-114111153D01*
X164584083Y-114126488D01*
X164630965Y-114156090D01*
X164681301Y-114158619D01*
X164728876Y-114133905D01*
X164732579Y-114130556D01*
X164748383Y-114113135D01*
X164758293Y-114092409D01*
X164763658Y-114061562D01*
X164765828Y-114013777D01*
X164766171Y-113960948D01*
X164765427Y-113894581D01*
X164762348Y-113850306D01*
X164755661Y-113821209D01*
X164744096Y-113800373D01*
X164734613Y-113789307D01*
X164690560Y-113761398D01*
X164639824Y-113758043D01*
X164591396Y-113779359D01*
X164582050Y-113787273D01*
X164566140Y-113804847D01*
X164556210Y-113825787D01*
X164550878Y-113856982D01*
X164548763Y-113905322D01*
X164548457Y-113954847D01*
X164447058Y-113954847D01*
X164450410Y-113867768D01*
X164462326Y-113799286D01*
G37*
X164462326Y-113799286D02*
X164484735Y-113747800D01*
X164519724Y-113707643D01*
X164546975Y-113687061D01*
X164596507Y-113664825D01*
X164653916Y-113654504D01*
X164707282Y-113657267D01*
X164737143Y-113668412D01*
X164748861Y-113671583D01*
X164756637Y-113659757D01*
X164762065Y-113628066D01*
X164766171Y-113579793D01*
X164770667Y-113526029D01*
X164776913Y-113493682D01*
X164788276Y-113475185D01*
X164808128Y-113462970D01*
X164820600Y-113457562D01*
X164867771Y-113437801D01*
X164867717Y-113774558D01*
X164867533Y-113883037D01*
X164866819Y-113966487D01*
X164865275Y-114028904D01*
X164862601Y-114074285D01*
X164858494Y-114106629D01*
X164852655Y-114129933D01*
X164844782Y-114148195D01*
X164838821Y-114158618D01*
X164789455Y-114215145D01*
X164726864Y-114250577D01*
X164657613Y-114263290D01*
X164588268Y-114251663D01*
X164546975Y-114230768D01*
X164503625Y-114194622D01*
X164474081Y-114150476D01*
X164456255Y-114092662D01*
X164448063Y-114015513D01*
X164446902Y-113958914D01*
X164447058Y-113954847D01*
X164548457Y-113954847D01*
X164549076Y-114019750D01*
X164551914Y-114062714D01*
X164558440Y-114090822D01*
X164570123Y-114111153D01*
X164584083Y-114126488D01*
X164630965Y-114156090D01*
X164681301Y-114158619D01*
X164728876Y-114133905D01*
X164732579Y-114130556D01*
X164748383Y-114113135D01*
X164758293Y-114092409D01*
X164763658Y-114061562D01*
X164765828Y-114013777D01*
X164766171Y-113960948D01*
X164765427Y-113894581D01*
X164762348Y-113850306D01*
X164755661Y-113821209D01*
X164744096Y-113800373D01*
X164734613Y-113789307D01*
X164690560Y-113761398D01*
X164639824Y-113758043D01*
X164591396Y-113779359D01*
X164582050Y-113787273D01*
X164566140Y-113804847D01*
X164556210Y-113825787D01*
X164550878Y-113856982D01*
X164548763Y-113905322D01*
X164548457Y-113954847D01*
X164447058Y-113954847D01*
X164450410Y-113867768D01*
X164462326Y-113799286D01*
X163717344Y-113660168D02*
X163774216Y-113681287D01*
X163774216Y-113681287D02*
X163774867Y-113681693D01*
X163774867Y-113681693D02*
X163810040Y-113707580D01*
X163810040Y-113707580D02*
X163836007Y-113737833D01*
X163836007Y-113737833D02*
X163854270Y-113777258D01*
X163854270Y-113777258D02*
X163866332Y-113830662D01*
X163866332Y-113830662D02*
X163873696Y-113902851D01*
X163873696Y-113902851D02*
X163877864Y-113998632D01*
X163877864Y-113998632D02*
X163878229Y-114012278D01*
X163878229Y-114012278D02*
X163883476Y-114218042D01*
X163883476Y-114218042D02*
X163839316Y-114240878D01*
X163839316Y-114240878D02*
X163807363Y-114256310D01*
X163807363Y-114256310D02*
X163788070Y-114263623D01*
X163788070Y-114263623D02*
X163787178Y-114263714D01*
X163787178Y-114263714D02*
X163783839Y-114250222D01*
X163783839Y-114250222D02*
X163781187Y-114213826D01*
X163781187Y-114213826D02*
X163779556Y-114160652D01*
X163779556Y-114160652D02*
X163779200Y-114117593D01*
X163779200Y-114117593D02*
X163779192Y-114047841D01*
X163779192Y-114047841D02*
X163776003Y-114004037D01*
X163776003Y-114004037D02*
X163764888Y-113983144D01*
X163764888Y-113983144D02*
X163741101Y-113982125D01*
X163741101Y-113982125D02*
X163699896Y-113997941D01*
X163699896Y-113997941D02*
X163637686Y-114027015D01*
X163637686Y-114027015D02*
X163591941Y-114051163D01*
X163591941Y-114051163D02*
X163568413Y-114072113D01*
X163568413Y-114072113D02*
X163561496Y-114094947D01*
X163561496Y-114094947D02*
X163561486Y-114096077D01*
X163561486Y-114096077D02*
X163572899Y-114135412D01*
X163572899Y-114135412D02*
X163606692Y-114156662D01*
X163606692Y-114156662D02*
X163658409Y-114159739D01*
X163658409Y-114159739D02*
X163695661Y-114159206D01*
X163695661Y-114159206D02*
X163715303Y-114169935D01*
X163715303Y-114169935D02*
X163727552Y-114195705D01*
X163727552Y-114195705D02*
X163734602Y-114228537D01*
X163734602Y-114228537D02*
X163724442Y-114247166D01*
X163724442Y-114247166D02*
X163720617Y-114249832D01*
X163720617Y-114249832D02*
X163684601Y-114260540D01*
X163684601Y-114260540D02*
X163634166Y-114262056D01*
X163634166Y-114262056D02*
X163582226Y-114254959D01*
X163582226Y-114254959D02*
X163545422Y-114241988D01*
X163545422Y-114241988D02*
X163494538Y-114198785D01*
X163494538Y-114198785D02*
X163465614Y-114138646D01*
X163465614Y-114138646D02*
X163459886Y-114091662D01*
X163459886Y-114091662D02*
X163464257Y-114049282D01*
X163464257Y-114049282D02*
X163480075Y-114014688D01*
X163480075Y-114014688D02*
X163511397Y-113983963D01*
X163511397Y-113983963D02*
X163562278Y-113953190D01*
X163562278Y-113953190D02*
X163636776Y-113918452D01*
X163636776Y-113918452D02*
X163641314Y-113916488D01*
X163641314Y-113916488D02*
X163708421Y-113885487D01*
X163708421Y-113885487D02*
X163749832Y-113860062D01*
X163749832Y-113860062D02*
X163767581Y-113837214D01*
X163767581Y-113837214D02*
X163763707Y-113813945D01*
X163763707Y-113813945D02*
X163740243Y-113787256D01*
X163740243Y-113787256D02*
X163733227Y-113781114D01*
X163733227Y-113781114D02*
X163686230Y-113757300D01*
X163686230Y-113757300D02*
X163637533Y-113758303D01*
X163637533Y-113758303D02*
X163595122Y-113781651D01*
X163595122Y-113781651D02*
X163566984Y-113824875D01*
X163566984Y-113824875D02*
X163564369Y-113833360D01*
X163564369Y-113833360D02*
X163538908Y-113874508D01*
X163538908Y-113874508D02*
X163506601Y-113894328D01*
X163506601Y-113894328D02*
X163459886Y-113913970D01*
X163459886Y-113913970D02*
X163459886Y-113863150D01*
X163459886Y-113863150D02*
X163474096Y-113789282D01*
X163474096Y-113789282D02*
X163516275Y-113721527D01*
X163516275Y-113721527D02*
X163538224Y-113698861D01*
X163538224Y-113698861D02*
X163588117Y-113669769D01*
X163588117Y-113669769D02*
X163651567Y-113656600D01*
X163651567Y-113656600D02*
X163717344Y-113660168D01*
X163717344Y-113660168D02*
X163717344Y-113660168D01*
G36*
X163717344Y-113660168D02*
G01*
X163774216Y-113681287D01*
X163774867Y-113681693D01*
X163810040Y-113707580D01*
X163836007Y-113737833D01*
X163854270Y-113777258D01*
X163866332Y-113830662D01*
X163873696Y-113902851D01*
X163877864Y-113998632D01*
X163878229Y-114012278D01*
X163883476Y-114218042D01*
X163839316Y-114240878D01*
X163807363Y-114256310D01*
X163788070Y-114263623D01*
X163787178Y-114263714D01*
X163783839Y-114250222D01*
X163781187Y-114213826D01*
X163779556Y-114160652D01*
X163779200Y-114117593D01*
X163779192Y-114047841D01*
X163776003Y-114004037D01*
X163764888Y-113983144D01*
X163741101Y-113982125D01*
X163699896Y-113997941D01*
X163637686Y-114027015D01*
X163591941Y-114051163D01*
X163568413Y-114072113D01*
X163561496Y-114094947D01*
X163561486Y-114096077D01*
X163572899Y-114135412D01*
X163606692Y-114156662D01*
X163658409Y-114159739D01*
X163695661Y-114159206D01*
X163715303Y-114169935D01*
X163727552Y-114195705D01*
X163734602Y-114228537D01*
X163724442Y-114247166D01*
X163720617Y-114249832D01*
X163684601Y-114260540D01*
X163634166Y-114262056D01*
X163582226Y-114254959D01*
X163545422Y-114241988D01*
X163494538Y-114198785D01*
X163465614Y-114138646D01*
X163459886Y-114091662D01*
X163464257Y-114049282D01*
X163480075Y-114014688D01*
X163511397Y-113983963D01*
X163562278Y-113953190D01*
X163636776Y-113918452D01*
X163641314Y-113916488D01*
X163708421Y-113885487D01*
X163749832Y-113860062D01*
X163767581Y-113837214D01*
X163763707Y-113813945D01*
X163740243Y-113787256D01*
X163733227Y-113781114D01*
X163686230Y-113757300D01*
X163637533Y-113758303D01*
X163595122Y-113781651D01*
X163566984Y-113824875D01*
X163564369Y-113833360D01*
X163538908Y-113874508D01*
X163506601Y-113894328D01*
X163459886Y-113913970D01*
X163459886Y-113863150D01*
X163474096Y-113789282D01*
X163516275Y-113721527D01*
X163538224Y-113698861D01*
X163588117Y-113669769D01*
X163651567Y-113656600D01*
X163717344Y-113660168D01*
G37*
X163717344Y-113660168D02*
X163774216Y-113681287D01*
X163774867Y-113681693D01*
X163810040Y-113707580D01*
X163836007Y-113737833D01*
X163854270Y-113777258D01*
X163866332Y-113830662D01*
X163873696Y-113902851D01*
X163877864Y-113998632D01*
X163878229Y-114012278D01*
X163883476Y-114218042D01*
X163839316Y-114240878D01*
X163807363Y-114256310D01*
X163788070Y-114263623D01*
X163787178Y-114263714D01*
X163783839Y-114250222D01*
X163781187Y-114213826D01*
X163779556Y-114160652D01*
X163779200Y-114117593D01*
X163779192Y-114047841D01*
X163776003Y-114004037D01*
X163764888Y-113983144D01*
X163741101Y-113982125D01*
X163699896Y-113997941D01*
X163637686Y-114027015D01*
X163591941Y-114051163D01*
X163568413Y-114072113D01*
X163561496Y-114094947D01*
X163561486Y-114096077D01*
X163572899Y-114135412D01*
X163606692Y-114156662D01*
X163658409Y-114159739D01*
X163695661Y-114159206D01*
X163715303Y-114169935D01*
X163727552Y-114195705D01*
X163734602Y-114228537D01*
X163724442Y-114247166D01*
X163720617Y-114249832D01*
X163684601Y-114260540D01*
X163634166Y-114262056D01*
X163582226Y-114254959D01*
X163545422Y-114241988D01*
X163494538Y-114198785D01*
X163465614Y-114138646D01*
X163459886Y-114091662D01*
X163464257Y-114049282D01*
X163480075Y-114014688D01*
X163511397Y-113983963D01*
X163562278Y-113953190D01*
X163636776Y-113918452D01*
X163641314Y-113916488D01*
X163708421Y-113885487D01*
X163749832Y-113860062D01*
X163767581Y-113837214D01*
X163763707Y-113813945D01*
X163740243Y-113787256D01*
X163733227Y-113781114D01*
X163686230Y-113757300D01*
X163637533Y-113758303D01*
X163595122Y-113781651D01*
X163566984Y-113824875D01*
X163564369Y-113833360D01*
X163538908Y-113874508D01*
X163506601Y-113894328D01*
X163459886Y-113913970D01*
X163459886Y-113863150D01*
X163474096Y-113789282D01*
X163516275Y-113721527D01*
X163538224Y-113698861D01*
X163588117Y-113669769D01*
X163651567Y-113656600D01*
X163717344Y-113660168D01*
X165822476Y-113665535D02*
X165864267Y-113684544D01*
X165864267Y-113684544D02*
X165897069Y-113707578D01*
X165897069Y-113707578D02*
X165921103Y-113733333D01*
X165921103Y-113733333D02*
X165937697Y-113766558D01*
X165937697Y-113766558D02*
X165948177Y-113812000D01*
X165948177Y-113812000D02*
X165953871Y-113874407D01*
X165953871Y-113874407D02*
X165956107Y-113958527D01*
X165956107Y-113958527D02*
X165956343Y-114013921D01*
X165956343Y-114013921D02*
X165956343Y-114230026D01*
X165956343Y-114230026D02*
X165919374Y-114246870D01*
X165919374Y-114246870D02*
X165890256Y-114259181D01*
X165890256Y-114259181D02*
X165875831Y-114263714D01*
X165875831Y-114263714D02*
X165873072Y-114250225D01*
X165873072Y-114250225D02*
X165870882Y-114213853D01*
X165870882Y-114213853D02*
X165869542Y-114160742D01*
X165869542Y-114160742D02*
X165869257Y-114118572D01*
X165869257Y-114118572D02*
X165868034Y-114057647D01*
X165868034Y-114057647D02*
X165864736Y-114009315D01*
X165864736Y-114009315D02*
X165859921Y-113979718D01*
X165859921Y-113979718D02*
X165856096Y-113973429D01*
X165856096Y-113973429D02*
X165830383Y-113979852D01*
X165830383Y-113979852D02*
X165790018Y-113996325D01*
X165790018Y-113996325D02*
X165743279Y-114018658D01*
X165743279Y-114018658D02*
X165698445Y-114042657D01*
X165698445Y-114042657D02*
X165663793Y-114064130D01*
X165663793Y-114064130D02*
X165647602Y-114078885D01*
X165647602Y-114078885D02*
X165647538Y-114079045D01*
X165647538Y-114079045D02*
X165648930Y-114106352D01*
X165648930Y-114106352D02*
X165661418Y-114132419D01*
X165661418Y-114132419D02*
X165683343Y-114153592D01*
X165683343Y-114153592D02*
X165715343Y-114160674D01*
X165715343Y-114160674D02*
X165742692Y-114159849D01*
X165742692Y-114159849D02*
X165781426Y-114159242D01*
X165781426Y-114159242D02*
X165801758Y-114168316D01*
X165801758Y-114168316D02*
X165813969Y-114192292D01*
X165813969Y-114192292D02*
X165815509Y-114196813D01*
X165815509Y-114196813D02*
X165820803Y-114231006D01*
X165820803Y-114231006D02*
X165806647Y-114251768D01*
X165806647Y-114251768D02*
X165769748Y-114261662D01*
X165769748Y-114261662D02*
X165729889Y-114263492D01*
X165729889Y-114263492D02*
X165658162Y-114249927D01*
X165658162Y-114249927D02*
X165621032Y-114230555D01*
X165621032Y-114230555D02*
X165575176Y-114185045D01*
X165575176Y-114185045D02*
X165550856Y-114129183D01*
X165550856Y-114129183D02*
X165548673Y-114070157D01*
X165548673Y-114070157D02*
X165569229Y-114015153D01*
X165569229Y-114015153D02*
X165600149Y-113980686D01*
X165600149Y-113980686D02*
X165631020Y-113961389D01*
X165631020Y-113961389D02*
X165679542Y-113936959D01*
X165679542Y-113936959D02*
X165736085Y-113912185D01*
X165736085Y-113912185D02*
X165745510Y-113908399D01*
X165745510Y-113908399D02*
X165807619Y-113880991D01*
X165807619Y-113880991D02*
X165843422Y-113856834D01*
X165843422Y-113856834D02*
X165854937Y-113832819D01*
X165854937Y-113832819D02*
X165844180Y-113805835D01*
X165844180Y-113805835D02*
X165825714Y-113784743D01*
X165825714Y-113784743D02*
X165782069Y-113758772D01*
X165782069Y-113758772D02*
X165734046Y-113756824D01*
X165734046Y-113756824D02*
X165690006Y-113776837D01*
X165690006Y-113776837D02*
X165658309Y-113816751D01*
X165658309Y-113816751D02*
X165654149Y-113827048D01*
X165654149Y-113827048D02*
X165629927Y-113864924D01*
X165629927Y-113864924D02*
X165594565Y-113893042D01*
X165594565Y-113893042D02*
X165549943Y-113916117D01*
X165549943Y-113916117D02*
X165549943Y-113850685D01*
X165549943Y-113850685D02*
X165552569Y-113810706D01*
X165552569Y-113810706D02*
X165563830Y-113779197D01*
X165563830Y-113779197D02*
X165588799Y-113745578D01*
X165588799Y-113745578D02*
X165612769Y-113719684D01*
X165612769Y-113719684D02*
X165650041Y-113683017D01*
X165650041Y-113683017D02*
X165679001Y-113663321D01*
X165679001Y-113663321D02*
X165710105Y-113655420D01*
X165710105Y-113655420D02*
X165745313Y-113654114D01*
X165745313Y-113654114D02*
X165822476Y-113665535D01*
X165822476Y-113665535D02*
X165822476Y-113665535D01*
G36*
X165822476Y-113665535D02*
G01*
X165864267Y-113684544D01*
X165897069Y-113707578D01*
X165921103Y-113733333D01*
X165937697Y-113766558D01*
X165948177Y-113812000D01*
X165953871Y-113874407D01*
X165956107Y-113958527D01*
X165956343Y-114013921D01*
X165956343Y-114230026D01*
X165919374Y-114246870D01*
X165890256Y-114259181D01*
X165875831Y-114263714D01*
X165873072Y-114250225D01*
X165870882Y-114213853D01*
X165869542Y-114160742D01*
X165869257Y-114118572D01*
X165868034Y-114057647D01*
X165864736Y-114009315D01*
X165859921Y-113979718D01*
X165856096Y-113973429D01*
X165830383Y-113979852D01*
X165790018Y-113996325D01*
X165743279Y-114018658D01*
X165698445Y-114042657D01*
X165663793Y-114064130D01*
X165647602Y-114078885D01*
X165647538Y-114079045D01*
X165648930Y-114106352D01*
X165661418Y-114132419D01*
X165683343Y-114153592D01*
X165715343Y-114160674D01*
X165742692Y-114159849D01*
X165781426Y-114159242D01*
X165801758Y-114168316D01*
X165813969Y-114192292D01*
X165815509Y-114196813D01*
X165820803Y-114231006D01*
X165806647Y-114251768D01*
X165769748Y-114261662D01*
X165729889Y-114263492D01*
X165658162Y-114249927D01*
X165621032Y-114230555D01*
X165575176Y-114185045D01*
X165550856Y-114129183D01*
X165548673Y-114070157D01*
X165569229Y-114015153D01*
X165600149Y-113980686D01*
X165631020Y-113961389D01*
X165679542Y-113936959D01*
X165736085Y-113912185D01*
X165745510Y-113908399D01*
X165807619Y-113880991D01*
X165843422Y-113856834D01*
X165854937Y-113832819D01*
X165844180Y-113805835D01*
X165825714Y-113784743D01*
X165782069Y-113758772D01*
X165734046Y-113756824D01*
X165690006Y-113776837D01*
X165658309Y-113816751D01*
X165654149Y-113827048D01*
X165629927Y-113864924D01*
X165594565Y-113893042D01*
X165549943Y-113916117D01*
X165549943Y-113850685D01*
X165552569Y-113810706D01*
X165563830Y-113779197D01*
X165588799Y-113745578D01*
X165612769Y-113719684D01*
X165650041Y-113683017D01*
X165679001Y-113663321D01*
X165710105Y-113655420D01*
X165745313Y-113654114D01*
X165822476Y-113665535D01*
G37*
X165822476Y-113665535D02*
X165864267Y-113684544D01*
X165897069Y-113707578D01*
X165921103Y-113733333D01*
X165937697Y-113766558D01*
X165948177Y-113812000D01*
X165953871Y-113874407D01*
X165956107Y-113958527D01*
X165956343Y-114013921D01*
X165956343Y-114230026D01*
X165919374Y-114246870D01*
X165890256Y-114259181D01*
X165875831Y-114263714D01*
X165873072Y-114250225D01*
X165870882Y-114213853D01*
X165869542Y-114160742D01*
X165869257Y-114118572D01*
X165868034Y-114057647D01*
X165864736Y-114009315D01*
X165859921Y-113979718D01*
X165856096Y-113973429D01*
X165830383Y-113979852D01*
X165790018Y-113996325D01*
X165743279Y-114018658D01*
X165698445Y-114042657D01*
X165663793Y-114064130D01*
X165647602Y-114078885D01*
X165647538Y-114079045D01*
X165648930Y-114106352D01*
X165661418Y-114132419D01*
X165683343Y-114153592D01*
X165715343Y-114160674D01*
X165742692Y-114159849D01*
X165781426Y-114159242D01*
X165801758Y-114168316D01*
X165813969Y-114192292D01*
X165815509Y-114196813D01*
X165820803Y-114231006D01*
X165806647Y-114251768D01*
X165769748Y-114261662D01*
X165729889Y-114263492D01*
X165658162Y-114249927D01*
X165621032Y-114230555D01*
X165575176Y-114185045D01*
X165550856Y-114129183D01*
X165548673Y-114070157D01*
X165569229Y-114015153D01*
X165600149Y-113980686D01*
X165631020Y-113961389D01*
X165679542Y-113936959D01*
X165736085Y-113912185D01*
X165745510Y-113908399D01*
X165807619Y-113880991D01*
X165843422Y-113856834D01*
X165854937Y-113832819D01*
X165844180Y-113805835D01*
X165825714Y-113784743D01*
X165782069Y-113758772D01*
X165734046Y-113756824D01*
X165690006Y-113776837D01*
X165658309Y-113816751D01*
X165654149Y-113827048D01*
X165629927Y-113864924D01*
X165594565Y-113893042D01*
X165549943Y-113916117D01*
X165549943Y-113850685D01*
X165552569Y-113810706D01*
X165563830Y-113779197D01*
X165588799Y-113745578D01*
X165612769Y-113719684D01*
X165650041Y-113683017D01*
X165679001Y-113663321D01*
X165710105Y-113655420D01*
X165745313Y-113654114D01*
X165822476Y-113665535D01*
X162393693Y-113636980D02*
X162440272Y-113663923D01*
X162440272Y-113663923D02*
X162472657Y-113690666D01*
X162472657Y-113690666D02*
X162496342Y-113718684D01*
X162496342Y-113718684D02*
X162512659Y-113752948D01*
X162512659Y-113752948D02*
X162522939Y-113798427D01*
X162522939Y-113798427D02*
X162528514Y-113860092D01*
X162528514Y-113860092D02*
X162530716Y-113942911D01*
X162530716Y-113942911D02*
X162530971Y-114002446D01*
X162530971Y-114002446D02*
X162530971Y-114221591D01*
X162530971Y-114221591D02*
X162469286Y-114249244D01*
X162469286Y-114249244D02*
X162407600Y-114276897D01*
X162407600Y-114276897D02*
X162400343Y-114036870D01*
X162400343Y-114036870D02*
X162397344Y-113947228D01*
X162397344Y-113947228D02*
X162394198Y-113882162D01*
X162394198Y-113882162D02*
X162390301Y-113837226D01*
X162390301Y-113837226D02*
X162385047Y-113807970D01*
X162385047Y-113807970D02*
X162377831Y-113789948D01*
X162377831Y-113789948D02*
X162368050Y-113778711D01*
X162368050Y-113778711D02*
X162364912Y-113776279D01*
X162364912Y-113776279D02*
X162317361Y-113757283D01*
X162317361Y-113757283D02*
X162269297Y-113764800D01*
X162269297Y-113764800D02*
X162240686Y-113784743D01*
X162240686Y-113784743D02*
X162229047Y-113798875D01*
X162229047Y-113798875D02*
X162220991Y-113817420D01*
X162220991Y-113817420D02*
X162215871Y-113845534D01*
X162215871Y-113845534D02*
X162213041Y-113888373D01*
X162213041Y-113888373D02*
X162211856Y-113951095D01*
X162211856Y-113951095D02*
X162211657Y-114016461D01*
X162211657Y-114016461D02*
X162211618Y-114098468D01*
X162211618Y-114098468D02*
X162210214Y-114156516D01*
X162210214Y-114156516D02*
X162205514Y-114195665D01*
X162205514Y-114195665D02*
X162195587Y-114220980D01*
X162195587Y-114220980D02*
X162178503Y-114237523D01*
X162178503Y-114237523D02*
X162152332Y-114250356D01*
X162152332Y-114250356D02*
X162117375Y-114263691D01*
X162117375Y-114263691D02*
X162079196Y-114278207D01*
X162079196Y-114278207D02*
X162083741Y-114020589D01*
X162083741Y-114020589D02*
X162085571Y-113927719D01*
X162085571Y-113927719D02*
X162087712Y-113859089D01*
X162087712Y-113859089D02*
X162090781Y-113809911D01*
X162090781Y-113809911D02*
X162095394Y-113775398D01*
X162095394Y-113775398D02*
X162102168Y-113750762D01*
X162102168Y-113750762D02*
X162111719Y-113731216D01*
X162111719Y-113731216D02*
X162123234Y-113713970D01*
X162123234Y-113713970D02*
X162178790Y-113658880D01*
X162178790Y-113658880D02*
X162246580Y-113627022D01*
X162246580Y-113627022D02*
X162320313Y-113619391D01*
X162320313Y-113619391D02*
X162393693Y-113636980D01*
X162393693Y-113636980D02*
X162393693Y-113636980D01*
G36*
X162393693Y-113636980D02*
G01*
X162440272Y-113663923D01*
X162472657Y-113690666D01*
X162496342Y-113718684D01*
X162512659Y-113752948D01*
X162522939Y-113798427D01*
X162528514Y-113860092D01*
X162530716Y-113942911D01*
X162530971Y-114002446D01*
X162530971Y-114221591D01*
X162469286Y-114249244D01*
X162407600Y-114276897D01*
X162400343Y-114036870D01*
X162397344Y-113947228D01*
X162394198Y-113882162D01*
X162390301Y-113837226D01*
X162385047Y-113807970D01*
X162377831Y-113789948D01*
X162368050Y-113778711D01*
X162364912Y-113776279D01*
X162317361Y-113757283D01*
X162269297Y-113764800D01*
X162240686Y-113784743D01*
X162229047Y-113798875D01*
X162220991Y-113817420D01*
X162215871Y-113845534D01*
X162213041Y-113888373D01*
X162211856Y-113951095D01*
X162211657Y-114016461D01*
X162211618Y-114098468D01*
X162210214Y-114156516D01*
X162205514Y-114195665D01*
X162195587Y-114220980D01*
X162178503Y-114237523D01*
X162152332Y-114250356D01*
X162117375Y-114263691D01*
X162079196Y-114278207D01*
X162083741Y-114020589D01*
X162085571Y-113927719D01*
X162087712Y-113859089D01*
X162090781Y-113809911D01*
X162095394Y-113775398D01*
X162102168Y-113750762D01*
X162111719Y-113731216D01*
X162123234Y-113713970D01*
X162178790Y-113658880D01*
X162246580Y-113627022D01*
X162320313Y-113619391D01*
X162393693Y-113636980D01*
G37*
X162393693Y-113636980D02*
X162440272Y-113663923D01*
X162472657Y-113690666D01*
X162496342Y-113718684D01*
X162512659Y-113752948D01*
X162522939Y-113798427D01*
X162528514Y-113860092D01*
X162530716Y-113942911D01*
X162530971Y-114002446D01*
X162530971Y-114221591D01*
X162469286Y-114249244D01*
X162407600Y-114276897D01*
X162400343Y-114036870D01*
X162397344Y-113947228D01*
X162394198Y-113882162D01*
X162390301Y-113837226D01*
X162385047Y-113807970D01*
X162377831Y-113789948D01*
X162368050Y-113778711D01*
X162364912Y-113776279D01*
X162317361Y-113757283D01*
X162269297Y-113764800D01*
X162240686Y-113784743D01*
X162229047Y-113798875D01*
X162220991Y-113817420D01*
X162215871Y-113845534D01*
X162213041Y-113888373D01*
X162211856Y-113951095D01*
X162211657Y-114016461D01*
X162211618Y-114098468D01*
X162210214Y-114156516D01*
X162205514Y-114195665D01*
X162195587Y-114220980D01*
X162178503Y-114237523D01*
X162152332Y-114250356D01*
X162117375Y-114263691D01*
X162079196Y-114278207D01*
X162083741Y-114020589D01*
X162085571Y-113927719D01*
X162087712Y-113859089D01*
X162090781Y-113809911D01*
X162095394Y-113775398D01*
X162102168Y-113750762D01*
X162111719Y-113731216D01*
X162123234Y-113713970D01*
X162178790Y-113658880D01*
X162246580Y-113627022D01*
X162320313Y-113619391D01*
X162393693Y-113636980D01*
X163781510Y-108951548D02*
X163860054Y-108951978D01*
X163860054Y-108951978D02*
X163916898Y-108953142D01*
X163916898Y-108953142D02*
X163955705Y-108955407D01*
X163955705Y-108955407D02*
X163980138Y-108959140D01*
X163980138Y-108959140D02*
X163993862Y-108964706D01*
X163993862Y-108964706D02*
X164000540Y-108972473D01*
X164000540Y-108972473D02*
X164003836Y-108982805D01*
X164003836Y-108982805D02*
X164004156Y-108984143D01*
X164004156Y-108984143D02*
X164009162Y-109008279D01*
X164009162Y-109008279D02*
X164018429Y-109055901D01*
X164018429Y-109055901D02*
X164030992Y-109121941D01*
X164030992Y-109121941D02*
X164045887Y-109201328D01*
X164045887Y-109201328D02*
X164062151Y-109288996D01*
X164062151Y-109288996D02*
X164062719Y-109292075D01*
X164062719Y-109292075D02*
X164079010Y-109377989D01*
X164079010Y-109377989D02*
X164094252Y-109453896D01*
X164094252Y-109453896D02*
X164107461Y-109515245D01*
X164107461Y-109515245D02*
X164117654Y-109557482D01*
X164117654Y-109557482D02*
X164123848Y-109576055D01*
X164123848Y-109576055D02*
X164124143Y-109576384D01*
X164124143Y-109576384D02*
X164142388Y-109585453D01*
X164142388Y-109585453D02*
X164180005Y-109600567D01*
X164180005Y-109600567D02*
X164228871Y-109618462D01*
X164228871Y-109618462D02*
X164229143Y-109618558D01*
X164229143Y-109618558D02*
X164290693Y-109641693D01*
X164290693Y-109641693D02*
X164363257Y-109671165D01*
X164363257Y-109671165D02*
X164431657Y-109700797D01*
X164431657Y-109700797D02*
X164434894Y-109702262D01*
X164434894Y-109702262D02*
X164546302Y-109752826D01*
X164546302Y-109752826D02*
X164792999Y-109584360D01*
X164792999Y-109584360D02*
X164868677Y-109533003D01*
X164868677Y-109533003D02*
X164937231Y-109487089D01*
X164937231Y-109487089D02*
X164994688Y-109449230D01*
X164994688Y-109449230D02*
X165037076Y-109422037D01*
X165037076Y-109422037D02*
X165060425Y-109408121D01*
X165060425Y-109408121D02*
X165062642Y-109407089D01*
X165062642Y-109407089D02*
X165079610Y-109411684D01*
X165079610Y-109411684D02*
X165111301Y-109433855D01*
X165111301Y-109433855D02*
X165158952Y-109474647D01*
X165158952Y-109474647D02*
X165223798Y-109535105D01*
X165223798Y-109535105D02*
X165289997Y-109599427D01*
X165289997Y-109599427D02*
X165353814Y-109662812D01*
X165353814Y-109662812D02*
X165410929Y-109720651D01*
X165410929Y-109720651D02*
X165457905Y-109769375D01*
X165457905Y-109769375D02*
X165491303Y-109805410D01*
X165491303Y-109805410D02*
X165507685Y-109825184D01*
X165507685Y-109825184D02*
X165508294Y-109826202D01*
X165508294Y-109826202D02*
X165510105Y-109839772D01*
X165510105Y-109839772D02*
X165503283Y-109861933D01*
X165503283Y-109861933D02*
X165486140Y-109895678D01*
X165486140Y-109895678D02*
X165456993Y-109944000D01*
X165456993Y-109944000D02*
X165414155Y-110009892D01*
X165414155Y-110009892D02*
X165357048Y-110094717D01*
X165357048Y-110094717D02*
X165306366Y-110169377D01*
X165306366Y-110169377D02*
X165261061Y-110236340D01*
X165261061Y-110236340D02*
X165223750Y-110291716D01*
X165223750Y-110291716D02*
X165197052Y-110331620D01*
X165197052Y-110331620D02*
X165183585Y-110352162D01*
X165183585Y-110352162D02*
X165182737Y-110353556D01*
X165182737Y-110353556D02*
X165184381Y-110373238D01*
X165184381Y-110373238D02*
X165196845Y-110411493D01*
X165196845Y-110411493D02*
X165217648Y-110461089D01*
X165217648Y-110461089D02*
X165225062Y-110476928D01*
X165225062Y-110476928D02*
X165257414Y-110547490D01*
X165257414Y-110547490D02*
X165291928Y-110627553D01*
X165291928Y-110627553D02*
X165319965Y-110696829D01*
X165319965Y-110696829D02*
X165340168Y-110748245D01*
X165340168Y-110748245D02*
X165356215Y-110787319D01*
X165356215Y-110787319D02*
X165365488Y-110807741D01*
X165365488Y-110807741D02*
X165366641Y-110809314D01*
X165366641Y-110809314D02*
X165383696Y-110811921D01*
X165383696Y-110811921D02*
X165423898Y-110819063D01*
X165423898Y-110819063D02*
X165481902Y-110829723D01*
X165481902Y-110829723D02*
X165552363Y-110842885D01*
X165552363Y-110842885D02*
X165629935Y-110857533D01*
X165629935Y-110857533D02*
X165709272Y-110872649D01*
X165709272Y-110872649D02*
X165785031Y-110887218D01*
X165785031Y-110887218D02*
X165851864Y-110900222D01*
X165851864Y-110900222D02*
X165904428Y-110910645D01*
X165904428Y-110910645D02*
X165937376Y-110917470D01*
X165937376Y-110917470D02*
X165945457Y-110919399D01*
X165945457Y-110919399D02*
X165953805Y-110924162D01*
X165953805Y-110924162D02*
X165960106Y-110934918D01*
X165960106Y-110934918D02*
X165964645Y-110955298D01*
X165964645Y-110955298D02*
X165967704Y-110988934D01*
X165967704Y-110988934D02*
X165969567Y-111039455D01*
X165969567Y-111039455D02*
X165970518Y-111110492D01*
X165970518Y-111110492D02*
X165970840Y-111205676D01*
X165970840Y-111205676D02*
X165970857Y-111244692D01*
X165970857Y-111244692D02*
X165970857Y-111561999D01*
X165970857Y-111561999D02*
X165894657Y-111577039D01*
X165894657Y-111577039D02*
X165852263Y-111585195D01*
X165852263Y-111585195D02*
X165789000Y-111597099D01*
X165789000Y-111597099D02*
X165712562Y-111611316D01*
X165712562Y-111611316D02*
X165630643Y-111626410D01*
X165630643Y-111626410D02*
X165608000Y-111630555D01*
X165608000Y-111630555D02*
X165532406Y-111645253D01*
X165532406Y-111645253D02*
X165466553Y-111659705D01*
X165466553Y-111659705D02*
X165415966Y-111672575D01*
X165415966Y-111672575D02*
X165386174Y-111682522D01*
X165386174Y-111682522D02*
X165381212Y-111685487D01*
X165381212Y-111685487D02*
X165369026Y-111706483D01*
X165369026Y-111706483D02*
X165351553Y-111747167D01*
X165351553Y-111747167D02*
X165332177Y-111799522D01*
X165332177Y-111799522D02*
X165328334Y-111810800D01*
X165328334Y-111810800D02*
X165302939Y-111880723D01*
X165302939Y-111880723D02*
X165271417Y-111959618D01*
X165271417Y-111959618D02*
X165240569Y-112030466D01*
X165240569Y-112030466D02*
X165240417Y-112030795D01*
X165240417Y-112030795D02*
X165189047Y-112141933D01*
X165189047Y-112141933D02*
X165357999Y-112390453D01*
X165357999Y-112390453D02*
X165526952Y-112638972D01*
X165526952Y-112638972D02*
X165310029Y-112856258D01*
X165310029Y-112856258D02*
X165244419Y-112920926D01*
X165244419Y-112920926D02*
X165184579Y-112977933D01*
X165184579Y-112977933D02*
X165133867Y-113024233D01*
X165133867Y-113024233D02*
X165095646Y-113056784D01*
X165095646Y-113056784D02*
X165073275Y-113072543D01*
X165073275Y-113072543D02*
X165070066Y-113073543D01*
X165070066Y-113073543D02*
X165051226Y-113065669D01*
X165051226Y-113065669D02*
X165012780Y-113043778D01*
X165012780Y-113043778D02*
X164958930Y-113010467D01*
X164958930Y-113010467D02*
X164893876Y-112968331D01*
X164893876Y-112968331D02*
X164823540Y-112921143D01*
X164823540Y-112921143D02*
X164752155Y-112873010D01*
X164752155Y-112873010D02*
X164688508Y-112831128D01*
X164688508Y-112831128D02*
X164636641Y-112798071D01*
X164636641Y-112798071D02*
X164600595Y-112776418D01*
X164600595Y-112776418D02*
X164584467Y-112768743D01*
X164584467Y-112768743D02*
X164564789Y-112775237D01*
X164564789Y-112775237D02*
X164527475Y-112792350D01*
X164527475Y-112792350D02*
X164480221Y-112816526D01*
X164480221Y-112816526D02*
X164475212Y-112819213D01*
X164475212Y-112819213D02*
X164411577Y-112851127D01*
X164411577Y-112851127D02*
X164367941Y-112866779D01*
X164367941Y-112866779D02*
X164340802Y-112866945D01*
X164340802Y-112866945D02*
X164326657Y-112852404D01*
X164326657Y-112852404D02*
X164326575Y-112852200D01*
X164326575Y-112852200D02*
X164319505Y-112834979D01*
X164319505Y-112834979D02*
X164302642Y-112794099D01*
X164302642Y-112794099D02*
X164277295Y-112732725D01*
X164277295Y-112732725D02*
X164244771Y-112654019D01*
X164244771Y-112654019D02*
X164206378Y-112561147D01*
X164206378Y-112561147D02*
X164163422Y-112457272D01*
X164163422Y-112457272D02*
X164121822Y-112356702D01*
X164121822Y-112356702D02*
X164076104Y-112245716D01*
X164076104Y-112245716D02*
X164034126Y-112142903D01*
X164034126Y-112142903D02*
X163997148Y-112051415D01*
X163997148Y-112051415D02*
X163966427Y-111974401D01*
X163966427Y-111974401D02*
X163943222Y-111915015D01*
X163943222Y-111915015D02*
X163928790Y-111876409D01*
X163928790Y-111876409D02*
X163924343Y-111862000D01*
X163924343Y-111862000D02*
X163935496Y-111845472D01*
X163935496Y-111845472D02*
X163964669Y-111819130D01*
X163964669Y-111819130D02*
X164003571Y-111790087D01*
X164003571Y-111790087D02*
X164114357Y-111698239D01*
X164114357Y-111698239D02*
X164200951Y-111592959D01*
X164200951Y-111592959D02*
X164262316Y-111476466D01*
X164262316Y-111476466D02*
X164297415Y-111350976D01*
X164297415Y-111350976D02*
X164305208Y-111218707D01*
X164305208Y-111218707D02*
X164299543Y-111157657D01*
X164299543Y-111157657D02*
X164268678Y-111030995D01*
X164268678Y-111030995D02*
X164215520Y-110919141D01*
X164215520Y-110919141D02*
X164143367Y-110823201D01*
X164143367Y-110823201D02*
X164055517Y-110744276D01*
X164055517Y-110744276D02*
X163955265Y-110683470D01*
X163955265Y-110683470D02*
X163845910Y-110641887D01*
X163845910Y-110641887D02*
X163730747Y-110620628D01*
X163730747Y-110620628D02*
X163613075Y-110620799D01*
X163613075Y-110620799D02*
X163496190Y-110643501D01*
X163496190Y-110643501D02*
X163383389Y-110689838D01*
X163383389Y-110689838D02*
X163277969Y-110760913D01*
X163277969Y-110760913D02*
X163233968Y-110801111D01*
X163233968Y-110801111D02*
X163149579Y-110904329D01*
X163149579Y-110904329D02*
X163090822Y-111017125D01*
X163090822Y-111017125D02*
X163057304Y-111136210D01*
X163057304Y-111136210D02*
X163048635Y-111258295D01*
X163048635Y-111258295D02*
X163064423Y-111380093D01*
X163064423Y-111380093D02*
X163104278Y-111498316D01*
X163104278Y-111498316D02*
X163167807Y-111609675D01*
X163167807Y-111609675D02*
X163254621Y-111710884D01*
X163254621Y-111710884D02*
X163351629Y-111790087D01*
X163351629Y-111790087D02*
X163392037Y-111820362D01*
X163392037Y-111820362D02*
X163420582Y-111846419D01*
X163420582Y-111846419D02*
X163430857Y-111862025D01*
X163430857Y-111862025D02*
X163425477Y-111879043D01*
X163425477Y-111879043D02*
X163410175Y-111919700D01*
X163410175Y-111919700D02*
X163386212Y-111980842D01*
X163386212Y-111980842D02*
X163354844Y-112059319D01*
X163354844Y-112059319D02*
X163317332Y-112151980D01*
X163317332Y-112151980D02*
X163274933Y-112255672D01*
X163274933Y-112255672D02*
X163233263Y-112356726D01*
X163233263Y-112356726D02*
X163187290Y-112467807D01*
X163187290Y-112467807D02*
X163144707Y-112570741D01*
X163144707Y-112570741D02*
X163106821Y-112662365D01*
X163106821Y-112662365D02*
X163074940Y-112739516D01*
X163074940Y-112739516D02*
X163050371Y-112799031D01*
X163050371Y-112799031D02*
X163034420Y-112837744D01*
X163034420Y-112837744D02*
X163028510Y-112852200D01*
X163028510Y-112852200D02*
X163014548Y-112866885D01*
X163014548Y-112866885D02*
X162987540Y-112866842D01*
X162987540Y-112866842D02*
X162944013Y-112851299D01*
X162944013Y-112851299D02*
X162880490Y-112819484D01*
X162880490Y-112819484D02*
X162879988Y-112819213D01*
X162879988Y-112819213D02*
X162832160Y-112794523D01*
X162832160Y-112794523D02*
X162793497Y-112776538D01*
X162793497Y-112776538D02*
X162771695Y-112768814D01*
X162771695Y-112768814D02*
X162770733Y-112768743D01*
X162770733Y-112768743D02*
X162754321Y-112776578D01*
X162754321Y-112776578D02*
X162718087Y-112798365D01*
X162718087Y-112798365D02*
X162666074Y-112831528D01*
X162666074Y-112831528D02*
X162602325Y-112873491D01*
X162602325Y-112873491D02*
X162531660Y-112921143D01*
X162531660Y-112921143D02*
X162459716Y-112969391D01*
X162459716Y-112969391D02*
X162394874Y-113011351D01*
X162394874Y-113011351D02*
X162341335Y-113044427D01*
X162341335Y-113044427D02*
X162303297Y-113066021D01*
X162303297Y-113066021D02*
X162285133Y-113073543D01*
X162285133Y-113073543D02*
X162268408Y-113063657D01*
X162268408Y-113063657D02*
X162234780Y-113036026D01*
X162234780Y-113036026D02*
X162187610Y-112993695D01*
X162187610Y-112993695D02*
X162130258Y-112939705D01*
X162130258Y-112939705D02*
X162066084Y-112877099D01*
X162066084Y-112877099D02*
X162045097Y-112856183D01*
X162045097Y-112856183D02*
X161828099Y-112638823D01*
X161828099Y-112638823D02*
X161993268Y-112396420D01*
X161993268Y-112396420D02*
X162043464Y-112321981D01*
X162043464Y-112321981D02*
X162087519Y-112255172D01*
X162087519Y-112255172D02*
X162122962Y-112199865D01*
X162122962Y-112199865D02*
X162147319Y-112159929D01*
X162147319Y-112159929D02*
X162158122Y-112139236D01*
X162158122Y-112139236D02*
X162158438Y-112137763D01*
X162158438Y-112137763D02*
X162152743Y-112118258D01*
X162152743Y-112118258D02*
X162137426Y-112079022D01*
X162137426Y-112079022D02*
X162115137Y-112026630D01*
X162115137Y-112026630D02*
X162099493Y-111991555D01*
X162099493Y-111991555D02*
X162070241Y-111924401D01*
X162070241Y-111924401D02*
X162042694Y-111856558D01*
X162042694Y-111856558D02*
X162021337Y-111799234D01*
X162021337Y-111799234D02*
X162015535Y-111781772D01*
X162015535Y-111781772D02*
X161999052Y-111735138D01*
X161999052Y-111735138D02*
X161982940Y-111699105D01*
X161982940Y-111699105D02*
X161974090Y-111685487D01*
X161974090Y-111685487D02*
X161954560Y-111677152D01*
X161954560Y-111677152D02*
X161911934Y-111665337D01*
X161911934Y-111665337D02*
X161851745Y-111651381D01*
X161851745Y-111651381D02*
X161779522Y-111636622D01*
X161779522Y-111636622D02*
X161747200Y-111630555D01*
X161747200Y-111630555D02*
X161665122Y-111615473D01*
X161665122Y-111615473D02*
X161586395Y-111600869D01*
X161586395Y-111600869D02*
X161518709Y-111588180D01*
X161518709Y-111588180D02*
X161469760Y-111578842D01*
X161469760Y-111578842D02*
X161460543Y-111577039D01*
X161460543Y-111577039D02*
X161384343Y-111561999D01*
X161384343Y-111561999D02*
X161384343Y-111244692D01*
X161384343Y-111244692D02*
X161384514Y-111140354D01*
X161384514Y-111140354D02*
X161385216Y-111061413D01*
X161385216Y-111061413D02*
X161386734Y-111004238D01*
X161386734Y-111004238D02*
X161389349Y-110965199D01*
X161389349Y-110965199D02*
X161393346Y-110940665D01*
X161393346Y-110940665D02*
X161399009Y-110927005D01*
X161399009Y-110927005D02*
X161406620Y-110920589D01*
X161406620Y-110920589D02*
X161409743Y-110919399D01*
X161409743Y-110919399D02*
X161428578Y-110915180D01*
X161428578Y-110915180D02*
X161470188Y-110906762D01*
X161470188Y-110906762D02*
X161529230Y-110895161D01*
X161529230Y-110895161D02*
X161600357Y-110881395D01*
X161600357Y-110881395D02*
X161678225Y-110866480D01*
X161678225Y-110866480D02*
X161757487Y-110851432D01*
X161757487Y-110851432D02*
X161832798Y-110837269D01*
X161832798Y-110837269D02*
X161898813Y-110825006D01*
X161898813Y-110825006D02*
X161950187Y-110815661D01*
X161950187Y-110815661D02*
X161981575Y-110810250D01*
X161981575Y-110810250D02*
X161988559Y-110809314D01*
X161988559Y-110809314D02*
X161994885Y-110796796D01*
X161994885Y-110796796D02*
X162008890Y-110763446D01*
X162008890Y-110763446D02*
X162027955Y-110715577D01*
X162027955Y-110715577D02*
X162035234Y-110696829D01*
X162035234Y-110696829D02*
X162064596Y-110624395D01*
X162064596Y-110624395D02*
X162099171Y-110544370D01*
X162099171Y-110544370D02*
X162130137Y-110476928D01*
X162130137Y-110476928D02*
X162152923Y-110425359D01*
X162152923Y-110425359D02*
X162168082Y-110382985D01*
X162168082Y-110382985D02*
X162173142Y-110357034D01*
X162173142Y-110357034D02*
X162172336Y-110353556D01*
X162172336Y-110353556D02*
X162161641Y-110337136D01*
X162161641Y-110337136D02*
X162137220Y-110300617D01*
X162137220Y-110300617D02*
X162101695Y-110247887D01*
X162101695Y-110247887D02*
X162057687Y-110182835D01*
X162057687Y-110182835D02*
X162007817Y-110109351D01*
X162007817Y-110109351D02*
X161997956Y-110094845D01*
X161997956Y-110094845D02*
X161940092Y-110008904D01*
X161940092Y-110008904D02*
X161897556Y-109943461D01*
X161897556Y-109943461D02*
X161868654Y-109895504D01*
X161868654Y-109895504D02*
X161851690Y-109862020D01*
X161851690Y-109862020D02*
X161844967Y-109839995D01*
X161844967Y-109839995D02*
X161846790Y-109826417D01*
X161846790Y-109826417D02*
X161846836Y-109826331D01*
X161846836Y-109826331D02*
X161861186Y-109808497D01*
X161861186Y-109808497D02*
X161892923Y-109774017D01*
X161892923Y-109774017D02*
X161938610Y-109726468D01*
X161938610Y-109726468D02*
X161994804Y-109669422D01*
X161994804Y-109669422D02*
X162058068Y-109606455D01*
X162058068Y-109606455D02*
X162065202Y-109599427D01*
X162065202Y-109599427D02*
X162144930Y-109522220D01*
X162144930Y-109522220D02*
X162206457Y-109465530D01*
X162206457Y-109465530D02*
X162251021Y-109428310D01*
X162251021Y-109428310D02*
X162279857Y-109409515D01*
X162279857Y-109409515D02*
X162292558Y-109407089D01*
X162292558Y-109407089D02*
X162311094Y-109417671D01*
X162311094Y-109417671D02*
X162349561Y-109442116D01*
X162349561Y-109442116D02*
X162403986Y-109477812D01*
X162403986Y-109477812D02*
X162470398Y-109522147D01*
X162470398Y-109522147D02*
X162544825Y-109572511D01*
X162544825Y-109572511D02*
X162562201Y-109584360D01*
X162562201Y-109584360D02*
X162808897Y-109752826D01*
X162808897Y-109752826D02*
X162920306Y-109702262D01*
X162920306Y-109702262D02*
X162988057Y-109672795D01*
X162988057Y-109672795D02*
X163060783Y-109643159D01*
X163060783Y-109643159D02*
X163123303Y-109619530D01*
X163123303Y-109619530D02*
X163126057Y-109618558D01*
X163126057Y-109618558D02*
X163174960Y-109600657D01*
X163174960Y-109600657D02*
X163212657Y-109585520D01*
X163212657Y-109585520D02*
X163231025Y-109576410D01*
X163231025Y-109576410D02*
X163231056Y-109576384D01*
X163231056Y-109576384D02*
X163236885Y-109559917D01*
X163236885Y-109559917D02*
X163246792Y-109519419D01*
X163246792Y-109519419D02*
X163259795Y-109459442D01*
X163259795Y-109459442D02*
X163274909Y-109384540D01*
X163274909Y-109384540D02*
X163291152Y-109299264D01*
X163291152Y-109299264D02*
X163292481Y-109292075D01*
X163292481Y-109292075D02*
X163308775Y-109204214D01*
X163308775Y-109204214D02*
X163323733Y-109124460D01*
X163323733Y-109124460D02*
X163336391Y-109057881D01*
X163336391Y-109057881D02*
X163345786Y-109009547D01*
X163345786Y-109009547D02*
X163350954Y-108984525D01*
X163350954Y-108984525D02*
X163351044Y-108984143D01*
X163351044Y-108984143D02*
X163354189Y-108973499D01*
X163354189Y-108973499D02*
X163360304Y-108965462D01*
X163360304Y-108965462D02*
X163373053Y-108959667D01*
X163373053Y-108959667D02*
X163396100Y-108955747D01*
X163396100Y-108955747D02*
X163433109Y-108953335D01*
X163433109Y-108953335D02*
X163487744Y-108952065D01*
X163487744Y-108952065D02*
X163563667Y-108951571D01*
X163563667Y-108951571D02*
X163664544Y-108951486D01*
X163664544Y-108951486D02*
X163677600Y-108951486D01*
X163677600Y-108951486D02*
X163781510Y-108951548D01*
X163781510Y-108951548D02*
X163781510Y-108951548D01*
G36*
X163781510Y-108951548D02*
G01*
X163860054Y-108951978D01*
X163916898Y-108953142D01*
X163955705Y-108955407D01*
X163980138Y-108959140D01*
X163993862Y-108964706D01*
X164000540Y-108972473D01*
X164003836Y-108982805D01*
X164004156Y-108984143D01*
X164009162Y-109008279D01*
X164018429Y-109055901D01*
X164030992Y-109121941D01*
X164045887Y-109201328D01*
X164062151Y-109288996D01*
X164062719Y-109292075D01*
X164079010Y-109377989D01*
X164094252Y-109453896D01*
X164107461Y-109515245D01*
X164117654Y-109557482D01*
X164123848Y-109576055D01*
X164124143Y-109576384D01*
X164142388Y-109585453D01*
X164180005Y-109600567D01*
X164228871Y-109618462D01*
X164229143Y-109618558D01*
X164290693Y-109641693D01*
X164363257Y-109671165D01*
X164431657Y-109700797D01*
X164434894Y-109702262D01*
X164546302Y-109752826D01*
X164792999Y-109584360D01*
X164868677Y-109533003D01*
X164937231Y-109487089D01*
X164994688Y-109449230D01*
X165037076Y-109422037D01*
X165060425Y-109408121D01*
X165062642Y-109407089D01*
X165079610Y-109411684D01*
X165111301Y-109433855D01*
X165158952Y-109474647D01*
X165223798Y-109535105D01*
X165289997Y-109599427D01*
X165353814Y-109662812D01*
X165410929Y-109720651D01*
X165457905Y-109769375D01*
X165491303Y-109805410D01*
X165507685Y-109825184D01*
X165508294Y-109826202D01*
X165510105Y-109839772D01*
X165503283Y-109861933D01*
X165486140Y-109895678D01*
X165456993Y-109944000D01*
X165414155Y-110009892D01*
X165357048Y-110094717D01*
X165306366Y-110169377D01*
X165261061Y-110236340D01*
X165223750Y-110291716D01*
X165197052Y-110331620D01*
X165183585Y-110352162D01*
X165182737Y-110353556D01*
X165184381Y-110373238D01*
X165196845Y-110411493D01*
X165217648Y-110461089D01*
X165225062Y-110476928D01*
X165257414Y-110547490D01*
X165291928Y-110627553D01*
X165319965Y-110696829D01*
X165340168Y-110748245D01*
X165356215Y-110787319D01*
X165365488Y-110807741D01*
X165366641Y-110809314D01*
X165383696Y-110811921D01*
X165423898Y-110819063D01*
X165481902Y-110829723D01*
X165552363Y-110842885D01*
X165629935Y-110857533D01*
X165709272Y-110872649D01*
X165785031Y-110887218D01*
X165851864Y-110900222D01*
X165904428Y-110910645D01*
X165937376Y-110917470D01*
X165945457Y-110919399D01*
X165953805Y-110924162D01*
X165960106Y-110934918D01*
X165964645Y-110955298D01*
X165967704Y-110988934D01*
X165969567Y-111039455D01*
X165970518Y-111110492D01*
X165970840Y-111205676D01*
X165970857Y-111244692D01*
X165970857Y-111561999D01*
X165894657Y-111577039D01*
X165852263Y-111585195D01*
X165789000Y-111597099D01*
X165712562Y-111611316D01*
X165630643Y-111626410D01*
X165608000Y-111630555D01*
X165532406Y-111645253D01*
X165466553Y-111659705D01*
X165415966Y-111672575D01*
X165386174Y-111682522D01*
X165381212Y-111685487D01*
X165369026Y-111706483D01*
X165351553Y-111747167D01*
X165332177Y-111799522D01*
X165328334Y-111810800D01*
X165302939Y-111880723D01*
X165271417Y-111959618D01*
X165240569Y-112030466D01*
X165240417Y-112030795D01*
X165189047Y-112141933D01*
X165357999Y-112390453D01*
X165526952Y-112638972D01*
X165310029Y-112856258D01*
X165244419Y-112920926D01*
X165184579Y-112977933D01*
X165133867Y-113024233D01*
X165095646Y-113056784D01*
X165073275Y-113072543D01*
X165070066Y-113073543D01*
X165051226Y-113065669D01*
X165012780Y-113043778D01*
X164958930Y-113010467D01*
X164893876Y-112968331D01*
X164823540Y-112921143D01*
X164752155Y-112873010D01*
X164688508Y-112831128D01*
X164636641Y-112798071D01*
X164600595Y-112776418D01*
X164584467Y-112768743D01*
X164564789Y-112775237D01*
X164527475Y-112792350D01*
X164480221Y-112816526D01*
X164475212Y-112819213D01*
X164411577Y-112851127D01*
X164367941Y-112866779D01*
X164340802Y-112866945D01*
X164326657Y-112852404D01*
X164326575Y-112852200D01*
X164319505Y-112834979D01*
X164302642Y-112794099D01*
X164277295Y-112732725D01*
X164244771Y-112654019D01*
X164206378Y-112561147D01*
X164163422Y-112457272D01*
X164121822Y-112356702D01*
X164076104Y-112245716D01*
X164034126Y-112142903D01*
X163997148Y-112051415D01*
X163966427Y-111974401D01*
X163943222Y-111915015D01*
X163928790Y-111876409D01*
X163924343Y-111862000D01*
X163935496Y-111845472D01*
X163964669Y-111819130D01*
X164003571Y-111790087D01*
X164114357Y-111698239D01*
X164200951Y-111592959D01*
X164262316Y-111476466D01*
X164297415Y-111350976D01*
X164305208Y-111218707D01*
X164299543Y-111157657D01*
X164268678Y-111030995D01*
X164215520Y-110919141D01*
X164143367Y-110823201D01*
X164055517Y-110744276D01*
X163955265Y-110683470D01*
X163845910Y-110641887D01*
X163730747Y-110620628D01*
X163613075Y-110620799D01*
X163496190Y-110643501D01*
X163383389Y-110689838D01*
X163277969Y-110760913D01*
X163233968Y-110801111D01*
X163149579Y-110904329D01*
X163090822Y-111017125D01*
X163057304Y-111136210D01*
X163048635Y-111258295D01*
X163064423Y-111380093D01*
X163104278Y-111498316D01*
X163167807Y-111609675D01*
X163254621Y-111710884D01*
X163351629Y-111790087D01*
X163392037Y-111820362D01*
X163420582Y-111846419D01*
X163430857Y-111862025D01*
X163425477Y-111879043D01*
X163410175Y-111919700D01*
X163386212Y-111980842D01*
X163354844Y-112059319D01*
X163317332Y-112151980D01*
X163274933Y-112255672D01*
X163233263Y-112356726D01*
X163187290Y-112467807D01*
X163144707Y-112570741D01*
X163106821Y-112662365D01*
X163074940Y-112739516D01*
X163050371Y-112799031D01*
X163034420Y-112837744D01*
X163028510Y-112852200D01*
X163014548Y-112866885D01*
X162987540Y-112866842D01*
X162944013Y-112851299D01*
X162880490Y-112819484D01*
X162879988Y-112819213D01*
X162832160Y-112794523D01*
X162793497Y-112776538D01*
X162771695Y-112768814D01*
X162770733Y-112768743D01*
X162754321Y-112776578D01*
X162718087Y-112798365D01*
X162666074Y-112831528D01*
X162602325Y-112873491D01*
X162531660Y-112921143D01*
X162459716Y-112969391D01*
X162394874Y-113011351D01*
X162341335Y-113044427D01*
X162303297Y-113066021D01*
X162285133Y-113073543D01*
X162268408Y-113063657D01*
X162234780Y-113036026D01*
X162187610Y-112993695D01*
X162130258Y-112939705D01*
X162066084Y-112877099D01*
X162045097Y-112856183D01*
X161828099Y-112638823D01*
X161993268Y-112396420D01*
X162043464Y-112321981D01*
X162087519Y-112255172D01*
X162122962Y-112199865D01*
X162147319Y-112159929D01*
X162158122Y-112139236D01*
X162158438Y-112137763D01*
X162152743Y-112118258D01*
X162137426Y-112079022D01*
X162115137Y-112026630D01*
X162099493Y-111991555D01*
X162070241Y-111924401D01*
X162042694Y-111856558D01*
X162021337Y-111799234D01*
X162015535Y-111781772D01*
X161999052Y-111735138D01*
X161982940Y-111699105D01*
X161974090Y-111685487D01*
X161954560Y-111677152D01*
X161911934Y-111665337D01*
X161851745Y-111651381D01*
X161779522Y-111636622D01*
X161747200Y-111630555D01*
X161665122Y-111615473D01*
X161586395Y-111600869D01*
X161518709Y-111588180D01*
X161469760Y-111578842D01*
X161460543Y-111577039D01*
X161384343Y-111561999D01*
X161384343Y-111244692D01*
X161384514Y-111140354D01*
X161385216Y-111061413D01*
X161386734Y-111004238D01*
X161389349Y-110965199D01*
X161393346Y-110940665D01*
X161399009Y-110927005D01*
X161406620Y-110920589D01*
X161409743Y-110919399D01*
X161428578Y-110915180D01*
X161470188Y-110906762D01*
X161529230Y-110895161D01*
X161600357Y-110881395D01*
X161678225Y-110866480D01*
X161757487Y-110851432D01*
X161832798Y-110837269D01*
X161898813Y-110825006D01*
X161950187Y-110815661D01*
X161981575Y-110810250D01*
X161988559Y-110809314D01*
X161994885Y-110796796D01*
X162008890Y-110763446D01*
X162027955Y-110715577D01*
X162035234Y-110696829D01*
X162064596Y-110624395D01*
X162099171Y-110544370D01*
X162130137Y-110476928D01*
X162152923Y-110425359D01*
X162168082Y-110382985D01*
X162173142Y-110357034D01*
X162172336Y-110353556D01*
X162161641Y-110337136D01*
X162137220Y-110300617D01*
X162101695Y-110247887D01*
X162057687Y-110182835D01*
X162007817Y-110109351D01*
X161997956Y-110094845D01*
X161940092Y-110008904D01*
X161897556Y-109943461D01*
X161868654Y-109895504D01*
X161851690Y-109862020D01*
X161844967Y-109839995D01*
X161846790Y-109826417D01*
X161846836Y-109826331D01*
X161861186Y-109808497D01*
X161892923Y-109774017D01*
X161938610Y-109726468D01*
X161994804Y-109669422D01*
X162058068Y-109606455D01*
X162065202Y-109599427D01*
X162144930Y-109522220D01*
X162206457Y-109465530D01*
X162251021Y-109428310D01*
X162279857Y-109409515D01*
X162292558Y-109407089D01*
X162311094Y-109417671D01*
X162349561Y-109442116D01*
X162403986Y-109477812D01*
X162470398Y-109522147D01*
X162544825Y-109572511D01*
X162562201Y-109584360D01*
X162808897Y-109752826D01*
X162920306Y-109702262D01*
X162988057Y-109672795D01*
X163060783Y-109643159D01*
X163123303Y-109619530D01*
X163126057Y-109618558D01*
X163174960Y-109600657D01*
X163212657Y-109585520D01*
X163231025Y-109576410D01*
X163231056Y-109576384D01*
X163236885Y-109559917D01*
X163246792Y-109519419D01*
X163259795Y-109459442D01*
X163274909Y-109384540D01*
X163291152Y-109299264D01*
X163292481Y-109292075D01*
X163308775Y-109204214D01*
X163323733Y-109124460D01*
X163336391Y-109057881D01*
X163345786Y-109009547D01*
X163350954Y-108984525D01*
X163351044Y-108984143D01*
X163354189Y-108973499D01*
X163360304Y-108965462D01*
X163373053Y-108959667D01*
X163396100Y-108955747D01*
X163433109Y-108953335D01*
X163487744Y-108952065D01*
X163563667Y-108951571D01*
X163664544Y-108951486D01*
X163677600Y-108951486D01*
X163781510Y-108951548D01*
G37*
X163781510Y-108951548D02*
X163860054Y-108951978D01*
X163916898Y-108953142D01*
X163955705Y-108955407D01*
X163980138Y-108959140D01*
X163993862Y-108964706D01*
X164000540Y-108972473D01*
X164003836Y-108982805D01*
X164004156Y-108984143D01*
X164009162Y-109008279D01*
X164018429Y-109055901D01*
X164030992Y-109121941D01*
X164045887Y-109201328D01*
X164062151Y-109288996D01*
X164062719Y-109292075D01*
X164079010Y-109377989D01*
X164094252Y-109453896D01*
X164107461Y-109515245D01*
X164117654Y-109557482D01*
X164123848Y-109576055D01*
X164124143Y-109576384D01*
X164142388Y-109585453D01*
X164180005Y-109600567D01*
X164228871Y-109618462D01*
X164229143Y-109618558D01*
X164290693Y-109641693D01*
X164363257Y-109671165D01*
X164431657Y-109700797D01*
X164434894Y-109702262D01*
X164546302Y-109752826D01*
X164792999Y-109584360D01*
X164868677Y-109533003D01*
X164937231Y-109487089D01*
X164994688Y-109449230D01*
X165037076Y-109422037D01*
X165060425Y-109408121D01*
X165062642Y-109407089D01*
X165079610Y-109411684D01*
X165111301Y-109433855D01*
X165158952Y-109474647D01*
X165223798Y-109535105D01*
X165289997Y-109599427D01*
X165353814Y-109662812D01*
X165410929Y-109720651D01*
X165457905Y-109769375D01*
X165491303Y-109805410D01*
X165507685Y-109825184D01*
X165508294Y-109826202D01*
X165510105Y-109839772D01*
X165503283Y-109861933D01*
X165486140Y-109895678D01*
X165456993Y-109944000D01*
X165414155Y-110009892D01*
X165357048Y-110094717D01*
X165306366Y-110169377D01*
X165261061Y-110236340D01*
X165223750Y-110291716D01*
X165197052Y-110331620D01*
X165183585Y-110352162D01*
X165182737Y-110353556D01*
X165184381Y-110373238D01*
X165196845Y-110411493D01*
X165217648Y-110461089D01*
X165225062Y-110476928D01*
X165257414Y-110547490D01*
X165291928Y-110627553D01*
X165319965Y-110696829D01*
X165340168Y-110748245D01*
X165356215Y-110787319D01*
X165365488Y-110807741D01*
X165366641Y-110809314D01*
X165383696Y-110811921D01*
X165423898Y-110819063D01*
X165481902Y-110829723D01*
X165552363Y-110842885D01*
X165629935Y-110857533D01*
X165709272Y-110872649D01*
X165785031Y-110887218D01*
X165851864Y-110900222D01*
X165904428Y-110910645D01*
X165937376Y-110917470D01*
X165945457Y-110919399D01*
X165953805Y-110924162D01*
X165960106Y-110934918D01*
X165964645Y-110955298D01*
X165967704Y-110988934D01*
X165969567Y-111039455D01*
X165970518Y-111110492D01*
X165970840Y-111205676D01*
X165970857Y-111244692D01*
X165970857Y-111561999D01*
X165894657Y-111577039D01*
X165852263Y-111585195D01*
X165789000Y-111597099D01*
X165712562Y-111611316D01*
X165630643Y-111626410D01*
X165608000Y-111630555D01*
X165532406Y-111645253D01*
X165466553Y-111659705D01*
X165415966Y-111672575D01*
X165386174Y-111682522D01*
X165381212Y-111685487D01*
X165369026Y-111706483D01*
X165351553Y-111747167D01*
X165332177Y-111799522D01*
X165328334Y-111810800D01*
X165302939Y-111880723D01*
X165271417Y-111959618D01*
X165240569Y-112030466D01*
X165240417Y-112030795D01*
X165189047Y-112141933D01*
X165357999Y-112390453D01*
X165526952Y-112638972D01*
X165310029Y-112856258D01*
X165244419Y-112920926D01*
X165184579Y-112977933D01*
X165133867Y-113024233D01*
X165095646Y-113056784D01*
X165073275Y-113072543D01*
X165070066Y-113073543D01*
X165051226Y-113065669D01*
X165012780Y-113043778D01*
X164958930Y-113010467D01*
X164893876Y-112968331D01*
X164823540Y-112921143D01*
X164752155Y-112873010D01*
X164688508Y-112831128D01*
X164636641Y-112798071D01*
X164600595Y-112776418D01*
X164584467Y-112768743D01*
X164564789Y-112775237D01*
X164527475Y-112792350D01*
X164480221Y-112816526D01*
X164475212Y-112819213D01*
X164411577Y-112851127D01*
X164367941Y-112866779D01*
X164340802Y-112866945D01*
X164326657Y-112852404D01*
X164326575Y-112852200D01*
X164319505Y-112834979D01*
X164302642Y-112794099D01*
X164277295Y-112732725D01*
X164244771Y-112654019D01*
X164206378Y-112561147D01*
X164163422Y-112457272D01*
X164121822Y-112356702D01*
X164076104Y-112245716D01*
X164034126Y-112142903D01*
X163997148Y-112051415D01*
X163966427Y-111974401D01*
X163943222Y-111915015D01*
X163928790Y-111876409D01*
X163924343Y-111862000D01*
X163935496Y-111845472D01*
X163964669Y-111819130D01*
X164003571Y-111790087D01*
X164114357Y-111698239D01*
X164200951Y-111592959D01*
X164262316Y-111476466D01*
X164297415Y-111350976D01*
X164305208Y-111218707D01*
X164299543Y-111157657D01*
X164268678Y-111030995D01*
X164215520Y-110919141D01*
X164143367Y-110823201D01*
X164055517Y-110744276D01*
X163955265Y-110683470D01*
X163845910Y-110641887D01*
X163730747Y-110620628D01*
X163613075Y-110620799D01*
X163496190Y-110643501D01*
X163383389Y-110689838D01*
X163277969Y-110760913D01*
X163233968Y-110801111D01*
X163149579Y-110904329D01*
X163090822Y-111017125D01*
X163057304Y-111136210D01*
X163048635Y-111258295D01*
X163064423Y-111380093D01*
X163104278Y-111498316D01*
X163167807Y-111609675D01*
X163254621Y-111710884D01*
X163351629Y-111790087D01*
X163392037Y-111820362D01*
X163420582Y-111846419D01*
X163430857Y-111862025D01*
X163425477Y-111879043D01*
X163410175Y-111919700D01*
X163386212Y-111980842D01*
X163354844Y-112059319D01*
X163317332Y-112151980D01*
X163274933Y-112255672D01*
X163233263Y-112356726D01*
X163187290Y-112467807D01*
X163144707Y-112570741D01*
X163106821Y-112662365D01*
X163074940Y-112739516D01*
X163050371Y-112799031D01*
X163034420Y-112837744D01*
X163028510Y-112852200D01*
X163014548Y-112866885D01*
X162987540Y-112866842D01*
X162944013Y-112851299D01*
X162880490Y-112819484D01*
X162879988Y-112819213D01*
X162832160Y-112794523D01*
X162793497Y-112776538D01*
X162771695Y-112768814D01*
X162770733Y-112768743D01*
X162754321Y-112776578D01*
X162718087Y-112798365D01*
X162666074Y-112831528D01*
X162602325Y-112873491D01*
X162531660Y-112921143D01*
X162459716Y-112969391D01*
X162394874Y-113011351D01*
X162341335Y-113044427D01*
X162303297Y-113066021D01*
X162285133Y-113073543D01*
X162268408Y-113063657D01*
X162234780Y-113036026D01*
X162187610Y-112993695D01*
X162130258Y-112939705D01*
X162066084Y-112877099D01*
X162045097Y-112856183D01*
X161828099Y-112638823D01*
X161993268Y-112396420D01*
X162043464Y-112321981D01*
X162087519Y-112255172D01*
X162122962Y-112199865D01*
X162147319Y-112159929D01*
X162158122Y-112139236D01*
X162158438Y-112137763D01*
X162152743Y-112118258D01*
X162137426Y-112079022D01*
X162115137Y-112026630D01*
X162099493Y-111991555D01*
X162070241Y-111924401D01*
X162042694Y-111856558D01*
X162021337Y-111799234D01*
X162015535Y-111781772D01*
X161999052Y-111735138D01*
X161982940Y-111699105D01*
X161974090Y-111685487D01*
X161954560Y-111677152D01*
X161911934Y-111665337D01*
X161851745Y-111651381D01*
X161779522Y-111636622D01*
X161747200Y-111630555D01*
X161665122Y-111615473D01*
X161586395Y-111600869D01*
X161518709Y-111588180D01*
X161469760Y-111578842D01*
X161460543Y-111577039D01*
X161384343Y-111561999D01*
X161384343Y-111244692D01*
X161384514Y-111140354D01*
X161385216Y-111061413D01*
X161386734Y-111004238D01*
X161389349Y-110965199D01*
X161393346Y-110940665D01*
X161399009Y-110927005D01*
X161406620Y-110920589D01*
X161409743Y-110919399D01*
X161428578Y-110915180D01*
X161470188Y-110906762D01*
X161529230Y-110895161D01*
X161600357Y-110881395D01*
X161678225Y-110866480D01*
X161757487Y-110851432D01*
X161832798Y-110837269D01*
X161898813Y-110825006D01*
X161950187Y-110815661D01*
X161981575Y-110810250D01*
X161988559Y-110809314D01*
X161994885Y-110796796D01*
X162008890Y-110763446D01*
X162027955Y-110715577D01*
X162035234Y-110696829D01*
X162064596Y-110624395D01*
X162099171Y-110544370D01*
X162130137Y-110476928D01*
X162152923Y-110425359D01*
X162168082Y-110382985D01*
X162173142Y-110357034D01*
X162172336Y-110353556D01*
X162161641Y-110337136D01*
X162137220Y-110300617D01*
X162101695Y-110247887D01*
X162057687Y-110182835D01*
X162007817Y-110109351D01*
X161997956Y-110094845D01*
X161940092Y-110008904D01*
X161897556Y-109943461D01*
X161868654Y-109895504D01*
X161851690Y-109862020D01*
X161844967Y-109839995D01*
X161846790Y-109826417D01*
X161846836Y-109826331D01*
X161861186Y-109808497D01*
X161892923Y-109774017D01*
X161938610Y-109726468D01*
X161994804Y-109669422D01*
X162058068Y-109606455D01*
X162065202Y-109599427D01*
X162144930Y-109522220D01*
X162206457Y-109465530D01*
X162251021Y-109428310D01*
X162279857Y-109409515D01*
X162292558Y-109407089D01*
X162311094Y-109417671D01*
X162349561Y-109442116D01*
X162403986Y-109477812D01*
X162470398Y-109522147D01*
X162544825Y-109572511D01*
X162562201Y-109584360D01*
X162808897Y-109752826D01*
X162920306Y-109702262D01*
X162988057Y-109672795D01*
X163060783Y-109643159D01*
X163123303Y-109619530D01*
X163126057Y-109618558D01*
X163174960Y-109600657D01*
X163212657Y-109585520D01*
X163231025Y-109576410D01*
X163231056Y-109576384D01*
X163236885Y-109559917D01*
X163246792Y-109519419D01*
X163259795Y-109459442D01*
X163274909Y-109384540D01*
X163291152Y-109299264D01*
X163292481Y-109292075D01*
X163308775Y-109204214D01*
X163323733Y-109124460D01*
X163336391Y-109057881D01*
X163345786Y-109009547D01*
X163350954Y-108984525D01*
X163351044Y-108984143D01*
X163354189Y-108973499D01*
X163360304Y-108965462D01*
X163373053Y-108959667D01*
X163396100Y-108955747D01*
X163433109Y-108953335D01*
X163487744Y-108952065D01*
X163563667Y-108951571D01*
X163664544Y-108951486D01*
X163677600Y-108951486D01*
X163781510Y-108951548D01*
X166330200Y-113667952D02*
X166347548Y-113675534D01*
X166347548Y-113675534D02*
X166388956Y-113708328D01*
X166388956Y-113708328D02*
X166424365Y-113755747D01*
X166424365Y-113755747D02*
X166446264Y-113806351D01*
X166446264Y-113806351D02*
X166449829Y-113831298D01*
X166449829Y-113831298D02*
X166437879Y-113866127D01*
X166437879Y-113866127D02*
X166411667Y-113884557D01*
X166411667Y-113884557D02*
X166383564Y-113895716D01*
X166383564Y-113895716D02*
X166370695Y-113897772D01*
X166370695Y-113897772D02*
X166364429Y-113882849D01*
X166364429Y-113882849D02*
X166352056Y-113850375D01*
X166352056Y-113850375D02*
X166346628Y-113835702D01*
X166346628Y-113835702D02*
X166316190Y-113784944D01*
X166316190Y-113784944D02*
X166272120Y-113759627D01*
X166272120Y-113759627D02*
X166215610Y-113760406D01*
X166215610Y-113760406D02*
X166211425Y-113761403D01*
X166211425Y-113761403D02*
X166181255Y-113775707D01*
X166181255Y-113775707D02*
X166159076Y-113803593D01*
X166159076Y-113803593D02*
X166143927Y-113848487D01*
X166143927Y-113848487D02*
X166134850Y-113913815D01*
X166134850Y-113913815D02*
X166130886Y-114003004D01*
X166130886Y-114003004D02*
X166130514Y-114050461D01*
X166130514Y-114050461D02*
X166130330Y-114125271D01*
X166130330Y-114125271D02*
X166129122Y-114176269D01*
X166129122Y-114176269D02*
X166125909Y-114208671D01*
X166125909Y-114208671D02*
X166119709Y-114227695D01*
X166119709Y-114227695D02*
X166109540Y-114238556D01*
X166109540Y-114238556D02*
X166094419Y-114246472D01*
X166094419Y-114246472D02*
X166093546Y-114246870D01*
X166093546Y-114246870D02*
X166064428Y-114259181D01*
X166064428Y-114259181D02*
X166050003Y-114263714D01*
X166050003Y-114263714D02*
X166047786Y-114250009D01*
X166047786Y-114250009D02*
X166045889Y-114212125D01*
X166045889Y-114212125D02*
X166044447Y-114154915D01*
X166044447Y-114154915D02*
X166043598Y-114083227D01*
X166043598Y-114083227D02*
X166043429Y-114030765D01*
X166043429Y-114030765D02*
X166044292Y-113929247D01*
X166044292Y-113929247D02*
X166047670Y-113852232D01*
X166047670Y-113852232D02*
X166054742Y-113795223D01*
X166054742Y-113795223D02*
X166066688Y-113753726D01*
X166066688Y-113753726D02*
X166084690Y-113723243D01*
X166084690Y-113723243D02*
X166109927Y-113699280D01*
X166109927Y-113699280D02*
X166134847Y-113682555D01*
X166134847Y-113682555D02*
X166194771Y-113660297D01*
X166194771Y-113660297D02*
X166264511Y-113655276D01*
X166264511Y-113655276D02*
X166330200Y-113667952D01*
X166330200Y-113667952D02*
X166330200Y-113667952D01*
G36*
X166330200Y-113667952D02*
G01*
X166347548Y-113675534D01*
X166388956Y-113708328D01*
X166424365Y-113755747D01*
X166446264Y-113806351D01*
X166449829Y-113831298D01*
X166437879Y-113866127D01*
X166411667Y-113884557D01*
X166383564Y-113895716D01*
X166370695Y-113897772D01*
X166364429Y-113882849D01*
X166352056Y-113850375D01*
X166346628Y-113835702D01*
X166316190Y-113784944D01*
X166272120Y-113759627D01*
X166215610Y-113760406D01*
X166211425Y-113761403D01*
X166181255Y-113775707D01*
X166159076Y-113803593D01*
X166143927Y-113848487D01*
X166134850Y-113913815D01*
X166130886Y-114003004D01*
X166130514Y-114050461D01*
X166130330Y-114125271D01*
X166129122Y-114176269D01*
X166125909Y-114208671D01*
X166119709Y-114227695D01*
X166109540Y-114238556D01*
X166094419Y-114246472D01*
X166093546Y-114246870D01*
X166064428Y-114259181D01*
X166050003Y-114263714D01*
X166047786Y-114250009D01*
X166045889Y-114212125D01*
X166044447Y-114154915D01*
X166043598Y-114083227D01*
X166043429Y-114030765D01*
X166044292Y-113929247D01*
X166047670Y-113852232D01*
X166054742Y-113795223D01*
X166066688Y-113753726D01*
X166084690Y-113723243D01*
X166109927Y-113699280D01*
X166134847Y-113682555D01*
X166194771Y-113660297D01*
X166264511Y-113655276D01*
X166330200Y-113667952D01*
G37*
X166330200Y-113667952D02*
X166347548Y-113675534D01*
X166388956Y-113708328D01*
X166424365Y-113755747D01*
X166446264Y-113806351D01*
X166449829Y-113831298D01*
X166437879Y-113866127D01*
X166411667Y-113884557D01*
X166383564Y-113895716D01*
X166370695Y-113897772D01*
X166364429Y-113882849D01*
X166352056Y-113850375D01*
X166346628Y-113835702D01*
X166316190Y-113784944D01*
X166272120Y-113759627D01*
X166215610Y-113760406D01*
X166211425Y-113761403D01*
X166181255Y-113775707D01*
X166159076Y-113803593D01*
X166143927Y-113848487D01*
X166134850Y-113913815D01*
X166130886Y-114003004D01*
X166130514Y-114050461D01*
X166130330Y-114125271D01*
X166129122Y-114176269D01*
X166125909Y-114208671D01*
X166119709Y-114227695D01*
X166109540Y-114238556D01*
X166094419Y-114246472D01*
X166093546Y-114246870D01*
X166064428Y-114259181D01*
X166050003Y-114263714D01*
X166047786Y-114250009D01*
X166045889Y-114212125D01*
X166044447Y-114154915D01*
X166043598Y-114083227D01*
X166043429Y-114030765D01*
X166044292Y-113929247D01*
X166047670Y-113852232D01*
X166054742Y-113795223D01*
X166066688Y-113753726D01*
X166084690Y-113723243D01*
X166109927Y-113699280D01*
X166134847Y-113682555D01*
X166194771Y-113660297D01*
X166264511Y-113655276D01*
X166330200Y-113667952D01*
X161277344Y-113629118D02*
X161332801Y-113656768D01*
X161332801Y-113656768D02*
X161381748Y-113707680D01*
X161381748Y-113707680D02*
X161395229Y-113726538D01*
X161395229Y-113726538D02*
X161409914Y-113751215D01*
X161409914Y-113751215D02*
X161419442Y-113778016D01*
X161419442Y-113778016D02*
X161424893Y-113813787D01*
X161424893Y-113813787D02*
X161427347Y-113865369D01*
X161427347Y-113865369D02*
X161427886Y-113933467D01*
X161427886Y-113933467D02*
X161425452Y-114026788D01*
X161425452Y-114026788D02*
X161416994Y-114096857D01*
X161416994Y-114096857D02*
X161400774Y-114149131D01*
X161400774Y-114149131D02*
X161375054Y-114189069D01*
X161375054Y-114189069D02*
X161338097Y-114222129D01*
X161338097Y-114222129D02*
X161335382Y-114224086D01*
X161335382Y-114224086D02*
X161298960Y-114244108D01*
X161298960Y-114244108D02*
X161255102Y-114254015D01*
X161255102Y-114254015D02*
X161199324Y-114256457D01*
X161199324Y-114256457D02*
X161108648Y-114256457D01*
X161108648Y-114256457D02*
X161108610Y-114344483D01*
X161108610Y-114344483D02*
X161107766Y-114393508D01*
X161107766Y-114393508D02*
X161102624Y-114422265D01*
X161102624Y-114422265D02*
X161089187Y-114439511D01*
X161089187Y-114439511D02*
X161063458Y-114454008D01*
X161063458Y-114454008D02*
X161057279Y-114456969D01*
X161057279Y-114456969D02*
X161028364Y-114470848D01*
X161028364Y-114470848D02*
X161005976Y-114479614D01*
X161005976Y-114479614D02*
X160989329Y-114480371D01*
X160989329Y-114480371D02*
X160977636Y-114470223D01*
X160977636Y-114470223D02*
X160970110Y-114446273D01*
X160970110Y-114446273D02*
X160965966Y-114405626D01*
X160965966Y-114405626D02*
X160964415Y-114345386D01*
X160964415Y-114345386D02*
X160964671Y-114262655D01*
X160964671Y-114262655D02*
X160965949Y-114154539D01*
X160965949Y-114154539D02*
X160966348Y-114122200D01*
X160966348Y-114122200D02*
X160967785Y-114010724D01*
X160967785Y-114010724D02*
X160969072Y-113937803D01*
X160969072Y-113937803D02*
X161108571Y-113937803D01*
X161108571Y-113937803D02*
X161109355Y-113999699D01*
X161109355Y-113999699D02*
X161112840Y-114040197D01*
X161112840Y-114040197D02*
X161120724Y-114066908D01*
X161120724Y-114066908D02*
X161134705Y-114087444D01*
X161134705Y-114087444D02*
X161144197Y-114097460D01*
X161144197Y-114097460D02*
X161183004Y-114126767D01*
X161183004Y-114126767D02*
X161217363Y-114129152D01*
X161217363Y-114129152D02*
X161252816Y-114104950D01*
X161252816Y-114104950D02*
X161253714Y-114104057D01*
X161253714Y-114104057D02*
X161268139Y-114085353D01*
X161268139Y-114085353D02*
X161276913Y-114059932D01*
X161276913Y-114059932D02*
X161281339Y-114020784D01*
X161281339Y-114020784D02*
X161282718Y-113960897D01*
X161282718Y-113960897D02*
X161282743Y-113947630D01*
X161282743Y-113947630D02*
X161279412Y-113865101D01*
X161279412Y-113865101D02*
X161268569Y-113807891D01*
X161268569Y-113807891D02*
X161248940Y-113772966D01*
X161248940Y-113772966D02*
X161219250Y-113757294D01*
X161219250Y-113757294D02*
X161202091Y-113755714D01*
X161202091Y-113755714D02*
X161161366Y-113763126D01*
X161161366Y-113763126D02*
X161133432Y-113787530D01*
X161133432Y-113787530D02*
X161116617Y-113832180D01*
X161116617Y-113832180D02*
X161109250Y-113900330D01*
X161109250Y-113900330D02*
X161108571Y-113937803D01*
X161108571Y-113937803D02*
X160969072Y-113937803D01*
X160969072Y-113937803D02*
X160969308Y-113924445D01*
X160969308Y-113924445D02*
X160971277Y-113859533D01*
X160971277Y-113859533D02*
X160974050Y-113812158D01*
X160974050Y-113812158D02*
X160977988Y-113778490D01*
X160977988Y-113778490D02*
X160983449Y-113754698D01*
X160983449Y-113754698D02*
X160990792Y-113736953D01*
X160990792Y-113736953D02*
X161000377Y-113721424D01*
X161000377Y-113721424D02*
X161004487Y-113715581D01*
X161004487Y-113715581D02*
X161059005Y-113660385D01*
X161059005Y-113660385D02*
X161127936Y-113629090D01*
X161127936Y-113629090D02*
X161207672Y-113620365D01*
X161207672Y-113620365D02*
X161277344Y-113629118D01*
X161277344Y-113629118D02*
X161277344Y-113629118D01*
G36*
X160971277Y-113859533D02*
G01*
X160974050Y-113812158D01*
X160977988Y-113778490D01*
X160983449Y-113754698D01*
X160990792Y-113736953D01*
X161000377Y-113721424D01*
X161004487Y-113715581D01*
X161059005Y-113660385D01*
X161127936Y-113629090D01*
X161207672Y-113620365D01*
X161277344Y-113629118D01*
X161332801Y-113656768D01*
X161381748Y-113707680D01*
X161395229Y-113726538D01*
X161409914Y-113751215D01*
X161419442Y-113778016D01*
X161424893Y-113813787D01*
X161427347Y-113865369D01*
X161427886Y-113933467D01*
X161425452Y-114026788D01*
X161416994Y-114096857D01*
X161400774Y-114149131D01*
X161375054Y-114189069D01*
X161338097Y-114222129D01*
X161335382Y-114224086D01*
X161298960Y-114244108D01*
X161255102Y-114254015D01*
X161199324Y-114256457D01*
X161108648Y-114256457D01*
X161108610Y-114344483D01*
X161107766Y-114393508D01*
X161102624Y-114422265D01*
X161089187Y-114439511D01*
X161063458Y-114454008D01*
X161057279Y-114456969D01*
X161028364Y-114470848D01*
X161005976Y-114479614D01*
X160989329Y-114480371D01*
X160977636Y-114470223D01*
X160970110Y-114446273D01*
X160965966Y-114405626D01*
X160964415Y-114345386D01*
X160964671Y-114262655D01*
X160965949Y-114154539D01*
X160966348Y-114122200D01*
X160967785Y-114010724D01*
X160969072Y-113937803D01*
X161108571Y-113937803D01*
X161109355Y-113999699D01*
X161112840Y-114040197D01*
X161120724Y-114066908D01*
X161134705Y-114087444D01*
X161144197Y-114097460D01*
X161183004Y-114126767D01*
X161217363Y-114129152D01*
X161252816Y-114104950D01*
X161253714Y-114104057D01*
X161268139Y-114085353D01*
X161276913Y-114059932D01*
X161281339Y-114020784D01*
X161282718Y-113960897D01*
X161282743Y-113947630D01*
X161279412Y-113865101D01*
X161268569Y-113807891D01*
X161248940Y-113772966D01*
X161219250Y-113757294D01*
X161202091Y-113755714D01*
X161161366Y-113763126D01*
X161133432Y-113787530D01*
X161116617Y-113832180D01*
X161109250Y-113900330D01*
X161108571Y-113937803D01*
X160969072Y-113937803D01*
X160969308Y-113924445D01*
X160971277Y-113859533D01*
G37*
X160971277Y-113859533D02*
X160974050Y-113812158D01*
X160977988Y-113778490D01*
X160983449Y-113754698D01*
X160990792Y-113736953D01*
X161000377Y-113721424D01*
X161004487Y-113715581D01*
X161059005Y-113660385D01*
X161127936Y-113629090D01*
X161207672Y-113620365D01*
X161277344Y-113629118D01*
X161332801Y-113656768D01*
X161381748Y-113707680D01*
X161395229Y-113726538D01*
X161409914Y-113751215D01*
X161419442Y-113778016D01*
X161424893Y-113813787D01*
X161427347Y-113865369D01*
X161427886Y-113933467D01*
X161425452Y-114026788D01*
X161416994Y-114096857D01*
X161400774Y-114149131D01*
X161375054Y-114189069D01*
X161338097Y-114222129D01*
X161335382Y-114224086D01*
X161298960Y-114244108D01*
X161255102Y-114254015D01*
X161199324Y-114256457D01*
X161108648Y-114256457D01*
X161108610Y-114344483D01*
X161107766Y-114393508D01*
X161102624Y-114422265D01*
X161089187Y-114439511D01*
X161063458Y-114454008D01*
X161057279Y-114456969D01*
X161028364Y-114470848D01*
X161005976Y-114479614D01*
X160989329Y-114480371D01*
X160977636Y-114470223D01*
X160970110Y-114446273D01*
X160965966Y-114405626D01*
X160964415Y-114345386D01*
X160964671Y-114262655D01*
X160965949Y-114154539D01*
X160966348Y-114122200D01*
X160967785Y-114010724D01*
X160969072Y-113937803D01*
X161108571Y-113937803D01*
X161109355Y-113999699D01*
X161112840Y-114040197D01*
X161120724Y-114066908D01*
X161134705Y-114087444D01*
X161144197Y-114097460D01*
X161183004Y-114126767D01*
X161217363Y-114129152D01*
X161252816Y-114104950D01*
X161253714Y-114104057D01*
X161268139Y-114085353D01*
X161276913Y-114059932D01*
X161281339Y-114020784D01*
X161282718Y-113960897D01*
X161282743Y-113947630D01*
X161279412Y-113865101D01*
X161268569Y-113807891D01*
X161248940Y-113772966D01*
X161219250Y-113757294D01*
X161202091Y-113755714D01*
X161161366Y-113763126D01*
X161133432Y-113787530D01*
X161116617Y-113832180D01*
X161109250Y-113900330D01*
X161108571Y-113937803D01*
X160969072Y-113937803D01*
X160969308Y-113924445D01*
X160971277Y-113859533D01*
X163053486Y-113560489D02*
X163057739Y-113619813D01*
X163057739Y-113619813D02*
X163062625Y-113654772D01*
X163062625Y-113654772D02*
X163069395Y-113670020D01*
X163069395Y-113670020D02*
X163079302Y-113670215D01*
X163079302Y-113670215D02*
X163082514Y-113668395D01*
X163082514Y-113668395D02*
X163125244Y-113655215D01*
X163125244Y-113655215D02*
X163180827Y-113655985D01*
X163180827Y-113655985D02*
X163237337Y-113669533D01*
X163237337Y-113669533D02*
X163272682Y-113687061D01*
X163272682Y-113687061D02*
X163308921Y-113715061D01*
X163308921Y-113715061D02*
X163335413Y-113746749D01*
X163335413Y-113746749D02*
X163353599Y-113787013D01*
X163353599Y-113787013D02*
X163364922Y-113840743D01*
X163364922Y-113840743D02*
X163370822Y-113912826D01*
X163370822Y-113912826D02*
X163372743Y-114008151D01*
X163372743Y-114008151D02*
X163372777Y-114026437D01*
X163372777Y-114026437D02*
X163372800Y-114231846D01*
X163372800Y-114231846D02*
X163327091Y-114247780D01*
X163327091Y-114247780D02*
X163294627Y-114258620D01*
X163294627Y-114258620D02*
X163276815Y-114263668D01*
X163276815Y-114263668D02*
X163276291Y-114263714D01*
X163276291Y-114263714D02*
X163274537Y-114250028D01*
X163274537Y-114250028D02*
X163273044Y-114212276D01*
X163273044Y-114212276D02*
X163271926Y-114155424D01*
X163271926Y-114155424D02*
X163271297Y-114084434D01*
X163271297Y-114084434D02*
X163271200Y-114041273D01*
X163271200Y-114041273D02*
X163270998Y-113956173D01*
X163270998Y-113956173D02*
X163269958Y-113895181D01*
X163269958Y-113895181D02*
X163267431Y-113853377D01*
X163267431Y-113853377D02*
X163262764Y-113825842D01*
X163262764Y-113825842D02*
X163255307Y-113807656D01*
X163255307Y-113807656D02*
X163244411Y-113793898D01*
X163244411Y-113793898D02*
X163237607Y-113787273D01*
X163237607Y-113787273D02*
X163190872Y-113760575D01*
X163190872Y-113760575D02*
X163139872Y-113758575D01*
X163139872Y-113758575D02*
X163093601Y-113781155D01*
X163093601Y-113781155D02*
X163085044Y-113789307D01*
X163085044Y-113789307D02*
X163072493Y-113804636D01*
X163072493Y-113804636D02*
X163063788Y-113822818D01*
X163063788Y-113822818D02*
X163058231Y-113849109D01*
X163058231Y-113849109D02*
X163055126Y-113888762D01*
X163055126Y-113888762D02*
X163053776Y-113947032D01*
X163053776Y-113947032D02*
X163053486Y-114027373D01*
X163053486Y-114027373D02*
X163053486Y-114231846D01*
X163053486Y-114231846D02*
X163007777Y-114247780D01*
X163007777Y-114247780D02*
X162975313Y-114258620D01*
X162975313Y-114258620D02*
X162957501Y-114263668D01*
X162957501Y-114263668D02*
X162956977Y-114263714D01*
X162956977Y-114263714D02*
X162955637Y-114249823D01*
X162955637Y-114249823D02*
X162954428Y-114210639D01*
X162954428Y-114210639D02*
X162953401Y-114149900D01*
X162953401Y-114149900D02*
X162952602Y-114071341D01*
X162952602Y-114071341D02*
X162952081Y-113978698D01*
X162952081Y-113978698D02*
X162951886Y-113875709D01*
X162951886Y-113875709D02*
X162951886Y-113478542D01*
X162951886Y-113478542D02*
X162999057Y-113458644D01*
X162999057Y-113458644D02*
X163046229Y-113438747D01*
X163046229Y-113438747D02*
X163053486Y-113560489D01*
X163053486Y-113560489D02*
X163053486Y-113560489D01*
G36*
X163053486Y-113560489D02*
G01*
X163057739Y-113619813D01*
X163062625Y-113654772D01*
X163069395Y-113670020D01*
X163079302Y-113670215D01*
X163082514Y-113668395D01*
X163125244Y-113655215D01*
X163180827Y-113655985D01*
X163237337Y-113669533D01*
X163272682Y-113687061D01*
X163308921Y-113715061D01*
X163335413Y-113746749D01*
X163353599Y-113787013D01*
X163364922Y-113840743D01*
X163370822Y-113912826D01*
X163372743Y-114008151D01*
X163372777Y-114026437D01*
X163372800Y-114231846D01*
X163327091Y-114247780D01*
X163294627Y-114258620D01*
X163276815Y-114263668D01*
X163276291Y-114263714D01*
X163274537Y-114250028D01*
X163273044Y-114212276D01*
X163271926Y-114155424D01*
X163271297Y-114084434D01*
X163271200Y-114041273D01*
X163270998Y-113956173D01*
X163269958Y-113895181D01*
X163267431Y-113853377D01*
X163262764Y-113825842D01*
X163255307Y-113807656D01*
X163244411Y-113793898D01*
X163237607Y-113787273D01*
X163190872Y-113760575D01*
X163139872Y-113758575D01*
X163093601Y-113781155D01*
X163085044Y-113789307D01*
X163072493Y-113804636D01*
X163063788Y-113822818D01*
X163058231Y-113849109D01*
X163055126Y-113888762D01*
X163053776Y-113947032D01*
X163053486Y-114027373D01*
X163053486Y-114231846D01*
X163007777Y-114247780D01*
X162975313Y-114258620D01*
X162957501Y-114263668D01*
X162956977Y-114263714D01*
X162955637Y-114249823D01*
X162954428Y-114210639D01*
X162953401Y-114149900D01*
X162952602Y-114071341D01*
X162952081Y-113978698D01*
X162951886Y-113875709D01*
X162951886Y-113478542D01*
X162999057Y-113458644D01*
X163046229Y-113438747D01*
X163053486Y-113560489D01*
G37*
X163053486Y-113560489D02*
X163057739Y-113619813D01*
X163062625Y-113654772D01*
X163069395Y-113670020D01*
X163079302Y-113670215D01*
X163082514Y-113668395D01*
X163125244Y-113655215D01*
X163180827Y-113655985D01*
X163237337Y-113669533D01*
X163272682Y-113687061D01*
X163308921Y-113715061D01*
X163335413Y-113746749D01*
X163353599Y-113787013D01*
X163364922Y-113840743D01*
X163370822Y-113912826D01*
X163372743Y-114008151D01*
X163372777Y-114026437D01*
X163372800Y-114231846D01*
X163327091Y-114247780D01*
X163294627Y-114258620D01*
X163276815Y-114263668D01*
X163276291Y-114263714D01*
X163274537Y-114250028D01*
X163273044Y-114212276D01*
X163271926Y-114155424D01*
X163271297Y-114084434D01*
X163271200Y-114041273D01*
X163270998Y-113956173D01*
X163269958Y-113895181D01*
X163267431Y-113853377D01*
X163262764Y-113825842D01*
X163255307Y-113807656D01*
X163244411Y-113793898D01*
X163237607Y-113787273D01*
X163190872Y-113760575D01*
X163139872Y-113758575D01*
X163093601Y-113781155D01*
X163085044Y-113789307D01*
X163072493Y-113804636D01*
X163063788Y-113822818D01*
X163058231Y-113849109D01*
X163055126Y-113888762D01*
X163053776Y-113947032D01*
X163053486Y-114027373D01*
X163053486Y-114231846D01*
X163007777Y-114247780D01*
X162975313Y-114258620D01*
X162957501Y-114263668D01*
X162956977Y-114263714D01*
X162955637Y-114249823D01*
X162954428Y-114210639D01*
X162953401Y-114149900D01*
X162952602Y-114071341D01*
X162952081Y-113978698D01*
X162951886Y-113875709D01*
X162951886Y-113478542D01*
X162999057Y-113458644D01*
X163046229Y-113438747D01*
X163053486Y-113560489D01*
X166831195Y-113676166D02*
X166888621Y-113713697D01*
X166888621Y-113713697D02*
X166916319Y-113747296D01*
X166916319Y-113747296D02*
X166938262Y-113808264D01*
X166938262Y-113808264D02*
X166940005Y-113856508D01*
X166940005Y-113856508D02*
X166936057Y-113921016D01*
X166936057Y-113921016D02*
X166787286Y-113986134D01*
X166787286Y-113986134D02*
X166714949Y-114019402D01*
X166714949Y-114019402D02*
X166667684Y-114046164D01*
X166667684Y-114046164D02*
X166643107Y-114069344D01*
X166643107Y-114069344D02*
X166638837Y-114091867D01*
X166638837Y-114091867D02*
X166652489Y-114116655D01*
X166652489Y-114116655D02*
X166667543Y-114133086D01*
X166667543Y-114133086D02*
X166711346Y-114159435D01*
X166711346Y-114159435D02*
X166758989Y-114161281D01*
X166758989Y-114161281D02*
X166802745Y-114140746D01*
X166802745Y-114140746D02*
X166834889Y-114099952D01*
X166834889Y-114099952D02*
X166840638Y-114085547D01*
X166840638Y-114085547D02*
X166868176Y-114040556D01*
X166868176Y-114040556D02*
X166899858Y-114021382D01*
X166899858Y-114021382D02*
X166943314Y-114004979D01*
X166943314Y-114004979D02*
X166943314Y-114067166D01*
X166943314Y-114067166D02*
X166939472Y-114109483D01*
X166939472Y-114109483D02*
X166924423Y-114145169D01*
X166924423Y-114145169D02*
X166892880Y-114186143D01*
X166892880Y-114186143D02*
X166888192Y-114191467D01*
X166888192Y-114191467D02*
X166853106Y-114227920D01*
X166853106Y-114227920D02*
X166822947Y-114247483D01*
X166822947Y-114247483D02*
X166785215Y-114256483D01*
X166785215Y-114256483D02*
X166753935Y-114259430D01*
X166753935Y-114259430D02*
X166697985Y-114260165D01*
X166697985Y-114260165D02*
X166658155Y-114250860D01*
X166658155Y-114250860D02*
X166633308Y-114237046D01*
X166633308Y-114237046D02*
X166594256Y-114206667D01*
X166594256Y-114206667D02*
X166567225Y-114173813D01*
X166567225Y-114173813D02*
X166550117Y-114132494D01*
X166550117Y-114132494D02*
X166540838Y-114076721D01*
X166540838Y-114076721D02*
X166537293Y-114000505D01*
X166537293Y-114000505D02*
X166537010Y-113961822D01*
X166537010Y-113961822D02*
X166537972Y-113915447D01*
X166537972Y-113915447D02*
X166625607Y-113915447D01*
X166625607Y-113915447D02*
X166626623Y-113940326D01*
X166626623Y-113940326D02*
X166629156Y-113944400D01*
X166629156Y-113944400D02*
X166645874Y-113938865D01*
X166645874Y-113938865D02*
X166681849Y-113924217D01*
X166681849Y-113924217D02*
X166729931Y-113903390D01*
X166729931Y-113903390D02*
X166739986Y-113898914D01*
X166739986Y-113898914D02*
X166800752Y-113868014D01*
X166800752Y-113868014D02*
X166834232Y-113840857D01*
X166834232Y-113840857D02*
X166841590Y-113815420D01*
X166841590Y-113815420D02*
X166823991Y-113789681D01*
X166823991Y-113789681D02*
X166809456Y-113778309D01*
X166809456Y-113778309D02*
X166757010Y-113755564D01*
X166757010Y-113755564D02*
X166707922Y-113759322D01*
X166707922Y-113759322D02*
X166666827Y-113787084D01*
X166666827Y-113787084D02*
X166638358Y-113836352D01*
X166638358Y-113836352D02*
X166629231Y-113875457D01*
X166629231Y-113875457D02*
X166625607Y-113915447D01*
X166625607Y-113915447D02*
X166537972Y-113915447D01*
X166537972Y-113915447D02*
X166538885Y-113871449D01*
X166538885Y-113871449D02*
X166545796Y-113804584D01*
X166545796Y-113804584D02*
X166559484Y-113755895D01*
X166559484Y-113755895D02*
X166581696Y-113720049D01*
X166581696Y-113720049D02*
X166614174Y-113691713D01*
X166614174Y-113691713D02*
X166628333Y-113682555D01*
X166628333Y-113682555D02*
X166692653Y-113658707D01*
X166692653Y-113658707D02*
X166763073Y-113657206D01*
X166763073Y-113657206D02*
X166831195Y-113676166D01*
X166831195Y-113676166D02*
X166831195Y-113676166D01*
G36*
X166545796Y-113804584D02*
G01*
X166559484Y-113755895D01*
X166581696Y-113720049D01*
X166614174Y-113691713D01*
X166628333Y-113682555D01*
X166692653Y-113658707D01*
X166763073Y-113657206D01*
X166831195Y-113676166D01*
X166888621Y-113713697D01*
X166916319Y-113747296D01*
X166938262Y-113808264D01*
X166940005Y-113856508D01*
X166936057Y-113921016D01*
X166787286Y-113986134D01*
X166714949Y-114019402D01*
X166667684Y-114046164D01*
X166643107Y-114069344D01*
X166638837Y-114091867D01*
X166652489Y-114116655D01*
X166667543Y-114133086D01*
X166711346Y-114159435D01*
X166758989Y-114161281D01*
X166802745Y-114140746D01*
X166834889Y-114099952D01*
X166840638Y-114085547D01*
X166868176Y-114040556D01*
X166899858Y-114021382D01*
X166943314Y-114004979D01*
X166943314Y-114067166D01*
X166939472Y-114109483D01*
X166924423Y-114145169D01*
X166892880Y-114186143D01*
X166888192Y-114191467D01*
X166853106Y-114227920D01*
X166822947Y-114247483D01*
X166785215Y-114256483D01*
X166753935Y-114259430D01*
X166697985Y-114260165D01*
X166658155Y-114250860D01*
X166633308Y-114237046D01*
X166594256Y-114206667D01*
X166567225Y-114173813D01*
X166550117Y-114132494D01*
X166540838Y-114076721D01*
X166537293Y-114000505D01*
X166537010Y-113961822D01*
X166537972Y-113915447D01*
X166625607Y-113915447D01*
X166626623Y-113940326D01*
X166629156Y-113944400D01*
X166645874Y-113938865D01*
X166681849Y-113924217D01*
X166729931Y-113903390D01*
X166739986Y-113898914D01*
X166800752Y-113868014D01*
X166834232Y-113840857D01*
X166841590Y-113815420D01*
X166823991Y-113789681D01*
X166809456Y-113778309D01*
X166757010Y-113755564D01*
X166707922Y-113759322D01*
X166666827Y-113787084D01*
X166638358Y-113836352D01*
X166629231Y-113875457D01*
X166625607Y-113915447D01*
X166537972Y-113915447D01*
X166538885Y-113871449D01*
X166545796Y-113804584D01*
G37*
X166545796Y-113804584D02*
X166559484Y-113755895D01*
X166581696Y-113720049D01*
X166614174Y-113691713D01*
X166628333Y-113682555D01*
X166692653Y-113658707D01*
X166763073Y-113657206D01*
X166831195Y-113676166D01*
X166888621Y-113713697D01*
X166916319Y-113747296D01*
X166938262Y-113808264D01*
X166940005Y-113856508D01*
X166936057Y-113921016D01*
X166787286Y-113986134D01*
X166714949Y-114019402D01*
X166667684Y-114046164D01*
X166643107Y-114069344D01*
X166638837Y-114091867D01*
X166652489Y-114116655D01*
X166667543Y-114133086D01*
X166711346Y-114159435D01*
X166758989Y-114161281D01*
X166802745Y-114140746D01*
X166834889Y-114099952D01*
X166840638Y-114085547D01*
X166868176Y-114040556D01*
X166899858Y-114021382D01*
X166943314Y-114004979D01*
X166943314Y-114067166D01*
X166939472Y-114109483D01*
X166924423Y-114145169D01*
X166892880Y-114186143D01*
X166888192Y-114191467D01*
X166853106Y-114227920D01*
X166822947Y-114247483D01*
X166785215Y-114256483D01*
X166753935Y-114259430D01*
X166697985Y-114260165D01*
X166658155Y-114250860D01*
X166633308Y-114237046D01*
X166594256Y-114206667D01*
X166567225Y-114173813D01*
X166550117Y-114132494D01*
X166540838Y-114076721D01*
X166537293Y-114000505D01*
X166537010Y-113961822D01*
X166537972Y-113915447D01*
X166625607Y-113915447D01*
X166626623Y-113940326D01*
X166629156Y-113944400D01*
X166645874Y-113938865D01*
X166681849Y-113924217D01*
X166729931Y-113903390D01*
X166739986Y-113898914D01*
X166800752Y-113868014D01*
X166834232Y-113840857D01*
X166841590Y-113815420D01*
X166823991Y-113789681D01*
X166809456Y-113778309D01*
X166757010Y-113755564D01*
X166707922Y-113759322D01*
X166666827Y-113787084D01*
X166638358Y-113836352D01*
X166629231Y-113875457D01*
X166625607Y-113915447D01*
X166537972Y-113915447D01*
X166538885Y-113871449D01*
X166545796Y-113804584D01*
X164207526Y-113658955D02*
X164273458Y-113683284D01*
X164273458Y-113683284D02*
X164326873Y-113726317D01*
X164326873Y-113726317D02*
X164347764Y-113756609D01*
X164347764Y-113756609D02*
X164370539Y-113812194D01*
X164370539Y-113812194D02*
X164370066Y-113852386D01*
X164370066Y-113852386D02*
X164346162Y-113879417D01*
X164346162Y-113879417D02*
X164337317Y-113884013D01*
X164337317Y-113884013D02*
X164299130Y-113898344D01*
X164299130Y-113898344D02*
X164279628Y-113894672D01*
X164279628Y-113894672D02*
X164273022Y-113870607D01*
X164273022Y-113870607D02*
X164272686Y-113857314D01*
X164272686Y-113857314D02*
X164260592Y-113808410D01*
X164260592Y-113808410D02*
X164229071Y-113774199D01*
X164229071Y-113774199D02*
X164185259Y-113757676D01*
X164185259Y-113757676D02*
X164136295Y-113761834D01*
X164136295Y-113761834D02*
X164096494Y-113783427D01*
X164096494Y-113783427D02*
X164083050Y-113795744D01*
X164083050Y-113795744D02*
X164073521Y-113810687D01*
X164073521Y-113810687D02*
X164067085Y-113833275D01*
X164067085Y-113833275D02*
X164062917Y-113868528D01*
X164062917Y-113868528D02*
X164060197Y-113921466D01*
X164060197Y-113921466D02*
X164058102Y-113997107D01*
X164058102Y-113997107D02*
X164057560Y-114021057D01*
X164057560Y-114021057D02*
X164055581Y-114102990D01*
X164055581Y-114102990D02*
X164053331Y-114160655D01*
X164053331Y-114160655D02*
X164049957Y-114198808D01*
X164049957Y-114198808D02*
X164044606Y-114222204D01*
X164044606Y-114222204D02*
X164036424Y-114235598D01*
X164036424Y-114235598D02*
X164024559Y-114243745D01*
X164024559Y-114243745D02*
X164016962Y-114247344D01*
X164016962Y-114247344D02*
X163984702Y-114259652D01*
X163984702Y-114259652D02*
X163965711Y-114263714D01*
X163965711Y-114263714D02*
X163959436Y-114250148D01*
X163959436Y-114250148D02*
X163955606Y-114209134D01*
X163955606Y-114209134D02*
X163954200Y-114140199D01*
X163954200Y-114140199D02*
X163955198Y-114042869D01*
X163955198Y-114042869D02*
X163955508Y-114027857D01*
X163955508Y-114027857D02*
X163957701Y-113939059D01*
X163957701Y-113939059D02*
X163960293Y-113874219D01*
X163960293Y-113874219D02*
X163963982Y-113828267D01*
X163963982Y-113828267D02*
X163969464Y-113796135D01*
X163969464Y-113796135D02*
X163977435Y-113772753D01*
X163977435Y-113772753D02*
X163988593Y-113753052D01*
X163988593Y-113753052D02*
X163994430Y-113744610D01*
X163994430Y-113744610D02*
X164027896Y-113707257D01*
X164027896Y-113707257D02*
X164065327Y-113678203D01*
X164065327Y-113678203D02*
X164069909Y-113675667D01*
X164069909Y-113675667D02*
X164137026Y-113655643D01*
X164137026Y-113655643D02*
X164207526Y-113658955D01*
X164207526Y-113658955D02*
X164207526Y-113658955D01*
G36*
X164207526Y-113658955D02*
G01*
X164273458Y-113683284D01*
X164326873Y-113726317D01*
X164347764Y-113756609D01*
X164370539Y-113812194D01*
X164370066Y-113852386D01*
X164346162Y-113879417D01*
X164337317Y-113884013D01*
X164299130Y-113898344D01*
X164279628Y-113894672D01*
X164273022Y-113870607D01*
X164272686Y-113857314D01*
X164260592Y-113808410D01*
X164229071Y-113774199D01*
X164185259Y-113757676D01*
X164136295Y-113761834D01*
X164096494Y-113783427D01*
X164083050Y-113795744D01*
X164073521Y-113810687D01*
X164067085Y-113833275D01*
X164062917Y-113868528D01*
X164060197Y-113921466D01*
X164058102Y-113997107D01*
X164057560Y-114021057D01*
X164055581Y-114102990D01*
X164053331Y-114160655D01*
X164049957Y-114198808D01*
X164044606Y-114222204D01*
X164036424Y-114235598D01*
X164024559Y-114243745D01*
X164016962Y-114247344D01*
X163984702Y-114259652D01*
X163965711Y-114263714D01*
X163959436Y-114250148D01*
X163955606Y-114209134D01*
X163954200Y-114140199D01*
X163955198Y-114042869D01*
X163955508Y-114027857D01*
X163957701Y-113939059D01*
X163960293Y-113874219D01*
X163963982Y-113828267D01*
X163969464Y-113796135D01*
X163977435Y-113772753D01*
X163988593Y-113753052D01*
X163994430Y-113744610D01*
X164027896Y-113707257D01*
X164065327Y-113678203D01*
X164069909Y-113675667D01*
X164137026Y-113655643D01*
X164207526Y-113658955D01*
G37*
X164207526Y-113658955D02*
X164273458Y-113683284D01*
X164326873Y-113726317D01*
X164347764Y-113756609D01*
X164370539Y-113812194D01*
X164370066Y-113852386D01*
X164346162Y-113879417D01*
X164337317Y-113884013D01*
X164299130Y-113898344D01*
X164279628Y-113894672D01*
X164273022Y-113870607D01*
X164272686Y-113857314D01*
X164260592Y-113808410D01*
X164229071Y-113774199D01*
X164185259Y-113757676D01*
X164136295Y-113761834D01*
X164096494Y-113783427D01*
X164083050Y-113795744D01*
X164073521Y-113810687D01*
X164067085Y-113833275D01*
X164062917Y-113868528D01*
X164060197Y-113921466D01*
X164058102Y-113997107D01*
X164057560Y-114021057D01*
X164055581Y-114102990D01*
X164053331Y-114160655D01*
X164049957Y-114198808D01*
X164044606Y-114222204D01*
X164036424Y-114235598D01*
X164024559Y-114243745D01*
X164016962Y-114247344D01*
X163984702Y-114259652D01*
X163965711Y-114263714D01*
X163959436Y-114250148D01*
X163955606Y-114209134D01*
X163954200Y-114140199D01*
X163955198Y-114042869D01*
X163955508Y-114027857D01*
X163957701Y-113939059D01*
X163960293Y-113874219D01*
X163963982Y-113828267D01*
X163969464Y-113796135D01*
X163977435Y-113772753D01*
X163988593Y-113753052D01*
X163994430Y-113744610D01*
X164027896Y-113707257D01*
X164065327Y-113678203D01*
X164069909Y-113675667D01*
X164137026Y-113655643D01*
X164207526Y-113658955D01*
X160718715Y-113631162D02*
X160786745Y-113666933D01*
X160786745Y-113666933D02*
X160836951Y-113724501D01*
X160836951Y-113724501D02*
X160854785Y-113761512D01*
X160854785Y-113761512D02*
X160868663Y-113817082D01*
X160868663Y-113817082D02*
X160875767Y-113887296D01*
X160875767Y-113887296D02*
X160876440Y-113963927D01*
X160876440Y-113963927D02*
X160871027Y-114038752D01*
X160871027Y-114038752D02*
X160859870Y-114103542D01*
X160859870Y-114103542D02*
X160843314Y-114150073D01*
X160843314Y-114150073D02*
X160838226Y-114158087D01*
X160838226Y-114158087D02*
X160777955Y-114217907D01*
X160777955Y-114217907D02*
X160706369Y-114253735D01*
X160706369Y-114253735D02*
X160628692Y-114264220D01*
X160628692Y-114264220D02*
X160550148Y-114248010D01*
X160550148Y-114248010D02*
X160528289Y-114238292D01*
X160528289Y-114238292D02*
X160485722Y-114208343D01*
X160485722Y-114208343D02*
X160448363Y-114168633D01*
X160448363Y-114168633D02*
X160444832Y-114163597D01*
X160444832Y-114163597D02*
X160430481Y-114139324D01*
X160430481Y-114139324D02*
X160420994Y-114113378D01*
X160420994Y-114113378D02*
X160415390Y-114079222D01*
X160415390Y-114079222D02*
X160412686Y-114030319D01*
X160412686Y-114030319D02*
X160411899Y-113960135D01*
X160411899Y-113960135D02*
X160411886Y-113944400D01*
X160411886Y-113944400D02*
X160411922Y-113939392D01*
X160411922Y-113939392D02*
X160557029Y-113939392D01*
X160557029Y-113939392D02*
X160557873Y-114005630D01*
X160557873Y-114005630D02*
X160561196Y-114049586D01*
X160561196Y-114049586D02*
X160568183Y-114077979D01*
X160568183Y-114077979D02*
X160580016Y-114097525D01*
X160580016Y-114097525D02*
X160586057Y-114104057D01*
X160586057Y-114104057D02*
X160620786Y-114128880D01*
X160620786Y-114128880D02*
X160654503Y-114127748D01*
X160654503Y-114127748D02*
X160688595Y-114106216D01*
X160688595Y-114106216D02*
X160708929Y-114083229D01*
X160708929Y-114083229D02*
X160720971Y-114049678D01*
X160720971Y-114049678D02*
X160727734Y-113996769D01*
X160727734Y-113996769D02*
X160728198Y-113990599D01*
X160728198Y-113990599D02*
X160729352Y-113894713D01*
X160729352Y-113894713D02*
X160717288Y-113823499D01*
X160717288Y-113823499D02*
X160692170Y-113777394D01*
X160692170Y-113777394D02*
X160654160Y-113756835D01*
X160654160Y-113756835D02*
X160640592Y-113755714D01*
X160640592Y-113755714D02*
X160604964Y-113761352D01*
X160604964Y-113761352D02*
X160580594Y-113780886D01*
X160580594Y-113780886D02*
X160565693Y-113818242D01*
X160565693Y-113818242D02*
X160558475Y-113877350D01*
X160558475Y-113877350D02*
X160557029Y-113939392D01*
X160557029Y-113939392D02*
X160411922Y-113939392D01*
X160411922Y-113939392D02*
X160412426Y-113869613D01*
X160412426Y-113869613D02*
X160414696Y-113817359D01*
X160414696Y-113817359D02*
X160419668Y-113781149D01*
X160419668Y-113781149D02*
X160428313Y-113754499D01*
X160428313Y-113754499D02*
X160441605Y-113730922D01*
X160441605Y-113730922D02*
X160444543Y-113726538D01*
X160444543Y-113726538D02*
X160493913Y-113667449D01*
X160493913Y-113667449D02*
X160547709Y-113633147D01*
X160547709Y-113633147D02*
X160613202Y-113619531D01*
X160613202Y-113619531D02*
X160635442Y-113618865D01*
X160635442Y-113618865D02*
X160718715Y-113631162D01*
X160718715Y-113631162D02*
X160718715Y-113631162D01*
G36*
X160414696Y-113817359D02*
G01*
X160419668Y-113781149D01*
X160428313Y-113754499D01*
X160441605Y-113730922D01*
X160444543Y-113726538D01*
X160493913Y-113667449D01*
X160547709Y-113633147D01*
X160613202Y-113619531D01*
X160635442Y-113618865D01*
X160718715Y-113631162D01*
X160786745Y-113666933D01*
X160836951Y-113724501D01*
X160854785Y-113761512D01*
X160868663Y-113817082D01*
X160875767Y-113887296D01*
X160876440Y-113963927D01*
X160871027Y-114038752D01*
X160859870Y-114103542D01*
X160843314Y-114150073D01*
X160838226Y-114158087D01*
X160777955Y-114217907D01*
X160706369Y-114253735D01*
X160628692Y-114264220D01*
X160550148Y-114248010D01*
X160528289Y-114238292D01*
X160485722Y-114208343D01*
X160448363Y-114168633D01*
X160444832Y-114163597D01*
X160430481Y-114139324D01*
X160420994Y-114113378D01*
X160415390Y-114079222D01*
X160412686Y-114030319D01*
X160411899Y-113960135D01*
X160411886Y-113944400D01*
X160411922Y-113939392D01*
X160557029Y-113939392D01*
X160557873Y-114005630D01*
X160561196Y-114049586D01*
X160568183Y-114077979D01*
X160580016Y-114097525D01*
X160586057Y-114104057D01*
X160620786Y-114128880D01*
X160654503Y-114127748D01*
X160688595Y-114106216D01*
X160708929Y-114083229D01*
X160720971Y-114049678D01*
X160727734Y-113996769D01*
X160728198Y-113990599D01*
X160729352Y-113894713D01*
X160717288Y-113823499D01*
X160692170Y-113777394D01*
X160654160Y-113756835D01*
X160640592Y-113755714D01*
X160604964Y-113761352D01*
X160580594Y-113780886D01*
X160565693Y-113818242D01*
X160558475Y-113877350D01*
X160557029Y-113939392D01*
X160411922Y-113939392D01*
X160412426Y-113869613D01*
X160414696Y-113817359D01*
G37*
X160414696Y-113817359D02*
X160419668Y-113781149D01*
X160428313Y-113754499D01*
X160441605Y-113730922D01*
X160444543Y-113726538D01*
X160493913Y-113667449D01*
X160547709Y-113633147D01*
X160613202Y-113619531D01*
X160635442Y-113618865D01*
X160718715Y-113631162D01*
X160786745Y-113666933D01*
X160836951Y-113724501D01*
X160854785Y-113761512D01*
X160868663Y-113817082D01*
X160875767Y-113887296D01*
X160876440Y-113963927D01*
X160871027Y-114038752D01*
X160859870Y-114103542D01*
X160843314Y-114150073D01*
X160838226Y-114158087D01*
X160777955Y-114217907D01*
X160706369Y-114253735D01*
X160628692Y-114264220D01*
X160550148Y-114248010D01*
X160528289Y-114238292D01*
X160485722Y-114208343D01*
X160448363Y-114168633D01*
X160444832Y-114163597D01*
X160430481Y-114139324D01*
X160420994Y-114113378D01*
X160415390Y-114079222D01*
X160412686Y-114030319D01*
X160411899Y-113960135D01*
X160411886Y-113944400D01*
X160411922Y-113939392D01*
X160557029Y-113939392D01*
X160557873Y-114005630D01*
X160561196Y-114049586D01*
X160568183Y-114077979D01*
X160580016Y-114097525D01*
X160586057Y-114104057D01*
X160620786Y-114128880D01*
X160654503Y-114127748D01*
X160688595Y-114106216D01*
X160708929Y-114083229D01*
X160720971Y-114049678D01*
X160727734Y-113996769D01*
X160728198Y-113990599D01*
X160729352Y-113894713D01*
X160717288Y-113823499D01*
X160692170Y-113777394D01*
X160654160Y-113756835D01*
X160640592Y-113755714D01*
X160604964Y-113761352D01*
X160580594Y-113780886D01*
X160565693Y-113818242D01*
X160558475Y-113877350D01*
X160557029Y-113939392D01*
X160411922Y-113939392D01*
X160412426Y-113869613D01*
X160414696Y-113817359D01*
D13*
X87882000Y-132982580D02*
X87882000Y-132701420D01*
X88902000Y-132982580D02*
X88902000Y-132701420D01*
X84999000Y-136525000D02*
X84999000Y-137175000D01*
X84999000Y-136525000D02*
X84999000Y-134850000D01*
X81879000Y-136525000D02*
X81879000Y-137175000D01*
X81879000Y-136525000D02*
X81879000Y-135875000D01*
X82310500Y-133079258D02*
X82310500Y-132604742D01*
X81265500Y-133079258D02*
X81265500Y-132604742D01*
X147305500Y-110252742D02*
X147305500Y-110727258D01*
X148350500Y-110252742D02*
X148350500Y-110727258D01*
M02*
