G04 #@! TF.GenerationSoftware,KiCad,Pcbnew,(6.0.0)*
G04 #@! TF.CreationDate,2022-02-12T17:35:16+01:00*
G04 #@! TF.ProjectId,canned-ercf-board,63616e6e-6564-42d6-9572-63662d626f61,v1.0-beta1*
G04 #@! TF.SameCoordinates,Original*
G04 #@! TF.FileFunction,Soldermask,Top*
G04 #@! TF.FilePolarity,Negative*
%FSLAX46Y46*%
G04 Gerber Fmt 4.6, Leading zero omitted, Abs format (unit mm)*
G04 Created by KiCad (PCBNEW (6.0.0)) date 2022-02-12 17:35:16*
%MOMM*%
%LPD*%
G01*
G04 APERTURE LIST*
G04 Aperture macros list*
%AMRoundRect*
0 Rectangle with rounded corners*
0 $1 Rounding radius*
0 $2 $3 $4 $5 $6 $7 $8 $9 X,Y pos of 4 corners*
0 Add a 4 corners polygon primitive as box body*
4,1,4,$2,$3,$4,$5,$6,$7,$8,$9,$2,$3,0*
0 Add four circle primitives for the rounded corners*
1,1,$1+$1,$2,$3*
1,1,$1+$1,$4,$5*
1,1,$1+$1,$6,$7*
1,1,$1+$1,$8,$9*
0 Add four rect primitives between the rounded corners*
20,1,$1+$1,$2,$3,$4,$5,0*
20,1,$1+$1,$4,$5,$6,$7,0*
20,1,$1+$1,$6,$7,$8,$9,0*
20,1,$1+$1,$8,$9,$2,$3,0*%
G04 Aperture macros list end*
%ADD10RoundRect,0.250000X1.500000X0.550000X-1.500000X0.550000X-1.500000X-0.550000X1.500000X-0.550000X0*%
%ADD11R,1.700000X1.700000*%
%ADD12C,1.700000*%
%ADD13RoundRect,0.250000X0.845000X-0.620000X0.845000X0.620000X-0.845000X0.620000X-0.845000X-0.620000X0*%
%ADD14O,2.190000X1.740000*%
%ADD15C,1.524000*%
%ADD16R,1.524000X1.524000*%
%ADD17C,3.200000*%
%ADD18RoundRect,0.225000X-0.250000X0.225000X-0.250000X-0.225000X0.250000X-0.225000X0.250000X0.225000X0*%
%ADD19RoundRect,0.250000X-0.620000X-0.845000X0.620000X-0.845000X0.620000X0.845000X-0.620000X0.845000X0*%
%ADD20O,1.740000X2.190000*%
%ADD21R,3.000000X3.000000*%
%ADD22C,3.000000*%
%ADD23RoundRect,0.250000X0.620000X0.845000X-0.620000X0.845000X-0.620000X-0.845000X0.620000X-0.845000X0*%
%ADD24RoundRect,0.200000X-0.275000X0.200000X-0.275000X-0.200000X0.275000X-0.200000X0.275000X0.200000X0*%
%ADD25RoundRect,0.200000X0.275000X-0.200000X0.275000X0.200000X-0.275000X0.200000X-0.275000X-0.200000X0*%
%ADD26RoundRect,0.250000X0.475000X-0.250000X0.475000X0.250000X-0.475000X0.250000X-0.475000X-0.250000X0*%
%ADD27RoundRect,0.150000X-0.150000X0.587500X-0.150000X-0.587500X0.150000X-0.587500X0.150000X0.587500X0*%
%ADD28RoundRect,0.200000X0.200000X0.275000X-0.200000X0.275000X-0.200000X-0.275000X0.200000X-0.275000X0*%
%ADD29RoundRect,0.218750X-0.256250X0.218750X-0.256250X-0.218750X0.256250X-0.218750X0.256250X0.218750X0*%
%ADD30RoundRect,0.250000X-0.475000X0.250000X-0.475000X-0.250000X0.475000X-0.250000X0.475000X0.250000X0*%
%ADD31RoundRect,0.225000X0.250000X-0.225000X0.250000X0.225000X-0.250000X0.225000X-0.250000X-0.225000X0*%
G04 APERTURE END LIST*
D10*
X155608000Y-126136400D03*
X150208000Y-126136400D03*
D11*
X80264000Y-140589000D03*
D12*
X82804000Y-140589000D03*
X85344000Y-140589000D03*
X87884000Y-140589000D03*
X90424000Y-140589000D03*
X92964000Y-140589000D03*
X95504000Y-140589000D03*
X98044000Y-140589000D03*
X100584000Y-140589000D03*
X103124000Y-140589000D03*
X105664000Y-140589000D03*
X108204000Y-140589000D03*
X110744000Y-140589000D03*
X113284000Y-140589000D03*
X115824000Y-140589000D03*
X118364000Y-140589000D03*
X118364000Y-125349000D03*
X115824000Y-125349000D03*
X113284000Y-125349000D03*
X110744000Y-125349000D03*
X108204000Y-125349000D03*
X105664000Y-125349000D03*
X103124000Y-125349000D03*
X100584000Y-125349000D03*
X98044000Y-125349000D03*
X95504000Y-125349000D03*
X92964000Y-125349000D03*
X90424000Y-125349000D03*
X87884000Y-125349000D03*
X85344000Y-125349000D03*
X82804000Y-125349000D03*
X80264000Y-125349000D03*
D13*
X80233200Y-113995200D03*
D14*
X80233200Y-111455200D03*
D13*
X80264000Y-120650000D03*
D14*
X80264000Y-118110000D03*
D15*
X141859000Y-122936000D03*
X143510000Y-124206000D03*
X143510000Y-121666000D03*
X125730000Y-131826000D03*
X128270000Y-131826000D03*
X130810000Y-131826000D03*
X138430000Y-131826000D03*
X135890000Y-131826000D03*
X133350000Y-131826000D03*
X140970000Y-131826000D03*
D16*
X143510000Y-131826000D03*
D15*
X143510000Y-119126000D03*
X140970000Y-119126000D03*
X138430000Y-119126000D03*
X135890000Y-119126000D03*
X133350000Y-119126000D03*
X130810000Y-119126000D03*
X128270000Y-119126000D03*
D16*
X125730000Y-119126000D03*
X147193000Y-119126000D03*
D15*
X149733000Y-119126000D03*
X152273000Y-119126000D03*
X154813000Y-119126000D03*
X157353000Y-119126000D03*
X159893000Y-119126000D03*
X162433000Y-119126000D03*
X164973000Y-119126000D03*
D16*
X164973000Y-131826000D03*
D15*
X162433000Y-131826000D03*
X154813000Y-131826000D03*
X157353000Y-131826000D03*
X159893000Y-131826000D03*
X152273000Y-131826000D03*
X149733000Y-131826000D03*
X147193000Y-131826000D03*
X164973000Y-121666000D03*
X164973000Y-124206000D03*
X163322000Y-122936000D03*
D17*
X126365000Y-139700000D03*
X90170000Y-113030000D03*
X163830000Y-139700000D03*
D18*
X140589000Y-109715000D03*
X140589000Y-111265000D03*
D19*
X97028000Y-119253000D03*
D20*
X99568000Y-119253000D03*
X102108000Y-119253000D03*
D19*
X97028000Y-111506000D03*
D20*
X99568000Y-111506000D03*
X102108000Y-111506000D03*
D21*
X130048000Y-112268000D03*
D22*
X135128000Y-112268000D03*
D23*
X155448000Y-139700000D03*
D20*
X152908000Y-139700000D03*
X150368000Y-139700000D03*
X147828000Y-139700000D03*
D23*
X143002000Y-139680000D03*
D20*
X140462000Y-139680000D03*
X137922000Y-139680000D03*
X135382000Y-139680000D03*
D24*
X94996000Y-132017000D03*
X94996000Y-133667000D03*
D25*
X142367000Y-111315000D03*
X142367000Y-109665000D03*
D24*
X144145000Y-109665000D03*
X144145000Y-111315000D03*
X85039200Y-115722400D03*
X85039200Y-117372400D03*
D11*
X121592800Y-116789200D03*
D12*
X121592800Y-114249200D03*
X121592800Y-111709200D03*
D19*
X105918000Y-119273000D03*
D20*
X108458000Y-119273000D03*
X110998000Y-119273000D03*
D26*
X124764800Y-115123000D03*
X124764800Y-113223000D03*
D19*
X105918000Y-111506000D03*
D20*
X108458000Y-111506000D03*
X110998000Y-111506000D03*
D25*
X86741000Y-133667000D03*
X86741000Y-132017000D03*
X83439000Y-133667000D03*
X83439000Y-132017000D03*
D27*
X92034400Y-135562100D03*
X90134400Y-135562100D03*
X91084400Y-137437100D03*
D28*
X92710000Y-122100000D03*
X91060000Y-122100000D03*
X134557000Y-121564400D03*
X136207000Y-121564400D03*
D10*
X134526000Y-126187200D03*
X129126000Y-126187200D03*
D28*
X139636000Y-121564400D03*
X137986000Y-121564400D03*
D24*
X145923000Y-109665000D03*
X145923000Y-111315000D03*
D29*
X151765000Y-109702500D03*
X151765000Y-111277500D03*
D25*
X85090000Y-133667000D03*
X85090000Y-132017000D03*
D30*
X124764800Y-109540000D03*
X124764800Y-111440000D03*
D31*
X90068400Y-133617000D03*
X90068400Y-132067000D03*
D25*
X160390000Y-121045000D03*
X160390000Y-122695000D03*
D29*
X154813000Y-109702500D03*
X154813000Y-111277500D03*
D25*
X93370400Y-133667000D03*
X93370400Y-132017000D03*
D29*
X158115000Y-109702500D03*
X158115000Y-111277500D03*
D25*
X91744800Y-133667000D03*
X91744800Y-132017000D03*
D31*
X80137000Y-133617000D03*
X80137000Y-132067000D03*
D24*
X149733000Y-109665000D03*
X149733000Y-111315000D03*
D31*
X88392000Y-132067000D03*
X88392000Y-133617000D03*
D27*
X84389000Y-135587500D03*
X82489000Y-135587500D03*
X83439000Y-137462500D03*
D25*
X81788000Y-133667000D03*
X81788000Y-132017000D03*
D24*
X147828000Y-109665000D03*
X147828000Y-111315000D03*
M02*
