G04 #@! TF.GenerationSoftware,KiCad,Pcbnew,(6.0.0)*
G04 #@! TF.CreationDate,2022-02-12T17:35:16+01:00*
G04 #@! TF.ProjectId,canned-ercf-board,63616e6e-6564-42d6-9572-63662d626f61,v1.0-beta1*
G04 #@! TF.SameCoordinates,Original*
G04 #@! TF.FileFunction,Soldermask,Bot*
G04 #@! TF.FilePolarity,Negative*
%FSLAX46Y46*%
G04 Gerber Fmt 4.6, Leading zero omitted, Abs format (unit mm)*
G04 Created by KiCad (PCBNEW (6.0.0)) date 2022-02-12 17:35:16*
%MOMM*%
%LPD*%
G01*
G04 APERTURE LIST*
G04 Aperture macros list*
%AMRoundRect*
0 Rectangle with rounded corners*
0 $1 Rounding radius*
0 $2 $3 $4 $5 $6 $7 $8 $9 X,Y pos of 4 corners*
0 Add a 4 corners polygon primitive as box body*
4,1,4,$2,$3,$4,$5,$6,$7,$8,$9,$2,$3,0*
0 Add four circle primitives for the rounded corners*
1,1,$1+$1,$2,$3*
1,1,$1+$1,$4,$5*
1,1,$1+$1,$6,$7*
1,1,$1+$1,$8,$9*
0 Add four rect primitives between the rounded corners*
20,1,$1+$1,$2,$3,$4,$5,0*
20,1,$1+$1,$4,$5,$6,$7,0*
20,1,$1+$1,$6,$7,$8,$9,0*
20,1,$1+$1,$8,$9,$2,$3,0*%
%AMFreePoly0*
4,1,22,0.550000,-0.750000,0.000000,-0.750000,0.000000,-0.745033,-0.079941,-0.743568,-0.215256,-0.701293,-0.333266,-0.622738,-0.424486,-0.514219,-0.481581,-0.384460,-0.499164,-0.250000,-0.500000,-0.250000,-0.500000,0.250000,-0.499164,0.250000,-0.499963,0.256109,-0.478152,0.396186,-0.417904,0.524511,-0.324060,0.630769,-0.204165,0.706417,-0.067858,0.745374,0.000000,0.744959,0.000000,0.750000,
0.550000,0.750000,0.550000,-0.750000,0.550000,-0.750000,$1*%
%AMFreePoly1*
4,1,20,0.000000,0.744959,0.073905,0.744508,0.209726,0.703889,0.328688,0.626782,0.421226,0.519385,0.479903,0.390333,0.500000,0.250000,0.500000,-0.250000,0.499851,-0.262216,0.476331,-0.402017,0.414519,-0.529596,0.319384,-0.634700,0.198574,-0.708877,0.061801,-0.746166,0.000000,-0.745033,0.000000,-0.750000,-0.550000,-0.750000,-0.550000,0.750000,0.000000,0.750000,0.000000,0.744959,
0.000000,0.744959,$1*%
%AMFreePoly2*
4,1,6,1.000000,0.000000,0.500000,-0.750000,-0.500000,-0.750000,-0.500000,0.750000,0.500000,0.750000,1.000000,0.000000,1.000000,0.000000,$1*%
%AMFreePoly3*
4,1,6,0.500000,-0.750000,-0.650000,-0.750000,-0.150000,0.000000,-0.650000,0.750000,0.500000,0.750000,0.500000,-0.750000,0.500000,-0.750000,$1*%
G04 Aperture macros list end*
%ADD10R,1.700000X1.700000*%
%ADD11C,1.700000*%
%ADD12RoundRect,0.250000X0.845000X-0.620000X0.845000X0.620000X-0.845000X0.620000X-0.845000X-0.620000X0*%
%ADD13O,2.190000X1.740000*%
%ADD14C,1.524000*%
%ADD15R,1.524000X1.524000*%
%ADD16C,3.200000*%
%ADD17RoundRect,0.250000X-0.620000X-0.845000X0.620000X-0.845000X0.620000X0.845000X-0.620000X0.845000X0*%
%ADD18O,1.740000X2.190000*%
%ADD19R,3.000000X3.000000*%
%ADD20C,3.000000*%
%ADD21RoundRect,0.250000X0.620000X0.845000X-0.620000X0.845000X-0.620000X-0.845000X0.620000X-0.845000X0*%
%ADD22FreePoly0,180.000000*%
%ADD23R,1.000000X1.500000*%
%ADD24FreePoly1,180.000000*%
%ADD25FreePoly2,0.000000*%
%ADD26FreePoly3,0.000000*%
G04 APERTURE END LIST*
D10*
X80264000Y-140589000D03*
D11*
X82804000Y-140589000D03*
X85344000Y-140589000D03*
X87884000Y-140589000D03*
X90424000Y-140589000D03*
X92964000Y-140589000D03*
X95504000Y-140589000D03*
X98044000Y-140589000D03*
X100584000Y-140589000D03*
X103124000Y-140589000D03*
X105664000Y-140589000D03*
X108204000Y-140589000D03*
X110744000Y-140589000D03*
X113284000Y-140589000D03*
X115824000Y-140589000D03*
X118364000Y-140589000D03*
X118364000Y-125349000D03*
X115824000Y-125349000D03*
X113284000Y-125349000D03*
X110744000Y-125349000D03*
X108204000Y-125349000D03*
X105664000Y-125349000D03*
X103124000Y-125349000D03*
X100584000Y-125349000D03*
X98044000Y-125349000D03*
X95504000Y-125349000D03*
X92964000Y-125349000D03*
X90424000Y-125349000D03*
X87884000Y-125349000D03*
X85344000Y-125349000D03*
X82804000Y-125349000D03*
X80264000Y-125349000D03*
D12*
X80233200Y-113995200D03*
D13*
X80233200Y-111455200D03*
D12*
X80264000Y-120650000D03*
D13*
X80264000Y-118110000D03*
D14*
X141859000Y-122936000D03*
X143510000Y-124206000D03*
X143510000Y-121666000D03*
X125730000Y-131826000D03*
X128270000Y-131826000D03*
X130810000Y-131826000D03*
X138430000Y-131826000D03*
X135890000Y-131826000D03*
X133350000Y-131826000D03*
X140970000Y-131826000D03*
D15*
X143510000Y-131826000D03*
D14*
X143510000Y-119126000D03*
X140970000Y-119126000D03*
X138430000Y-119126000D03*
X135890000Y-119126000D03*
X133350000Y-119126000D03*
X130810000Y-119126000D03*
X128270000Y-119126000D03*
D15*
X125730000Y-119126000D03*
X147193000Y-119126000D03*
D14*
X149733000Y-119126000D03*
X152273000Y-119126000D03*
X154813000Y-119126000D03*
X157353000Y-119126000D03*
X159893000Y-119126000D03*
X162433000Y-119126000D03*
X164973000Y-119126000D03*
D15*
X164973000Y-131826000D03*
D14*
X162433000Y-131826000D03*
X154813000Y-131826000D03*
X157353000Y-131826000D03*
X159893000Y-131826000D03*
X152273000Y-131826000D03*
X149733000Y-131826000D03*
X147193000Y-131826000D03*
X164973000Y-121666000D03*
X164973000Y-124206000D03*
X163322000Y-122936000D03*
D16*
X126365000Y-139700000D03*
X90170000Y-113030000D03*
X163830000Y-139700000D03*
D17*
X97028000Y-119253000D03*
D18*
X99568000Y-119253000D03*
X102108000Y-119253000D03*
D17*
X97028000Y-111506000D03*
D18*
X99568000Y-111506000D03*
X102108000Y-111506000D03*
D19*
X130048000Y-112268000D03*
D20*
X135128000Y-112268000D03*
D21*
X155448000Y-139700000D03*
D18*
X152908000Y-139700000D03*
X150368000Y-139700000D03*
X147828000Y-139700000D03*
D21*
X143002000Y-139680000D03*
D18*
X140462000Y-139680000D03*
X137922000Y-139680000D03*
X135382000Y-139680000D03*
D10*
X121592800Y-116789200D03*
D11*
X121592800Y-114249200D03*
X121592800Y-111709200D03*
D17*
X105918000Y-119273000D03*
D18*
X108458000Y-119273000D03*
X110998000Y-119273000D03*
D17*
X105918000Y-111506000D03*
D18*
X108458000Y-111506000D03*
X110998000Y-111506000D03*
D22*
X157510000Y-121920000D03*
D23*
X156210000Y-121920000D03*
D24*
X154910000Y-121920000D03*
D25*
X85291000Y-120396000D03*
D26*
X86741000Y-120396000D03*
D22*
X135920000Y-121920000D03*
D23*
X134620000Y-121920000D03*
D24*
X133320000Y-121920000D03*
M02*
