M48
; DRILL file {KiCad (6.0.0)} date Sat Feb 12 17:35:21 2022
; FORMAT={-:-/ absolute / inch / decimal}
; #@! TF.CreationDate,2022-02-12T17:35:21+01:00
; #@! TF.GenerationSoftware,Kicad,Pcbnew,(6.0.0)
; #@! TF.FileFunction,Plated,1,2,PTH
FMAT,2
INCH
; #@! TA.AperFunction,Plated,PTH,ViaDrill
T1C0.0236
; #@! TA.AperFunction,Plated,PTH,ComponentDrill
T2C0.0394
; #@! TA.AperFunction,Plated,PTH,ComponentDrill
T3C0.0400
; #@! TA.AperFunction,Plated,PTH,ComponentDrill
T4C0.0469
; #@! TA.AperFunction,Plated,PTH,ComponentDrill
T5C0.0598
%
G90
G05
T1
X3.0953Y-5.3213
X3.0976Y-5.4189
X3.2102Y-5.0579
X3.3122Y-5.024
X3.3761Y-4.6632
X3.3772Y-4.3728
X3.3787Y-4.4457
X3.4361Y-5.4119
X3.578Y-5.1067
X3.6205Y-4.7417
X3.6811Y-4.6677
X3.8079Y-5.1055
X4.1087Y-5.3067
X4.3063Y-5.0319
X4.315Y-4.8063
X4.576Y-4.4776
X4.5772Y-4.3181
X4.6543Y-4.3193
X4.6555Y-4.4776
X4.6709Y-4.7732
X4.7181Y-5.3217
X4.7701Y-4.7732
X4.8016Y-5.3205
X4.8394Y-5.1713
X4.8998Y-4.9339
X4.9594Y-5.0748
X5.1209Y-4.7677
X5.1874Y-5.0748
X5.306Y-4.7396
X5.3142Y-4.5398
X5.3764Y-4.5398
X5.4126Y-5.0772
X5.5756Y-4.9528
X5.6147Y-4.9989
X5.698Y-4.4976
X5.8512Y-4.4976
X6.0185Y-4.8634
X6.1457Y-4.7346
X6.1722Y-4.381
X6.2429Y-5.087
X6.4937Y-4.9811
X6.4988Y-5.0752
T2
X3.16Y-4.935
X3.16Y-5.535
X3.26Y-4.935
X3.26Y-5.535
X3.36Y-4.935
X3.36Y-5.535
X3.46Y-4.935
X3.46Y-5.535
X3.56Y-4.935
X3.56Y-5.535
X3.66Y-4.935
X3.66Y-5.535
X3.76Y-4.935
X3.76Y-5.535
X3.86Y-4.935
X3.86Y-5.535
X3.96Y-4.935
X3.96Y-5.535
X4.06Y-4.935
X4.06Y-5.535
X4.16Y-4.935
X4.16Y-5.535
X4.26Y-4.935
X4.26Y-5.535
X4.36Y-4.935
X4.36Y-5.535
X4.46Y-4.935
X4.46Y-5.535
X4.56Y-4.935
X4.56Y-5.535
X4.66Y-4.935
X4.66Y-5.535
X4.7871Y-4.398
X4.7871Y-4.498
X4.7871Y-4.598
T3
X4.95Y-4.69
X4.95Y-5.19
X5.05Y-4.69
X5.05Y-5.19
X5.15Y-4.69
X5.15Y-5.19
X5.25Y-4.69
X5.25Y-5.19
X5.35Y-4.69
X5.35Y-5.19
X5.45Y-4.69
X5.45Y-5.19
X5.55Y-4.69
X5.55Y-5.19
X5.585Y-4.84
X5.65Y-4.69
X5.65Y-4.79
X5.65Y-4.89
X5.65Y-5.19
X5.795Y-4.69
X5.795Y-5.19
X5.895Y-4.69
X5.895Y-5.19
X5.995Y-4.69
X5.995Y-5.19
X6.095Y-4.69
X6.095Y-5.19
X6.195Y-4.69
X6.195Y-5.19
X6.295Y-4.69
X6.295Y-5.19
X6.395Y-4.69
X6.395Y-5.19
X6.43Y-4.84
X6.495Y-4.69
X6.495Y-4.79
X6.495Y-4.89
X6.495Y-5.19
T4
X3.1588Y-4.388
X3.1588Y-4.488
X3.16Y-4.65
X3.16Y-4.75
X3.82Y-4.39
X3.82Y-4.695
X3.92Y-4.39
X3.92Y-4.695
X4.02Y-4.39
X4.02Y-4.695
X4.17Y-4.39
X4.17Y-4.6958
X4.27Y-4.39
X4.27Y-4.6958
X4.37Y-4.39
X4.37Y-4.6958
X5.33Y-5.4992
X5.43Y-5.4992
X5.53Y-5.4992
X5.63Y-5.4992
X5.82Y-5.5
X5.92Y-5.5
X6.02Y-5.5
X6.12Y-5.5
T5
X5.12Y-4.42
X5.32Y-4.42
T0
M30
