M48
; DRILL file {KiCad (6.0.0)} date Sat Jan  8 16:55:05 2022
; FORMAT={-:-/ absolute / inch / decimal}
; #@! TF.CreationDate,2022-01-08T16:55:05+01:00
; #@! TF.GenerationSoftware,Kicad,Pcbnew,(6.0.0)
; #@! TF.FileFunction,Plated,1,2,PTH
FMAT,2
INCH
; #@! TA.AperFunction,Plated,PTH,ViaDrill
T1C0.0236
; #@! TA.AperFunction,Plated,PTH,ComponentDrill
T2C0.0394
; #@! TA.AperFunction,Plated,PTH,ComponentDrill
T3C0.0400
; #@! TA.AperFunction,Plated,PTH,ComponentDrill
T4C0.0469
; #@! TA.AperFunction,Plated,PTH,ComponentDrill
T5C0.0598
%
G90
G05
T1
X3.25Y-5.1
X3.25Y-5.2
X3.25Y-5.3
X3.4Y-5.1
X3.4Y-5.2
X3.4Y-5.3
X3.4355Y-4.5662
X3.842Y-5.22
X3.91Y-5.15
X4.64Y-4.78
X4.9803Y-5.0492
X5.3839Y-5.0492
X5.53Y-4.48
X5.57Y-4.6
X5.8Y-4.99
X6.1526Y-4.3147
X6.378Y-4.3504
T2
X3.16Y-4.935
X3.16Y-5.535
X3.26Y-4.935
X3.26Y-5.535
X3.36Y-4.935
X3.36Y-5.535
X3.46Y-4.935
X3.46Y-5.535
X3.56Y-4.935
X3.56Y-5.535
X3.66Y-4.935
X3.66Y-5.535
X3.76Y-4.935
X3.76Y-5.535
X3.86Y-4.935
X3.86Y-5.535
X3.96Y-4.935
X3.96Y-5.535
X4.06Y-4.935
X4.06Y-5.535
X4.16Y-4.935
X4.16Y-5.535
X4.26Y-4.935
X4.26Y-5.535
X4.36Y-4.935
X4.36Y-5.535
X4.46Y-4.935
X4.46Y-5.535
X4.56Y-4.935
X4.56Y-5.535
X4.66Y-4.935
X4.66Y-5.535
X4.7063Y-4.405
X4.7063Y-4.505
X4.7063Y-4.605
T3
X4.95Y-4.69
X4.95Y-5.19
X5.05Y-4.69
X5.05Y-5.19
X5.15Y-4.69
X5.15Y-5.19
X5.25Y-4.69
X5.25Y-5.19
X5.35Y-4.69
X5.35Y-5.19
X5.45Y-4.69
X5.45Y-5.19
X5.55Y-4.69
X5.55Y-5.19
X5.585Y-4.84
X5.65Y-4.69
X5.65Y-4.79
X5.65Y-4.89
X5.65Y-5.19
X5.795Y-4.69
X5.795Y-5.19
X5.895Y-4.69
X5.895Y-5.19
X5.995Y-4.69
X5.995Y-5.19
X6.095Y-4.69
X6.095Y-5.19
X6.195Y-4.69
X6.195Y-5.19
X6.295Y-4.69
X6.295Y-5.19
X6.395Y-4.69
X6.395Y-5.19
X6.43Y-4.84
X6.495Y-4.69
X6.495Y-4.79
X6.495Y-4.89
X6.495Y-5.19
T4
X3.1658Y-4.405
X3.1658Y-4.505
X3.1658Y-4.605
X3.1658Y-4.705
X3.815Y-4.3858
X3.815Y-4.6966
X3.915Y-4.3858
X3.915Y-4.6966
X4.015Y-4.3858
X4.015Y-4.6966
X4.175Y-4.3866
X4.175Y-4.6958
X4.275Y-4.3866
X4.275Y-4.6958
X4.375Y-4.3866
X4.375Y-4.6958
X5.33Y-5.4992
X5.43Y-5.4992
X5.53Y-5.4992
X5.63Y-5.4992
X5.82Y-5.5
X5.92Y-5.5
X6.02Y-5.5
X6.12Y-5.5
T5
X5.085Y-4.425
X5.285Y-4.425
T0
M30
