G04 #@! TF.GenerationSoftware,KiCad,Pcbnew,(6.0.0)*
G04 #@! TF.CreationDate,2022-01-08T16:55:08+01:00*
G04 #@! TF.ProjectId,ercf-easy-brd,65726366-2d65-4617-9379-2d6272642e6b,v1.0-beta1*
G04 #@! TF.SameCoordinates,Original*
G04 #@! TF.FileFunction,Copper,L2,Bot*
G04 #@! TF.FilePolarity,Positive*
%FSLAX46Y46*%
G04 Gerber Fmt 4.6, Leading zero omitted, Abs format (unit mm)*
G04 Created by KiCad (PCBNEW (6.0.0)) date 2022-01-08 16:55:08*
%MOMM*%
%LPD*%
G01*
G04 APERTURE LIST*
G04 Aperture macros list*
%AMRoundRect*
0 Rectangle with rounded corners*
0 $1 Rounding radius*
0 $2 $3 $4 $5 $6 $7 $8 $9 X,Y pos of 4 corners*
0 Add a 4 corners polygon primitive as box body*
4,1,4,$2,$3,$4,$5,$6,$7,$8,$9,$2,$3,0*
0 Add four circle primitives for the rounded corners*
1,1,$1+$1,$2,$3*
1,1,$1+$1,$4,$5*
1,1,$1+$1,$6,$7*
1,1,$1+$1,$8,$9*
0 Add four rect primitives between the rounded corners*
20,1,$1+$1,$2,$3,$4,$5,0*
20,1,$1+$1,$4,$5,$6,$7,0*
20,1,$1+$1,$6,$7,$8,$9,0*
20,1,$1+$1,$8,$9,$2,$3,0*%
%AMFreePoly0*
4,1,22,0.550000,-0.750000,0.000000,-0.750000,0.000000,-0.745033,-0.079941,-0.743568,-0.215256,-0.701293,-0.333266,-0.622738,-0.424486,-0.514219,-0.481581,-0.384460,-0.499164,-0.250000,-0.500000,-0.250000,-0.500000,0.250000,-0.499164,0.250000,-0.499963,0.256109,-0.478152,0.396186,-0.417904,0.524511,-0.324060,0.630769,-0.204165,0.706417,-0.067858,0.745374,0.000000,0.744959,0.000000,0.750000,
0.550000,0.750000,0.550000,-0.750000,0.550000,-0.750000,$1*%
%AMFreePoly1*
4,1,20,0.000000,0.744959,0.073905,0.744508,0.209726,0.703889,0.328688,0.626782,0.421226,0.519385,0.479903,0.390333,0.500000,0.250000,0.500000,-0.250000,0.499851,-0.262216,0.476331,-0.402017,0.414519,-0.529596,0.319384,-0.634700,0.198574,-0.708877,0.061801,-0.746166,0.000000,-0.745033,0.000000,-0.750000,-0.550000,-0.750000,-0.550000,0.750000,0.000000,0.750000,0.000000,0.744959,
0.000000,0.744959,$1*%
%AMFreePoly2*
4,1,6,1.000000,0.000000,0.500000,-0.750000,-0.500000,-0.750000,-0.500000,0.750000,0.500000,0.750000,1.000000,0.000000,1.000000,0.000000,$1*%
%AMFreePoly3*
4,1,6,0.500000,-0.750000,-0.650000,-0.750000,-0.150000,0.000000,-0.650000,0.750000,0.500000,0.750000,0.500000,-0.750000,0.500000,-0.750000,$1*%
G04 Aperture macros list end*
G04 #@! TA.AperFunction,ComponentPad*
%ADD10RoundRect,0.250000X0.845000X-0.620000X0.845000X0.620000X-0.845000X0.620000X-0.845000X-0.620000X0*%
G04 #@! TD*
G04 #@! TA.AperFunction,ComponentPad*
%ADD11O,2.190000X1.740000*%
G04 #@! TD*
G04 #@! TA.AperFunction,ComponentPad*
%ADD12RoundRect,0.250000X-0.620000X-0.845000X0.620000X-0.845000X0.620000X0.845000X-0.620000X0.845000X0*%
G04 #@! TD*
G04 #@! TA.AperFunction,ComponentPad*
%ADD13O,1.740000X2.190000*%
G04 #@! TD*
G04 #@! TA.AperFunction,ComponentPad*
%ADD14RoundRect,0.250000X0.620000X0.845000X-0.620000X0.845000X-0.620000X-0.845000X0.620000X-0.845000X0*%
G04 #@! TD*
G04 #@! TA.AperFunction,ComponentPad*
%ADD15R,1.700000X1.700000*%
G04 #@! TD*
G04 #@! TA.AperFunction,ComponentPad*
%ADD16C,1.700000*%
G04 #@! TD*
G04 #@! TA.AperFunction,ComponentPad*
%ADD17R,1.524000X1.524000*%
G04 #@! TD*
G04 #@! TA.AperFunction,ComponentPad*
%ADD18C,1.524000*%
G04 #@! TD*
G04 #@! TA.AperFunction,ComponentPad*
%ADD19R,3.000000X3.000000*%
G04 #@! TD*
G04 #@! TA.AperFunction,ComponentPad*
%ADD20C,3.000000*%
G04 #@! TD*
G04 #@! TA.AperFunction,SMDPad,CuDef*
%ADD21FreePoly0,0.000000*%
G04 #@! TD*
G04 #@! TA.AperFunction,SMDPad,CuDef*
%ADD22R,1.000000X1.500000*%
G04 #@! TD*
G04 #@! TA.AperFunction,SMDPad,CuDef*
%ADD23FreePoly1,0.000000*%
G04 #@! TD*
G04 #@! TA.AperFunction,SMDPad,CuDef*
%ADD24FreePoly2,0.000000*%
G04 #@! TD*
G04 #@! TA.AperFunction,SMDPad,CuDef*
%ADD25FreePoly3,0.000000*%
G04 #@! TD*
G04 #@! TA.AperFunction,ViaPad*
%ADD26C,1.000000*%
G04 #@! TD*
G04 #@! TA.AperFunction,Conductor*
%ADD27C,0.250000*%
G04 #@! TD*
G04 #@! TA.AperFunction,Conductor*
%ADD28C,1.000000*%
G04 #@! TD*
G04 #@! TA.AperFunction,Conductor*
%ADD29C,0.800000*%
G04 #@! TD*
G04 APERTURE END LIST*
G36*
X155683000Y-122601000D02*
G01*
X155183000Y-122601000D01*
X155183000Y-122001000D01*
X155683000Y-122001000D01*
X155683000Y-122601000D01*
G37*
G36*
X134220000Y-122601000D02*
G01*
X133720000Y-122601000D01*
X133720000Y-122001000D01*
X134220000Y-122001000D01*
X134220000Y-122601000D01*
G37*
D10*
X80411000Y-119507000D03*
D11*
X80411000Y-116967000D03*
X80411000Y-114427000D03*
X80411000Y-111887000D03*
D12*
X106045000Y-119273000D03*
D13*
X108585000Y-119273000D03*
X111125000Y-119273000D03*
D12*
X96901000Y-119293000D03*
D13*
X99441000Y-119293000D03*
X101981000Y-119293000D03*
D12*
X96901000Y-111399000D03*
D13*
X99441000Y-111399000D03*
X101981000Y-111399000D03*
D14*
X155448000Y-139700000D03*
D13*
X152908000Y-139700000D03*
X150368000Y-139700000D03*
X147828000Y-139700000D03*
D14*
X143002000Y-139680000D03*
D13*
X140462000Y-139680000D03*
X137922000Y-139680000D03*
X135382000Y-139680000D03*
D15*
X119541000Y-116967000D03*
D16*
X119541000Y-114427000D03*
X119541000Y-111887000D03*
D17*
X147193000Y-119126000D03*
D18*
X149733000Y-119126000D03*
X152273000Y-119126000D03*
X154813000Y-119126000D03*
X157353000Y-119126000D03*
X159893000Y-119126000D03*
X162433000Y-119126000D03*
X164973000Y-119126000D03*
D17*
X164973000Y-131826000D03*
D18*
X162433000Y-131826000D03*
X154813000Y-131826000D03*
X157353000Y-131826000D03*
X159893000Y-131826000D03*
X152273000Y-131826000D03*
X149733000Y-131826000D03*
X147193000Y-131826000D03*
X164973000Y-121666000D03*
X164973000Y-124206000D03*
X163322000Y-122936000D03*
D19*
X129159000Y-112395000D03*
D20*
X134239000Y-112395000D03*
D12*
X106045000Y-111419000D03*
D13*
X108585000Y-111419000D03*
X111125000Y-111419000D03*
D17*
X125730000Y-119126000D03*
D18*
X128270000Y-119126000D03*
X130810000Y-119126000D03*
X133350000Y-119126000D03*
X135890000Y-119126000D03*
X138430000Y-119126000D03*
X140970000Y-119126000D03*
X143510000Y-119126000D03*
D17*
X143510000Y-131826000D03*
D18*
X140970000Y-131826000D03*
X133350000Y-131826000D03*
X135890000Y-131826000D03*
X138430000Y-131826000D03*
X130810000Y-131826000D03*
X128270000Y-131826000D03*
X125730000Y-131826000D03*
X143510000Y-121666000D03*
X143510000Y-124206000D03*
X141859000Y-122936000D03*
D15*
X80264000Y-140589000D03*
D16*
X82804000Y-140589000D03*
X85344000Y-140589000D03*
X87884000Y-140589000D03*
X90424000Y-140589000D03*
X92964000Y-140589000D03*
X95504000Y-140589000D03*
X98044000Y-140589000D03*
X100584000Y-140589000D03*
X103124000Y-140589000D03*
X105664000Y-140589000D03*
X108204000Y-140589000D03*
X110744000Y-140589000D03*
X113284000Y-140589000D03*
X115824000Y-140589000D03*
X118364000Y-140589000D03*
X118364000Y-125349000D03*
X115824000Y-125349000D03*
X113284000Y-125349000D03*
X110744000Y-125349000D03*
X108204000Y-125349000D03*
X105664000Y-125349000D03*
X103124000Y-125349000D03*
X100584000Y-125349000D03*
X98044000Y-125349000D03*
X95504000Y-125349000D03*
X92964000Y-125349000D03*
X90424000Y-125349000D03*
X87884000Y-125349000D03*
X85344000Y-125349000D03*
X82804000Y-125349000D03*
X80264000Y-125349000D03*
D21*
X154783000Y-122301000D03*
D22*
X156083000Y-122301000D03*
D23*
X157383000Y-122301000D03*
D24*
X85291000Y-120396000D03*
D25*
X86741000Y-120396000D03*
D21*
X133320000Y-122301000D03*
D22*
X134620000Y-122301000D03*
D23*
X135920000Y-122301000D03*
D26*
X86360000Y-134620000D03*
X82550000Y-134620000D03*
X86360000Y-132080000D03*
X82550000Y-132080000D03*
X86360000Y-129540000D03*
X82550000Y-129540000D03*
X162000000Y-110500000D03*
X136750000Y-128250000D03*
X126500000Y-128250000D03*
X99314000Y-130810000D03*
X97586800Y-132588000D03*
X117856000Y-121412000D03*
X147320000Y-126746000D03*
X141478000Y-116840000D03*
X140462000Y-113792000D03*
X87261500Y-115981800D03*
X156276200Y-109592800D03*
D27*
X127451846Y-123376300D02*
X134620000Y-123376300D01*
X118217846Y-132610300D02*
X127451846Y-123376300D01*
X97609100Y-132610300D02*
X118217846Y-132610300D01*
X97586800Y-132588000D02*
X97609100Y-132610300D01*
X122728620Y-130006680D02*
X139253720Y-130006680D01*
X147193000Y-122067400D02*
X147193000Y-119126000D01*
X114943320Y-137791980D02*
X122728620Y-130006680D01*
X108461020Y-137791980D02*
X114943320Y-137791980D01*
X139253720Y-130006680D02*
X147193000Y-122067400D01*
X105664000Y-140589000D02*
X108461020Y-137791980D01*
X138357700Y-124278300D02*
X143510000Y-119126000D01*
X127185564Y-124278300D02*
X138357700Y-124278300D01*
X114570924Y-136892940D02*
X127185564Y-124278300D01*
X106820060Y-136892940D02*
X114570924Y-136892940D01*
X103124000Y-140589000D02*
X106820060Y-136892940D01*
X142817000Y-124899000D02*
X143510000Y-124206000D01*
X127200582Y-124899000D02*
X142817000Y-124899000D01*
X107137340Y-137342460D02*
X114757122Y-137342460D01*
X114757122Y-137342460D02*
X127200582Y-124899000D01*
X104394000Y-140995000D02*
X104394000Y-140085800D01*
X99234900Y-141779900D02*
X103609100Y-141779900D01*
X104394000Y-140085800D02*
X107137340Y-137342460D01*
X98044000Y-140589000D02*
X99234900Y-141779900D01*
X103609100Y-141779900D02*
X104394000Y-140995000D01*
X112903000Y-130810000D02*
X118364000Y-125349000D01*
X99314000Y-130810000D02*
X112903000Y-130810000D01*
X109929700Y-119273000D02*
X111125000Y-119273000D01*
X109929700Y-119929900D02*
X109929700Y-119273000D01*
X108037700Y-121283600D02*
X108576000Y-121283600D01*
X104394000Y-125740010D02*
X104394000Y-124927300D01*
X103610499Y-126523511D02*
X104394000Y-125740010D01*
X108576000Y-121283600D02*
X109929700Y-119929900D01*
X90424000Y-137668000D02*
X101568489Y-126523511D01*
X101568489Y-126523511D02*
X103610499Y-126523511D01*
X104394000Y-124927300D02*
X108037700Y-121283600D01*
X90424000Y-140589000D02*
X90424000Y-137668000D01*
X133320000Y-119156000D02*
X133350000Y-119126000D01*
X133320000Y-122301000D02*
X133320000Y-119156000D01*
X135920000Y-119156000D02*
X135890000Y-119126000D01*
X135920000Y-122301000D02*
X135920000Y-119156000D01*
X154783000Y-119156000D02*
X154813000Y-119126000D01*
X154783000Y-122301000D02*
X154783000Y-119156000D01*
X157383000Y-119156000D02*
X157353000Y-119126000D01*
X157383000Y-122301000D02*
X157383000Y-119156000D01*
X87261500Y-118800200D02*
X87261500Y-115981800D01*
X86741000Y-119320700D02*
X87261500Y-118800200D01*
X86741000Y-120396000D02*
X86741000Y-119320700D01*
X156083000Y-122301000D02*
X156083000Y-123376300D01*
X134620000Y-122301000D02*
X134620000Y-123263700D01*
X154429100Y-123376300D02*
X156083000Y-123376300D01*
X150868300Y-119815500D02*
X154429100Y-123376300D01*
X150868300Y-118701200D02*
X150868300Y-119815500D01*
X150199500Y-118032400D02*
X150868300Y-118701200D01*
X143026500Y-118032400D02*
X150199500Y-118032400D01*
X142240000Y-118818900D02*
X143026500Y-118032400D01*
X142240000Y-119426000D02*
X142240000Y-118818900D01*
X138289700Y-123376300D02*
X142240000Y-119426000D01*
X134620000Y-123376300D02*
X138289700Y-123376300D01*
X134620000Y-123263700D02*
X134620000Y-123376300D01*
X107252600Y-115475300D02*
X103176300Y-111399000D01*
X107252600Y-120345400D02*
X107252600Y-115475300D01*
X103424600Y-124173400D02*
X107252600Y-120345400D01*
X102637500Y-124173400D02*
X103424600Y-124173400D01*
X101461900Y-125349000D02*
X102637500Y-124173400D01*
X100584000Y-125349000D02*
X101461900Y-125349000D01*
X101981000Y-111399000D02*
X103176300Y-111399000D01*
X79813400Y-113082300D02*
X80411000Y-113082300D01*
X78989600Y-113906100D02*
X79813400Y-113082300D01*
X78989600Y-114948000D02*
X78989600Y-113906100D01*
X79813300Y-115771700D02*
X78989600Y-114948000D01*
X80411000Y-115771700D02*
X79813300Y-115771700D01*
X80411000Y-116967000D02*
X80411000Y-115771700D01*
X80411000Y-111887000D02*
X80411000Y-113082300D01*
X81837100Y-119507000D02*
X80411000Y-119507000D01*
X82726100Y-120396000D02*
X81837100Y-119507000D01*
X85291000Y-120396000D02*
X82726100Y-120396000D01*
X81837100Y-115853100D02*
X80411000Y-114427000D01*
X81837100Y-119507000D02*
X81837100Y-115853100D01*
X149733000Y-120164400D02*
X149733000Y-119126000D01*
X139441200Y-130456200D02*
X149733000Y-120164400D01*
X122916000Y-130456200D02*
X139441200Y-130456200D01*
X115130700Y-138241500D02*
X122916000Y-130456200D01*
X110551500Y-138241500D02*
X115130700Y-138241500D01*
X108204000Y-140589000D02*
X110551500Y-138241500D01*
X147013300Y-124206000D02*
X164973000Y-124206000D01*
X139700000Y-131519300D02*
X147013300Y-124206000D01*
X139700000Y-132126700D02*
X139700000Y-131519300D01*
X136191200Y-135635500D02*
X139700000Y-132126700D01*
X125011900Y-135635500D02*
X136191200Y-135635500D01*
X118417200Y-142230200D02*
X125011900Y-135635500D01*
X97145200Y-142230200D02*
X118417200Y-142230200D01*
X95504000Y-140589000D02*
X97145200Y-142230200D01*
D28*
X159893000Y-135255000D02*
X155448000Y-139700000D01*
X159893000Y-131826000D02*
X159893000Y-135255000D01*
X152908000Y-136271000D02*
X152908000Y-139700000D01*
X157353000Y-131826000D02*
X152908000Y-136271000D01*
X150368000Y-136271000D02*
X150368000Y-139700000D01*
X154813000Y-131826000D02*
X150368000Y-136271000D01*
X147828000Y-136271000D02*
X147828000Y-139700000D01*
X152273000Y-131826000D02*
X147828000Y-136271000D01*
D29*
X125603000Y-134493000D02*
X128270000Y-131826000D01*
X121920000Y-134493000D02*
X125603000Y-134493000D01*
X115824000Y-140589000D02*
X121920000Y-134493000D01*
X113043400Y-118417400D02*
X106045000Y-111419000D01*
X122722900Y-118417400D02*
X113043400Y-118417400D01*
X123376700Y-117763600D02*
X122722900Y-118417400D01*
X139607600Y-117763600D02*
X123376700Y-117763600D01*
X140970000Y-119126000D02*
X139607600Y-117763600D01*
D27*
X109929700Y-110821400D02*
X109929700Y-111419000D01*
X109086000Y-109977700D02*
X109929700Y-110821400D01*
X101420100Y-109977700D02*
X109086000Y-109977700D01*
X100711000Y-110686800D02*
X101420100Y-109977700D01*
X100711000Y-112044600D02*
X100711000Y-110686800D01*
X89582400Y-123173200D02*
X100711000Y-112044600D01*
X80724100Y-123173200D02*
X89582400Y-123173200D01*
X79045200Y-124852100D02*
X80724100Y-123173200D01*
X79045200Y-138194900D02*
X79045200Y-124852100D01*
X80264000Y-139413700D02*
X79045200Y-138194900D01*
X80264000Y-140589000D02*
X80264000Y-139413700D01*
X111125000Y-111419000D02*
X109929700Y-111419000D01*
D29*
X81714400Y-123898600D02*
X80264000Y-125349000D01*
X101419400Y-123898600D02*
X81714400Y-123898600D01*
X106045000Y-119273000D02*
X101419400Y-123898600D01*
X121835200Y-109592800D02*
X156276200Y-109592800D01*
X119541000Y-111887000D02*
X121835200Y-109592800D01*
X164973000Y-131826000D02*
X164973000Y-131144800D01*
X143510000Y-131826000D02*
X144872300Y-131826000D01*
X166345200Y-128410400D02*
X164291900Y-130463700D01*
X166345200Y-118562800D02*
X166345200Y-128410400D01*
X160177400Y-112395000D02*
X166345200Y-118562800D01*
X134239000Y-112395000D02*
X160177400Y-112395000D01*
X164973000Y-131144800D02*
X164291900Y-130463700D01*
X146234600Y-130463700D02*
X144872300Y-131826000D01*
X164291900Y-130463700D02*
X146234600Y-130463700D01*
G04 #@! TA.AperFunction,Conductor*
G36*
X121660376Y-108478002D02*
G01*
X121706869Y-108531658D01*
X121716973Y-108601932D01*
X121687479Y-108666512D01*
X121631191Y-108703833D01*
X121580225Y-108720393D01*
X121573912Y-108722263D01*
X121564430Y-108724804D01*
X121514203Y-108738262D01*
X121514200Y-108738263D01*
X121507830Y-108739970D01*
X121495285Y-108746362D01*
X121477026Y-108753925D01*
X121463644Y-108758273D01*
X121457923Y-108761576D01*
X121404423Y-108792464D01*
X121398626Y-108795612D01*
X121343551Y-108823674D01*
X121343548Y-108823676D01*
X121337670Y-108826671D01*
X121332542Y-108830824D01*
X121332540Y-108830825D01*
X121326734Y-108835527D01*
X121310437Y-108846727D01*
X121303976Y-108850457D01*
X121303972Y-108850460D01*
X121298256Y-108853760D01*
X121293350Y-108858177D01*
X121293345Y-108858181D01*
X121247431Y-108899522D01*
X121242416Y-108903806D01*
X121233918Y-108910688D01*
X121226459Y-108916728D01*
X121211944Y-108931243D01*
X121207159Y-108935784D01*
X121156334Y-108981547D01*
X121152455Y-108986886D01*
X121152454Y-108986887D01*
X121148060Y-108992935D01*
X121135219Y-109007968D01*
X119651514Y-110491673D01*
X119589202Y-110525699D01*
X119560880Y-110528569D01*
X119451081Y-110527228D01*
X119451079Y-110527228D01*
X119445911Y-110527165D01*
X119225091Y-110560955D01*
X119012756Y-110630357D01*
X118942859Y-110666743D01*
X118822130Y-110729591D01*
X118814607Y-110733507D01*
X118810474Y-110736610D01*
X118810471Y-110736612D01*
X118643735Y-110861801D01*
X118635965Y-110867635D01*
X118632393Y-110871373D01*
X118514801Y-110994426D01*
X118481629Y-111029138D01*
X118478715Y-111033410D01*
X118478714Y-111033411D01*
X118434782Y-111097813D01*
X118355743Y-111213680D01*
X118330858Y-111267291D01*
X118276175Y-111385096D01*
X118261688Y-111416305D01*
X118201989Y-111631570D01*
X118178251Y-111853695D01*
X118178548Y-111858848D01*
X118178548Y-111858851D01*
X118188202Y-112026283D01*
X118191110Y-112076715D01*
X118192247Y-112081761D01*
X118192248Y-112081767D01*
X118204589Y-112136525D01*
X118240222Y-112294639D01*
X118324266Y-112501616D01*
X118326965Y-112506020D01*
X118431780Y-112677063D01*
X118440987Y-112692088D01*
X118587250Y-112860938D01*
X118759126Y-113003632D01*
X118820423Y-113039451D01*
X118832955Y-113046774D01*
X118881679Y-113098412D01*
X118894750Y-113168195D01*
X118868019Y-113233967D01*
X118827562Y-113267327D01*
X118819460Y-113271544D01*
X118810734Y-113277039D01*
X118790677Y-113292099D01*
X118782223Y-113303427D01*
X118788968Y-113315758D01*
X119528188Y-114054978D01*
X119542132Y-114062592D01*
X119543965Y-114062461D01*
X119550580Y-114058210D01*
X120294389Y-113314401D01*
X120301410Y-113301544D01*
X120294611Y-113292213D01*
X120290559Y-113289521D01*
X120253602Y-113269120D01*
X120203631Y-113218687D01*
X120188859Y-113149245D01*
X120213975Y-113082839D01*
X120241327Y-113056232D01*
X120288107Y-113022864D01*
X120420860Y-112928173D01*
X120433023Y-112916053D01*
X120547673Y-112801802D01*
X120579096Y-112770489D01*
X120638594Y-112687689D01*
X120706435Y-112593277D01*
X120709453Y-112589077D01*
X120716818Y-112574176D01*
X120806136Y-112393453D01*
X120806137Y-112393451D01*
X120808430Y-112388811D01*
X120873370Y-112175069D01*
X120902529Y-111953590D01*
X120904156Y-111887000D01*
X120903880Y-111883641D01*
X120902986Y-111872763D01*
X120917340Y-111803233D01*
X120939467Y-111773346D01*
X122174608Y-110538205D01*
X122236920Y-110504179D01*
X122263703Y-110501300D01*
X127082227Y-110501300D01*
X127150348Y-110521302D01*
X127196841Y-110574958D01*
X127206945Y-110645232D01*
X127200209Y-110671530D01*
X127160522Y-110777394D01*
X127156895Y-110792649D01*
X127151369Y-110843514D01*
X127151000Y-110850328D01*
X127151000Y-112122885D01*
X127155475Y-112138124D01*
X127156865Y-112139329D01*
X127164548Y-112141000D01*
X131148884Y-112141000D01*
X131164123Y-112136525D01*
X131165328Y-112135135D01*
X131166999Y-112127452D01*
X131166999Y-110850331D01*
X131166629Y-110843510D01*
X131161105Y-110792648D01*
X131157479Y-110777397D01*
X131117791Y-110671530D01*
X131112608Y-110600723D01*
X131146529Y-110538354D01*
X131208784Y-110504224D01*
X131235773Y-110501300D01*
X133036118Y-110501300D01*
X133104239Y-110521302D01*
X133150732Y-110574958D01*
X133160836Y-110645232D01*
X133131342Y-110709812D01*
X133100822Y-110735417D01*
X133090043Y-110741868D01*
X132876318Y-110913094D01*
X132787445Y-111006747D01*
X132729487Y-111067822D01*
X132687808Y-111111742D01*
X132528002Y-111334136D01*
X132399857Y-111576161D01*
X132398385Y-111580184D01*
X132398383Y-111580188D01*
X132311888Y-111816545D01*
X132305743Y-111833337D01*
X132247404Y-112100907D01*
X132225917Y-112373918D01*
X132241682Y-112647320D01*
X132242507Y-112651525D01*
X132242508Y-112651533D01*
X132270975Y-112796627D01*
X132294405Y-112916053D01*
X132295792Y-112920103D01*
X132295793Y-112920108D01*
X132376600Y-113156124D01*
X132383112Y-113175144D01*
X132506160Y-113419799D01*
X132508586Y-113423328D01*
X132508589Y-113423334D01*
X132644880Y-113621637D01*
X132661274Y-113645490D01*
X132664161Y-113648663D01*
X132664162Y-113648664D01*
X132786620Y-113783244D01*
X132845582Y-113848043D01*
X132848877Y-113850798D01*
X132848878Y-113850799D01*
X132943675Y-113930061D01*
X133055675Y-114023707D01*
X133059316Y-114025991D01*
X133284024Y-114166951D01*
X133284028Y-114166953D01*
X133287664Y-114169234D01*
X133412460Y-114225582D01*
X133533345Y-114280164D01*
X133533349Y-114280166D01*
X133537257Y-114281930D01*
X133541377Y-114283150D01*
X133541376Y-114283150D01*
X133795723Y-114358491D01*
X133795727Y-114358492D01*
X133799836Y-114359709D01*
X133804070Y-114360357D01*
X133804075Y-114360358D01*
X134066298Y-114400483D01*
X134066300Y-114400483D01*
X134070540Y-114401132D01*
X134209912Y-114403322D01*
X134340071Y-114405367D01*
X134340077Y-114405367D01*
X134344362Y-114405434D01*
X134616235Y-114372534D01*
X134881127Y-114303041D01*
X134885087Y-114301401D01*
X134885092Y-114301399D01*
X135106703Y-114209604D01*
X135134136Y-114198241D01*
X135366271Y-114062592D01*
X135366879Y-114062237D01*
X135366880Y-114062236D01*
X135370582Y-114060073D01*
X135586089Y-113891094D01*
X135627809Y-113848043D01*
X135747011Y-113725036D01*
X135776669Y-113694431D01*
X135779202Y-113690983D01*
X135779206Y-113690978D01*
X135936257Y-113477178D01*
X135938795Y-113473723D01*
X135944210Y-113463751D01*
X135995450Y-113369378D01*
X136045533Y-113319056D01*
X136106181Y-113303500D01*
X159748897Y-113303500D01*
X159817018Y-113323502D01*
X159837992Y-113340405D01*
X164337234Y-117839647D01*
X164371260Y-117901959D01*
X164366195Y-117972774D01*
X164320409Y-118031955D01*
X164157735Y-118145860D01*
X164157729Y-118145865D01*
X164153219Y-118149023D01*
X163996023Y-118306219D01*
X163992866Y-118310727D01*
X163992864Y-118310730D01*
X163871669Y-118483815D01*
X163868512Y-118488324D01*
X163866189Y-118493306D01*
X163866186Y-118493311D01*
X163816919Y-118598965D01*
X163770001Y-118652250D01*
X163701724Y-118671711D01*
X163633764Y-118651169D01*
X163588529Y-118598965D01*
X163539377Y-118493559D01*
X163533897Y-118484068D01*
X163503206Y-118440235D01*
X163492729Y-118431860D01*
X163479282Y-118438928D01*
X162805022Y-119113188D01*
X162797408Y-119127132D01*
X162797539Y-119128965D01*
X162801790Y-119135580D01*
X163480003Y-119813793D01*
X163491777Y-119820223D01*
X163503793Y-119810926D01*
X163533897Y-119767932D01*
X163539377Y-119758441D01*
X163588529Y-119653035D01*
X163635447Y-119599750D01*
X163703724Y-119580289D01*
X163771684Y-119600831D01*
X163816919Y-119653035D01*
X163866186Y-119758689D01*
X163866189Y-119758694D01*
X163868512Y-119763676D01*
X163871668Y-119768183D01*
X163871669Y-119768185D01*
X163991647Y-119939531D01*
X163996023Y-119945781D01*
X164153219Y-120102977D01*
X164157727Y-120106134D01*
X164157730Y-120106136D01*
X164186523Y-120126297D01*
X164335323Y-120230488D01*
X164340305Y-120232811D01*
X164340310Y-120232814D01*
X164445373Y-120281805D01*
X164498658Y-120328722D01*
X164518119Y-120396999D01*
X164497577Y-120464959D01*
X164445373Y-120510195D01*
X164340311Y-120559186D01*
X164340306Y-120559189D01*
X164335324Y-120561512D01*
X164330817Y-120564668D01*
X164330815Y-120564669D01*
X164157730Y-120685864D01*
X164157727Y-120685866D01*
X164153219Y-120689023D01*
X163996023Y-120846219D01*
X163992866Y-120850727D01*
X163992864Y-120850730D01*
X163890306Y-120997199D01*
X163868512Y-121028324D01*
X163866189Y-121033306D01*
X163866186Y-121033311D01*
X163813400Y-121146512D01*
X163774560Y-121229804D01*
X163717022Y-121444537D01*
X163706708Y-121562432D01*
X163706004Y-121570477D01*
X163680141Y-121636596D01*
X163622637Y-121678235D01*
X163554451Y-121680944D01*
X163554194Y-121682401D01*
X163548777Y-121681446D01*
X163543463Y-121680022D01*
X163322000Y-121660647D01*
X163100537Y-121680022D01*
X162987065Y-121710427D01*
X162891114Y-121736137D01*
X162891112Y-121736138D01*
X162885804Y-121737560D01*
X162880823Y-121739882D01*
X162880822Y-121739883D01*
X162689311Y-121829186D01*
X162689306Y-121829189D01*
X162684324Y-121831512D01*
X162679817Y-121834668D01*
X162679815Y-121834669D01*
X162506730Y-121955864D01*
X162506727Y-121955866D01*
X162502219Y-121959023D01*
X162345023Y-122116219D01*
X162341866Y-122120727D01*
X162341864Y-122120730D01*
X162220669Y-122293815D01*
X162217512Y-122298324D01*
X162215189Y-122303306D01*
X162215186Y-122303311D01*
X162130099Y-122485781D01*
X162123560Y-122499804D01*
X162066022Y-122714537D01*
X162046647Y-122936000D01*
X162066022Y-123157463D01*
X162104497Y-123301051D01*
X162121361Y-123363988D01*
X162123560Y-123372196D01*
X162125883Y-123377178D01*
X162125885Y-123377183D01*
X162133377Y-123393249D01*
X162144039Y-123463440D01*
X162115060Y-123528253D01*
X162055641Y-123567110D01*
X162019183Y-123572500D01*
X158088554Y-123572500D01*
X158020433Y-123552498D01*
X157973940Y-123498842D01*
X157963836Y-123428568D01*
X157993330Y-123363988D01*
X158008069Y-123349556D01*
X158083091Y-123287272D01*
X158083096Y-123287267D01*
X158086540Y-123284408D01*
X158182654Y-123178224D01*
X158193074Y-123162776D01*
X158261599Y-123061183D01*
X158261602Y-123061178D01*
X158264107Y-123057464D01*
X158326554Y-122928572D01*
X158370838Y-122789812D01*
X158394600Y-122648574D01*
X158401682Y-122569627D01*
X158401833Y-122557285D01*
X158396995Y-122482964D01*
X158396729Y-122474779D01*
X158396729Y-122130481D01*
X158397233Y-122119223D01*
X158401464Y-122072053D01*
X158401682Y-122069627D01*
X158401833Y-122057285D01*
X158396683Y-121978171D01*
X158387532Y-121914273D01*
X158377016Y-121840839D01*
X158377015Y-121840833D01*
X158376379Y-121836394D01*
X158374952Y-121831512D01*
X158336755Y-121700892D01*
X158335497Y-121696590D01*
X158276217Y-121566211D01*
X158273805Y-121562440D01*
X158273801Y-121562432D01*
X158200157Y-121447279D01*
X158200156Y-121447278D01*
X158197742Y-121443503D01*
X158104252Y-121335002D01*
X158100872Y-121332053D01*
X158059670Y-121296110D01*
X158021486Y-121236256D01*
X158016500Y-121201162D01*
X158016500Y-120277998D01*
X158036502Y-120209877D01*
X158060626Y-120184777D01*
X159198777Y-120184777D01*
X159208074Y-120196793D01*
X159251069Y-120226898D01*
X159260555Y-120232376D01*
X159451993Y-120321645D01*
X159462285Y-120325391D01*
X159666309Y-120380059D01*
X159677104Y-120381962D01*
X159887525Y-120400372D01*
X159898475Y-120400372D01*
X160108896Y-120381962D01*
X160119691Y-120380059D01*
X160323715Y-120325391D01*
X160334007Y-120321645D01*
X160525445Y-120232376D01*
X160534931Y-120226898D01*
X160578764Y-120196207D01*
X160587139Y-120185729D01*
X160586639Y-120184777D01*
X161738777Y-120184777D01*
X161748074Y-120196793D01*
X161791069Y-120226898D01*
X161800555Y-120232376D01*
X161991993Y-120321645D01*
X162002285Y-120325391D01*
X162206309Y-120380059D01*
X162217104Y-120381962D01*
X162427525Y-120400372D01*
X162438475Y-120400372D01*
X162648896Y-120381962D01*
X162659691Y-120380059D01*
X162863715Y-120325391D01*
X162874007Y-120321645D01*
X163065445Y-120232376D01*
X163074931Y-120226898D01*
X163118764Y-120196207D01*
X163127139Y-120185729D01*
X163120071Y-120172281D01*
X162445812Y-119498022D01*
X162431868Y-119490408D01*
X162430035Y-119490539D01*
X162423420Y-119494790D01*
X161745207Y-120173003D01*
X161738777Y-120184777D01*
X160586639Y-120184777D01*
X160580071Y-120172281D01*
X159905812Y-119498022D01*
X159891868Y-119490408D01*
X159890035Y-119490539D01*
X159883420Y-119494790D01*
X159205207Y-120173003D01*
X159198777Y-120184777D01*
X158060626Y-120184777D01*
X158070229Y-120174785D01*
X158168270Y-120106136D01*
X158168273Y-120106134D01*
X158172781Y-120102977D01*
X158329977Y-119945781D01*
X158334354Y-119939531D01*
X158454331Y-119768185D01*
X158454332Y-119768183D01*
X158457488Y-119763676D01*
X158459811Y-119758694D01*
X158459814Y-119758689D01*
X158509081Y-119653035D01*
X158555999Y-119599750D01*
X158624276Y-119580289D01*
X158692236Y-119600831D01*
X158737471Y-119653035D01*
X158786623Y-119758441D01*
X158792103Y-119767932D01*
X158822794Y-119811765D01*
X158833271Y-119820140D01*
X158846718Y-119813072D01*
X159520978Y-119138812D01*
X159527356Y-119127132D01*
X160257408Y-119127132D01*
X160257539Y-119128965D01*
X160261790Y-119135580D01*
X160940003Y-119813793D01*
X160951777Y-119820223D01*
X160963793Y-119810926D01*
X160993897Y-119767932D01*
X160999377Y-119758441D01*
X161048805Y-119652443D01*
X161095722Y-119599158D01*
X161164000Y-119579697D01*
X161231960Y-119600239D01*
X161277195Y-119652443D01*
X161326623Y-119758441D01*
X161332103Y-119767932D01*
X161362794Y-119811765D01*
X161373271Y-119820140D01*
X161386718Y-119813072D01*
X162060978Y-119138812D01*
X162068592Y-119124868D01*
X162068461Y-119123035D01*
X162064210Y-119116420D01*
X161385997Y-118438207D01*
X161374223Y-118431777D01*
X161362207Y-118441074D01*
X161332103Y-118484068D01*
X161326623Y-118493559D01*
X161277195Y-118599557D01*
X161230278Y-118652842D01*
X161162000Y-118672303D01*
X161094040Y-118651761D01*
X161048805Y-118599557D01*
X160999377Y-118493559D01*
X160993897Y-118484068D01*
X160963206Y-118440235D01*
X160952729Y-118431860D01*
X160939282Y-118438928D01*
X160265022Y-119113188D01*
X160257408Y-119127132D01*
X159527356Y-119127132D01*
X159528592Y-119124868D01*
X159528461Y-119123035D01*
X159524210Y-119116420D01*
X158845997Y-118438207D01*
X158834223Y-118431777D01*
X158822207Y-118441074D01*
X158792103Y-118484068D01*
X158786623Y-118493559D01*
X158737471Y-118598965D01*
X158690553Y-118652250D01*
X158622276Y-118671711D01*
X158554316Y-118651169D01*
X158509081Y-118598965D01*
X158459814Y-118493311D01*
X158459811Y-118493306D01*
X158457488Y-118488324D01*
X158454331Y-118483815D01*
X158333136Y-118310730D01*
X158333134Y-118310727D01*
X158329977Y-118306219D01*
X158172781Y-118149023D01*
X158168273Y-118145866D01*
X158168270Y-118145864D01*
X158074176Y-118079979D01*
X158054599Y-118066271D01*
X159198860Y-118066271D01*
X159205928Y-118079718D01*
X159880188Y-118753978D01*
X159894132Y-118761592D01*
X159895965Y-118761461D01*
X159902580Y-118757210D01*
X160580793Y-118078997D01*
X160587223Y-118067223D01*
X160586486Y-118066271D01*
X161738860Y-118066271D01*
X161745928Y-118079718D01*
X162420188Y-118753978D01*
X162434132Y-118761592D01*
X162435965Y-118761461D01*
X162442580Y-118757210D01*
X163120793Y-118078997D01*
X163127223Y-118067223D01*
X163117926Y-118055207D01*
X163074931Y-118025102D01*
X163065445Y-118019624D01*
X162874007Y-117930355D01*
X162863715Y-117926609D01*
X162659691Y-117871941D01*
X162648896Y-117870038D01*
X162438475Y-117851628D01*
X162427525Y-117851628D01*
X162217104Y-117870038D01*
X162206309Y-117871941D01*
X162002285Y-117926609D01*
X161991993Y-117930355D01*
X161800559Y-118019623D01*
X161791068Y-118025103D01*
X161747235Y-118055794D01*
X161738860Y-118066271D01*
X160586486Y-118066271D01*
X160577926Y-118055207D01*
X160534931Y-118025102D01*
X160525445Y-118019624D01*
X160334007Y-117930355D01*
X160323715Y-117926609D01*
X160119691Y-117871941D01*
X160108896Y-117870038D01*
X159898475Y-117851628D01*
X159887525Y-117851628D01*
X159677104Y-117870038D01*
X159666309Y-117871941D01*
X159462285Y-117926609D01*
X159451993Y-117930355D01*
X159260559Y-118019623D01*
X159251068Y-118025103D01*
X159207235Y-118055794D01*
X159198860Y-118066271D01*
X158054599Y-118066271D01*
X157990677Y-118021512D01*
X157985695Y-118019189D01*
X157985690Y-118019186D01*
X157794178Y-117929883D01*
X157794177Y-117929882D01*
X157789196Y-117927560D01*
X157783888Y-117926138D01*
X157783886Y-117926137D01*
X157718051Y-117908497D01*
X157574463Y-117870022D01*
X157353000Y-117850647D01*
X157131537Y-117870022D01*
X156987949Y-117908497D01*
X156922114Y-117926137D01*
X156922112Y-117926138D01*
X156916804Y-117927560D01*
X156911823Y-117929882D01*
X156911822Y-117929883D01*
X156720311Y-118019186D01*
X156720306Y-118019189D01*
X156715324Y-118021512D01*
X156710817Y-118024668D01*
X156710815Y-118024669D01*
X156537730Y-118145864D01*
X156537727Y-118145866D01*
X156533219Y-118149023D01*
X156376023Y-118306219D01*
X156372866Y-118310727D01*
X156372864Y-118310730D01*
X156251669Y-118483815D01*
X156248512Y-118488324D01*
X156246189Y-118493306D01*
X156246186Y-118493311D01*
X156197195Y-118598373D01*
X156150277Y-118651658D01*
X156082000Y-118671119D01*
X156014040Y-118650577D01*
X155968805Y-118598373D01*
X155919814Y-118493311D01*
X155919811Y-118493306D01*
X155917488Y-118488324D01*
X155914331Y-118483815D01*
X155793136Y-118310730D01*
X155793134Y-118310727D01*
X155789977Y-118306219D01*
X155632781Y-118149023D01*
X155628273Y-118145866D01*
X155628270Y-118145864D01*
X155534176Y-118079979D01*
X155450677Y-118021512D01*
X155445695Y-118019189D01*
X155445690Y-118019186D01*
X155254178Y-117929883D01*
X155254177Y-117929882D01*
X155249196Y-117927560D01*
X155243888Y-117926138D01*
X155243886Y-117926137D01*
X155178051Y-117908497D01*
X155034463Y-117870022D01*
X154813000Y-117850647D01*
X154591537Y-117870022D01*
X154447949Y-117908497D01*
X154382114Y-117926137D01*
X154382112Y-117926138D01*
X154376804Y-117927560D01*
X154371823Y-117929882D01*
X154371822Y-117929883D01*
X154180311Y-118019186D01*
X154180306Y-118019189D01*
X154175324Y-118021512D01*
X154170817Y-118024668D01*
X154170815Y-118024669D01*
X153997730Y-118145864D01*
X153997727Y-118145866D01*
X153993219Y-118149023D01*
X153836023Y-118306219D01*
X153832866Y-118310727D01*
X153832864Y-118310730D01*
X153711669Y-118483815D01*
X153708512Y-118488324D01*
X153706189Y-118493306D01*
X153706186Y-118493311D01*
X153656919Y-118598965D01*
X153610001Y-118652250D01*
X153541724Y-118671711D01*
X153473764Y-118651169D01*
X153428529Y-118598965D01*
X153379377Y-118493559D01*
X153373897Y-118484068D01*
X153343206Y-118440235D01*
X153332729Y-118431860D01*
X153319282Y-118438928D01*
X152645022Y-119113188D01*
X152637408Y-119127132D01*
X152637539Y-119128965D01*
X152641790Y-119135580D01*
X153320003Y-119813793D01*
X153331777Y-119820223D01*
X153343793Y-119810926D01*
X153373897Y-119767932D01*
X153379377Y-119758441D01*
X153428529Y-119653035D01*
X153475447Y-119599750D01*
X153543724Y-119580289D01*
X153611684Y-119600831D01*
X153656919Y-119653035D01*
X153706186Y-119758689D01*
X153706189Y-119758694D01*
X153708512Y-119763676D01*
X153711668Y-119768183D01*
X153711669Y-119768185D01*
X153831647Y-119939531D01*
X153836023Y-119945781D01*
X153993219Y-120102977D01*
X153997727Y-120106134D01*
X153997730Y-120106136D01*
X154095771Y-120174785D01*
X154140099Y-120230242D01*
X154149500Y-120277998D01*
X154149500Y-121200832D01*
X154129498Y-121268953D01*
X154105164Y-121296785D01*
X154073966Y-121323337D01*
X154070548Y-121326246D01*
X153975740Y-121433597D01*
X153973285Y-121437334D01*
X153973283Y-121437337D01*
X153914097Y-121527440D01*
X153895774Y-121555334D01*
X153846878Y-121659478D01*
X153799821Y-121712640D01*
X153731493Y-121731922D01*
X153663587Y-121711202D01*
X153643728Y-121695024D01*
X152519203Y-120570498D01*
X152485177Y-120508186D01*
X152490242Y-120437370D01*
X152532789Y-120380535D01*
X152575687Y-120359696D01*
X152703715Y-120325391D01*
X152714007Y-120321645D01*
X152905445Y-120232376D01*
X152914931Y-120226898D01*
X152958764Y-120196207D01*
X152967139Y-120185729D01*
X152960071Y-120172281D01*
X151538705Y-118750915D01*
X151504679Y-118688603D01*
X151502595Y-118669218D01*
X151502048Y-118669252D01*
X151501800Y-118665310D01*
X151501800Y-118661344D01*
X151501295Y-118657344D01*
X151500362Y-118645501D01*
X151499222Y-118609230D01*
X151498973Y-118601311D01*
X151493321Y-118581857D01*
X151489313Y-118562500D01*
X151487768Y-118550270D01*
X151487768Y-118550269D01*
X151486774Y-118542403D01*
X151483855Y-118535030D01*
X151470496Y-118501288D01*
X151466651Y-118490058D01*
X151456529Y-118455217D01*
X151456529Y-118455216D01*
X151454318Y-118447607D01*
X151450285Y-118440788D01*
X151450283Y-118440783D01*
X151444007Y-118430172D01*
X151435312Y-118412424D01*
X151427852Y-118393583D01*
X151401864Y-118357813D01*
X151395348Y-118347893D01*
X151376880Y-118316665D01*
X151376878Y-118316662D01*
X151372842Y-118309838D01*
X151358521Y-118295517D01*
X151345680Y-118280483D01*
X151338432Y-118270507D01*
X151333772Y-118264093D01*
X151299707Y-118235912D01*
X151290926Y-118227922D01*
X151129275Y-118066271D01*
X151578860Y-118066271D01*
X151585928Y-118079718D01*
X152260188Y-118753978D01*
X152274132Y-118761592D01*
X152275965Y-118761461D01*
X152282580Y-118757210D01*
X152960793Y-118078997D01*
X152967223Y-118067223D01*
X152957926Y-118055207D01*
X152914931Y-118025102D01*
X152905445Y-118019624D01*
X152714007Y-117930355D01*
X152703715Y-117926609D01*
X152499691Y-117871941D01*
X152488896Y-117870038D01*
X152278475Y-117851628D01*
X152267525Y-117851628D01*
X152057104Y-117870038D01*
X152046309Y-117871941D01*
X151842285Y-117926609D01*
X151831993Y-117930355D01*
X151640559Y-118019623D01*
X151631068Y-118025103D01*
X151587235Y-118055794D01*
X151578860Y-118066271D01*
X151129275Y-118066271D01*
X150703147Y-117640142D01*
X150695613Y-117631863D01*
X150691500Y-117625382D01*
X150641848Y-117578756D01*
X150639007Y-117576002D01*
X150619270Y-117556265D01*
X150616073Y-117553785D01*
X150607051Y-117546080D01*
X150593622Y-117533469D01*
X150574821Y-117515814D01*
X150567875Y-117511995D01*
X150567872Y-117511993D01*
X150557066Y-117506052D01*
X150540547Y-117495201D01*
X150540083Y-117494841D01*
X150524541Y-117482786D01*
X150517272Y-117479641D01*
X150517268Y-117479638D01*
X150483963Y-117465226D01*
X150473313Y-117460009D01*
X150434560Y-117438705D01*
X150414937Y-117433667D01*
X150396234Y-117427263D01*
X150384920Y-117422367D01*
X150384919Y-117422367D01*
X150377645Y-117419219D01*
X150369822Y-117417980D01*
X150369812Y-117417977D01*
X150333976Y-117412301D01*
X150322356Y-117409895D01*
X150287211Y-117400872D01*
X150287210Y-117400872D01*
X150279530Y-117398900D01*
X150259276Y-117398900D01*
X150239565Y-117397349D01*
X150227386Y-117395420D01*
X150219557Y-117394180D01*
X150190286Y-117396947D01*
X150175539Y-117398341D01*
X150163681Y-117398900D01*
X143105267Y-117398900D01*
X143094084Y-117398373D01*
X143086591Y-117396698D01*
X143078665Y-117396947D01*
X143078664Y-117396947D01*
X143018501Y-117398838D01*
X143014543Y-117398900D01*
X142986644Y-117398900D01*
X142982654Y-117399404D01*
X142970820Y-117400336D01*
X142926611Y-117401726D01*
X142918997Y-117403938D01*
X142918992Y-117403939D01*
X142907159Y-117407377D01*
X142887796Y-117411388D01*
X142867703Y-117413926D01*
X142860336Y-117416843D01*
X142860331Y-117416844D01*
X142826592Y-117430202D01*
X142815365Y-117434046D01*
X142772907Y-117446382D01*
X142766081Y-117450419D01*
X142755472Y-117456693D01*
X142737724Y-117465388D01*
X142718883Y-117472848D01*
X142712467Y-117477510D01*
X142712466Y-117477510D01*
X142683113Y-117498836D01*
X142673193Y-117505352D01*
X142641965Y-117523820D01*
X142641962Y-117523822D01*
X142635138Y-117527858D01*
X142620817Y-117542179D01*
X142605784Y-117555019D01*
X142589393Y-117566928D01*
X142584342Y-117573033D01*
X142584337Y-117573038D01*
X142561206Y-117600998D01*
X142553218Y-117609776D01*
X141990971Y-118172023D01*
X141928659Y-118206049D01*
X141857844Y-118200984D01*
X141812781Y-118172023D01*
X141789781Y-118149023D01*
X141785273Y-118145866D01*
X141785270Y-118145864D01*
X141691176Y-118079979D01*
X141607677Y-118021512D01*
X141602695Y-118019189D01*
X141602690Y-118019186D01*
X141411178Y-117929883D01*
X141411177Y-117929882D01*
X141406196Y-117927560D01*
X141400888Y-117926138D01*
X141400886Y-117926137D01*
X141335051Y-117908497D01*
X141191463Y-117870022D01*
X141026051Y-117855551D01*
X140959933Y-117829688D01*
X140947938Y-117819125D01*
X140307581Y-117178768D01*
X140294740Y-117163735D01*
X140290346Y-117157687D01*
X140290345Y-117157686D01*
X140286466Y-117152347D01*
X140235641Y-117106584D01*
X140230856Y-117102043D01*
X140216341Y-117087528D01*
X140208882Y-117081488D01*
X140200384Y-117074606D01*
X140195369Y-117070322D01*
X140149455Y-117028981D01*
X140149450Y-117028977D01*
X140144544Y-117024560D01*
X140138828Y-117021260D01*
X140138824Y-117021257D01*
X140132363Y-117017527D01*
X140116066Y-117006327D01*
X140110260Y-117001625D01*
X140110258Y-117001624D01*
X140105130Y-116997471D01*
X140044173Y-116966412D01*
X140038382Y-116963267D01*
X139984879Y-116932377D01*
X139984878Y-116932376D01*
X139979156Y-116929073D01*
X139972874Y-116927032D01*
X139972872Y-116927031D01*
X139965774Y-116924725D01*
X139947507Y-116917159D01*
X139947503Y-116917157D01*
X139934970Y-116910771D01*
X139868891Y-116893065D01*
X139862597Y-116891200D01*
X139797528Y-116870058D01*
X139790963Y-116869368D01*
X139790954Y-116869366D01*
X139783525Y-116868585D01*
X139764091Y-116864983D01*
X139756886Y-116863053D01*
X139756884Y-116863053D01*
X139750503Y-116861343D01*
X139743912Y-116860998D01*
X139743908Y-116860997D01*
X139682216Y-116857764D01*
X139675642Y-116857247D01*
X139658484Y-116855444D01*
X139658482Y-116855444D01*
X139655210Y-116855100D01*
X139634674Y-116855100D01*
X139628080Y-116854927D01*
X139566382Y-116851693D01*
X139566377Y-116851693D01*
X139559790Y-116851348D01*
X139545892Y-116853549D01*
X139526183Y-116855100D01*
X123458117Y-116855100D01*
X123438408Y-116853549D01*
X123424510Y-116851348D01*
X123417923Y-116851693D01*
X123417918Y-116851693D01*
X123356220Y-116854927D01*
X123349626Y-116855100D01*
X123329090Y-116855100D01*
X123325818Y-116855444D01*
X123325816Y-116855444D01*
X123308658Y-116857247D01*
X123302084Y-116857764D01*
X123240396Y-116860997D01*
X123240394Y-116860997D01*
X123233797Y-116861343D01*
X123220204Y-116864985D01*
X123200775Y-116868586D01*
X123186772Y-116870058D01*
X123121725Y-116891193D01*
X123115412Y-116893063D01*
X123102418Y-116896545D01*
X123055703Y-116909062D01*
X123055700Y-116909063D01*
X123049330Y-116910770D01*
X123036785Y-116917162D01*
X123018526Y-116924725D01*
X123005144Y-116929073D01*
X122999423Y-116932376D01*
X122945923Y-116963264D01*
X122940126Y-116966412D01*
X122885051Y-116994474D01*
X122885048Y-116994476D01*
X122879170Y-116997471D01*
X122874042Y-117001624D01*
X122874040Y-117001625D01*
X122868234Y-117006327D01*
X122851937Y-117017527D01*
X122845476Y-117021257D01*
X122845472Y-117021260D01*
X122839756Y-117024560D01*
X122834850Y-117028977D01*
X122834845Y-117028981D01*
X122788931Y-117070322D01*
X122783916Y-117074606D01*
X122775418Y-117081488D01*
X122767959Y-117087528D01*
X122753444Y-117102043D01*
X122748659Y-117106584D01*
X122697834Y-117152347D01*
X122693955Y-117157686D01*
X122693954Y-117157687D01*
X122689560Y-117163735D01*
X122676719Y-117178768D01*
X122383492Y-117471995D01*
X122321180Y-117506021D01*
X122294397Y-117508900D01*
X121025500Y-117508900D01*
X120957379Y-117488898D01*
X120910886Y-117435242D01*
X120899500Y-117382900D01*
X120899500Y-116068866D01*
X120892745Y-116006684D01*
X120841615Y-115870295D01*
X120754261Y-115753739D01*
X120637705Y-115666385D01*
X120501316Y-115615255D01*
X120439134Y-115608500D01*
X120405452Y-115608500D01*
X120337331Y-115588498D01*
X120294177Y-115541610D01*
X120291658Y-115536868D01*
X119553812Y-114799022D01*
X119539868Y-114791408D01*
X119538035Y-114791539D01*
X119531420Y-114795790D01*
X118787737Y-115539473D01*
X118785874Y-115542885D01*
X118735672Y-115593087D01*
X118675286Y-115608500D01*
X118642866Y-115608500D01*
X118580684Y-115615255D01*
X118444295Y-115666385D01*
X118327739Y-115753739D01*
X118240385Y-115870295D01*
X118189255Y-116006684D01*
X118182500Y-116068866D01*
X118182500Y-117382900D01*
X118162498Y-117451021D01*
X118108842Y-117497514D01*
X118056500Y-117508900D01*
X113471903Y-117508900D01*
X113403782Y-117488898D01*
X113382808Y-117471995D01*
X110309676Y-114398863D01*
X118179050Y-114398863D01*
X118191309Y-114611477D01*
X118192745Y-114621697D01*
X118239565Y-114829446D01*
X118242645Y-114839275D01*
X118322770Y-115036603D01*
X118327413Y-115045794D01*
X118407460Y-115176420D01*
X118417916Y-115185880D01*
X118426694Y-115182096D01*
X119168978Y-114439812D01*
X119175356Y-114428132D01*
X119905408Y-114428132D01*
X119905539Y-114429965D01*
X119909790Y-114436580D01*
X120651474Y-115178264D01*
X120663484Y-115184823D01*
X120675223Y-115175855D01*
X120706004Y-115133019D01*
X120711315Y-115124180D01*
X120805670Y-114933267D01*
X120809469Y-114923672D01*
X120871376Y-114719915D01*
X120873555Y-114709834D01*
X120901590Y-114496887D01*
X120902109Y-114490212D01*
X120903572Y-114430364D01*
X120903378Y-114423646D01*
X120885781Y-114209604D01*
X120884096Y-114199424D01*
X120832214Y-113992875D01*
X120828894Y-113983124D01*
X120809999Y-113939669D01*
X127151001Y-113939669D01*
X127151371Y-113946490D01*
X127156895Y-113997352D01*
X127160521Y-114012604D01*
X127205676Y-114133054D01*
X127214214Y-114148649D01*
X127290715Y-114250724D01*
X127303276Y-114263285D01*
X127405351Y-114339786D01*
X127420946Y-114348324D01*
X127541394Y-114393478D01*
X127556649Y-114397105D01*
X127607514Y-114402631D01*
X127614328Y-114403000D01*
X128886885Y-114403000D01*
X128902124Y-114398525D01*
X128903329Y-114397135D01*
X128905000Y-114389452D01*
X128905000Y-114384884D01*
X129413000Y-114384884D01*
X129417475Y-114400123D01*
X129418865Y-114401328D01*
X129426548Y-114402999D01*
X130703669Y-114402999D01*
X130710490Y-114402629D01*
X130761352Y-114397105D01*
X130776604Y-114393479D01*
X130897054Y-114348324D01*
X130912649Y-114339786D01*
X131014724Y-114263285D01*
X131027285Y-114250724D01*
X131103786Y-114148649D01*
X131112324Y-114133054D01*
X131157478Y-114012606D01*
X131161105Y-113997351D01*
X131166631Y-113946486D01*
X131167000Y-113939672D01*
X131167000Y-112667115D01*
X131162525Y-112651876D01*
X131161135Y-112650671D01*
X131153452Y-112649000D01*
X129431115Y-112649000D01*
X129415876Y-112653475D01*
X129414671Y-112654865D01*
X129413000Y-112662548D01*
X129413000Y-114384884D01*
X128905000Y-114384884D01*
X128905000Y-112667115D01*
X128900525Y-112651876D01*
X128899135Y-112650671D01*
X128891452Y-112649000D01*
X127169116Y-112649000D01*
X127153877Y-112653475D01*
X127152672Y-112654865D01*
X127151001Y-112662548D01*
X127151001Y-113939669D01*
X120809999Y-113939669D01*
X120743972Y-113787814D01*
X120739105Y-113778739D01*
X120674063Y-113678197D01*
X120663377Y-113668995D01*
X120653812Y-113673398D01*
X119913022Y-114414188D01*
X119905408Y-114428132D01*
X119175356Y-114428132D01*
X119176592Y-114425868D01*
X119176461Y-114424035D01*
X119172210Y-114417420D01*
X118430849Y-113676059D01*
X118419313Y-113669759D01*
X118407031Y-113679382D01*
X118359089Y-113749662D01*
X118354004Y-113758613D01*
X118264338Y-113951783D01*
X118260775Y-113961470D01*
X118203864Y-114166681D01*
X118201933Y-114176800D01*
X118179302Y-114388574D01*
X118179050Y-114398863D01*
X110309676Y-114398863D01*
X109044374Y-113133561D01*
X109010348Y-113071249D01*
X109015413Y-113000434D01*
X109057960Y-112943598D01*
X109087187Y-112927274D01*
X109194956Y-112884714D01*
X109204489Y-112879982D01*
X109395285Y-112764204D01*
X109403878Y-112757938D01*
X109572441Y-112611667D01*
X109579861Y-112604036D01*
X109721368Y-112431458D01*
X109727393Y-112422691D01*
X109745989Y-112390022D01*
X109797071Y-112340715D01*
X109866702Y-112326854D01*
X109932773Y-112352837D01*
X109960011Y-112381987D01*
X109981385Y-112413734D01*
X110046798Y-112510896D01*
X110050477Y-112514753D01*
X110050479Y-112514755D01*
X110107164Y-112574176D01*
X110208276Y-112680168D01*
X110212554Y-112683351D01*
X110224297Y-112692088D01*
X110395965Y-112819813D01*
X110400716Y-112822229D01*
X110400720Y-112822231D01*
X110576980Y-112911846D01*
X110604500Y-112925838D01*
X110827917Y-112995210D01*
X110833204Y-112995911D01*
X110833205Y-112995911D01*
X111054545Y-113025248D01*
X111054549Y-113025248D01*
X111059829Y-113025948D01*
X111065158Y-113025748D01*
X111065160Y-113025748D01*
X111176717Y-113021560D01*
X111293604Y-113017172D01*
X111387969Y-112997372D01*
X111517332Y-112970229D01*
X111517335Y-112970228D01*
X111522559Y-112969132D01*
X111740146Y-112883203D01*
X111849860Y-112816627D01*
X111935583Y-112764609D01*
X111935586Y-112764607D01*
X111940144Y-112761841D01*
X112116834Y-112608517D01*
X112265165Y-112427614D01*
X112340995Y-112294400D01*
X112378255Y-112228945D01*
X112378256Y-112228943D01*
X112380896Y-112224305D01*
X112460716Y-112004404D01*
X112464455Y-111983731D01*
X112487968Y-111853695D01*
X112502344Y-111774197D01*
X112503145Y-111757226D01*
X112503430Y-111751172D01*
X112503430Y-111751165D01*
X112503500Y-111749684D01*
X112503500Y-111135262D01*
X112494178Y-111025401D01*
X112489156Y-110966209D01*
X112489155Y-110966205D01*
X112488705Y-110960898D01*
X112487366Y-110955738D01*
X112431275Y-110739629D01*
X112431274Y-110739625D01*
X112429933Y-110734460D01*
X112421922Y-110716675D01*
X112347418Y-110551284D01*
X112333850Y-110521163D01*
X112330341Y-110515950D01*
X112226533Y-110361759D01*
X112203202Y-110327104D01*
X112188297Y-110311479D01*
X112111773Y-110231262D01*
X112041724Y-110157832D01*
X111854035Y-110018187D01*
X111849284Y-110015771D01*
X111849280Y-110015769D01*
X111650256Y-109914580D01*
X111650255Y-109914580D01*
X111645500Y-109912162D01*
X111422083Y-109842790D01*
X111416796Y-109842089D01*
X111416795Y-109842089D01*
X111195455Y-109812752D01*
X111195451Y-109812752D01*
X111190171Y-109812052D01*
X111184842Y-109812252D01*
X111184840Y-109812252D01*
X111073283Y-109816440D01*
X110956396Y-109820828D01*
X110916081Y-109829287D01*
X110732668Y-109867771D01*
X110732665Y-109867772D01*
X110727441Y-109868868D01*
X110509854Y-109954797D01*
X110309856Y-110076159D01*
X110298654Y-110085880D01*
X110275650Y-110105841D01*
X110211090Y-110135380D01*
X110140809Y-110125326D01*
X110103974Y-110099770D01*
X109884456Y-109880251D01*
X109589647Y-109585442D01*
X109582113Y-109577163D01*
X109578000Y-109570682D01*
X109528348Y-109524056D01*
X109525507Y-109521302D01*
X109505770Y-109501565D01*
X109502573Y-109499085D01*
X109493551Y-109491380D01*
X109480122Y-109478769D01*
X109461321Y-109461114D01*
X109454375Y-109457295D01*
X109454372Y-109457293D01*
X109443566Y-109451352D01*
X109427047Y-109440501D01*
X109417305Y-109432945D01*
X109411041Y-109428086D01*
X109403772Y-109424941D01*
X109403768Y-109424938D01*
X109370463Y-109410526D01*
X109359813Y-109405309D01*
X109321060Y-109384005D01*
X109301437Y-109378967D01*
X109282734Y-109372563D01*
X109271420Y-109367667D01*
X109271419Y-109367667D01*
X109264145Y-109364519D01*
X109256322Y-109363280D01*
X109256312Y-109363277D01*
X109220476Y-109357601D01*
X109208856Y-109355195D01*
X109173711Y-109346172D01*
X109173710Y-109346172D01*
X109166030Y-109344200D01*
X109145776Y-109344200D01*
X109126065Y-109342649D01*
X109113886Y-109340720D01*
X109106057Y-109339480D01*
X109076786Y-109342247D01*
X109062039Y-109343641D01*
X109050181Y-109344200D01*
X101498867Y-109344200D01*
X101487684Y-109343673D01*
X101480191Y-109341998D01*
X101472265Y-109342247D01*
X101472264Y-109342247D01*
X101412101Y-109344138D01*
X101408143Y-109344200D01*
X101380244Y-109344200D01*
X101376254Y-109344704D01*
X101364420Y-109345636D01*
X101320211Y-109347026D01*
X101312597Y-109349238D01*
X101312592Y-109349239D01*
X101300759Y-109352677D01*
X101281396Y-109356688D01*
X101261303Y-109359226D01*
X101253936Y-109362143D01*
X101253931Y-109362144D01*
X101220192Y-109375502D01*
X101208965Y-109379346D01*
X101166507Y-109391682D01*
X101159681Y-109395719D01*
X101149072Y-109401993D01*
X101131324Y-109410688D01*
X101112483Y-109418148D01*
X101106067Y-109422810D01*
X101106066Y-109422810D01*
X101076713Y-109444136D01*
X101066793Y-109450652D01*
X101035565Y-109469120D01*
X101035562Y-109469122D01*
X101028738Y-109473158D01*
X101014417Y-109487479D01*
X100999384Y-109500319D01*
X100982993Y-109512228D01*
X100956616Y-109544113D01*
X100954812Y-109546293D01*
X100946822Y-109555074D01*
X100437974Y-110063921D01*
X100375662Y-110097946D01*
X100304846Y-110092881D01*
X100273667Y-110075915D01*
X100174048Y-110001797D01*
X100165018Y-109996198D01*
X99966069Y-109895047D01*
X99956208Y-109891044D01*
X99743071Y-109824862D01*
X99732691Y-109822580D01*
X99712957Y-109819964D01*
X99698793Y-109822160D01*
X99695000Y-109835345D01*
X99695000Y-111527000D01*
X99674998Y-111595121D01*
X99621342Y-111641614D01*
X99569000Y-111653000D01*
X99313000Y-111653000D01*
X99244879Y-111632998D01*
X99198386Y-111579342D01*
X99187000Y-111527000D01*
X99187000Y-109837373D01*
X99183027Y-109823842D01*
X99172420Y-109822317D01*
X99048812Y-109848252D01*
X99038616Y-109851312D01*
X98831048Y-109933284D01*
X98821511Y-109938018D01*
X98630715Y-110053796D01*
X98622122Y-110060062D01*
X98453559Y-110206333D01*
X98446138Y-110213965D01*
X98418827Y-110247272D01*
X98360167Y-110287266D01*
X98289197Y-110289197D01*
X98228449Y-110252452D01*
X98213196Y-110229654D01*
X98212550Y-110230054D01*
X98179685Y-110176945D01*
X98119478Y-110079652D01*
X97994303Y-109954695D01*
X97900038Y-109896589D01*
X97849968Y-109865725D01*
X97849966Y-109865724D01*
X97843738Y-109861885D01*
X97743721Y-109828711D01*
X97682389Y-109808368D01*
X97682387Y-109808368D01*
X97675861Y-109806203D01*
X97669025Y-109805503D01*
X97669022Y-109805502D01*
X97625969Y-109801091D01*
X97571400Y-109795500D01*
X96230600Y-109795500D01*
X96227354Y-109795837D01*
X96227350Y-109795837D01*
X96131692Y-109805762D01*
X96131688Y-109805763D01*
X96124834Y-109806474D01*
X96118298Y-109808655D01*
X96118296Y-109808655D01*
X96018083Y-109842089D01*
X95957054Y-109862450D01*
X95806652Y-109955522D01*
X95681695Y-110080697D01*
X95677855Y-110086927D01*
X95677854Y-110086928D01*
X95604252Y-110206333D01*
X95588885Y-110231262D01*
X95533203Y-110399139D01*
X95532503Y-110405975D01*
X95532502Y-110405978D01*
X95528542Y-110444629D01*
X95522500Y-110503600D01*
X95522500Y-112294400D01*
X95522837Y-112297646D01*
X95522837Y-112297650D01*
X95532296Y-112388811D01*
X95533474Y-112400166D01*
X95535655Y-112406702D01*
X95535655Y-112406704D01*
X95567320Y-112501616D01*
X95589450Y-112567946D01*
X95682522Y-112718348D01*
X95807697Y-112843305D01*
X95813927Y-112847145D01*
X95813928Y-112847146D01*
X95951090Y-112931694D01*
X95958262Y-112936115D01*
X96034859Y-112961521D01*
X96119611Y-112989632D01*
X96119613Y-112989632D01*
X96126139Y-112991797D01*
X96132975Y-112992497D01*
X96132978Y-112992498D01*
X96176031Y-112996909D01*
X96230600Y-113002500D01*
X97571400Y-113002500D01*
X97574646Y-113002163D01*
X97574650Y-113002163D01*
X97670308Y-112992238D01*
X97670312Y-112992237D01*
X97677166Y-112991526D01*
X97683702Y-112989345D01*
X97683704Y-112989345D01*
X97820823Y-112943598D01*
X97844946Y-112935550D01*
X97995348Y-112842478D01*
X98120305Y-112717303D01*
X98138560Y-112687689D01*
X98213115Y-112566738D01*
X98215132Y-112567982D01*
X98254537Y-112523225D01*
X98322813Y-112503761D01*
X98390774Y-112524300D01*
X98412989Y-112542785D01*
X98520924Y-112655930D01*
X98528892Y-112662979D01*
X98707952Y-112796203D01*
X98716982Y-112801802D01*
X98788255Y-112838039D01*
X98839913Y-112886742D01*
X98857039Y-112955642D01*
X98834197Y-113022864D01*
X98820246Y-113039450D01*
X94085321Y-117774374D01*
X89356900Y-122502795D01*
X89294588Y-122536821D01*
X89267805Y-122539700D01*
X80802867Y-122539700D01*
X80791684Y-122539173D01*
X80784191Y-122537498D01*
X80776265Y-122537747D01*
X80776264Y-122537747D01*
X80716114Y-122539638D01*
X80712155Y-122539700D01*
X80684244Y-122539700D01*
X80680310Y-122540197D01*
X80680309Y-122540197D01*
X80680244Y-122540205D01*
X80668407Y-122541138D01*
X80636590Y-122542138D01*
X80632129Y-122542278D01*
X80624210Y-122542527D01*
X80606554Y-122547656D01*
X80604758Y-122548178D01*
X80585406Y-122552186D01*
X80578335Y-122553080D01*
X80565303Y-122554726D01*
X80557934Y-122557643D01*
X80557932Y-122557644D01*
X80524197Y-122571000D01*
X80512969Y-122574845D01*
X80470507Y-122587182D01*
X80463684Y-122591217D01*
X80463682Y-122591218D01*
X80453072Y-122597493D01*
X80435324Y-122606188D01*
X80416483Y-122613648D01*
X80410067Y-122618310D01*
X80410066Y-122618310D01*
X80380713Y-122639636D01*
X80370793Y-122646152D01*
X80339565Y-122664620D01*
X80339562Y-122664622D01*
X80332738Y-122668658D01*
X80318417Y-122682979D01*
X80303384Y-122695819D01*
X80286993Y-122707728D01*
X80260361Y-122739921D01*
X80258802Y-122741805D01*
X80250812Y-122750584D01*
X78652947Y-124348448D01*
X78644661Y-124355988D01*
X78638182Y-124360100D01*
X78632757Y-124365877D01*
X78591557Y-124409751D01*
X78588802Y-124412593D01*
X78569065Y-124432330D01*
X78566585Y-124435527D01*
X78558882Y-124444547D01*
X78528614Y-124476779D01*
X78524795Y-124483725D01*
X78524793Y-124483728D01*
X78518852Y-124494534D01*
X78508001Y-124511053D01*
X78495586Y-124527059D01*
X78492441Y-124534328D01*
X78492438Y-124534332D01*
X78478026Y-124567637D01*
X78472809Y-124578287D01*
X78451505Y-124617040D01*
X78449534Y-124624715D01*
X78449534Y-124624716D01*
X78446467Y-124636662D01*
X78440063Y-124655366D01*
X78432019Y-124673955D01*
X78430780Y-124681778D01*
X78430777Y-124681788D01*
X78425101Y-124717624D01*
X78422695Y-124729244D01*
X78411700Y-124772070D01*
X78411700Y-124792324D01*
X78410149Y-124812034D01*
X78406980Y-124832043D01*
X78407726Y-124839935D01*
X78411141Y-124876061D01*
X78411700Y-124887919D01*
X78411700Y-138116133D01*
X78411173Y-138127316D01*
X78409498Y-138134809D01*
X78409747Y-138142735D01*
X78409747Y-138142736D01*
X78411638Y-138202886D01*
X78411700Y-138206845D01*
X78411700Y-138234756D01*
X78412197Y-138238690D01*
X78412197Y-138238691D01*
X78412205Y-138238756D01*
X78413138Y-138250593D01*
X78414527Y-138294789D01*
X78420178Y-138314239D01*
X78424187Y-138333600D01*
X78426726Y-138353697D01*
X78429645Y-138361068D01*
X78429645Y-138361070D01*
X78443004Y-138394812D01*
X78446849Y-138406042D01*
X78459182Y-138448493D01*
X78463215Y-138455312D01*
X78463217Y-138455317D01*
X78469493Y-138465928D01*
X78478188Y-138483676D01*
X78485648Y-138502517D01*
X78490310Y-138508933D01*
X78490310Y-138508934D01*
X78511636Y-138538287D01*
X78518152Y-138548207D01*
X78530693Y-138569412D01*
X78540658Y-138586262D01*
X78554979Y-138600583D01*
X78567819Y-138615616D01*
X78579728Y-138632007D01*
X78585834Y-138637058D01*
X78613805Y-138660198D01*
X78622584Y-138668188D01*
X79107680Y-139153284D01*
X79141706Y-139215596D01*
X79136641Y-139286411D01*
X79094151Y-139343204D01*
X79050739Y-139375739D01*
X78963385Y-139492295D01*
X78912255Y-139628684D01*
X78905500Y-139690866D01*
X78905500Y-141487134D01*
X78912255Y-141549316D01*
X78963385Y-141685705D01*
X79050739Y-141802261D01*
X79167295Y-141889615D01*
X79303684Y-141940745D01*
X79365866Y-141947500D01*
X81162134Y-141947500D01*
X81224316Y-141940745D01*
X81360705Y-141889615D01*
X81477261Y-141802261D01*
X81564615Y-141685705D01*
X81581360Y-141641038D01*
X81608598Y-141568382D01*
X81651240Y-141511618D01*
X81717802Y-141486918D01*
X81787150Y-141502126D01*
X81821817Y-141530114D01*
X81850250Y-141562938D01*
X82022126Y-141705632D01*
X82215000Y-141818338D01*
X82423692Y-141898030D01*
X82428760Y-141899061D01*
X82428763Y-141899062D01*
X82536012Y-141920882D01*
X82642597Y-141942567D01*
X82647772Y-141942757D01*
X82647774Y-141942757D01*
X82860673Y-141950564D01*
X82860677Y-141950564D01*
X82865837Y-141950753D01*
X82870957Y-141950097D01*
X82870959Y-141950097D01*
X83082288Y-141923025D01*
X83082289Y-141923025D01*
X83087416Y-141922368D01*
X83092369Y-141920882D01*
X83296429Y-141859661D01*
X83296434Y-141859659D01*
X83301384Y-141858174D01*
X83501994Y-141759896D01*
X83683860Y-141630173D01*
X83842096Y-141472489D01*
X83848872Y-141463060D01*
X83972453Y-141291077D01*
X83973776Y-141292028D01*
X84020645Y-141248857D01*
X84090580Y-141236625D01*
X84156026Y-141264144D01*
X84183875Y-141295994D01*
X84243987Y-141394088D01*
X84390250Y-141562938D01*
X84562126Y-141705632D01*
X84755000Y-141818338D01*
X84963692Y-141898030D01*
X84968760Y-141899061D01*
X84968763Y-141899062D01*
X85076012Y-141920882D01*
X85182597Y-141942567D01*
X85187772Y-141942757D01*
X85187774Y-141942757D01*
X85400673Y-141950564D01*
X85400677Y-141950564D01*
X85405837Y-141950753D01*
X85410957Y-141950097D01*
X85410959Y-141950097D01*
X85622288Y-141923025D01*
X85622289Y-141923025D01*
X85627416Y-141922368D01*
X85632369Y-141920882D01*
X85836429Y-141859661D01*
X85836434Y-141859659D01*
X85841384Y-141858174D01*
X86041994Y-141759896D01*
X86223860Y-141630173D01*
X86382096Y-141472489D01*
X86388872Y-141463060D01*
X86512453Y-141291077D01*
X86513776Y-141292028D01*
X86560645Y-141248857D01*
X86630580Y-141236625D01*
X86696026Y-141264144D01*
X86723875Y-141295994D01*
X86783987Y-141394088D01*
X86930250Y-141562938D01*
X87102126Y-141705632D01*
X87295000Y-141818338D01*
X87503692Y-141898030D01*
X87508760Y-141899061D01*
X87508763Y-141899062D01*
X87616012Y-141920882D01*
X87722597Y-141942567D01*
X87727772Y-141942757D01*
X87727774Y-141942757D01*
X87940673Y-141950564D01*
X87940677Y-141950564D01*
X87945837Y-141950753D01*
X87950957Y-141950097D01*
X87950959Y-141950097D01*
X88162288Y-141923025D01*
X88162289Y-141923025D01*
X88167416Y-141922368D01*
X88172369Y-141920882D01*
X88376429Y-141859661D01*
X88376434Y-141859659D01*
X88381384Y-141858174D01*
X88581994Y-141759896D01*
X88763860Y-141630173D01*
X88922096Y-141472489D01*
X88928872Y-141463060D01*
X89052453Y-141291077D01*
X89053776Y-141292028D01*
X89100645Y-141248857D01*
X89170580Y-141236625D01*
X89236026Y-141264144D01*
X89263875Y-141295994D01*
X89323987Y-141394088D01*
X89470250Y-141562938D01*
X89642126Y-141705632D01*
X89835000Y-141818338D01*
X90043692Y-141898030D01*
X90048760Y-141899061D01*
X90048763Y-141899062D01*
X90156012Y-141920882D01*
X90262597Y-141942567D01*
X90267772Y-141942757D01*
X90267774Y-141942757D01*
X90480673Y-141950564D01*
X90480677Y-141950564D01*
X90485837Y-141950753D01*
X90490957Y-141950097D01*
X90490959Y-141950097D01*
X90702288Y-141923025D01*
X90702289Y-141923025D01*
X90707416Y-141922368D01*
X90712369Y-141920882D01*
X90916429Y-141859661D01*
X90916434Y-141859659D01*
X90921384Y-141858174D01*
X91121994Y-141759896D01*
X91303860Y-141630173D01*
X91462096Y-141472489D01*
X91468872Y-141463060D01*
X91592453Y-141291077D01*
X91593776Y-141292028D01*
X91640645Y-141248857D01*
X91710580Y-141236625D01*
X91776026Y-141264144D01*
X91803875Y-141295994D01*
X91863987Y-141394088D01*
X92010250Y-141562938D01*
X92182126Y-141705632D01*
X92375000Y-141818338D01*
X92583692Y-141898030D01*
X92588760Y-141899061D01*
X92588763Y-141899062D01*
X92696012Y-141920882D01*
X92802597Y-141942567D01*
X92807772Y-141942757D01*
X92807774Y-141942757D01*
X93020673Y-141950564D01*
X93020677Y-141950564D01*
X93025837Y-141950753D01*
X93030957Y-141950097D01*
X93030959Y-141950097D01*
X93242288Y-141923025D01*
X93242289Y-141923025D01*
X93247416Y-141922368D01*
X93252369Y-141920882D01*
X93456429Y-141859661D01*
X93456434Y-141859659D01*
X93461384Y-141858174D01*
X93661994Y-141759896D01*
X93843860Y-141630173D01*
X94002096Y-141472489D01*
X94008872Y-141463060D01*
X94132453Y-141291077D01*
X94133776Y-141292028D01*
X94180645Y-141248857D01*
X94250580Y-141236625D01*
X94316026Y-141264144D01*
X94343875Y-141295994D01*
X94403987Y-141394088D01*
X94550250Y-141562938D01*
X94722126Y-141705632D01*
X94915000Y-141818338D01*
X95123692Y-141898030D01*
X95128760Y-141899061D01*
X95128763Y-141899062D01*
X95236012Y-141920882D01*
X95342597Y-141942567D01*
X95347772Y-141942757D01*
X95347774Y-141942757D01*
X95560673Y-141950564D01*
X95560677Y-141950564D01*
X95565837Y-141950753D01*
X95570957Y-141950097D01*
X95570959Y-141950097D01*
X95782288Y-141923025D01*
X95782289Y-141923025D01*
X95787416Y-141922368D01*
X95792367Y-141920883D01*
X95792370Y-141920882D01*
X95833829Y-141908444D01*
X95904825Y-141908028D01*
X95959131Y-141940035D01*
X96641543Y-142622447D01*
X96649087Y-142630737D01*
X96653200Y-142637218D01*
X96658977Y-142642643D01*
X96702867Y-142683858D01*
X96705709Y-142686613D01*
X96725430Y-142706334D01*
X96728625Y-142708812D01*
X96737647Y-142716518D01*
X96769879Y-142746786D01*
X96776828Y-142750606D01*
X96787632Y-142756546D01*
X96804153Y-142767398D01*
X96815808Y-142776438D01*
X96857377Y-142833993D01*
X96861229Y-142904885D01*
X96826143Y-142966606D01*
X96763258Y-142999561D01*
X96738585Y-143002000D01*
X79424328Y-143002000D01*
X79404943Y-143000500D01*
X79390142Y-142998195D01*
X79390139Y-142998195D01*
X79381270Y-142996814D01*
X79365001Y-142998941D01*
X79340433Y-142999734D01*
X79118015Y-142985156D01*
X79101674Y-142983005D01*
X78857176Y-142934371D01*
X78841257Y-142930105D01*
X78605210Y-142849978D01*
X78589983Y-142843671D01*
X78366408Y-142733416D01*
X78352135Y-142725175D01*
X78144867Y-142586684D01*
X78131790Y-142576651D01*
X77944368Y-142412286D01*
X77932714Y-142400632D01*
X77768349Y-142213210D01*
X77758316Y-142200133D01*
X77619825Y-141992865D01*
X77611584Y-141978592D01*
X77501329Y-141755017D01*
X77495022Y-141739790D01*
X77414895Y-141503743D01*
X77410629Y-141487824D01*
X77361995Y-141243327D01*
X77359844Y-141226986D01*
X77345736Y-141011732D01*
X77346761Y-140988696D01*
X77346804Y-140985146D01*
X77348186Y-140976270D01*
X77344064Y-140944748D01*
X77343000Y-140928411D01*
X77343000Y-113886043D01*
X78351380Y-113886043D01*
X78352126Y-113893935D01*
X78355541Y-113930061D01*
X78356100Y-113941919D01*
X78356100Y-114869233D01*
X78355573Y-114880416D01*
X78353898Y-114887909D01*
X78354147Y-114895835D01*
X78354147Y-114895836D01*
X78356038Y-114955986D01*
X78356100Y-114959945D01*
X78356100Y-114987856D01*
X78356597Y-114991790D01*
X78356597Y-114991791D01*
X78356605Y-114991856D01*
X78357538Y-115003693D01*
X78358927Y-115047889D01*
X78364578Y-115067339D01*
X78368587Y-115086700D01*
X78371126Y-115106797D01*
X78374045Y-115114168D01*
X78374045Y-115114170D01*
X78387404Y-115147912D01*
X78391249Y-115159142D01*
X78396269Y-115176420D01*
X78403582Y-115201593D01*
X78407615Y-115208412D01*
X78407617Y-115208417D01*
X78413893Y-115219028D01*
X78422588Y-115236776D01*
X78430048Y-115255617D01*
X78434710Y-115262033D01*
X78434710Y-115262034D01*
X78456036Y-115291387D01*
X78462552Y-115301307D01*
X78485058Y-115339362D01*
X78499379Y-115353683D01*
X78512219Y-115368716D01*
X78524128Y-115385107D01*
X78530234Y-115390158D01*
X78558205Y-115413298D01*
X78566984Y-115421288D01*
X79092543Y-115946847D01*
X79126569Y-116009159D01*
X79121504Y-116079974D01*
X79104538Y-116111153D01*
X79010187Y-116237965D01*
X79007771Y-116242716D01*
X79007769Y-116242720D01*
X78933841Y-116388126D01*
X78904162Y-116446500D01*
X78834790Y-116669917D01*
X78834089Y-116675204D01*
X78834089Y-116675205D01*
X78805214Y-116893065D01*
X78804052Y-116901829D01*
X78804252Y-116907158D01*
X78804252Y-116907160D01*
X78804998Y-116927031D01*
X78812828Y-117135604D01*
X78860868Y-117364559D01*
X78946797Y-117582146D01*
X78949566Y-117586709D01*
X79060212Y-117769047D01*
X79068159Y-117782144D01*
X79221483Y-117958834D01*
X79247151Y-117979880D01*
X79258770Y-117989407D01*
X79298764Y-118048067D01*
X79300695Y-118119038D01*
X79263950Y-118179786D01*
X79241610Y-118194733D01*
X79242054Y-118195450D01*
X79091652Y-118288522D01*
X78966695Y-118413697D01*
X78962855Y-118419927D01*
X78962854Y-118419928D01*
X78880380Y-118553726D01*
X78873885Y-118564262D01*
X78860840Y-118603591D01*
X78826344Y-118707596D01*
X78818203Y-118732139D01*
X78817503Y-118738975D01*
X78817502Y-118738978D01*
X78814290Y-118770325D01*
X78807500Y-118836600D01*
X78807500Y-120177400D01*
X78807837Y-120180646D01*
X78807837Y-120180650D01*
X78817342Y-120272254D01*
X78818474Y-120283166D01*
X78820655Y-120289702D01*
X78820655Y-120289704D01*
X78857273Y-120399460D01*
X78874450Y-120450946D01*
X78967522Y-120601348D01*
X79092697Y-120726305D01*
X79098927Y-120730145D01*
X79098928Y-120730146D01*
X79236090Y-120814694D01*
X79243262Y-120819115D01*
X79283373Y-120832419D01*
X79404611Y-120872632D01*
X79404613Y-120872632D01*
X79411139Y-120874797D01*
X79417975Y-120875497D01*
X79417978Y-120875498D01*
X79459461Y-120879748D01*
X79515600Y-120885500D01*
X81306400Y-120885500D01*
X81309646Y-120885163D01*
X81309650Y-120885163D01*
X81405308Y-120875238D01*
X81405312Y-120875237D01*
X81412166Y-120874526D01*
X81418702Y-120872345D01*
X81418704Y-120872345D01*
X81566212Y-120823132D01*
X81579946Y-120818550D01*
X81730348Y-120725478D01*
X81855305Y-120600303D01*
X81857557Y-120602551D01*
X81903834Y-120569710D01*
X81974756Y-120566447D01*
X82033947Y-120599752D01*
X82222453Y-120788258D01*
X82229987Y-120796537D01*
X82234100Y-120803018D01*
X82277986Y-120844229D01*
X82283751Y-120849643D01*
X82286593Y-120852398D01*
X82306330Y-120872135D01*
X82309527Y-120874615D01*
X82318547Y-120882318D01*
X82350779Y-120912586D01*
X82357725Y-120916405D01*
X82357728Y-120916407D01*
X82368534Y-120922348D01*
X82385053Y-120933199D01*
X82401059Y-120945614D01*
X82408328Y-120948759D01*
X82408332Y-120948762D01*
X82441637Y-120963174D01*
X82452287Y-120968391D01*
X82491040Y-120989695D01*
X82507523Y-120993927D01*
X82510662Y-120994733D01*
X82529367Y-121001137D01*
X82547955Y-121009181D01*
X82555778Y-121010420D01*
X82555788Y-121010423D01*
X82591624Y-121016099D01*
X82603244Y-121018505D01*
X82638389Y-121027528D01*
X82646070Y-121029500D01*
X82666324Y-121029500D01*
X82686034Y-121031051D01*
X82706043Y-121034220D01*
X82713935Y-121033474D01*
X82750061Y-121030059D01*
X82761919Y-121029500D01*
X84151629Y-121029500D01*
X84219750Y-121049502D01*
X84266243Y-121103158D01*
X84277307Y-121146510D01*
X84282500Y-121219111D01*
X84303531Y-121290734D01*
X84317526Y-121338397D01*
X84323696Y-121359411D01*
X84328567Y-121366990D01*
X84397878Y-121474841D01*
X84397880Y-121474844D01*
X84402750Y-121482421D01*
X84409560Y-121488322D01*
X84506445Y-121572274D01*
X84506448Y-121572276D01*
X84513257Y-121578176D01*
X84646266Y-121638919D01*
X84791000Y-121659729D01*
X85791000Y-121659729D01*
X85792964Y-121659605D01*
X85792968Y-121659605D01*
X85849080Y-121656066D01*
X85849084Y-121656065D01*
X85855557Y-121655657D01*
X85901232Y-121643075D01*
X85952624Y-121639833D01*
X86091000Y-121659729D01*
X87241000Y-121659729D01*
X87272986Y-121657441D01*
X87307373Y-121654982D01*
X87307374Y-121654982D01*
X87314111Y-121654500D01*
X87393618Y-121631155D01*
X87445765Y-121615843D01*
X87445767Y-121615842D01*
X87454411Y-121613304D01*
X87521051Y-121570477D01*
X87569841Y-121539122D01*
X87569844Y-121539120D01*
X87577421Y-121534250D01*
X87622331Y-121482421D01*
X87667274Y-121430555D01*
X87667276Y-121430552D01*
X87673176Y-121423743D01*
X87733919Y-121290734D01*
X87754729Y-121146000D01*
X87754729Y-119646000D01*
X87751498Y-119600831D01*
X87749982Y-119579627D01*
X87749982Y-119579626D01*
X87749500Y-119572889D01*
X87708304Y-119432589D01*
X87691727Y-119406795D01*
X87671724Y-119338675D01*
X87691725Y-119270554D01*
X87705872Y-119252423D01*
X87715156Y-119242536D01*
X87717913Y-119239691D01*
X87737634Y-119219970D01*
X87740112Y-119216775D01*
X87747818Y-119207753D01*
X87767131Y-119187187D01*
X87778086Y-119175521D01*
X87787846Y-119157768D01*
X87798699Y-119141245D01*
X87806253Y-119131506D01*
X87811113Y-119125241D01*
X87828676Y-119084657D01*
X87833883Y-119074027D01*
X87855195Y-119035260D01*
X87857166Y-119027583D01*
X87857168Y-119027578D01*
X87860232Y-119015642D01*
X87866638Y-118996930D01*
X87871533Y-118985619D01*
X87874681Y-118978345D01*
X87875921Y-118970517D01*
X87875923Y-118970510D01*
X87881599Y-118934676D01*
X87884005Y-118923056D01*
X87893028Y-118887911D01*
X87893028Y-118887910D01*
X87895000Y-118880230D01*
X87895000Y-118859976D01*
X87896551Y-118840265D01*
X87897132Y-118836600D01*
X87899720Y-118820257D01*
X87895559Y-118776238D01*
X87895000Y-118764381D01*
X87895000Y-116828170D01*
X87915002Y-116760049D01*
X87943426Y-116728882D01*
X87960347Y-116715661D01*
X88089578Y-116565945D01*
X88187269Y-116393979D01*
X88249697Y-116206313D01*
X88274485Y-116010095D01*
X88274880Y-115981800D01*
X88255580Y-115784967D01*
X88248320Y-115760919D01*
X88204083Y-115614402D01*
X88198416Y-115595631D01*
X88105566Y-115421004D01*
X88020337Y-115316503D01*
X87984460Y-115272513D01*
X87984457Y-115272510D01*
X87980565Y-115267738D01*
X87973670Y-115262034D01*
X87832925Y-115145599D01*
X87832921Y-115145597D01*
X87828175Y-115141670D01*
X87654201Y-115047602D01*
X87465268Y-114989118D01*
X87459143Y-114988474D01*
X87459142Y-114988474D01*
X87274704Y-114969089D01*
X87274702Y-114969089D01*
X87268575Y-114968445D01*
X87186076Y-114975953D01*
X87077751Y-114985811D01*
X87077748Y-114985812D01*
X87071612Y-114986370D01*
X87065706Y-114988108D01*
X87065702Y-114988109D01*
X87032911Y-114997760D01*
X86881881Y-115042210D01*
X86876423Y-115045063D01*
X86876419Y-115045065D01*
X86815600Y-115076861D01*
X86706610Y-115133840D01*
X86552475Y-115257768D01*
X86548511Y-115262492D01*
X86540102Y-115272513D01*
X86425346Y-115409274D01*
X86422379Y-115414672D01*
X86422375Y-115414677D01*
X86360370Y-115527465D01*
X86330067Y-115582587D01*
X86328206Y-115588454D01*
X86328205Y-115588456D01*
X86273428Y-115761136D01*
X86270265Y-115771106D01*
X86248219Y-115967651D01*
X86264768Y-116164734D01*
X86319283Y-116354850D01*
X86322102Y-116360335D01*
X86369004Y-116451595D01*
X86409687Y-116530756D01*
X86532535Y-116685753D01*
X86537228Y-116689747D01*
X86537229Y-116689748D01*
X86583663Y-116729266D01*
X86622576Y-116788648D01*
X86628000Y-116825220D01*
X86628000Y-118485605D01*
X86607998Y-118553726D01*
X86591095Y-118574700D01*
X86348747Y-118817048D01*
X86340461Y-118824588D01*
X86333982Y-118828700D01*
X86328557Y-118834477D01*
X86287357Y-118878351D01*
X86284602Y-118881193D01*
X86264865Y-118900930D01*
X86262385Y-118904127D01*
X86254682Y-118913147D01*
X86224414Y-118945379D01*
X86220595Y-118952325D01*
X86220593Y-118952328D01*
X86214652Y-118963134D01*
X86203801Y-118979653D01*
X86191386Y-118995659D01*
X86188241Y-119002928D01*
X86188238Y-119002932D01*
X86173826Y-119036237D01*
X86168603Y-119046899D01*
X86155782Y-119070220D01*
X86105437Y-119120278D01*
X86055412Y-119135117D01*
X86049621Y-119135580D01*
X86016353Y-119138240D01*
X86016350Y-119138241D01*
X86009355Y-119138800D01*
X86002657Y-119140890D01*
X86002655Y-119140890D01*
X85982019Y-119147328D01*
X85926562Y-119151762D01*
X85850945Y-119140890D01*
X85791000Y-119132271D01*
X84791000Y-119132271D01*
X84782024Y-119132913D01*
X84724627Y-119137018D01*
X84724626Y-119137018D01*
X84717889Y-119137500D01*
X84653386Y-119156440D01*
X84586235Y-119176157D01*
X84586233Y-119176158D01*
X84577589Y-119178696D01*
X84538270Y-119203965D01*
X84462159Y-119252878D01*
X84462156Y-119252880D01*
X84454579Y-119257750D01*
X84448678Y-119264560D01*
X84364726Y-119361445D01*
X84364724Y-119361448D01*
X84358824Y-119368257D01*
X84355080Y-119376454D01*
X84355080Y-119376455D01*
X84343871Y-119401000D01*
X84298081Y-119501266D01*
X84296798Y-119510189D01*
X84279244Y-119632281D01*
X84277271Y-119646000D01*
X84277271Y-119646451D01*
X84252820Y-119712008D01*
X84195984Y-119754555D01*
X84151951Y-119762500D01*
X83040695Y-119762500D01*
X82972574Y-119742498D01*
X82951599Y-119725595D01*
X82507504Y-119281499D01*
X82473479Y-119219187D01*
X82470600Y-119192404D01*
X82470600Y-115931867D01*
X82471127Y-115920684D01*
X82472802Y-115913191D01*
X82470662Y-115845100D01*
X82470600Y-115841143D01*
X82470600Y-115813244D01*
X82470096Y-115809253D01*
X82469163Y-115797411D01*
X82468587Y-115779064D01*
X82467774Y-115753211D01*
X82465562Y-115745597D01*
X82465561Y-115745592D01*
X82462123Y-115733759D01*
X82458112Y-115714395D01*
X82456567Y-115702164D01*
X82455574Y-115694303D01*
X82452657Y-115686936D01*
X82452656Y-115686931D01*
X82439298Y-115653192D01*
X82435454Y-115641965D01*
X82427693Y-115615255D01*
X82423118Y-115599507D01*
X82416582Y-115588456D01*
X82412807Y-115582072D01*
X82404112Y-115564324D01*
X82396652Y-115545483D01*
X82370664Y-115509713D01*
X82364148Y-115499793D01*
X82345680Y-115468565D01*
X82345678Y-115468562D01*
X82341642Y-115461738D01*
X82327321Y-115447417D01*
X82314480Y-115432383D01*
X82302572Y-115415993D01*
X82296468Y-115410943D01*
X82296463Y-115410938D01*
X82268502Y-115387807D01*
X82259721Y-115379817D01*
X81950210Y-115070305D01*
X81916185Y-115007993D01*
X81918973Y-114943846D01*
X81985628Y-114729177D01*
X81987210Y-114724083D01*
X81996304Y-114655473D01*
X82017248Y-114497455D01*
X82017248Y-114497451D01*
X82017948Y-114492171D01*
X82015021Y-114414188D01*
X82009372Y-114263727D01*
X82009172Y-114258396D01*
X81968088Y-114062592D01*
X81962229Y-114034668D01*
X81962228Y-114034665D01*
X81961132Y-114029441D01*
X81875203Y-113811854D01*
X81824292Y-113727955D01*
X81756609Y-113616417D01*
X81756607Y-113616414D01*
X81753841Y-113611856D01*
X81600517Y-113435166D01*
X81419614Y-113286835D01*
X81414984Y-113284199D01*
X81414979Y-113284196D01*
X81382484Y-113265699D01*
X81333178Y-113214616D01*
X81322844Y-113162703D01*
X88060743Y-113162703D01*
X88061302Y-113166947D01*
X88061302Y-113166951D01*
X88067577Y-113214616D01*
X88098268Y-113447734D01*
X88099401Y-113451874D01*
X88099401Y-113451876D01*
X88108827Y-113486330D01*
X88174129Y-113725036D01*
X88175813Y-113728984D01*
X88284214Y-113983124D01*
X88286923Y-113989476D01*
X88330470Y-114062237D01*
X88393140Y-114166951D01*
X88434561Y-114236161D01*
X88614313Y-114460528D01*
X88822851Y-114658423D01*
X89056317Y-114826186D01*
X89060112Y-114828195D01*
X89060113Y-114828196D01*
X89081038Y-114839275D01*
X89310392Y-114960712D01*
X89423250Y-115002012D01*
X89566907Y-115054583D01*
X89580373Y-115059511D01*
X89861264Y-115120755D01*
X89876995Y-115121993D01*
X90084282Y-115138307D01*
X90084291Y-115138307D01*
X90086739Y-115138500D01*
X90242271Y-115138500D01*
X90244407Y-115138354D01*
X90244418Y-115138354D01*
X90452548Y-115124165D01*
X90452554Y-115124164D01*
X90456825Y-115123873D01*
X90461020Y-115123004D01*
X90461022Y-115123004D01*
X90649665Y-115083938D01*
X90738342Y-115065574D01*
X91009343Y-114969607D01*
X91180836Y-114881093D01*
X91261005Y-114839715D01*
X91261006Y-114839715D01*
X91264812Y-114837750D01*
X91268313Y-114835289D01*
X91268317Y-114835287D01*
X91446818Y-114709834D01*
X91500023Y-114672441D01*
X91688330Y-114497455D01*
X91707479Y-114479661D01*
X91707481Y-114479658D01*
X91710622Y-114476740D01*
X91892713Y-114254268D01*
X92042927Y-114009142D01*
X92158483Y-113745898D01*
X92168890Y-113709366D01*
X92228942Y-113498549D01*
X92237244Y-113469406D01*
X92273505Y-113214616D01*
X92277146Y-113189036D01*
X92277146Y-113189034D01*
X92277751Y-113184784D01*
X92277782Y-113178975D01*
X92279235Y-112901583D01*
X92279235Y-112901576D01*
X92279257Y-112897297D01*
X92277868Y-112886742D01*
X92252241Y-112692088D01*
X92241732Y-112612266D01*
X92229608Y-112567946D01*
X92187420Y-112413734D01*
X92165871Y-112334964D01*
X92118671Y-112224305D01*
X92054763Y-112074476D01*
X92054761Y-112074472D01*
X92053077Y-112070524D01*
X91947685Y-111894427D01*
X91907643Y-111827521D01*
X91907640Y-111827517D01*
X91905439Y-111823839D01*
X91725687Y-111599472D01*
X91517149Y-111401577D01*
X91283683Y-111233814D01*
X91261843Y-111222250D01*
X91132342Y-111153683D01*
X91029608Y-111099288D01*
X90759627Y-111000489D01*
X90478736Y-110939245D01*
X90447685Y-110936801D01*
X90255718Y-110921693D01*
X90255709Y-110921693D01*
X90253261Y-110921500D01*
X90097729Y-110921500D01*
X90095593Y-110921646D01*
X90095582Y-110921646D01*
X89887452Y-110935835D01*
X89887446Y-110935836D01*
X89883175Y-110936127D01*
X89878980Y-110936996D01*
X89878978Y-110936996D01*
X89742417Y-110965276D01*
X89601658Y-110994426D01*
X89330657Y-111090393D01*
X89326848Y-111092359D01*
X89100083Y-111209401D01*
X89075188Y-111222250D01*
X89071687Y-111224711D01*
X89071683Y-111224713D01*
X88997538Y-111276823D01*
X88839977Y-111387559D01*
X88824892Y-111401577D01*
X88632684Y-111580188D01*
X88629378Y-111583260D01*
X88447287Y-111805732D01*
X88367712Y-111935586D01*
X88303291Y-112040712D01*
X88297073Y-112050858D01*
X88295347Y-112054791D01*
X88295346Y-112054792D01*
X88238591Y-112184083D01*
X88181517Y-112314102D01*
X88180342Y-112318229D01*
X88180341Y-112318230D01*
X88158913Y-112393453D01*
X88102756Y-112590594D01*
X88077751Y-112766292D01*
X88066791Y-112843305D01*
X88062249Y-112875216D01*
X88062227Y-112879505D01*
X88062226Y-112879512D01*
X88060813Y-113149245D01*
X88060743Y-113162703D01*
X81322844Y-113162703D01*
X81319317Y-113144985D01*
X81345301Y-113078915D01*
X81374450Y-113051677D01*
X81441937Y-113006242D01*
X81502896Y-112965202D01*
X81512918Y-112955642D01*
X81597225Y-112875216D01*
X81672168Y-112803724D01*
X81701271Y-112764609D01*
X81808627Y-112620317D01*
X81811813Y-112616035D01*
X81815636Y-112608517D01*
X81915420Y-112412256D01*
X81915420Y-112412255D01*
X81917838Y-112407500D01*
X81987210Y-112184083D01*
X81993142Y-112139329D01*
X82017248Y-111957455D01*
X82017248Y-111957451D01*
X82017948Y-111952171D01*
X82017326Y-111935586D01*
X82010402Y-111751172D01*
X82009172Y-111718396D01*
X81980817Y-111583260D01*
X81962229Y-111494668D01*
X81962228Y-111494665D01*
X81961132Y-111489441D01*
X81875203Y-111271854D01*
X81792317Y-111135262D01*
X81756609Y-111076417D01*
X81756607Y-111076414D01*
X81753841Y-111071856D01*
X81600517Y-110895166D01*
X81419614Y-110746835D01*
X81264046Y-110658280D01*
X81220945Y-110633745D01*
X81220943Y-110633744D01*
X81216305Y-110631104D01*
X80996404Y-110551284D01*
X80991155Y-110550335D01*
X80991152Y-110550334D01*
X80905340Y-110534817D01*
X80766197Y-110509656D01*
X80762058Y-110509461D01*
X80762051Y-110509460D01*
X80743172Y-110508570D01*
X80743165Y-110508570D01*
X80741684Y-110508500D01*
X80127262Y-110508500D01*
X80059359Y-110514262D01*
X79958209Y-110522844D01*
X79958205Y-110522845D01*
X79952898Y-110523295D01*
X79947741Y-110524633D01*
X79947738Y-110524634D01*
X79731629Y-110580725D01*
X79731625Y-110580726D01*
X79726460Y-110582067D01*
X79721594Y-110584259D01*
X79721591Y-110584260D01*
X79586238Y-110645232D01*
X79513163Y-110678150D01*
X79508730Y-110681134D01*
X79508729Y-110681135D01*
X79503199Y-110684858D01*
X79319104Y-110808798D01*
X79315247Y-110812477D01*
X79315245Y-110812479D01*
X79282712Y-110843514D01*
X79149832Y-110970276D01*
X79146649Y-110974554D01*
X79128033Y-110999575D01*
X79010187Y-111157965D01*
X79007771Y-111162716D01*
X79007769Y-111162720D01*
X78920617Y-111334136D01*
X78904162Y-111366500D01*
X78834790Y-111589917D01*
X78834089Y-111595204D01*
X78834089Y-111595205D01*
X78805598Y-111810168D01*
X78804052Y-111821829D01*
X78804252Y-111827158D01*
X78804252Y-111827160D01*
X78806625Y-111890364D01*
X78812828Y-112055604D01*
X78860868Y-112284559D01*
X78946797Y-112502146D01*
X79068159Y-112702144D01*
X79071656Y-112706174D01*
X79097841Y-112736350D01*
X79127380Y-112800910D01*
X79117326Y-112871191D01*
X79091770Y-112908026D01*
X78843671Y-113156124D01*
X78597342Y-113402453D01*
X78589063Y-113409987D01*
X78582582Y-113414100D01*
X78550998Y-113447734D01*
X78535957Y-113463751D01*
X78533202Y-113466593D01*
X78513465Y-113486330D01*
X78510985Y-113489527D01*
X78503282Y-113498547D01*
X78473014Y-113530779D01*
X78469195Y-113537725D01*
X78469193Y-113537728D01*
X78463252Y-113548534D01*
X78452401Y-113565053D01*
X78439986Y-113581059D01*
X78436841Y-113588328D01*
X78436838Y-113588332D01*
X78422426Y-113621637D01*
X78417209Y-113632287D01*
X78395905Y-113671040D01*
X78393934Y-113678715D01*
X78393934Y-113678716D01*
X78390867Y-113690662D01*
X78384463Y-113709366D01*
X78376419Y-113727955D01*
X78375180Y-113735778D01*
X78375177Y-113735788D01*
X78369501Y-113771624D01*
X78367095Y-113783244D01*
X78356100Y-113826070D01*
X78356100Y-113846324D01*
X78354549Y-113866034D01*
X78351380Y-113886043D01*
X77343000Y-113886043D01*
X77343000Y-109904328D01*
X77344500Y-109884943D01*
X77346805Y-109870142D01*
X77346805Y-109870139D01*
X77348186Y-109861270D01*
X77346350Y-109847231D01*
X77345675Y-109821011D01*
X77359421Y-109646346D01*
X77362514Y-109626818D01*
X77380747Y-109550872D01*
X77409060Y-109432941D01*
X77415169Y-109414141D01*
X77416597Y-109410694D01*
X77491471Y-109229933D01*
X77500445Y-109212322D01*
X77604626Y-109042315D01*
X77616241Y-109026327D01*
X77745734Y-108874710D01*
X77759712Y-108860732D01*
X77767875Y-108853760D01*
X77911327Y-108731241D01*
X77927315Y-108719626D01*
X78097322Y-108615445D01*
X78114933Y-108606471D01*
X78299146Y-108530167D01*
X78317941Y-108524060D01*
X78511819Y-108477514D01*
X78531347Y-108474421D01*
X78699013Y-108461226D01*
X78715881Y-108461867D01*
X78715883Y-108461695D01*
X78724859Y-108461805D01*
X78733730Y-108463186D01*
X78742632Y-108462022D01*
X78742635Y-108462022D01*
X78765251Y-108459064D01*
X78781589Y-108458000D01*
X121592255Y-108458000D01*
X121660376Y-108478002D01*
G37*
G04 #@! TD.AperFunction*
G04 #@! TA.AperFunction,Conductor*
G36*
X163868117Y-124859502D02*
G01*
X163903209Y-124893229D01*
X163914744Y-124909702D01*
X163996023Y-125025781D01*
X164153219Y-125182977D01*
X164157727Y-125186134D01*
X164157730Y-125186136D01*
X164233495Y-125239187D01*
X164335323Y-125310488D01*
X164340305Y-125312811D01*
X164340310Y-125312814D01*
X164531822Y-125402117D01*
X164536804Y-125404440D01*
X164542112Y-125405862D01*
X164542114Y-125405863D01*
X164578416Y-125415590D01*
X164751537Y-125461978D01*
X164973000Y-125481353D01*
X165194463Y-125461978D01*
X165199776Y-125460554D01*
X165199784Y-125460553D01*
X165278088Y-125439571D01*
X165349065Y-125441260D01*
X165407861Y-125481054D01*
X165435809Y-125546318D01*
X165436700Y-125561277D01*
X165436700Y-127981897D01*
X165416698Y-128050018D01*
X165399795Y-128070992D01*
X163952492Y-129518295D01*
X163890180Y-129552321D01*
X163863397Y-129555200D01*
X146316017Y-129555200D01*
X146296308Y-129553649D01*
X146282410Y-129551448D01*
X146275823Y-129551793D01*
X146275818Y-129551793D01*
X146214119Y-129555027D01*
X146207525Y-129555200D01*
X146186990Y-129555200D01*
X146180822Y-129555848D01*
X146166560Y-129557347D01*
X146159985Y-129557864D01*
X146098296Y-129561097D01*
X146098295Y-129561097D01*
X146091696Y-129561443D01*
X146078108Y-129565084D01*
X146058661Y-129568688D01*
X146051244Y-129569467D01*
X146051240Y-129569468D01*
X146044672Y-129570158D01*
X145987876Y-129588612D01*
X145979609Y-129591298D01*
X145973285Y-129593171D01*
X145913610Y-129609161D01*
X145913606Y-129609162D01*
X145907230Y-129610871D01*
X145901348Y-129613868D01*
X145894693Y-129617259D01*
X145876426Y-129624825D01*
X145869328Y-129627131D01*
X145869326Y-129627132D01*
X145863044Y-129629173D01*
X145857322Y-129632476D01*
X145857321Y-129632477D01*
X145803818Y-129663367D01*
X145798023Y-129666514D01*
X145737070Y-129697571D01*
X145731942Y-129701724D01*
X145731940Y-129701725D01*
X145726134Y-129706427D01*
X145709837Y-129717627D01*
X145703376Y-129721357D01*
X145703372Y-129721360D01*
X145697656Y-129724660D01*
X145692750Y-129729077D01*
X145692745Y-129729081D01*
X145646831Y-129770422D01*
X145641816Y-129774706D01*
X145633318Y-129781588D01*
X145625859Y-129787628D01*
X145611344Y-129802143D01*
X145606559Y-129806684D01*
X145555734Y-129852447D01*
X145551855Y-129857786D01*
X145551854Y-129857787D01*
X145547460Y-129863835D01*
X145534619Y-129878868D01*
X144756798Y-130656689D01*
X144694486Y-130690715D01*
X144623671Y-130685650D01*
X144592138Y-130668420D01*
X144576485Y-130656689D01*
X144518705Y-130613385D01*
X144382316Y-130562255D01*
X144320134Y-130555500D01*
X142699866Y-130555500D01*
X142637684Y-130562255D01*
X142501295Y-130613385D01*
X142384739Y-130700739D01*
X142297385Y-130817295D01*
X142246255Y-130953684D01*
X142239500Y-131015866D01*
X142239500Y-131037515D01*
X142219498Y-131105636D01*
X142165842Y-131152129D01*
X142095568Y-131162233D01*
X142034828Y-131135936D01*
X142029729Y-131131860D01*
X142016282Y-131138928D01*
X141342022Y-131813188D01*
X141334408Y-131827132D01*
X141334539Y-131828965D01*
X141338790Y-131835580D01*
X142017003Y-132513793D01*
X142028777Y-132520223D01*
X142036399Y-132514326D01*
X142102517Y-132488463D01*
X142172122Y-132502451D01*
X142223115Y-132551850D01*
X142239500Y-132613983D01*
X142239500Y-132636134D01*
X142246255Y-132698316D01*
X142297385Y-132834705D01*
X142384739Y-132951261D01*
X142501295Y-133038615D01*
X142637684Y-133089745D01*
X142699866Y-133096500D01*
X144320134Y-133096500D01*
X144382316Y-133089745D01*
X144518705Y-133038615D01*
X144635261Y-132951261D01*
X144685088Y-132884777D01*
X146498777Y-132884777D01*
X146508074Y-132896793D01*
X146551069Y-132926898D01*
X146560555Y-132932376D01*
X146751993Y-133021645D01*
X146762285Y-133025391D01*
X146966309Y-133080059D01*
X146977104Y-133081962D01*
X147187525Y-133100372D01*
X147198475Y-133100372D01*
X147408896Y-133081962D01*
X147419691Y-133080059D01*
X147623715Y-133025391D01*
X147634007Y-133021645D01*
X147825445Y-132932376D01*
X147834931Y-132926898D01*
X147878764Y-132896207D01*
X147887139Y-132885729D01*
X147880071Y-132872281D01*
X147205812Y-132198022D01*
X147191868Y-132190408D01*
X147190035Y-132190539D01*
X147183420Y-132194790D01*
X146505207Y-132873003D01*
X146498777Y-132884777D01*
X144685088Y-132884777D01*
X144717233Y-132841887D01*
X144717235Y-132841884D01*
X144722615Y-132834705D01*
X144728486Y-132819044D01*
X144771127Y-132762279D01*
X144839873Y-132737446D01*
X144881756Y-132735251D01*
X144892781Y-132734673D01*
X144899374Y-132734500D01*
X144919910Y-132734500D01*
X144923182Y-132734156D01*
X144923184Y-132734156D01*
X144940342Y-132732353D01*
X144946916Y-132731836D01*
X145008608Y-132728603D01*
X145008612Y-132728602D01*
X145015203Y-132728257D01*
X145021584Y-132726547D01*
X145021586Y-132726547D01*
X145028791Y-132724617D01*
X145048225Y-132721015D01*
X145055654Y-132720234D01*
X145055663Y-132720232D01*
X145062228Y-132719542D01*
X145127297Y-132698400D01*
X145133599Y-132696533D01*
X145199670Y-132678829D01*
X145212208Y-132672440D01*
X145230474Y-132664875D01*
X145237572Y-132662569D01*
X145237574Y-132662568D01*
X145243856Y-132660527D01*
X145303085Y-132626331D01*
X145308879Y-132623185D01*
X145369830Y-132592129D01*
X145380767Y-132583273D01*
X145397063Y-132572073D01*
X145403524Y-132568343D01*
X145403528Y-132568340D01*
X145409244Y-132565040D01*
X145414150Y-132560623D01*
X145414155Y-132560619D01*
X145460069Y-132519278D01*
X145465084Y-132514994D01*
X145478477Y-132504148D01*
X145481041Y-132502072D01*
X145495556Y-132487557D01*
X145500341Y-132483016D01*
X145508601Y-132475579D01*
X145551166Y-132437253D01*
X145559440Y-132425865D01*
X145572281Y-132410832D01*
X145782823Y-132200290D01*
X145845135Y-132166264D01*
X145915950Y-132171329D01*
X145972786Y-132213876D01*
X145991180Y-132251740D01*
X145991726Y-132251541D01*
X145997355Y-132267007D01*
X146086623Y-132458441D01*
X146092103Y-132467932D01*
X146122794Y-132511765D01*
X146133271Y-132520140D01*
X146146718Y-132513072D01*
X147103905Y-131555885D01*
X147166217Y-131521859D01*
X147237032Y-131526924D01*
X147282095Y-131555885D01*
X148240003Y-132513793D01*
X148251777Y-132520223D01*
X148263793Y-132510926D01*
X148293897Y-132467932D01*
X148299377Y-132458441D01*
X148348529Y-132353035D01*
X148395447Y-132299750D01*
X148463724Y-132280289D01*
X148531684Y-132300831D01*
X148576919Y-132353035D01*
X148626186Y-132458689D01*
X148626189Y-132458694D01*
X148628512Y-132463676D01*
X148631668Y-132468183D01*
X148631669Y-132468185D01*
X148752318Y-132640489D01*
X148756023Y-132645781D01*
X148913219Y-132802977D01*
X148917727Y-132806134D01*
X148917730Y-132806136D01*
X148936165Y-132819044D01*
X149095323Y-132930488D01*
X149100305Y-132932811D01*
X149100310Y-132932814D01*
X149237165Y-132996630D01*
X149296804Y-133024440D01*
X149302112Y-133025862D01*
X149302114Y-133025863D01*
X149322788Y-133031402D01*
X149363240Y-133042242D01*
X149423862Y-133079193D01*
X149454883Y-133143053D01*
X149446455Y-133213548D01*
X149419723Y-133253043D01*
X147158621Y-135514145D01*
X147148478Y-135523247D01*
X147118975Y-135546968D01*
X147115008Y-135551696D01*
X147086709Y-135585421D01*
X147083528Y-135589069D01*
X147081885Y-135590881D01*
X147079691Y-135593075D01*
X147052358Y-135626349D01*
X147051696Y-135627147D01*
X146991846Y-135698474D01*
X146989278Y-135703144D01*
X146985897Y-135707261D01*
X146954860Y-135765145D01*
X146942023Y-135789086D01*
X146941394Y-135790245D01*
X146899538Y-135866381D01*
X146899535Y-135866389D01*
X146896567Y-135871787D01*
X146894955Y-135876869D01*
X146892438Y-135881563D01*
X146865238Y-135970531D01*
X146864918Y-135971559D01*
X146836765Y-136060306D01*
X146836171Y-136065602D01*
X146834613Y-136070698D01*
X146831065Y-136105631D01*
X146825218Y-136163187D01*
X146825089Y-136164393D01*
X146819500Y-136214227D01*
X146819500Y-136217754D01*
X146819445Y-136218739D01*
X146818998Y-136224419D01*
X146817872Y-136235510D01*
X146815390Y-136259945D01*
X146814626Y-136267462D01*
X146817190Y-136294585D01*
X146818941Y-136313109D01*
X146819500Y-136324967D01*
X146819500Y-138485757D01*
X146799498Y-138553878D01*
X146790936Y-138565646D01*
X146687835Y-138691386D01*
X146636624Y-138781350D01*
X146582062Y-138877202D01*
X146572104Y-138894695D01*
X146492284Y-139114596D01*
X146491335Y-139119845D01*
X146491334Y-139119848D01*
X146488751Y-139134134D01*
X146450656Y-139344803D01*
X146449500Y-139369316D01*
X146449500Y-139983738D01*
X146455262Y-140051641D01*
X146463036Y-140143262D01*
X146464295Y-140158102D01*
X146465633Y-140163259D01*
X146465634Y-140163262D01*
X146519140Y-140369409D01*
X146523067Y-140384540D01*
X146525259Y-140389406D01*
X146525260Y-140389409D01*
X146582560Y-140516609D01*
X146619150Y-140597837D01*
X146622134Y-140602270D01*
X146622135Y-140602271D01*
X146630234Y-140614301D01*
X146749798Y-140791896D01*
X146911276Y-140961168D01*
X146915554Y-140964351D01*
X146948275Y-140988696D01*
X147098965Y-141100813D01*
X147103716Y-141103229D01*
X147103720Y-141103231D01*
X147301163Y-141203616D01*
X147307500Y-141206838D01*
X147530917Y-141276210D01*
X147536204Y-141276911D01*
X147536205Y-141276911D01*
X147757545Y-141306248D01*
X147757549Y-141306248D01*
X147762829Y-141306948D01*
X147768158Y-141306748D01*
X147768160Y-141306748D01*
X147879716Y-141302560D01*
X147996604Y-141298172D01*
X148090969Y-141278372D01*
X148220332Y-141251229D01*
X148220335Y-141251228D01*
X148225559Y-141250132D01*
X148443146Y-141164203D01*
X148564092Y-141090811D01*
X148638583Y-141045609D01*
X148638586Y-141045607D01*
X148643144Y-141042841D01*
X148819834Y-140889517D01*
X148968165Y-140708614D01*
X148970801Y-140703984D01*
X148970804Y-140703979D01*
X148989301Y-140671484D01*
X149040384Y-140622178D01*
X149110015Y-140608317D01*
X149176085Y-140634301D01*
X149203323Y-140663450D01*
X149289798Y-140791896D01*
X149451276Y-140961168D01*
X149455554Y-140964351D01*
X149488275Y-140988696D01*
X149638965Y-141100813D01*
X149643716Y-141103229D01*
X149643720Y-141103231D01*
X149841163Y-141203616D01*
X149847500Y-141206838D01*
X150070917Y-141276210D01*
X150076204Y-141276911D01*
X150076205Y-141276911D01*
X150297545Y-141306248D01*
X150297549Y-141306248D01*
X150302829Y-141306948D01*
X150308158Y-141306748D01*
X150308160Y-141306748D01*
X150419716Y-141302560D01*
X150536604Y-141298172D01*
X150630969Y-141278372D01*
X150760332Y-141251229D01*
X150760335Y-141251228D01*
X150765559Y-141250132D01*
X150983146Y-141164203D01*
X151104092Y-141090811D01*
X151178583Y-141045609D01*
X151178586Y-141045607D01*
X151183144Y-141042841D01*
X151359834Y-140889517D01*
X151508165Y-140708614D01*
X151510801Y-140703984D01*
X151510804Y-140703979D01*
X151529301Y-140671484D01*
X151580384Y-140622178D01*
X151650015Y-140608317D01*
X151716085Y-140634301D01*
X151743323Y-140663450D01*
X151829798Y-140791896D01*
X151991276Y-140961168D01*
X151995554Y-140964351D01*
X152028275Y-140988696D01*
X152178965Y-141100813D01*
X152183716Y-141103229D01*
X152183720Y-141103231D01*
X152381163Y-141203616D01*
X152387500Y-141206838D01*
X152610917Y-141276210D01*
X152616204Y-141276911D01*
X152616205Y-141276911D01*
X152837545Y-141306248D01*
X152837549Y-141306248D01*
X152842829Y-141306948D01*
X152848158Y-141306748D01*
X152848160Y-141306748D01*
X152959716Y-141302560D01*
X153076604Y-141298172D01*
X153170969Y-141278372D01*
X153300332Y-141251229D01*
X153300335Y-141251228D01*
X153305559Y-141250132D01*
X153523146Y-141164203D01*
X153644092Y-141090811D01*
X153718583Y-141045609D01*
X153718586Y-141045607D01*
X153723144Y-141042841D01*
X153899834Y-140889517D01*
X153930408Y-140852229D01*
X153989067Y-140812236D01*
X154060038Y-140810305D01*
X154120786Y-140847050D01*
X154135733Y-140869390D01*
X154136450Y-140868946D01*
X154229522Y-141019348D01*
X154354697Y-141144305D01*
X154360927Y-141148145D01*
X154360928Y-141148146D01*
X154498090Y-141232694D01*
X154505262Y-141237115D01*
X154577614Y-141261113D01*
X154666611Y-141290632D01*
X154666613Y-141290632D01*
X154673139Y-141292797D01*
X154679975Y-141293497D01*
X154679978Y-141293498D01*
X154723031Y-141297909D01*
X154777600Y-141303500D01*
X156118400Y-141303500D01*
X156121646Y-141303163D01*
X156121650Y-141303163D01*
X156217308Y-141293238D01*
X156217312Y-141293237D01*
X156224166Y-141292526D01*
X156230702Y-141290345D01*
X156230704Y-141290345D01*
X156371636Y-141243326D01*
X156391946Y-141236550D01*
X156542348Y-141143478D01*
X156667305Y-141018303D01*
X156671146Y-141012072D01*
X156756275Y-140873968D01*
X156756276Y-140873966D01*
X156760115Y-140867738D01*
X156815797Y-140699861D01*
X156816950Y-140688614D01*
X156823756Y-140622178D01*
X156826500Y-140595400D01*
X156826500Y-139832703D01*
X161720743Y-139832703D01*
X161721302Y-139836947D01*
X161721302Y-139836951D01*
X161723084Y-139850488D01*
X161758268Y-140117734D01*
X161834129Y-140395036D01*
X161835813Y-140398984D01*
X161938385Y-140639458D01*
X161946923Y-140659476D01*
X162011556Y-140767469D01*
X162086769Y-140893141D01*
X162094561Y-140906161D01*
X162274313Y-141130528D01*
X162351332Y-141203616D01*
X162456588Y-141303500D01*
X162482851Y-141328423D01*
X162716317Y-141496186D01*
X162720112Y-141498195D01*
X162720113Y-141498196D01*
X162741869Y-141509715D01*
X162970392Y-141630712D01*
X162994699Y-141639607D01*
X163182253Y-141708242D01*
X163240373Y-141729511D01*
X163521264Y-141790755D01*
X163549841Y-141793004D01*
X163744282Y-141808307D01*
X163744291Y-141808307D01*
X163746739Y-141808500D01*
X163902271Y-141808500D01*
X163904407Y-141808354D01*
X163904418Y-141808354D01*
X164112548Y-141794165D01*
X164112554Y-141794164D01*
X164116825Y-141793873D01*
X164121020Y-141793004D01*
X164121022Y-141793004D01*
X164280895Y-141759896D01*
X164398342Y-141735574D01*
X164669343Y-141639607D01*
X164877309Y-141532268D01*
X164921005Y-141509715D01*
X164921006Y-141509715D01*
X164924812Y-141507750D01*
X164928313Y-141505289D01*
X164928317Y-141505287D01*
X165093230Y-141389384D01*
X165160023Y-141342441D01*
X165275397Y-141235229D01*
X165367479Y-141149661D01*
X165367481Y-141149658D01*
X165370622Y-141146740D01*
X165552713Y-140924268D01*
X165694421Y-140693022D01*
X165700686Y-140682799D01*
X165702927Y-140679142D01*
X165705614Y-140673022D01*
X165816757Y-140419830D01*
X165818483Y-140415898D01*
X165897244Y-140139406D01*
X165937751Y-139854784D01*
X165937828Y-139840197D01*
X165939235Y-139571583D01*
X165939235Y-139571576D01*
X165939257Y-139567297D01*
X165901732Y-139282266D01*
X165898569Y-139270702D01*
X165867003Y-139155318D01*
X165825871Y-139004964D01*
X165776858Y-138890055D01*
X165714763Y-138744476D01*
X165714761Y-138744472D01*
X165713077Y-138740524D01*
X165624111Y-138591873D01*
X165567643Y-138497521D01*
X165567640Y-138497517D01*
X165565439Y-138493839D01*
X165385687Y-138269472D01*
X165212762Y-138105372D01*
X165180258Y-138074527D01*
X165180255Y-138074525D01*
X165177149Y-138071577D01*
X164943683Y-137903814D01*
X164924202Y-137893499D01*
X164898654Y-137879972D01*
X164689608Y-137769288D01*
X164419627Y-137670489D01*
X164138736Y-137609245D01*
X164107685Y-137606801D01*
X163915718Y-137591693D01*
X163915709Y-137591693D01*
X163913261Y-137591500D01*
X163757729Y-137591500D01*
X163755593Y-137591646D01*
X163755582Y-137591646D01*
X163547452Y-137605835D01*
X163547446Y-137605836D01*
X163543175Y-137606127D01*
X163538980Y-137606996D01*
X163538978Y-137606996D01*
X163485156Y-137618142D01*
X163261658Y-137664426D01*
X162990657Y-137760393D01*
X162735188Y-137892250D01*
X162731687Y-137894711D01*
X162731683Y-137894713D01*
X162680900Y-137930404D01*
X162499977Y-138057559D01*
X162465438Y-138089655D01*
X162298633Y-138244660D01*
X162289378Y-138253260D01*
X162107287Y-138475732D01*
X161957073Y-138720858D01*
X161955347Y-138724791D01*
X161955346Y-138724792D01*
X161909282Y-138829729D01*
X161841517Y-138984102D01*
X161840342Y-138988229D01*
X161840341Y-138988230D01*
X161832222Y-139016731D01*
X161762756Y-139260594D01*
X161722249Y-139545216D01*
X161722227Y-139549505D01*
X161722226Y-139549512D01*
X161720765Y-139828417D01*
X161720743Y-139832703D01*
X156826500Y-139832703D01*
X156826500Y-139799925D01*
X156846502Y-139731804D01*
X156863405Y-139710830D01*
X160562379Y-136011855D01*
X160572522Y-136002753D01*
X160597218Y-135982897D01*
X160602025Y-135979032D01*
X160634320Y-135940544D01*
X160637478Y-135936925D01*
X160639124Y-135935110D01*
X160641309Y-135932925D01*
X160643264Y-135930545D01*
X160643273Y-135930535D01*
X160668549Y-135899764D01*
X160669391Y-135898749D01*
X160725194Y-135832245D01*
X160729154Y-135827526D01*
X160731723Y-135822852D01*
X160735102Y-135818739D01*
X160778975Y-135736915D01*
X160779584Y-135735793D01*
X160821464Y-135659614D01*
X160821465Y-135659612D01*
X160824433Y-135654213D01*
X160826045Y-135649131D01*
X160828562Y-135644437D01*
X160855762Y-135555469D01*
X160856108Y-135554358D01*
X160856953Y-135551696D01*
X160884235Y-135465694D01*
X160884829Y-135460398D01*
X160886387Y-135455302D01*
X160895790Y-135362743D01*
X160895911Y-135361607D01*
X160901500Y-135311773D01*
X160901500Y-135308246D01*
X160901555Y-135307261D01*
X160902002Y-135301581D01*
X160906374Y-135258538D01*
X160902059Y-135212891D01*
X160901500Y-135201033D01*
X160901500Y-132884777D01*
X161738777Y-132884777D01*
X161748074Y-132896793D01*
X161791069Y-132926898D01*
X161800555Y-132932376D01*
X161991993Y-133021645D01*
X162002285Y-133025391D01*
X162206309Y-133080059D01*
X162217104Y-133081962D01*
X162427525Y-133100372D01*
X162438475Y-133100372D01*
X162648896Y-133081962D01*
X162659691Y-133080059D01*
X162863715Y-133025391D01*
X162874007Y-133021645D01*
X163065445Y-132932376D01*
X163074931Y-132926898D01*
X163118764Y-132896207D01*
X163127139Y-132885729D01*
X163120071Y-132872281D01*
X162445812Y-132198022D01*
X162431868Y-132190408D01*
X162430035Y-132190539D01*
X162423420Y-132194790D01*
X161745207Y-132873003D01*
X161738777Y-132884777D01*
X160901500Y-132884777D01*
X160901500Y-132640489D01*
X160924287Y-132568218D01*
X160994331Y-132468185D01*
X160994332Y-132468183D01*
X160997488Y-132463676D01*
X160999811Y-132458694D01*
X160999814Y-132458689D01*
X161049081Y-132353035D01*
X161095999Y-132299750D01*
X161164276Y-132280289D01*
X161232236Y-132300831D01*
X161277471Y-132353035D01*
X161326623Y-132458441D01*
X161332103Y-132467932D01*
X161362794Y-132511765D01*
X161373271Y-132520140D01*
X161386718Y-132513072D01*
X162343905Y-131555885D01*
X162406217Y-131521859D01*
X162477032Y-131526924D01*
X162522095Y-131555885D01*
X163480003Y-132513793D01*
X163491777Y-132520223D01*
X163499399Y-132514326D01*
X163565517Y-132488463D01*
X163635122Y-132502451D01*
X163686115Y-132551850D01*
X163702500Y-132613983D01*
X163702500Y-132636134D01*
X163709255Y-132698316D01*
X163760385Y-132834705D01*
X163847739Y-132951261D01*
X163964295Y-133038615D01*
X164100684Y-133089745D01*
X164162866Y-133096500D01*
X165783134Y-133096500D01*
X165845316Y-133089745D01*
X165981705Y-133038615D01*
X166098261Y-132951261D01*
X166185615Y-132834705D01*
X166236745Y-132698316D01*
X166243500Y-132636134D01*
X166243500Y-131015866D01*
X166236745Y-130953684D01*
X166185615Y-130817295D01*
X166098261Y-130700739D01*
X165981705Y-130613385D01*
X165845316Y-130562255D01*
X165783134Y-130555500D01*
X165781639Y-130555500D01*
X165715047Y-130531969D01*
X165671521Y-130475880D01*
X165665230Y-130405162D01*
X165699701Y-130340712D01*
X166916905Y-129123508D01*
X166979217Y-129089482D01*
X167050032Y-129094547D01*
X167106868Y-129137094D01*
X167131679Y-129203614D01*
X167132000Y-129212603D01*
X167132000Y-140920672D01*
X167130500Y-140940056D01*
X167126814Y-140963730D01*
X167128941Y-140979999D01*
X167129734Y-141004567D01*
X167115156Y-141226985D01*
X167113005Y-141243326D01*
X167064371Y-141487824D01*
X167060105Y-141503743D01*
X166979978Y-141739790D01*
X166973671Y-141755017D01*
X166863416Y-141978592D01*
X166855175Y-141992865D01*
X166716684Y-142200133D01*
X166706651Y-142213210D01*
X166542286Y-142400632D01*
X166530632Y-142412286D01*
X166343210Y-142576651D01*
X166330133Y-142586684D01*
X166122865Y-142725175D01*
X166108592Y-142733416D01*
X165885017Y-142843671D01*
X165869790Y-142849978D01*
X165633743Y-142930105D01*
X165617824Y-142934371D01*
X165373327Y-142983005D01*
X165356986Y-142985156D01*
X165141732Y-142999264D01*
X165118696Y-142998239D01*
X165115146Y-142998196D01*
X165106270Y-142996814D01*
X165077762Y-143000542D01*
X165074749Y-143000936D01*
X165058411Y-143002000D01*
X118820471Y-143002000D01*
X118752350Y-142981998D01*
X118705857Y-142928342D01*
X118695753Y-142858068D01*
X118725247Y-142793488D01*
X118746409Y-142774065D01*
X118760592Y-142763761D01*
X118770507Y-142757248D01*
X118801735Y-142738780D01*
X118801738Y-142738778D01*
X118808562Y-142734742D01*
X118822883Y-142720421D01*
X118837917Y-142707580D01*
X118839632Y-142706334D01*
X118854307Y-142695672D01*
X118882498Y-142661595D01*
X118890488Y-142652816D01*
X121710601Y-139832703D01*
X124255743Y-139832703D01*
X124256302Y-139836947D01*
X124256302Y-139836951D01*
X124258084Y-139850488D01*
X124293268Y-140117734D01*
X124369129Y-140395036D01*
X124370813Y-140398984D01*
X124473385Y-140639458D01*
X124481923Y-140659476D01*
X124546556Y-140767469D01*
X124621769Y-140893141D01*
X124629561Y-140906161D01*
X124809313Y-141130528D01*
X124886332Y-141203616D01*
X124991588Y-141303500D01*
X125017851Y-141328423D01*
X125251317Y-141496186D01*
X125255112Y-141498195D01*
X125255113Y-141498196D01*
X125276869Y-141509715D01*
X125505392Y-141630712D01*
X125529699Y-141639607D01*
X125717253Y-141708242D01*
X125775373Y-141729511D01*
X126056264Y-141790755D01*
X126084841Y-141793004D01*
X126279282Y-141808307D01*
X126279291Y-141808307D01*
X126281739Y-141808500D01*
X126437271Y-141808500D01*
X126439407Y-141808354D01*
X126439418Y-141808354D01*
X126647548Y-141794165D01*
X126647554Y-141794164D01*
X126651825Y-141793873D01*
X126656020Y-141793004D01*
X126656022Y-141793004D01*
X126815895Y-141759896D01*
X126933342Y-141735574D01*
X127204343Y-141639607D01*
X127412309Y-141532268D01*
X127456005Y-141509715D01*
X127456006Y-141509715D01*
X127459812Y-141507750D01*
X127463313Y-141505289D01*
X127463317Y-141505287D01*
X127628230Y-141389384D01*
X127695023Y-141342441D01*
X127810397Y-141235229D01*
X127902479Y-141149661D01*
X127902481Y-141149658D01*
X127905622Y-141146740D01*
X128087713Y-140924268D01*
X128229421Y-140693022D01*
X128235686Y-140682799D01*
X128237927Y-140679142D01*
X128240614Y-140673022D01*
X128351757Y-140419830D01*
X128353483Y-140415898D01*
X128432244Y-140139406D01*
X128457245Y-139963738D01*
X134003500Y-139963738D01*
X134004971Y-139981078D01*
X134016567Y-140117734D01*
X134018295Y-140138102D01*
X134019633Y-140143259D01*
X134019634Y-140143262D01*
X134022108Y-140152791D01*
X134077067Y-140364540D01*
X134079259Y-140369406D01*
X134079260Y-140369409D01*
X134138044Y-140499905D01*
X134173150Y-140577837D01*
X134176134Y-140582270D01*
X134176135Y-140582271D01*
X134180665Y-140589000D01*
X134303798Y-140771896D01*
X134307477Y-140775753D01*
X134307479Y-140775755D01*
X134356412Y-140827050D01*
X134465276Y-140941168D01*
X134469554Y-140944351D01*
X134492157Y-140961168D01*
X134652965Y-141080813D01*
X134657716Y-141083229D01*
X134657720Y-141083231D01*
X134811534Y-141161434D01*
X134861500Y-141186838D01*
X135084917Y-141256210D01*
X135090204Y-141256911D01*
X135090205Y-141256911D01*
X135311545Y-141286248D01*
X135311549Y-141286248D01*
X135316829Y-141286948D01*
X135322158Y-141286748D01*
X135322160Y-141286748D01*
X135433717Y-141282560D01*
X135550604Y-141278172D01*
X135662813Y-141254628D01*
X135774332Y-141231229D01*
X135774335Y-141231228D01*
X135779559Y-141230132D01*
X135997146Y-141144203D01*
X136169955Y-141039340D01*
X136192583Y-141025609D01*
X136192586Y-141025607D01*
X136197144Y-141022841D01*
X136373834Y-140869517D01*
X136522165Y-140688614D01*
X136524801Y-140683984D01*
X136524804Y-140683979D01*
X136543301Y-140651484D01*
X136594384Y-140602178D01*
X136664015Y-140588317D01*
X136730085Y-140614301D01*
X136757323Y-140643450D01*
X136770595Y-140663163D01*
X136843798Y-140771896D01*
X136847477Y-140775753D01*
X136847479Y-140775755D01*
X136896412Y-140827050D01*
X137005276Y-140941168D01*
X137009554Y-140944351D01*
X137032157Y-140961168D01*
X137192965Y-141080813D01*
X137197716Y-141083229D01*
X137197720Y-141083231D01*
X137351534Y-141161434D01*
X137401500Y-141186838D01*
X137624917Y-141256210D01*
X137630204Y-141256911D01*
X137630205Y-141256911D01*
X137851545Y-141286248D01*
X137851549Y-141286248D01*
X137856829Y-141286948D01*
X137862158Y-141286748D01*
X137862160Y-141286748D01*
X137973717Y-141282560D01*
X138090604Y-141278172D01*
X138202813Y-141254628D01*
X138314332Y-141231229D01*
X138314335Y-141231228D01*
X138319559Y-141230132D01*
X138537146Y-141144203D01*
X138709955Y-141039340D01*
X138732583Y-141025609D01*
X138732586Y-141025607D01*
X138737144Y-141022841D01*
X138913834Y-140869517D01*
X139062165Y-140688614D01*
X139064801Y-140683984D01*
X139064804Y-140683979D01*
X139083301Y-140651484D01*
X139134384Y-140602178D01*
X139204015Y-140588317D01*
X139270085Y-140614301D01*
X139297323Y-140643450D01*
X139310595Y-140663163D01*
X139383798Y-140771896D01*
X139387477Y-140775753D01*
X139387479Y-140775755D01*
X139436412Y-140827050D01*
X139545276Y-140941168D01*
X139549554Y-140944351D01*
X139572157Y-140961168D01*
X139732965Y-141080813D01*
X139737716Y-141083229D01*
X139737720Y-141083231D01*
X139891534Y-141161434D01*
X139941500Y-141186838D01*
X140164917Y-141256210D01*
X140170204Y-141256911D01*
X140170205Y-141256911D01*
X140391545Y-141286248D01*
X140391549Y-141286248D01*
X140396829Y-141286948D01*
X140402158Y-141286748D01*
X140402160Y-141286748D01*
X140513717Y-141282560D01*
X140630604Y-141278172D01*
X140742813Y-141254628D01*
X140854332Y-141231229D01*
X140854335Y-141231228D01*
X140859559Y-141230132D01*
X141077146Y-141144203D01*
X141249955Y-141039340D01*
X141272583Y-141025609D01*
X141272586Y-141025607D01*
X141277144Y-141022841D01*
X141453834Y-140869517D01*
X141484408Y-140832229D01*
X141543067Y-140792236D01*
X141614038Y-140790305D01*
X141674786Y-140827050D01*
X141689733Y-140849390D01*
X141690450Y-140848946D01*
X141783522Y-140999348D01*
X141908697Y-141124305D01*
X141914927Y-141128145D01*
X141914928Y-141128146D01*
X142052090Y-141212694D01*
X142059262Y-141217115D01*
X142124846Y-141238868D01*
X142220611Y-141270632D01*
X142220613Y-141270632D01*
X142227139Y-141272797D01*
X142233975Y-141273497D01*
X142233978Y-141273498D01*
X142277031Y-141277909D01*
X142331600Y-141283500D01*
X143672400Y-141283500D01*
X143675646Y-141283163D01*
X143675650Y-141283163D01*
X143771308Y-141273238D01*
X143771312Y-141273237D01*
X143778166Y-141272526D01*
X143784702Y-141270345D01*
X143784704Y-141270345D01*
X143916806Y-141226272D01*
X143945946Y-141216550D01*
X144096348Y-141123478D01*
X144143065Y-141076680D01*
X144216134Y-141003483D01*
X144221305Y-140998303D01*
X144232593Y-140979991D01*
X144310275Y-140853968D01*
X144310276Y-140853966D01*
X144314115Y-140847738D01*
X144360998Y-140706389D01*
X144367632Y-140686389D01*
X144367632Y-140686387D01*
X144369797Y-140679861D01*
X144370656Y-140671484D01*
X144378780Y-140592183D01*
X144380500Y-140575400D01*
X144380500Y-138784600D01*
X144379160Y-138771683D01*
X144370238Y-138685692D01*
X144370237Y-138685688D01*
X144369526Y-138678834D01*
X144365665Y-138667259D01*
X144315868Y-138518002D01*
X144313550Y-138511054D01*
X144220478Y-138360652D01*
X144095303Y-138235695D01*
X144048500Y-138206845D01*
X143950968Y-138146725D01*
X143950966Y-138146724D01*
X143944738Y-138142885D01*
X143784254Y-138089655D01*
X143783389Y-138089368D01*
X143783387Y-138089368D01*
X143776861Y-138087203D01*
X143770025Y-138086503D01*
X143770022Y-138086502D01*
X143722449Y-138081628D01*
X143672400Y-138076500D01*
X142331600Y-138076500D01*
X142328354Y-138076837D01*
X142328350Y-138076837D01*
X142232692Y-138086762D01*
X142232688Y-138086763D01*
X142225834Y-138087474D01*
X142219298Y-138089655D01*
X142219296Y-138089655D01*
X142113481Y-138124958D01*
X142058054Y-138143450D01*
X141907652Y-138236522D01*
X141902479Y-138241704D01*
X141891534Y-138252668D01*
X141782695Y-138361697D01*
X141778855Y-138367927D01*
X141778854Y-138367928D01*
X141710150Y-138479386D01*
X141689885Y-138512262D01*
X141687738Y-138510938D01*
X141648688Y-138555290D01*
X141580411Y-138574752D01*
X141512451Y-138554212D01*
X141490239Y-138535728D01*
X141382410Y-138422694D01*
X141382398Y-138422684D01*
X141378724Y-138418832D01*
X141191035Y-138279187D01*
X141186284Y-138276771D01*
X141186280Y-138276769D01*
X140987256Y-138175580D01*
X140987255Y-138175580D01*
X140982500Y-138173162D01*
X140759083Y-138103790D01*
X140753796Y-138103089D01*
X140753795Y-138103089D01*
X140532455Y-138073752D01*
X140532451Y-138073752D01*
X140527171Y-138073052D01*
X140521842Y-138073252D01*
X140521840Y-138073252D01*
X140426346Y-138076837D01*
X140293396Y-138081828D01*
X140223470Y-138096500D01*
X140069668Y-138128771D01*
X140069665Y-138128772D01*
X140064441Y-138129868D01*
X139846854Y-138215797D01*
X139842290Y-138218566D01*
X139842291Y-138218566D01*
X139651417Y-138334391D01*
X139651414Y-138334393D01*
X139646856Y-138337159D01*
X139470166Y-138490483D01*
X139321835Y-138671386D01*
X139319199Y-138676016D01*
X139319196Y-138676021D01*
X139300699Y-138708516D01*
X139249616Y-138757822D01*
X139179985Y-138771683D01*
X139113915Y-138745699D01*
X139086677Y-138716550D01*
X139048738Y-138660198D01*
X139000202Y-138588104D01*
X138838724Y-138418832D01*
X138651035Y-138279187D01*
X138646284Y-138276771D01*
X138646280Y-138276769D01*
X138447256Y-138175580D01*
X138447255Y-138175580D01*
X138442500Y-138173162D01*
X138219083Y-138103790D01*
X138213796Y-138103089D01*
X138213795Y-138103089D01*
X137992455Y-138073752D01*
X137992451Y-138073752D01*
X137987171Y-138073052D01*
X137981842Y-138073252D01*
X137981840Y-138073252D01*
X137886346Y-138076837D01*
X137753396Y-138081828D01*
X137683470Y-138096500D01*
X137529668Y-138128771D01*
X137529665Y-138128772D01*
X137524441Y-138129868D01*
X137306854Y-138215797D01*
X137302290Y-138218566D01*
X137302291Y-138218566D01*
X137111417Y-138334391D01*
X137111414Y-138334393D01*
X137106856Y-138337159D01*
X136930166Y-138490483D01*
X136781835Y-138671386D01*
X136779199Y-138676016D01*
X136779196Y-138676021D01*
X136760699Y-138708516D01*
X136709616Y-138757822D01*
X136639985Y-138771683D01*
X136573915Y-138745699D01*
X136546677Y-138716550D01*
X136508738Y-138660198D01*
X136460202Y-138588104D01*
X136298724Y-138418832D01*
X136111035Y-138279187D01*
X136106284Y-138276771D01*
X136106280Y-138276769D01*
X135907256Y-138175580D01*
X135907255Y-138175580D01*
X135902500Y-138173162D01*
X135679083Y-138103790D01*
X135673796Y-138103089D01*
X135673795Y-138103089D01*
X135452455Y-138073752D01*
X135452451Y-138073752D01*
X135447171Y-138073052D01*
X135441842Y-138073252D01*
X135441840Y-138073252D01*
X135346346Y-138076837D01*
X135213396Y-138081828D01*
X135143470Y-138096500D01*
X134989668Y-138128771D01*
X134989665Y-138128772D01*
X134984441Y-138129868D01*
X134766854Y-138215797D01*
X134762290Y-138218566D01*
X134762291Y-138218566D01*
X134571417Y-138334391D01*
X134571414Y-138334393D01*
X134566856Y-138337159D01*
X134390166Y-138490483D01*
X134241835Y-138671386D01*
X134126104Y-138874695D01*
X134046284Y-139094596D01*
X134045335Y-139099845D01*
X134045334Y-139099848D01*
X134035444Y-139154541D01*
X134004656Y-139324803D01*
X134004461Y-139328942D01*
X134004460Y-139328949D01*
X134004187Y-139334747D01*
X134003500Y-139349316D01*
X134003500Y-139963738D01*
X128457245Y-139963738D01*
X128472751Y-139854784D01*
X128472828Y-139840197D01*
X128474235Y-139571583D01*
X128474235Y-139571576D01*
X128474257Y-139567297D01*
X128436732Y-139282266D01*
X128433569Y-139270702D01*
X128402003Y-139155318D01*
X128360871Y-139004964D01*
X128311858Y-138890055D01*
X128249763Y-138744476D01*
X128249761Y-138744472D01*
X128248077Y-138740524D01*
X128159111Y-138591873D01*
X128102643Y-138497521D01*
X128102640Y-138497517D01*
X128100439Y-138493839D01*
X127920687Y-138269472D01*
X127747762Y-138105372D01*
X127715258Y-138074527D01*
X127715255Y-138074525D01*
X127712149Y-138071577D01*
X127478683Y-137903814D01*
X127459202Y-137893499D01*
X127433654Y-137879972D01*
X127224608Y-137769288D01*
X126954627Y-137670489D01*
X126673736Y-137609245D01*
X126642685Y-137606801D01*
X126450718Y-137591693D01*
X126450709Y-137591693D01*
X126448261Y-137591500D01*
X126292729Y-137591500D01*
X126290593Y-137591646D01*
X126290582Y-137591646D01*
X126082452Y-137605835D01*
X126082446Y-137605836D01*
X126078175Y-137606127D01*
X126073980Y-137606996D01*
X126073978Y-137606996D01*
X126020156Y-137618142D01*
X125796658Y-137664426D01*
X125525657Y-137760393D01*
X125270188Y-137892250D01*
X125266687Y-137894711D01*
X125266683Y-137894713D01*
X125215900Y-137930404D01*
X125034977Y-138057559D01*
X125000438Y-138089655D01*
X124833633Y-138244660D01*
X124824378Y-138253260D01*
X124642287Y-138475732D01*
X124492073Y-138720858D01*
X124490347Y-138724791D01*
X124490346Y-138724792D01*
X124444282Y-138829729D01*
X124376517Y-138984102D01*
X124375342Y-138988229D01*
X124375341Y-138988230D01*
X124367222Y-139016731D01*
X124297756Y-139260594D01*
X124257249Y-139545216D01*
X124257227Y-139549505D01*
X124257226Y-139549512D01*
X124255765Y-139828417D01*
X124255743Y-139832703D01*
X121710601Y-139832703D01*
X125237399Y-136305905D01*
X125299711Y-136271879D01*
X125326494Y-136269000D01*
X136112433Y-136269000D01*
X136123616Y-136269527D01*
X136131109Y-136271202D01*
X136139035Y-136270953D01*
X136139036Y-136270953D01*
X136199186Y-136269062D01*
X136203145Y-136269000D01*
X136231056Y-136269000D01*
X136234991Y-136268503D01*
X136235056Y-136268495D01*
X136246893Y-136267562D01*
X136279151Y-136266548D01*
X136283170Y-136266422D01*
X136291089Y-136266173D01*
X136310543Y-136260521D01*
X136329900Y-136256513D01*
X136342130Y-136254968D01*
X136342131Y-136254968D01*
X136349997Y-136253974D01*
X136357368Y-136251055D01*
X136357370Y-136251055D01*
X136391112Y-136237696D01*
X136402342Y-136233851D01*
X136437183Y-136223729D01*
X136437184Y-136223729D01*
X136444793Y-136221518D01*
X136451612Y-136217485D01*
X136451617Y-136217483D01*
X136462228Y-136211207D01*
X136479976Y-136202512D01*
X136498817Y-136195052D01*
X136534587Y-136169064D01*
X136544507Y-136162548D01*
X136575735Y-136144080D01*
X136575738Y-136144078D01*
X136582562Y-136140042D01*
X136596883Y-136125721D01*
X136611917Y-136112880D01*
X136621894Y-136105631D01*
X136628307Y-136100972D01*
X136656498Y-136066895D01*
X136664488Y-136058116D01*
X139837827Y-132884777D01*
X140275777Y-132884777D01*
X140285074Y-132896793D01*
X140328069Y-132926898D01*
X140337555Y-132932376D01*
X140528993Y-133021645D01*
X140539285Y-133025391D01*
X140743309Y-133080059D01*
X140754104Y-133081962D01*
X140964525Y-133100372D01*
X140975475Y-133100372D01*
X141185896Y-133081962D01*
X141196691Y-133080059D01*
X141400715Y-133025391D01*
X141411007Y-133021645D01*
X141602445Y-132932376D01*
X141611931Y-132926898D01*
X141655764Y-132896207D01*
X141664139Y-132885729D01*
X141657071Y-132872281D01*
X140982812Y-132198022D01*
X140968868Y-132190408D01*
X140967035Y-132190539D01*
X140960420Y-132194790D01*
X140282207Y-132873003D01*
X140275777Y-132884777D01*
X139837827Y-132884777D01*
X140092247Y-132630357D01*
X140100537Y-132622813D01*
X140107018Y-132618700D01*
X140153659Y-132569032D01*
X140156413Y-132566191D01*
X140176135Y-132546469D01*
X140178612Y-132543276D01*
X140186317Y-132534255D01*
X140216586Y-132502021D01*
X140220407Y-132495071D01*
X140226346Y-132484268D01*
X140237202Y-132467741D01*
X140244757Y-132458002D01*
X140244758Y-132458000D01*
X140249614Y-132451740D01*
X140267174Y-132411160D01*
X140272391Y-132400512D01*
X140289875Y-132368709D01*
X140289876Y-132368707D01*
X140293695Y-132361760D01*
X140295784Y-132353627D01*
X140298733Y-132342138D01*
X140305137Y-132323434D01*
X140310033Y-132312120D01*
X140310033Y-132312119D01*
X140313181Y-132304845D01*
X140314420Y-132297022D01*
X140314423Y-132297012D01*
X140320099Y-132261176D01*
X140322505Y-132249556D01*
X140331528Y-132214411D01*
X140331528Y-132214410D01*
X140333500Y-132206730D01*
X140333500Y-132186476D01*
X140335051Y-132166765D01*
X140336980Y-132154586D01*
X140338220Y-132146757D01*
X140338073Y-132145205D01*
X140359320Y-132080438D01*
X140374033Y-132062757D01*
X141657793Y-130778997D01*
X141664223Y-130767223D01*
X141654926Y-130755207D01*
X141607426Y-130721947D01*
X141608361Y-130720612D01*
X141564516Y-130674640D01*
X141551072Y-130604928D01*
X141577452Y-130539014D01*
X141587408Y-130527796D01*
X144044213Y-128070992D01*
X147238800Y-124876405D01*
X147301112Y-124842379D01*
X147327895Y-124839500D01*
X163799996Y-124839500D01*
X163868117Y-124859502D01*
G37*
G04 #@! TD.AperFunction*
G04 #@! TA.AperFunction,Conductor*
G36*
X124113926Y-135421502D02*
G01*
X124160419Y-135475158D01*
X124170523Y-135545432D01*
X124141029Y-135610012D01*
X124134900Y-135616595D01*
X119768862Y-139982633D01*
X119706550Y-140016659D01*
X119635735Y-140011594D01*
X119578899Y-139969047D01*
X119568725Y-139953083D01*
X119562106Y-139940739D01*
X119497063Y-139840197D01*
X119486377Y-139830995D01*
X119476812Y-139835398D01*
X118453095Y-140859115D01*
X118390783Y-140893141D01*
X118319968Y-140888076D01*
X118274905Y-140859115D01*
X118093885Y-140678095D01*
X118059859Y-140615783D01*
X118064924Y-140544968D01*
X118093885Y-140499905D01*
X119117389Y-139476401D01*
X119124410Y-139463544D01*
X119117611Y-139454213D01*
X119113554Y-139451518D01*
X118927117Y-139348599D01*
X118917705Y-139344369D01*
X118716959Y-139273280D01*
X118701998Y-139269328D01*
X118702291Y-139268219D01*
X118643710Y-139239065D01*
X118607341Y-139178091D01*
X118609711Y-139107134D01*
X118640260Y-139057553D01*
X122259408Y-135438405D01*
X122321720Y-135404379D01*
X122348503Y-135401500D01*
X124045805Y-135401500D01*
X124113926Y-135421502D01*
G37*
G04 #@! TD.AperFunction*
G04 #@! TA.AperFunction,Conductor*
G36*
X99396026Y-126024144D02*
G01*
X99423875Y-126055994D01*
X99483987Y-126154088D01*
X99630250Y-126322938D01*
X99802126Y-126465632D01*
X99995000Y-126578338D01*
X100203692Y-126658030D01*
X100251752Y-126667808D01*
X100314513Y-126700988D01*
X100349376Y-126762835D01*
X100345267Y-126833713D01*
X100315723Y-126880372D01*
X90031747Y-137164348D01*
X90023461Y-137171888D01*
X90016982Y-137176000D01*
X90011557Y-137181777D01*
X89970357Y-137225651D01*
X89967602Y-137228493D01*
X89947865Y-137248230D01*
X89945385Y-137251427D01*
X89937682Y-137260447D01*
X89907414Y-137292679D01*
X89903595Y-137299625D01*
X89903593Y-137299628D01*
X89897652Y-137310434D01*
X89886801Y-137326953D01*
X89874386Y-137342959D01*
X89871241Y-137350228D01*
X89871238Y-137350232D01*
X89856826Y-137383537D01*
X89851609Y-137394187D01*
X89830305Y-137432940D01*
X89828334Y-137440615D01*
X89828334Y-137440616D01*
X89825267Y-137452562D01*
X89818863Y-137471266D01*
X89810819Y-137489855D01*
X89809580Y-137497678D01*
X89809577Y-137497688D01*
X89803901Y-137533524D01*
X89801495Y-137545144D01*
X89790500Y-137587970D01*
X89790500Y-137608224D01*
X89788949Y-137627934D01*
X89785780Y-137647943D01*
X89786526Y-137655835D01*
X89789941Y-137691961D01*
X89790500Y-137703819D01*
X89790500Y-139310692D01*
X89770498Y-139378813D01*
X89722683Y-139422453D01*
X89697607Y-139435507D01*
X89693474Y-139438610D01*
X89693471Y-139438612D01*
X89523100Y-139566530D01*
X89518965Y-139569635D01*
X89515393Y-139573373D01*
X89407729Y-139686037D01*
X89364629Y-139731138D01*
X89257201Y-139888621D01*
X89202293Y-139933621D01*
X89131768Y-139941792D01*
X89068021Y-139910538D01*
X89047324Y-139886054D01*
X88966822Y-139761617D01*
X88966820Y-139761614D01*
X88964014Y-139757277D01*
X88813670Y-139592051D01*
X88809619Y-139588852D01*
X88809615Y-139588848D01*
X88642414Y-139456800D01*
X88642410Y-139456798D01*
X88638359Y-139453598D01*
X88633831Y-139451098D01*
X88517988Y-139387150D01*
X88442789Y-139345638D01*
X88437920Y-139343914D01*
X88437916Y-139343912D01*
X88237087Y-139272795D01*
X88237083Y-139272794D01*
X88232212Y-139271069D01*
X88227119Y-139270162D01*
X88227116Y-139270161D01*
X88017373Y-139232800D01*
X88017367Y-139232799D01*
X88012284Y-139231894D01*
X87938452Y-139230992D01*
X87794081Y-139229228D01*
X87794079Y-139229228D01*
X87788911Y-139229165D01*
X87568091Y-139262955D01*
X87355756Y-139332357D01*
X87323883Y-139348949D01*
X87181975Y-139422822D01*
X87157607Y-139435507D01*
X87153474Y-139438610D01*
X87153471Y-139438612D01*
X86983100Y-139566530D01*
X86978965Y-139569635D01*
X86975393Y-139573373D01*
X86867729Y-139686037D01*
X86824629Y-139731138D01*
X86717201Y-139888621D01*
X86662293Y-139933621D01*
X86591768Y-139941792D01*
X86528021Y-139910538D01*
X86507324Y-139886054D01*
X86426822Y-139761617D01*
X86426820Y-139761614D01*
X86424014Y-139757277D01*
X86273670Y-139592051D01*
X86269619Y-139588852D01*
X86269615Y-139588848D01*
X86102414Y-139456800D01*
X86102410Y-139456798D01*
X86098359Y-139453598D01*
X86093831Y-139451098D01*
X85977988Y-139387150D01*
X85902789Y-139345638D01*
X85897920Y-139343914D01*
X85897916Y-139343912D01*
X85697087Y-139272795D01*
X85697083Y-139272794D01*
X85692212Y-139271069D01*
X85687119Y-139270162D01*
X85687116Y-139270161D01*
X85477373Y-139232800D01*
X85477367Y-139232799D01*
X85472284Y-139231894D01*
X85398452Y-139230992D01*
X85254081Y-139229228D01*
X85254079Y-139229228D01*
X85248911Y-139229165D01*
X85028091Y-139262955D01*
X84815756Y-139332357D01*
X84783883Y-139348949D01*
X84641975Y-139422822D01*
X84617607Y-139435507D01*
X84613474Y-139438610D01*
X84613471Y-139438612D01*
X84443100Y-139566530D01*
X84438965Y-139569635D01*
X84435393Y-139573373D01*
X84327729Y-139686037D01*
X84284629Y-139731138D01*
X84177201Y-139888621D01*
X84122293Y-139933621D01*
X84051768Y-139941792D01*
X83988021Y-139910538D01*
X83967324Y-139886054D01*
X83886822Y-139761617D01*
X83886820Y-139761614D01*
X83884014Y-139757277D01*
X83733670Y-139592051D01*
X83729619Y-139588852D01*
X83729615Y-139588848D01*
X83562414Y-139456800D01*
X83562410Y-139456798D01*
X83558359Y-139453598D01*
X83553831Y-139451098D01*
X83437988Y-139387150D01*
X83362789Y-139345638D01*
X83357920Y-139343914D01*
X83357916Y-139343912D01*
X83157087Y-139272795D01*
X83157083Y-139272794D01*
X83152212Y-139271069D01*
X83147119Y-139270162D01*
X83147116Y-139270161D01*
X82937373Y-139232800D01*
X82937367Y-139232799D01*
X82932284Y-139231894D01*
X82858452Y-139230992D01*
X82714081Y-139229228D01*
X82714079Y-139229228D01*
X82708911Y-139229165D01*
X82488091Y-139262955D01*
X82275756Y-139332357D01*
X82243883Y-139348949D01*
X82101975Y-139422822D01*
X82077607Y-139435507D01*
X82073474Y-139438610D01*
X82073471Y-139438612D01*
X81903100Y-139566530D01*
X81898965Y-139569635D01*
X81842537Y-139628684D01*
X81818283Y-139654064D01*
X81756759Y-139689494D01*
X81685846Y-139686037D01*
X81628060Y-139644791D01*
X81609207Y-139611243D01*
X81567767Y-139500703D01*
X81564615Y-139492295D01*
X81477261Y-139375739D01*
X81360705Y-139288385D01*
X81224316Y-139237255D01*
X81162134Y-139230500D01*
X80962164Y-139230500D01*
X80894043Y-139210498D01*
X80850841Y-139159621D01*
X80850019Y-139160107D01*
X80847186Y-139155318D01*
X80839707Y-139142671D01*
X80831010Y-139124921D01*
X80823552Y-139106083D01*
X80797571Y-139070323D01*
X80791053Y-139060401D01*
X80772578Y-139029160D01*
X80772574Y-139029155D01*
X80768542Y-139022337D01*
X80754218Y-139008013D01*
X80741376Y-138992978D01*
X80729472Y-138976593D01*
X80695406Y-138948411D01*
X80686627Y-138940422D01*
X79715605Y-137969400D01*
X79681579Y-137907088D01*
X79678700Y-137880305D01*
X79678700Y-126762740D01*
X79698702Y-126694619D01*
X79752358Y-126648126D01*
X79822632Y-126638022D01*
X79849650Y-126645031D01*
X79878854Y-126656183D01*
X79878859Y-126656184D01*
X79883692Y-126658030D01*
X79888760Y-126659061D01*
X79888763Y-126659062D01*
X79996017Y-126680883D01*
X80102597Y-126702567D01*
X80107772Y-126702757D01*
X80107774Y-126702757D01*
X80320673Y-126710564D01*
X80320677Y-126710564D01*
X80325837Y-126710753D01*
X80330957Y-126710097D01*
X80330959Y-126710097D01*
X80542288Y-126683025D01*
X80542289Y-126683025D01*
X80547416Y-126682368D01*
X80586434Y-126670662D01*
X80756429Y-126619661D01*
X80756434Y-126619659D01*
X80761384Y-126618174D01*
X80961994Y-126519896D01*
X81143860Y-126390173D01*
X81165469Y-126368640D01*
X81298435Y-126236137D01*
X81302096Y-126232489D01*
X81432453Y-126051077D01*
X81433776Y-126052028D01*
X81480645Y-126008857D01*
X81550580Y-125996625D01*
X81616026Y-126024144D01*
X81643875Y-126055994D01*
X81703987Y-126154088D01*
X81850250Y-126322938D01*
X82022126Y-126465632D01*
X82215000Y-126578338D01*
X82423692Y-126658030D01*
X82428760Y-126659061D01*
X82428763Y-126659062D01*
X82536017Y-126680883D01*
X82642597Y-126702567D01*
X82647772Y-126702757D01*
X82647774Y-126702757D01*
X82860673Y-126710564D01*
X82860677Y-126710564D01*
X82865837Y-126710753D01*
X82870957Y-126710097D01*
X82870959Y-126710097D01*
X83082288Y-126683025D01*
X83082289Y-126683025D01*
X83087416Y-126682368D01*
X83126434Y-126670662D01*
X83296429Y-126619661D01*
X83296434Y-126619659D01*
X83301384Y-126618174D01*
X83501994Y-126519896D01*
X83683860Y-126390173D01*
X83705469Y-126368640D01*
X83838435Y-126236137D01*
X83842096Y-126232489D01*
X83972453Y-126051077D01*
X83973776Y-126052028D01*
X84020645Y-126008857D01*
X84090580Y-125996625D01*
X84156026Y-126024144D01*
X84183875Y-126055994D01*
X84243987Y-126154088D01*
X84390250Y-126322938D01*
X84562126Y-126465632D01*
X84755000Y-126578338D01*
X84963692Y-126658030D01*
X84968760Y-126659061D01*
X84968763Y-126659062D01*
X85076017Y-126680883D01*
X85182597Y-126702567D01*
X85187772Y-126702757D01*
X85187774Y-126702757D01*
X85400673Y-126710564D01*
X85400677Y-126710564D01*
X85405837Y-126710753D01*
X85410957Y-126710097D01*
X85410959Y-126710097D01*
X85622288Y-126683025D01*
X85622289Y-126683025D01*
X85627416Y-126682368D01*
X85666434Y-126670662D01*
X85836429Y-126619661D01*
X85836434Y-126619659D01*
X85841384Y-126618174D01*
X86041994Y-126519896D01*
X86223860Y-126390173D01*
X86245469Y-126368640D01*
X86378435Y-126236137D01*
X86382096Y-126232489D01*
X86512453Y-126051077D01*
X86513776Y-126052028D01*
X86560645Y-126008857D01*
X86630580Y-125996625D01*
X86696026Y-126024144D01*
X86723875Y-126055994D01*
X86783987Y-126154088D01*
X86930250Y-126322938D01*
X87102126Y-126465632D01*
X87295000Y-126578338D01*
X87503692Y-126658030D01*
X87508760Y-126659061D01*
X87508763Y-126659062D01*
X87616017Y-126680883D01*
X87722597Y-126702567D01*
X87727772Y-126702757D01*
X87727774Y-126702757D01*
X87940673Y-126710564D01*
X87940677Y-126710564D01*
X87945837Y-126710753D01*
X87950957Y-126710097D01*
X87950959Y-126710097D01*
X88162288Y-126683025D01*
X88162289Y-126683025D01*
X88167416Y-126682368D01*
X88206434Y-126670662D01*
X88376429Y-126619661D01*
X88376434Y-126619659D01*
X88381384Y-126618174D01*
X88581994Y-126519896D01*
X88763860Y-126390173D01*
X88785469Y-126368640D01*
X88918435Y-126236137D01*
X88922096Y-126232489D01*
X89052453Y-126051077D01*
X89053776Y-126052028D01*
X89100645Y-126008857D01*
X89170580Y-125996625D01*
X89236026Y-126024144D01*
X89263875Y-126055994D01*
X89323987Y-126154088D01*
X89470250Y-126322938D01*
X89642126Y-126465632D01*
X89835000Y-126578338D01*
X90043692Y-126658030D01*
X90048760Y-126659061D01*
X90048763Y-126659062D01*
X90156017Y-126680883D01*
X90262597Y-126702567D01*
X90267772Y-126702757D01*
X90267774Y-126702757D01*
X90480673Y-126710564D01*
X90480677Y-126710564D01*
X90485837Y-126710753D01*
X90490957Y-126710097D01*
X90490959Y-126710097D01*
X90702288Y-126683025D01*
X90702289Y-126683025D01*
X90707416Y-126682368D01*
X90746434Y-126670662D01*
X90916429Y-126619661D01*
X90916434Y-126619659D01*
X90921384Y-126618174D01*
X91121994Y-126519896D01*
X91303860Y-126390173D01*
X91325469Y-126368640D01*
X91458435Y-126236137D01*
X91462096Y-126232489D01*
X91592453Y-126051077D01*
X91593776Y-126052028D01*
X91640645Y-126008857D01*
X91710580Y-125996625D01*
X91776026Y-126024144D01*
X91803875Y-126055994D01*
X91863987Y-126154088D01*
X92010250Y-126322938D01*
X92182126Y-126465632D01*
X92375000Y-126578338D01*
X92583692Y-126658030D01*
X92588760Y-126659061D01*
X92588763Y-126659062D01*
X92696017Y-126680883D01*
X92802597Y-126702567D01*
X92807772Y-126702757D01*
X92807774Y-126702757D01*
X93020673Y-126710564D01*
X93020677Y-126710564D01*
X93025837Y-126710753D01*
X93030957Y-126710097D01*
X93030959Y-126710097D01*
X93242288Y-126683025D01*
X93242289Y-126683025D01*
X93247416Y-126682368D01*
X93286434Y-126670662D01*
X93456429Y-126619661D01*
X93456434Y-126619659D01*
X93461384Y-126618174D01*
X93661994Y-126519896D01*
X93843860Y-126390173D01*
X93865469Y-126368640D01*
X93998435Y-126236137D01*
X94002096Y-126232489D01*
X94132453Y-126051077D01*
X94133776Y-126052028D01*
X94180645Y-126008857D01*
X94250580Y-125996625D01*
X94316026Y-126024144D01*
X94343875Y-126055994D01*
X94403987Y-126154088D01*
X94550250Y-126322938D01*
X94722126Y-126465632D01*
X94915000Y-126578338D01*
X95123692Y-126658030D01*
X95128760Y-126659061D01*
X95128763Y-126659062D01*
X95236017Y-126680883D01*
X95342597Y-126702567D01*
X95347772Y-126702757D01*
X95347774Y-126702757D01*
X95560673Y-126710564D01*
X95560677Y-126710564D01*
X95565837Y-126710753D01*
X95570957Y-126710097D01*
X95570959Y-126710097D01*
X95782288Y-126683025D01*
X95782289Y-126683025D01*
X95787416Y-126682368D01*
X95826434Y-126670662D01*
X95996429Y-126619661D01*
X95996434Y-126619659D01*
X96001384Y-126618174D01*
X96201994Y-126519896D01*
X96383860Y-126390173D01*
X96405469Y-126368640D01*
X96538435Y-126236137D01*
X96542096Y-126232489D01*
X96672453Y-126051077D01*
X96673776Y-126052028D01*
X96720645Y-126008857D01*
X96790580Y-125996625D01*
X96856026Y-126024144D01*
X96883875Y-126055994D01*
X96943987Y-126154088D01*
X97090250Y-126322938D01*
X97262126Y-126465632D01*
X97455000Y-126578338D01*
X97663692Y-126658030D01*
X97668760Y-126659061D01*
X97668763Y-126659062D01*
X97776017Y-126680883D01*
X97882597Y-126702567D01*
X97887772Y-126702757D01*
X97887774Y-126702757D01*
X98100673Y-126710564D01*
X98100677Y-126710564D01*
X98105837Y-126710753D01*
X98110957Y-126710097D01*
X98110959Y-126710097D01*
X98322288Y-126683025D01*
X98322289Y-126683025D01*
X98327416Y-126682368D01*
X98366434Y-126670662D01*
X98536429Y-126619661D01*
X98536434Y-126619659D01*
X98541384Y-126618174D01*
X98741994Y-126519896D01*
X98923860Y-126390173D01*
X98945469Y-126368640D01*
X99078435Y-126236137D01*
X99082096Y-126232489D01*
X99212453Y-126051077D01*
X99213776Y-126052028D01*
X99260645Y-126008857D01*
X99330580Y-125996625D01*
X99396026Y-126024144D01*
G37*
G04 #@! TD.AperFunction*
G04 #@! TA.AperFunction,Conductor*
G36*
X124542393Y-131109702D02*
G01*
X124588886Y-131163358D01*
X124598990Y-131233632D01*
X124588467Y-131268950D01*
X124534355Y-131384993D01*
X124530609Y-131395285D01*
X124475941Y-131599309D01*
X124474038Y-131610104D01*
X124455628Y-131820525D01*
X124455628Y-131831475D01*
X124474038Y-132041896D01*
X124475941Y-132052691D01*
X124530609Y-132256715D01*
X124534355Y-132267007D01*
X124623623Y-132458441D01*
X124629103Y-132467932D01*
X124659794Y-132511765D01*
X124670271Y-132520140D01*
X124683718Y-132513072D01*
X125640905Y-131555885D01*
X125703217Y-131521859D01*
X125774032Y-131526924D01*
X125819095Y-131555885D01*
X126000115Y-131736905D01*
X126034141Y-131799217D01*
X126029076Y-131870032D01*
X126000115Y-131915095D01*
X125042207Y-132873003D01*
X125035777Y-132884777D01*
X125045074Y-132896793D01*
X125088069Y-132926898D01*
X125097555Y-132932376D01*
X125288993Y-133021645D01*
X125299282Y-133025390D01*
X125472183Y-133071719D01*
X125532805Y-133108671D01*
X125563827Y-133172532D01*
X125555398Y-133243026D01*
X125528666Y-133282521D01*
X125263592Y-133547595D01*
X125201280Y-133581621D01*
X125174497Y-133584500D01*
X122001417Y-133584500D01*
X121981708Y-133582949D01*
X121967810Y-133580748D01*
X121961223Y-133581093D01*
X121961218Y-133581093D01*
X121899520Y-133584327D01*
X121892926Y-133584500D01*
X121872390Y-133584500D01*
X121869118Y-133584844D01*
X121869116Y-133584844D01*
X121851958Y-133586647D01*
X121845384Y-133587164D01*
X121783696Y-133590397D01*
X121783694Y-133590397D01*
X121777097Y-133590743D01*
X121763504Y-133594385D01*
X121744075Y-133597986D01*
X121730072Y-133599458D01*
X121665025Y-133620593D01*
X121658712Y-133622463D01*
X121638074Y-133627993D01*
X121599003Y-133638462D01*
X121599000Y-133638463D01*
X121592630Y-133640170D01*
X121580085Y-133646562D01*
X121561826Y-133654125D01*
X121548444Y-133658473D01*
X121542723Y-133661776D01*
X121489223Y-133692664D01*
X121483426Y-133695812D01*
X121428351Y-133723874D01*
X121428348Y-133723876D01*
X121422470Y-133726871D01*
X121417342Y-133731024D01*
X121417340Y-133731025D01*
X121411534Y-133735727D01*
X121395237Y-133746927D01*
X121388776Y-133750657D01*
X121388772Y-133750660D01*
X121383056Y-133753960D01*
X121378150Y-133758377D01*
X121378145Y-133758381D01*
X121332231Y-133799722D01*
X121327216Y-133804006D01*
X121318718Y-133810888D01*
X121311259Y-133816928D01*
X121296744Y-133831443D01*
X121291959Y-133835984D01*
X121241134Y-133881747D01*
X121237255Y-133887086D01*
X121237254Y-133887087D01*
X121232860Y-133893135D01*
X121220019Y-133908168D01*
X115934514Y-139193673D01*
X115872202Y-139227699D01*
X115843880Y-139230569D01*
X115734081Y-139229228D01*
X115734079Y-139229228D01*
X115728911Y-139229165D01*
X115508091Y-139262955D01*
X115295756Y-139332357D01*
X115263883Y-139348949D01*
X115121975Y-139422822D01*
X115097607Y-139435507D01*
X115093474Y-139438610D01*
X115093471Y-139438612D01*
X114923100Y-139566530D01*
X114918965Y-139569635D01*
X114915393Y-139573373D01*
X114807729Y-139686037D01*
X114764629Y-139731138D01*
X114657201Y-139888621D01*
X114602293Y-139933621D01*
X114531768Y-139941792D01*
X114468021Y-139910538D01*
X114447324Y-139886054D01*
X114366822Y-139761617D01*
X114366820Y-139761614D01*
X114364014Y-139757277D01*
X114213670Y-139592051D01*
X114209619Y-139588852D01*
X114209615Y-139588848D01*
X114042414Y-139456800D01*
X114042410Y-139456798D01*
X114038359Y-139453598D01*
X114033831Y-139451098D01*
X113917988Y-139387150D01*
X113842789Y-139345638D01*
X113837920Y-139343914D01*
X113837916Y-139343912D01*
X113637087Y-139272795D01*
X113637083Y-139272794D01*
X113632212Y-139271069D01*
X113627119Y-139270162D01*
X113627116Y-139270161D01*
X113417373Y-139232800D01*
X113417367Y-139232799D01*
X113412284Y-139231894D01*
X113338452Y-139230992D01*
X113194081Y-139229228D01*
X113194079Y-139229228D01*
X113188911Y-139229165D01*
X112968091Y-139262955D01*
X112755756Y-139332357D01*
X112723883Y-139348949D01*
X112581975Y-139422822D01*
X112557607Y-139435507D01*
X112553474Y-139438610D01*
X112553471Y-139438612D01*
X112383100Y-139566530D01*
X112378965Y-139569635D01*
X112375393Y-139573373D01*
X112267729Y-139686037D01*
X112224629Y-139731138D01*
X112117201Y-139888621D01*
X112062293Y-139933621D01*
X111991768Y-139941792D01*
X111928021Y-139910538D01*
X111907324Y-139886054D01*
X111826822Y-139761617D01*
X111826820Y-139761614D01*
X111824014Y-139757277D01*
X111673670Y-139592051D01*
X111669619Y-139588852D01*
X111669615Y-139588848D01*
X111502414Y-139456800D01*
X111502410Y-139456798D01*
X111498359Y-139453598D01*
X111493831Y-139451098D01*
X111377988Y-139387150D01*
X111302789Y-139345638D01*
X111297920Y-139343914D01*
X111297916Y-139343912D01*
X111097087Y-139272795D01*
X111097083Y-139272794D01*
X111092212Y-139271069D01*
X111087119Y-139270162D01*
X111087116Y-139270161D01*
X110877373Y-139232800D01*
X110877367Y-139232799D01*
X110872284Y-139231894D01*
X110761009Y-139230535D01*
X110693140Y-139209702D01*
X110647306Y-139155483D01*
X110638061Y-139085091D01*
X110668340Y-139020875D01*
X110673455Y-139015449D01*
X110776999Y-138911905D01*
X110839311Y-138877879D01*
X110866094Y-138875000D01*
X115051933Y-138875000D01*
X115063116Y-138875527D01*
X115070609Y-138877202D01*
X115078535Y-138876953D01*
X115078536Y-138876953D01*
X115138686Y-138875062D01*
X115142645Y-138875000D01*
X115170556Y-138875000D01*
X115174491Y-138874503D01*
X115174556Y-138874495D01*
X115186393Y-138873562D01*
X115218651Y-138872548D01*
X115222670Y-138872422D01*
X115230589Y-138872173D01*
X115250043Y-138866521D01*
X115269400Y-138862513D01*
X115281630Y-138860968D01*
X115281631Y-138860968D01*
X115289497Y-138859974D01*
X115296868Y-138857055D01*
X115296870Y-138857055D01*
X115330612Y-138843696D01*
X115341842Y-138839851D01*
X115376683Y-138829729D01*
X115376684Y-138829729D01*
X115384293Y-138827518D01*
X115391112Y-138823485D01*
X115391117Y-138823483D01*
X115401728Y-138817207D01*
X115419476Y-138808512D01*
X115438317Y-138801052D01*
X115474087Y-138775064D01*
X115484007Y-138768548D01*
X115515235Y-138750080D01*
X115515238Y-138750078D01*
X115522062Y-138746042D01*
X115536383Y-138731721D01*
X115551417Y-138718880D01*
X115561394Y-138711631D01*
X115567807Y-138706972D01*
X115595998Y-138672895D01*
X115603988Y-138664116D01*
X123141500Y-131126605D01*
X123203812Y-131092579D01*
X123230595Y-131089700D01*
X124474272Y-131089700D01*
X124542393Y-131109702D01*
G37*
G04 #@! TD.AperFunction*
G04 #@! TA.AperFunction,Conductor*
G36*
X124401621Y-118692102D02*
G01*
X124448114Y-118745758D01*
X124459500Y-118798100D01*
X124459500Y-119936134D01*
X124466255Y-119998316D01*
X124517385Y-120134705D01*
X124604739Y-120251261D01*
X124721295Y-120338615D01*
X124857684Y-120389745D01*
X124919866Y-120396500D01*
X126540134Y-120396500D01*
X126602316Y-120389745D01*
X126738705Y-120338615D01*
X126855261Y-120251261D01*
X126942615Y-120134705D01*
X126993745Y-119998316D01*
X127000500Y-119936134D01*
X127000500Y-119927636D01*
X127020502Y-119859515D01*
X127074158Y-119813022D01*
X127144432Y-119802918D01*
X127209012Y-119832412D01*
X127229713Y-119855365D01*
X127288647Y-119939531D01*
X127293023Y-119945781D01*
X127450219Y-120102977D01*
X127454727Y-120106134D01*
X127454730Y-120106136D01*
X127483523Y-120126297D01*
X127632323Y-120230488D01*
X127637305Y-120232811D01*
X127637310Y-120232814D01*
X127827810Y-120321645D01*
X127833804Y-120324440D01*
X127839112Y-120325862D01*
X127839114Y-120325863D01*
X127886705Y-120338615D01*
X128048537Y-120381978D01*
X128270000Y-120401353D01*
X128491463Y-120381978D01*
X128653295Y-120338615D01*
X128700886Y-120325863D01*
X128700888Y-120325862D01*
X128706196Y-120324440D01*
X128712190Y-120321645D01*
X128902690Y-120232814D01*
X128902695Y-120232811D01*
X128907677Y-120230488D01*
X128972959Y-120184777D01*
X130115777Y-120184777D01*
X130125074Y-120196793D01*
X130168069Y-120226898D01*
X130177555Y-120232376D01*
X130368993Y-120321645D01*
X130379285Y-120325391D01*
X130583309Y-120380059D01*
X130594104Y-120381962D01*
X130804525Y-120400372D01*
X130815475Y-120400372D01*
X131025896Y-120381962D01*
X131036691Y-120380059D01*
X131240715Y-120325391D01*
X131251007Y-120321645D01*
X131442445Y-120232376D01*
X131451931Y-120226898D01*
X131495764Y-120196207D01*
X131504139Y-120185729D01*
X131497071Y-120172281D01*
X130822812Y-119498022D01*
X130808868Y-119490408D01*
X130807035Y-119490539D01*
X130800420Y-119494790D01*
X130122207Y-120173003D01*
X130115777Y-120184777D01*
X128972959Y-120184777D01*
X129056477Y-120126297D01*
X129085270Y-120106136D01*
X129085273Y-120106134D01*
X129089781Y-120102977D01*
X129246977Y-119945781D01*
X129251354Y-119939531D01*
X129371331Y-119768185D01*
X129371332Y-119768183D01*
X129374488Y-119763676D01*
X129376811Y-119758694D01*
X129376814Y-119758689D01*
X129426081Y-119653035D01*
X129472999Y-119599750D01*
X129541276Y-119580289D01*
X129609236Y-119600831D01*
X129654471Y-119653035D01*
X129703623Y-119758441D01*
X129709103Y-119767932D01*
X129739794Y-119811765D01*
X129750271Y-119820140D01*
X129763718Y-119813072D01*
X130720905Y-118855885D01*
X130783217Y-118821859D01*
X130854032Y-118826924D01*
X130899095Y-118855885D01*
X131857003Y-119813793D01*
X131868777Y-119820223D01*
X131880793Y-119810926D01*
X131910897Y-119767932D01*
X131916377Y-119758441D01*
X131965529Y-119653035D01*
X132012447Y-119599750D01*
X132080724Y-119580289D01*
X132148684Y-119600831D01*
X132193919Y-119653035D01*
X132243186Y-119758689D01*
X132243189Y-119758694D01*
X132245512Y-119763676D01*
X132248668Y-119768183D01*
X132248669Y-119768185D01*
X132368647Y-119939531D01*
X132373023Y-119945781D01*
X132530219Y-120102977D01*
X132534727Y-120106134D01*
X132534730Y-120106136D01*
X132632771Y-120174785D01*
X132677099Y-120230242D01*
X132686500Y-120277998D01*
X132686500Y-121200832D01*
X132666498Y-121268953D01*
X132642164Y-121296785D01*
X132610966Y-121323337D01*
X132607548Y-121326246D01*
X132512740Y-121433597D01*
X132510285Y-121437334D01*
X132510283Y-121437337D01*
X132451097Y-121527440D01*
X132432774Y-121555334D01*
X132430869Y-121559391D01*
X132430867Y-121559395D01*
X132407844Y-121608433D01*
X132371905Y-121684979D01*
X132370596Y-121689262D01*
X132370594Y-121689266D01*
X132351168Y-121752805D01*
X132329317Y-121824277D01*
X132328628Y-121828700D01*
X132328627Y-121828706D01*
X132321913Y-121871829D01*
X132307283Y-121965795D01*
X132307228Y-121970262D01*
X132307228Y-121970267D01*
X132307102Y-121980592D01*
X132305503Y-122111438D01*
X132306063Y-122115723D01*
X132306271Y-122122760D01*
X132306271Y-122512047D01*
X132306273Y-122512047D01*
X132306682Y-122515014D01*
X132305504Y-122611438D01*
X132305228Y-122611435D01*
X132289745Y-122678562D01*
X132238919Y-122728133D01*
X132179920Y-122742800D01*
X127530613Y-122742800D01*
X127519430Y-122742273D01*
X127511937Y-122740598D01*
X127504011Y-122740847D01*
X127504010Y-122740847D01*
X127443860Y-122742738D01*
X127439901Y-122742800D01*
X127411990Y-122742800D01*
X127408056Y-122743297D01*
X127408055Y-122743297D01*
X127407990Y-122743305D01*
X127396153Y-122744238D01*
X127363895Y-122745252D01*
X127359876Y-122745378D01*
X127351957Y-122745627D01*
X127332503Y-122751279D01*
X127313146Y-122755287D01*
X127300916Y-122756832D01*
X127300915Y-122756832D01*
X127293049Y-122757826D01*
X127285678Y-122760745D01*
X127285676Y-122760745D01*
X127251934Y-122774104D01*
X127240704Y-122777949D01*
X127205863Y-122788071D01*
X127205862Y-122788071D01*
X127198253Y-122790282D01*
X127191434Y-122794315D01*
X127191429Y-122794317D01*
X127180818Y-122800593D01*
X127163070Y-122809288D01*
X127144229Y-122816748D01*
X127137813Y-122821410D01*
X127137812Y-122821410D01*
X127108459Y-122842736D01*
X127098539Y-122849252D01*
X127067311Y-122867720D01*
X127067308Y-122867722D01*
X127060484Y-122871758D01*
X127046163Y-122886079D01*
X127031130Y-122898919D01*
X127014739Y-122910828D01*
X127009688Y-122916934D01*
X126986548Y-122944905D01*
X126978558Y-122953684D01*
X117992346Y-131939895D01*
X117930034Y-131973921D01*
X117903251Y-131976800D01*
X99769866Y-131976800D01*
X99701745Y-131956798D01*
X99655252Y-131903142D01*
X99645148Y-131832868D01*
X99674642Y-131768288D01*
X99713056Y-131738334D01*
X99851495Y-131668404D01*
X99851497Y-131668403D01*
X99856996Y-131665625D01*
X100012847Y-131543861D01*
X100061782Y-131487169D01*
X100121435Y-131448672D01*
X100157164Y-131443500D01*
X112824233Y-131443500D01*
X112835416Y-131444027D01*
X112842909Y-131445702D01*
X112850835Y-131445453D01*
X112850836Y-131445453D01*
X112910986Y-131443562D01*
X112914945Y-131443500D01*
X112942856Y-131443500D01*
X112946791Y-131443003D01*
X112946856Y-131442995D01*
X112958693Y-131442062D01*
X112990951Y-131441048D01*
X112994970Y-131440922D01*
X113002889Y-131440673D01*
X113022343Y-131435021D01*
X113041700Y-131431013D01*
X113053930Y-131429468D01*
X113053931Y-131429468D01*
X113061797Y-131428474D01*
X113069168Y-131425555D01*
X113069170Y-131425555D01*
X113102912Y-131412196D01*
X113114142Y-131408351D01*
X113148983Y-131398229D01*
X113148984Y-131398229D01*
X113156593Y-131396018D01*
X113163412Y-131391985D01*
X113163417Y-131391983D01*
X113174028Y-131385707D01*
X113191776Y-131377012D01*
X113210617Y-131369552D01*
X113218558Y-131363783D01*
X113246387Y-131343564D01*
X113256307Y-131337048D01*
X113287535Y-131318580D01*
X113287538Y-131318578D01*
X113294362Y-131314542D01*
X113308683Y-131300221D01*
X113323717Y-131287380D01*
X113333694Y-131280131D01*
X113340107Y-131275472D01*
X113368298Y-131241395D01*
X113376288Y-131232616D01*
X117908549Y-126700355D01*
X117970861Y-126666329D01*
X118022762Y-126665979D01*
X118202597Y-126702567D01*
X118207772Y-126702757D01*
X118207774Y-126702757D01*
X118420673Y-126710564D01*
X118420677Y-126710564D01*
X118425837Y-126710753D01*
X118430957Y-126710097D01*
X118430959Y-126710097D01*
X118642288Y-126683025D01*
X118642289Y-126683025D01*
X118647416Y-126682368D01*
X118686434Y-126670662D01*
X118856429Y-126619661D01*
X118856434Y-126619659D01*
X118861384Y-126618174D01*
X119061994Y-126519896D01*
X119243860Y-126390173D01*
X119265469Y-126368640D01*
X119398435Y-126236137D01*
X119402096Y-126232489D01*
X119532453Y-126051077D01*
X119553320Y-126008857D01*
X119629136Y-125855453D01*
X119629137Y-125855451D01*
X119631430Y-125850811D01*
X119696370Y-125637069D01*
X119725529Y-125415590D01*
X119725767Y-125405863D01*
X119727074Y-125352365D01*
X119727074Y-125352361D01*
X119727156Y-125349000D01*
X119708852Y-125126361D01*
X119654431Y-124909702D01*
X119565354Y-124704840D01*
X119483490Y-124578298D01*
X119446822Y-124521617D01*
X119446820Y-124521614D01*
X119444014Y-124517277D01*
X119293670Y-124352051D01*
X119289619Y-124348852D01*
X119289615Y-124348848D01*
X119122414Y-124216800D01*
X119122410Y-124216798D01*
X119118359Y-124213598D01*
X119113831Y-124211098D01*
X118997774Y-124147032D01*
X118922789Y-124105638D01*
X118917920Y-124103914D01*
X118917916Y-124103912D01*
X118717087Y-124032795D01*
X118717083Y-124032794D01*
X118712212Y-124031069D01*
X118707119Y-124030162D01*
X118707116Y-124030161D01*
X118497373Y-123992800D01*
X118497367Y-123992799D01*
X118492284Y-123991894D01*
X118418452Y-123990992D01*
X118274081Y-123989228D01*
X118274079Y-123989228D01*
X118268911Y-123989165D01*
X118048091Y-124022955D01*
X117835756Y-124092357D01*
X117805443Y-124108137D01*
X117726301Y-124149336D01*
X117637607Y-124195507D01*
X117633474Y-124198610D01*
X117633471Y-124198612D01*
X117463100Y-124326530D01*
X117458965Y-124329635D01*
X117455393Y-124333373D01*
X117349151Y-124444549D01*
X117304629Y-124491138D01*
X117197201Y-124648621D01*
X117142293Y-124693621D01*
X117071768Y-124701792D01*
X117008021Y-124670538D01*
X116987324Y-124646054D01*
X116906822Y-124521617D01*
X116906820Y-124521614D01*
X116904014Y-124517277D01*
X116753670Y-124352051D01*
X116749619Y-124348852D01*
X116749615Y-124348848D01*
X116582414Y-124216800D01*
X116582410Y-124216798D01*
X116578359Y-124213598D01*
X116573831Y-124211098D01*
X116457774Y-124147032D01*
X116382789Y-124105638D01*
X116377920Y-124103914D01*
X116377916Y-124103912D01*
X116177087Y-124032795D01*
X116177083Y-124032794D01*
X116172212Y-124031069D01*
X116167119Y-124030162D01*
X116167116Y-124030161D01*
X115957373Y-123992800D01*
X115957367Y-123992799D01*
X115952284Y-123991894D01*
X115878452Y-123990992D01*
X115734081Y-123989228D01*
X115734079Y-123989228D01*
X115728911Y-123989165D01*
X115508091Y-124022955D01*
X115295756Y-124092357D01*
X115265443Y-124108137D01*
X115186301Y-124149336D01*
X115097607Y-124195507D01*
X115093474Y-124198610D01*
X115093471Y-124198612D01*
X114923100Y-124326530D01*
X114918965Y-124329635D01*
X114915393Y-124333373D01*
X114809151Y-124444549D01*
X114764629Y-124491138D01*
X114657201Y-124648621D01*
X114602293Y-124693621D01*
X114531768Y-124701792D01*
X114468021Y-124670538D01*
X114447324Y-124646054D01*
X114366822Y-124521617D01*
X114366820Y-124521614D01*
X114364014Y-124517277D01*
X114213670Y-124352051D01*
X114209619Y-124348852D01*
X114209615Y-124348848D01*
X114042414Y-124216800D01*
X114042410Y-124216798D01*
X114038359Y-124213598D01*
X114033831Y-124211098D01*
X113917774Y-124147032D01*
X113842789Y-124105638D01*
X113837920Y-124103914D01*
X113837916Y-124103912D01*
X113637087Y-124032795D01*
X113637083Y-124032794D01*
X113632212Y-124031069D01*
X113627119Y-124030162D01*
X113627116Y-124030161D01*
X113417373Y-123992800D01*
X113417367Y-123992799D01*
X113412284Y-123991894D01*
X113338452Y-123990992D01*
X113194081Y-123989228D01*
X113194079Y-123989228D01*
X113188911Y-123989165D01*
X112968091Y-124022955D01*
X112755756Y-124092357D01*
X112725443Y-124108137D01*
X112646301Y-124149336D01*
X112557607Y-124195507D01*
X112553474Y-124198610D01*
X112553471Y-124198612D01*
X112383100Y-124326530D01*
X112378965Y-124329635D01*
X112375393Y-124333373D01*
X112269151Y-124444549D01*
X112224629Y-124491138D01*
X112117201Y-124648621D01*
X112062293Y-124693621D01*
X111991768Y-124701792D01*
X111928021Y-124670538D01*
X111907324Y-124646054D01*
X111826822Y-124521617D01*
X111826820Y-124521614D01*
X111824014Y-124517277D01*
X111673670Y-124352051D01*
X111669619Y-124348852D01*
X111669615Y-124348848D01*
X111502414Y-124216800D01*
X111502410Y-124216798D01*
X111498359Y-124213598D01*
X111493831Y-124211098D01*
X111377774Y-124147032D01*
X111302789Y-124105638D01*
X111297920Y-124103914D01*
X111297916Y-124103912D01*
X111097087Y-124032795D01*
X111097083Y-124032794D01*
X111092212Y-124031069D01*
X111087119Y-124030162D01*
X111087116Y-124030161D01*
X110877373Y-123992800D01*
X110877367Y-123992799D01*
X110872284Y-123991894D01*
X110798452Y-123990992D01*
X110654081Y-123989228D01*
X110654079Y-123989228D01*
X110648911Y-123989165D01*
X110428091Y-124022955D01*
X110215756Y-124092357D01*
X110185443Y-124108137D01*
X110106301Y-124149336D01*
X110017607Y-124195507D01*
X110013474Y-124198610D01*
X110013471Y-124198612D01*
X109843100Y-124326530D01*
X109838965Y-124329635D01*
X109835393Y-124333373D01*
X109729151Y-124444549D01*
X109684629Y-124491138D01*
X109577201Y-124648621D01*
X109522293Y-124693621D01*
X109451768Y-124701792D01*
X109388021Y-124670538D01*
X109367324Y-124646054D01*
X109286822Y-124521617D01*
X109286820Y-124521614D01*
X109284014Y-124517277D01*
X109133670Y-124352051D01*
X109129619Y-124348852D01*
X109129615Y-124348848D01*
X108962414Y-124216800D01*
X108962410Y-124216798D01*
X108958359Y-124213598D01*
X108953831Y-124211098D01*
X108837774Y-124147032D01*
X108762789Y-124105638D01*
X108757920Y-124103914D01*
X108757916Y-124103912D01*
X108557087Y-124032795D01*
X108557083Y-124032794D01*
X108552212Y-124031069D01*
X108547119Y-124030162D01*
X108547116Y-124030161D01*
X108337373Y-123992800D01*
X108337367Y-123992799D01*
X108332284Y-123991894D01*
X108258452Y-123990992D01*
X108114081Y-123989228D01*
X108114079Y-123989228D01*
X108108911Y-123989165D01*
X107888091Y-124022955D01*
X107675756Y-124092357D01*
X107645443Y-124108137D01*
X107566301Y-124149336D01*
X107477607Y-124195507D01*
X107473474Y-124198610D01*
X107473471Y-124198612D01*
X107303100Y-124326530D01*
X107298965Y-124329635D01*
X107295393Y-124333373D01*
X107189151Y-124444549D01*
X107144629Y-124491138D01*
X107037201Y-124648621D01*
X106982293Y-124693621D01*
X106911768Y-124701792D01*
X106848021Y-124670538D01*
X106827324Y-124646054D01*
X106746822Y-124521617D01*
X106746820Y-124521614D01*
X106744014Y-124517277D01*
X106593670Y-124352051D01*
X106589619Y-124348852D01*
X106589615Y-124348848D01*
X106422414Y-124216800D01*
X106422410Y-124216798D01*
X106418359Y-124213598D01*
X106413835Y-124211100D01*
X106413831Y-124211098D01*
X106297776Y-124147032D01*
X106247806Y-124096600D01*
X106233034Y-124027157D01*
X106258150Y-123960752D01*
X106269575Y-123947629D01*
X107224541Y-122992664D01*
X108263200Y-121954005D01*
X108325512Y-121919979D01*
X108352295Y-121917100D01*
X108497233Y-121917100D01*
X108508416Y-121917627D01*
X108515909Y-121919302D01*
X108523835Y-121919053D01*
X108523836Y-121919053D01*
X108583986Y-121917162D01*
X108587945Y-121917100D01*
X108615856Y-121917100D01*
X108619791Y-121916603D01*
X108619856Y-121916595D01*
X108631693Y-121915662D01*
X108663951Y-121914648D01*
X108667970Y-121914522D01*
X108675889Y-121914273D01*
X108695343Y-121908621D01*
X108714700Y-121904613D01*
X108726930Y-121903068D01*
X108726931Y-121903068D01*
X108734797Y-121902074D01*
X108742168Y-121899155D01*
X108742170Y-121899155D01*
X108775912Y-121885796D01*
X108787142Y-121881951D01*
X108821983Y-121871829D01*
X108821984Y-121871829D01*
X108829593Y-121869618D01*
X108836412Y-121865585D01*
X108836417Y-121865583D01*
X108847028Y-121859307D01*
X108864776Y-121850612D01*
X108883617Y-121843152D01*
X108919387Y-121817164D01*
X108929307Y-121810648D01*
X108960535Y-121792180D01*
X108960538Y-121792178D01*
X108967362Y-121788142D01*
X108981683Y-121773821D01*
X108996717Y-121760980D01*
X109006694Y-121753731D01*
X109013107Y-121749072D01*
X109041298Y-121714995D01*
X109049288Y-121706216D01*
X110138792Y-120616713D01*
X110201104Y-120582687D01*
X110271920Y-120587752D01*
X110303099Y-120604718D01*
X110395965Y-120673813D01*
X110400716Y-120676229D01*
X110400720Y-120676231D01*
X110553645Y-120753982D01*
X110604500Y-120779838D01*
X110827917Y-120849210D01*
X110833204Y-120849911D01*
X110833205Y-120849911D01*
X111054545Y-120879248D01*
X111054549Y-120879248D01*
X111059829Y-120879948D01*
X111065158Y-120879748D01*
X111065160Y-120879748D01*
X111197041Y-120874797D01*
X111293604Y-120871172D01*
X111377589Y-120853550D01*
X111517332Y-120824229D01*
X111517335Y-120824228D01*
X111522559Y-120823132D01*
X111740146Y-120737203D01*
X111816901Y-120690627D01*
X111935583Y-120618609D01*
X111935586Y-120618607D01*
X111940144Y-120615841D01*
X112116834Y-120462517D01*
X112265165Y-120281614D01*
X112335652Y-120157787D01*
X112378255Y-120082945D01*
X112378256Y-120082943D01*
X112380896Y-120078305D01*
X112460716Y-119858404D01*
X112468923Y-119813022D01*
X112477076Y-119767932D01*
X112502344Y-119628197D01*
X112503500Y-119603684D01*
X112503500Y-119370243D01*
X112523502Y-119302122D01*
X112577158Y-119255629D01*
X112647432Y-119245525D01*
X112671654Y-119252512D01*
X112671844Y-119251927D01*
X112685226Y-119256275D01*
X112703492Y-119263840D01*
X112716030Y-119270229D01*
X112722406Y-119271938D01*
X112722410Y-119271939D01*
X112782085Y-119287929D01*
X112788410Y-119289802D01*
X112853472Y-119310942D01*
X112860040Y-119311632D01*
X112860044Y-119311633D01*
X112867461Y-119312412D01*
X112886908Y-119316016D01*
X112900496Y-119319657D01*
X112907095Y-119320003D01*
X112907096Y-119320003D01*
X112968785Y-119323236D01*
X112975360Y-119323753D01*
X112989622Y-119325252D01*
X112995790Y-119325900D01*
X113016325Y-119325900D01*
X113022919Y-119326073D01*
X113084617Y-119329307D01*
X113084622Y-119329307D01*
X113091209Y-119329652D01*
X113105107Y-119327451D01*
X113124816Y-119325900D01*
X122641483Y-119325900D01*
X122661192Y-119327451D01*
X122675090Y-119329652D01*
X122681677Y-119329307D01*
X122681682Y-119329307D01*
X122743380Y-119326073D01*
X122749974Y-119325900D01*
X122770510Y-119325900D01*
X122773782Y-119325556D01*
X122773784Y-119325556D01*
X122790942Y-119323753D01*
X122797516Y-119323236D01*
X122859208Y-119320003D01*
X122859212Y-119320002D01*
X122865803Y-119319657D01*
X122872184Y-119317947D01*
X122872186Y-119317947D01*
X122879391Y-119316017D01*
X122898825Y-119312415D01*
X122906254Y-119311634D01*
X122906263Y-119311632D01*
X122912828Y-119310942D01*
X122977897Y-119289800D01*
X122984199Y-119287933D01*
X123025752Y-119276799D01*
X123043896Y-119271937D01*
X123043897Y-119271937D01*
X123050270Y-119270229D01*
X123062808Y-119263840D01*
X123081074Y-119256275D01*
X123088172Y-119253969D01*
X123088174Y-119253968D01*
X123094456Y-119251927D01*
X123107156Y-119244595D01*
X123144954Y-119222772D01*
X123153685Y-119217731D01*
X123159479Y-119214585D01*
X123162360Y-119213117D01*
X123220430Y-119183529D01*
X123231367Y-119174673D01*
X123247663Y-119163473D01*
X123254124Y-119159743D01*
X123254128Y-119159740D01*
X123259844Y-119156440D01*
X123264750Y-119152023D01*
X123264755Y-119152019D01*
X123310669Y-119110678D01*
X123315684Y-119106394D01*
X123329077Y-119095548D01*
X123331641Y-119093472D01*
X123346156Y-119078957D01*
X123350941Y-119074416D01*
X123396857Y-119033073D01*
X123401766Y-119028653D01*
X123410040Y-119017265D01*
X123422881Y-119002232D01*
X123716108Y-118709005D01*
X123778420Y-118674979D01*
X123805203Y-118672100D01*
X124333500Y-118672100D01*
X124401621Y-118692102D01*
G37*
G04 #@! TD.AperFunction*
G04 #@! TA.AperFunction,Conductor*
G36*
X142595926Y-125552502D02*
G01*
X142642419Y-125606158D01*
X142652523Y-125676432D01*
X142623029Y-125741012D01*
X142616900Y-125747595D01*
X139028220Y-129336275D01*
X138965908Y-129370301D01*
X138939125Y-129373180D01*
X123926497Y-129373180D01*
X123858376Y-129353178D01*
X123811883Y-129299522D01*
X123801779Y-129229248D01*
X123831273Y-129164668D01*
X123837402Y-129158085D01*
X127426082Y-125569405D01*
X127488394Y-125535379D01*
X127515177Y-125532500D01*
X142527805Y-125532500D01*
X142595926Y-125552502D01*
G37*
G04 #@! TD.AperFunction*
G04 #@! TA.AperFunction,Conductor*
G36*
X103295130Y-112413734D02*
G01*
X104938819Y-114057424D01*
X106582195Y-115700800D01*
X106616221Y-115763112D01*
X106619100Y-115789895D01*
X106619100Y-117543500D01*
X106599098Y-117611621D01*
X106545442Y-117658114D01*
X106493100Y-117669500D01*
X105374600Y-117669500D01*
X105371354Y-117669837D01*
X105371350Y-117669837D01*
X105275692Y-117679762D01*
X105275688Y-117679763D01*
X105268834Y-117680474D01*
X105262298Y-117682655D01*
X105262296Y-117682655D01*
X105162083Y-117716089D01*
X105101054Y-117736450D01*
X104950652Y-117829522D01*
X104825695Y-117954697D01*
X104821855Y-117960927D01*
X104821854Y-117960928D01*
X104748631Y-118079718D01*
X104732885Y-118105262D01*
X104708905Y-118177559D01*
X104689551Y-118235912D01*
X104677203Y-118273139D01*
X104676503Y-118279975D01*
X104676502Y-118279978D01*
X104673419Y-118310073D01*
X104666500Y-118377600D01*
X104666500Y-119314497D01*
X104646498Y-119382618D01*
X104629595Y-119403592D01*
X101079992Y-122953195D01*
X101017680Y-122987221D01*
X100990897Y-122990100D01*
X90965594Y-122990100D01*
X90897473Y-122970098D01*
X90850980Y-122916442D01*
X90840876Y-122846168D01*
X90870370Y-122781588D01*
X90876499Y-122775005D01*
X95307405Y-118344099D01*
X95369717Y-118310073D01*
X95440532Y-118315138D01*
X95497368Y-118357685D01*
X95522179Y-118424205D01*
X95522500Y-118433194D01*
X95522500Y-120188400D01*
X95522837Y-120191646D01*
X95522837Y-120191650D01*
X95532600Y-120285741D01*
X95533474Y-120294166D01*
X95535655Y-120300702D01*
X95535655Y-120300704D01*
X95571414Y-120407886D01*
X95589450Y-120461946D01*
X95682522Y-120612348D01*
X95807697Y-120737305D01*
X95813927Y-120741145D01*
X95813928Y-120741146D01*
X95951090Y-120825694D01*
X95958262Y-120830115D01*
X96025444Y-120852398D01*
X96119611Y-120883632D01*
X96119613Y-120883632D01*
X96126139Y-120885797D01*
X96132975Y-120886497D01*
X96132978Y-120886498D01*
X96176031Y-120890909D01*
X96230600Y-120896500D01*
X97571400Y-120896500D01*
X97574646Y-120896163D01*
X97574650Y-120896163D01*
X97670308Y-120886238D01*
X97670312Y-120886237D01*
X97677166Y-120885526D01*
X97683702Y-120883345D01*
X97683704Y-120883345D01*
X97815806Y-120839272D01*
X97844946Y-120829550D01*
X97995348Y-120736478D01*
X98120305Y-120611303D01*
X98124364Y-120604719D01*
X98213115Y-120460738D01*
X98215132Y-120461982D01*
X98254537Y-120417225D01*
X98322813Y-120397761D01*
X98390774Y-120418300D01*
X98412989Y-120436785D01*
X98520924Y-120549930D01*
X98528892Y-120556979D01*
X98707952Y-120690203D01*
X98716982Y-120695802D01*
X98915931Y-120796953D01*
X98925792Y-120800956D01*
X99138929Y-120867138D01*
X99149309Y-120869420D01*
X99169043Y-120872036D01*
X99183207Y-120869840D01*
X99187000Y-120856655D01*
X99187000Y-120854627D01*
X99695000Y-120854627D01*
X99698973Y-120868158D01*
X99709580Y-120869683D01*
X99833188Y-120843748D01*
X99843384Y-120840688D01*
X100050952Y-120758716D01*
X100060489Y-120753982D01*
X100251285Y-120638204D01*
X100259878Y-120631938D01*
X100428441Y-120485667D01*
X100435861Y-120478036D01*
X100577368Y-120305458D01*
X100583393Y-120296691D01*
X100601989Y-120264022D01*
X100653071Y-120214715D01*
X100722702Y-120200854D01*
X100788773Y-120226837D01*
X100816011Y-120255987D01*
X100833393Y-120281805D01*
X100902798Y-120384896D01*
X100906477Y-120388753D01*
X100906479Y-120388755D01*
X100952298Y-120436785D01*
X101064276Y-120554168D01*
X101068554Y-120557351D01*
X101085165Y-120569710D01*
X101251965Y-120693813D01*
X101256716Y-120696229D01*
X101256720Y-120696231D01*
X101454989Y-120797036D01*
X101460500Y-120799838D01*
X101683917Y-120869210D01*
X101689204Y-120869911D01*
X101689205Y-120869911D01*
X101910545Y-120899248D01*
X101910549Y-120899248D01*
X101915829Y-120899948D01*
X101921158Y-120899748D01*
X101921160Y-120899748D01*
X102032716Y-120895560D01*
X102149604Y-120891172D01*
X102243969Y-120871372D01*
X102373332Y-120844229D01*
X102373335Y-120844228D01*
X102378559Y-120843132D01*
X102596146Y-120757203D01*
X102697332Y-120695802D01*
X102791583Y-120638609D01*
X102791586Y-120638607D01*
X102796144Y-120635841D01*
X102972834Y-120482517D01*
X103121165Y-120301614D01*
X103220962Y-120126297D01*
X103234255Y-120102945D01*
X103234256Y-120102943D01*
X103236896Y-120098305D01*
X103316716Y-119878404D01*
X103321283Y-119853152D01*
X103357605Y-119652281D01*
X103358344Y-119648197D01*
X103359500Y-119623684D01*
X103359500Y-119009262D01*
X103350614Y-118904537D01*
X103345156Y-118840209D01*
X103345155Y-118840205D01*
X103344705Y-118834898D01*
X103343366Y-118829738D01*
X103287275Y-118613629D01*
X103287274Y-118613625D01*
X103285933Y-118608460D01*
X103279286Y-118593703D01*
X103198199Y-118413697D01*
X103189850Y-118395163D01*
X103059202Y-118201104D01*
X103053809Y-118195450D01*
X102974400Y-118112209D01*
X102897724Y-118031832D01*
X102883854Y-118021512D01*
X102784232Y-117947391D01*
X102710035Y-117892187D01*
X102705284Y-117889771D01*
X102705280Y-117889769D01*
X102506256Y-117788580D01*
X102506255Y-117788580D01*
X102501500Y-117786162D01*
X102278083Y-117716790D01*
X102272796Y-117716089D01*
X102272795Y-117716089D01*
X102051455Y-117686752D01*
X102051451Y-117686752D01*
X102046171Y-117686052D01*
X102040842Y-117686252D01*
X102040840Y-117686252D01*
X101945133Y-117689845D01*
X101812396Y-117694828D01*
X101785488Y-117700474D01*
X101588668Y-117741771D01*
X101588665Y-117741772D01*
X101583441Y-117742868D01*
X101365854Y-117828797D01*
X101361290Y-117831566D01*
X101361291Y-117831566D01*
X101170417Y-117947391D01*
X101170414Y-117947393D01*
X101165856Y-117950159D01*
X100989166Y-118103483D01*
X100840835Y-118284386D01*
X100838196Y-118289022D01*
X100838194Y-118289025D01*
X100819423Y-118322001D01*
X100768341Y-118371307D01*
X100698711Y-118385169D01*
X100632640Y-118359186D01*
X100605401Y-118330036D01*
X100521790Y-118205845D01*
X100515129Y-118197559D01*
X100361076Y-118036070D01*
X100353108Y-118029021D01*
X100174048Y-117895797D01*
X100165018Y-117890198D01*
X99966069Y-117789047D01*
X99956208Y-117785044D01*
X99743071Y-117718862D01*
X99732691Y-117716580D01*
X99712957Y-117713964D01*
X99698793Y-117716160D01*
X99695000Y-117729345D01*
X99695000Y-120854627D01*
X99187000Y-120854627D01*
X99187000Y-117731373D01*
X99183027Y-117717842D01*
X99172420Y-117716317D01*
X99048812Y-117742252D01*
X99038616Y-117745312D01*
X98831048Y-117827284D01*
X98821511Y-117832018D01*
X98630715Y-117947796D01*
X98622122Y-117954062D01*
X98453559Y-118100333D01*
X98446138Y-118107965D01*
X98418827Y-118141272D01*
X98360167Y-118181266D01*
X98289197Y-118183197D01*
X98228449Y-118146452D01*
X98213196Y-118123654D01*
X98212550Y-118124054D01*
X98123332Y-117979880D01*
X98119478Y-117973652D01*
X97994303Y-117848695D01*
X97988072Y-117844854D01*
X97849968Y-117759725D01*
X97849966Y-117759724D01*
X97843738Y-117755885D01*
X97740887Y-117721771D01*
X97682389Y-117702368D01*
X97682387Y-117702368D01*
X97675861Y-117700203D01*
X97669025Y-117699503D01*
X97669022Y-117699502D01*
X97621449Y-117694628D01*
X97571400Y-117689500D01*
X96266195Y-117689500D01*
X96198074Y-117669498D01*
X96151581Y-117615842D01*
X96141477Y-117545568D01*
X96170971Y-117480988D01*
X96177100Y-117474405D01*
X100945481Y-112706024D01*
X101007793Y-112671998D01*
X101078608Y-112677063D01*
X101109785Y-112694028D01*
X101251965Y-112799813D01*
X101256716Y-112802229D01*
X101256720Y-112802231D01*
X101409645Y-112879982D01*
X101460500Y-112905838D01*
X101683917Y-112975210D01*
X101689204Y-112975911D01*
X101689205Y-112975911D01*
X101910545Y-113005248D01*
X101910549Y-113005248D01*
X101915829Y-113005948D01*
X101921158Y-113005748D01*
X101921160Y-113005748D01*
X102032716Y-113001560D01*
X102149604Y-112997172D01*
X102261813Y-112973628D01*
X102373332Y-112950229D01*
X102373335Y-112950228D01*
X102378559Y-112949132D01*
X102596146Y-112863203D01*
X102672901Y-112816627D01*
X102791583Y-112744609D01*
X102791586Y-112744607D01*
X102796144Y-112741841D01*
X102972834Y-112588517D01*
X103033315Y-112514755D01*
X103108601Y-112422938D01*
X103167261Y-112382943D01*
X103238231Y-112381012D01*
X103295130Y-112413734D01*
G37*
G04 #@! TD.AperFunction*
G04 #@! TA.AperFunction,Conductor*
G36*
X138474032Y-118826924D02*
G01*
X138519095Y-118855885D01*
X139477003Y-119813793D01*
X139488777Y-119820223D01*
X139500793Y-119810926D01*
X139530897Y-119767932D01*
X139536377Y-119758441D01*
X139585529Y-119653035D01*
X139632447Y-119599750D01*
X139700724Y-119580289D01*
X139768684Y-119600831D01*
X139813919Y-119653035D01*
X139863186Y-119758689D01*
X139863189Y-119758694D01*
X139865512Y-119763676D01*
X139868668Y-119768183D01*
X139868669Y-119768185D01*
X139988647Y-119939531D01*
X139993023Y-119945781D01*
X140150219Y-120102977D01*
X140154727Y-120106134D01*
X140154730Y-120106136D01*
X140183523Y-120126297D01*
X140331238Y-120229728D01*
X140375565Y-120285184D01*
X140382874Y-120355803D01*
X140348061Y-120422035D01*
X139203884Y-121566211D01*
X138064200Y-122705895D01*
X138001888Y-122739921D01*
X137975105Y-122742800D01*
X137060956Y-122742800D01*
X136992835Y-122722798D01*
X136946342Y-122669142D01*
X136935460Y-122605542D01*
X136937305Y-122584972D01*
X136938682Y-122569627D01*
X136938833Y-122557285D01*
X136933995Y-122482964D01*
X136933729Y-122474779D01*
X136933729Y-122130481D01*
X136934233Y-122119223D01*
X136938464Y-122072053D01*
X136938682Y-122069627D01*
X136938833Y-122057285D01*
X136933683Y-121978171D01*
X136924532Y-121914273D01*
X136914016Y-121840839D01*
X136914015Y-121840833D01*
X136913379Y-121836394D01*
X136911952Y-121831512D01*
X136873755Y-121700892D01*
X136872497Y-121696590D01*
X136813217Y-121566211D01*
X136810805Y-121562440D01*
X136810801Y-121562432D01*
X136737157Y-121447279D01*
X136737156Y-121447278D01*
X136734742Y-121443503D01*
X136641252Y-121335002D01*
X136637872Y-121332053D01*
X136596670Y-121296110D01*
X136558486Y-121236256D01*
X136553500Y-121201162D01*
X136553500Y-120277998D01*
X136573502Y-120209877D01*
X136597626Y-120184777D01*
X137735777Y-120184777D01*
X137745074Y-120196793D01*
X137788069Y-120226898D01*
X137797555Y-120232376D01*
X137988993Y-120321645D01*
X137999285Y-120325391D01*
X138203309Y-120380059D01*
X138214104Y-120381962D01*
X138424525Y-120400372D01*
X138435475Y-120400372D01*
X138645896Y-120381962D01*
X138656691Y-120380059D01*
X138860715Y-120325391D01*
X138871007Y-120321645D01*
X139062445Y-120232376D01*
X139071931Y-120226898D01*
X139115764Y-120196207D01*
X139124139Y-120185729D01*
X139117071Y-120172281D01*
X138442812Y-119498022D01*
X138428868Y-119490408D01*
X138427035Y-119490539D01*
X138420420Y-119494790D01*
X137742207Y-120173003D01*
X137735777Y-120184777D01*
X136597626Y-120184777D01*
X136607229Y-120174785D01*
X136705270Y-120106136D01*
X136705273Y-120106134D01*
X136709781Y-120102977D01*
X136866977Y-119945781D01*
X136871354Y-119939531D01*
X136991331Y-119768185D01*
X136991332Y-119768183D01*
X136994488Y-119763676D01*
X136996811Y-119758694D01*
X136996814Y-119758689D01*
X137046081Y-119653035D01*
X137092999Y-119599750D01*
X137161276Y-119580289D01*
X137229236Y-119600831D01*
X137274471Y-119653035D01*
X137323623Y-119758441D01*
X137329103Y-119767932D01*
X137359794Y-119811765D01*
X137370271Y-119820140D01*
X137383718Y-119813072D01*
X138340905Y-118855885D01*
X138403217Y-118821859D01*
X138474032Y-118826924D01*
G37*
G04 #@! TD.AperFunction*
G04 #@! TA.AperFunction,Conductor*
G36*
X106379618Y-113042502D02*
G01*
X106400592Y-113059405D01*
X110841069Y-117499882D01*
X110875095Y-117562194D01*
X110870030Y-117633009D01*
X110827483Y-117689845D01*
X110777848Y-117712291D01*
X110727441Y-117722868D01*
X110509854Y-117808797D01*
X110505290Y-117811566D01*
X110505291Y-117811566D01*
X110314417Y-117927391D01*
X110314414Y-117927393D01*
X110309856Y-117930159D01*
X110133166Y-118083483D01*
X109984835Y-118264386D01*
X109982196Y-118269022D01*
X109982194Y-118269025D01*
X109963423Y-118302001D01*
X109912341Y-118351307D01*
X109842711Y-118365169D01*
X109776640Y-118339186D01*
X109749401Y-118310036D01*
X109665790Y-118185845D01*
X109659129Y-118177559D01*
X109505076Y-118016070D01*
X109497108Y-118009021D01*
X109318048Y-117875797D01*
X109309018Y-117870198D01*
X109110069Y-117769047D01*
X109100208Y-117765044D01*
X108887071Y-117698862D01*
X108876691Y-117696580D01*
X108856957Y-117693964D01*
X108842793Y-117696160D01*
X108839000Y-117709345D01*
X108839000Y-119401000D01*
X108818998Y-119469121D01*
X108765342Y-119515614D01*
X108713000Y-119527000D01*
X108457000Y-119527000D01*
X108388879Y-119506998D01*
X108342386Y-119453342D01*
X108331000Y-119401000D01*
X108331000Y-117711373D01*
X108327027Y-117697842D01*
X108316420Y-117696317D01*
X108192812Y-117722252D01*
X108182616Y-117725312D01*
X108058381Y-117774374D01*
X107987675Y-117780792D01*
X107924724Y-117747964D01*
X107889514Y-117686314D01*
X107886100Y-117657182D01*
X107886100Y-115554068D01*
X107886627Y-115542885D01*
X107888302Y-115535392D01*
X107886162Y-115467301D01*
X107886100Y-115463344D01*
X107886100Y-115435444D01*
X107885596Y-115431453D01*
X107884663Y-115419611D01*
X107884584Y-115417077D01*
X107883274Y-115375411D01*
X107881062Y-115367797D01*
X107881061Y-115367792D01*
X107877623Y-115355959D01*
X107873612Y-115336595D01*
X107872067Y-115324364D01*
X107871074Y-115316503D01*
X107868157Y-115309136D01*
X107868156Y-115309131D01*
X107854798Y-115275392D01*
X107850954Y-115264165D01*
X107840830Y-115229322D01*
X107838618Y-115221707D01*
X107828307Y-115204272D01*
X107819612Y-115186524D01*
X107812152Y-115167683D01*
X107801798Y-115153431D01*
X107786164Y-115131913D01*
X107779648Y-115121993D01*
X107761180Y-115090765D01*
X107761178Y-115090762D01*
X107757142Y-115083938D01*
X107742821Y-115069617D01*
X107729980Y-115054583D01*
X107727037Y-115050532D01*
X107718072Y-115038193D01*
X107683995Y-115010002D01*
X107675216Y-115002012D01*
X105910799Y-113237595D01*
X105876773Y-113175283D01*
X105881838Y-113104468D01*
X105924385Y-113047632D01*
X105990905Y-113022821D01*
X105999894Y-113022500D01*
X106311497Y-113022500D01*
X106379618Y-113042502D01*
G37*
G04 #@! TD.AperFunction*
G04 #@! TA.AperFunction,Conductor*
G36*
X165705057Y-108459500D02*
G01*
X165719858Y-108461805D01*
X165719861Y-108461805D01*
X165728730Y-108463186D01*
X165742769Y-108461350D01*
X165768989Y-108460675D01*
X165943654Y-108474421D01*
X165963181Y-108477514D01*
X166157059Y-108524060D01*
X166175854Y-108530167D01*
X166360067Y-108606471D01*
X166377678Y-108615445D01*
X166547685Y-108719626D01*
X166563673Y-108731241D01*
X166707125Y-108853760D01*
X166715288Y-108860732D01*
X166729266Y-108874710D01*
X166858759Y-109026327D01*
X166870374Y-109042315D01*
X166974555Y-109212322D01*
X166983529Y-109229933D01*
X167058403Y-109410694D01*
X167059831Y-109414141D01*
X167065940Y-109432941D01*
X167094253Y-109550872D01*
X167112486Y-109626818D01*
X167115579Y-109646347D01*
X167128774Y-109814013D01*
X167128133Y-109830881D01*
X167128305Y-109830883D01*
X167128195Y-109839859D01*
X167126814Y-109848730D01*
X167127978Y-109857632D01*
X167127978Y-109857635D01*
X167130936Y-109880251D01*
X167132000Y-109896589D01*
X167132000Y-117760597D01*
X167111998Y-117828718D01*
X167058342Y-117875211D01*
X166988068Y-117885315D01*
X166923488Y-117855821D01*
X166916905Y-117849692D01*
X160877381Y-111810168D01*
X160864540Y-111795135D01*
X160860146Y-111789087D01*
X160860145Y-111789086D01*
X160856266Y-111783747D01*
X160805441Y-111737984D01*
X160800656Y-111733443D01*
X160786141Y-111718928D01*
X160772508Y-111707888D01*
X160770184Y-111706006D01*
X160765169Y-111701722D01*
X160719255Y-111660381D01*
X160719250Y-111660377D01*
X160714344Y-111655960D01*
X160708628Y-111652660D01*
X160708624Y-111652657D01*
X160702163Y-111648927D01*
X160685866Y-111637727D01*
X160680060Y-111633025D01*
X160680058Y-111633024D01*
X160674930Y-111628871D01*
X160669052Y-111625876D01*
X160669049Y-111625874D01*
X160613974Y-111597812D01*
X160608177Y-111594664D01*
X160554679Y-111563777D01*
X160554678Y-111563776D01*
X160548956Y-111560473D01*
X160542674Y-111558432D01*
X160542672Y-111558431D01*
X160535574Y-111556125D01*
X160517307Y-111548559D01*
X160504770Y-111542171D01*
X160438699Y-111524467D01*
X160432397Y-111522600D01*
X160367328Y-111501458D01*
X160360763Y-111500768D01*
X160360754Y-111500766D01*
X160353325Y-111499985D01*
X160333891Y-111496383D01*
X160326686Y-111494453D01*
X160326684Y-111494453D01*
X160320303Y-111492743D01*
X160313712Y-111492398D01*
X160313708Y-111492397D01*
X160252016Y-111489164D01*
X160245442Y-111488647D01*
X160228284Y-111486844D01*
X160228282Y-111486844D01*
X160225010Y-111486500D01*
X160204474Y-111486500D01*
X160197880Y-111486327D01*
X160136182Y-111483093D01*
X160136177Y-111483093D01*
X160129590Y-111482748D01*
X160115692Y-111484949D01*
X160095983Y-111486500D01*
X136107136Y-111486500D01*
X136039015Y-111466498D01*
X135995170Y-111418290D01*
X135994146Y-111416305D01*
X135961013Y-111352112D01*
X135951040Y-111337921D01*
X135827906Y-111162720D01*
X135803545Y-111128057D01*
X135682659Y-110997968D01*
X135620046Y-110930588D01*
X135620043Y-110930585D01*
X135617125Y-110927445D01*
X135613810Y-110924731D01*
X135613806Y-110924728D01*
X135468526Y-110805818D01*
X135405205Y-110753990D01*
X135401545Y-110751747D01*
X135373781Y-110734733D01*
X135326149Y-110682086D01*
X135314542Y-110612044D01*
X135342645Y-110546847D01*
X135401535Y-110507192D01*
X135439615Y-110501300D01*
X155801666Y-110501300D01*
X155859306Y-110516315D01*
X155859466Y-110515950D01*
X155861773Y-110516958D01*
X155863140Y-110517314D01*
X155870494Y-110521424D01*
X156058592Y-110582540D01*
X156254977Y-110605958D01*
X156261112Y-110605486D01*
X156261114Y-110605486D01*
X156446030Y-110591257D01*
X156446034Y-110591256D01*
X156452172Y-110590784D01*
X156642663Y-110537598D01*
X156648167Y-110534818D01*
X156648169Y-110534817D01*
X156813695Y-110451204D01*
X156813697Y-110451203D01*
X156819196Y-110448425D01*
X156975047Y-110326661D01*
X157104278Y-110176945D01*
X157201969Y-110004979D01*
X157264397Y-109817313D01*
X157289185Y-109621095D01*
X157289580Y-109592800D01*
X157270280Y-109395967D01*
X157268319Y-109389470D01*
X157220153Y-109229939D01*
X157213116Y-109206631D01*
X157120266Y-109032004D01*
X157012216Y-108899522D01*
X156999160Y-108883513D01*
X156999157Y-108883510D01*
X156995265Y-108878738D01*
X156990516Y-108874809D01*
X156847625Y-108756599D01*
X156847621Y-108756597D01*
X156842875Y-108752670D01*
X156735914Y-108694836D01*
X156685505Y-108644841D01*
X156670128Y-108575529D01*
X156694664Y-108508907D01*
X156751324Y-108466127D01*
X156795843Y-108458000D01*
X165685672Y-108458000D01*
X165705057Y-108459500D01*
G37*
G04 #@! TD.AperFunction*
M02*
