G04 #@! TF.GenerationSoftware,KiCad,Pcbnew,(6.0.0)*
G04 #@! TF.CreationDate,2022-01-08T16:55:08+01:00*
G04 #@! TF.ProjectId,ercf-easy-brd,65726366-2d65-4617-9379-2d6272642e6b,v1.0-beta1*
G04 #@! TF.SameCoordinates,Original*
G04 #@! TF.FileFunction,Legend,Top*
G04 #@! TF.FilePolarity,Positive*
%FSLAX46Y46*%
G04 Gerber Fmt 4.6, Leading zero omitted, Abs format (unit mm)*
G04 Created by KiCad (PCBNEW (6.0.0)) date 2022-01-08 16:55:08*
%MOMM*%
%LPD*%
G01*
G04 APERTURE LIST*
%ADD10C,0.200000*%
%ADD11C,0.300000*%
%ADD12C,0.150000*%
%ADD13C,0.120000*%
%ADD14C,0.127000*%
%ADD15C,0.010000*%
G04 APERTURE END LIST*
D10*
X116982142Y-137126142D02*
X117625000Y-137126142D01*
X117753571Y-137169000D01*
X117839285Y-137254714D01*
X117882142Y-137383285D01*
X117882142Y-137469000D01*
X117882142Y-136269000D02*
X117882142Y-136697571D01*
X116982142Y-136697571D01*
X117796428Y-135454714D02*
X117839285Y-135497571D01*
X117882142Y-135626142D01*
X117882142Y-135711857D01*
X117839285Y-135840428D01*
X117753571Y-135926142D01*
X117667857Y-135969000D01*
X117496428Y-136011857D01*
X117367857Y-136011857D01*
X117196428Y-135969000D01*
X117110714Y-135926142D01*
X117025000Y-135840428D01*
X116982142Y-135711857D01*
X116982142Y-135626142D01*
X117025000Y-135497571D01*
X117067857Y-135454714D01*
X116982142Y-134811857D02*
X117625000Y-134811857D01*
X117753571Y-134854714D01*
X117839285Y-134940428D01*
X117882142Y-135069000D01*
X117882142Y-135154714D01*
X117882142Y-133954714D02*
X117882142Y-134383285D01*
X116982142Y-134383285D01*
X117796428Y-133140428D02*
X117839285Y-133183285D01*
X117882142Y-133311857D01*
X117882142Y-133397571D01*
X117839285Y-133526142D01*
X117753571Y-133611857D01*
X117667857Y-133654714D01*
X117496428Y-133697571D01*
X117367857Y-133697571D01*
X117196428Y-133654714D01*
X117110714Y-133611857D01*
X117025000Y-133526142D01*
X116982142Y-133397571D01*
X116982142Y-133311857D01*
X117025000Y-133183285D01*
X117067857Y-133140428D01*
X116982142Y-132497571D02*
X117625000Y-132497571D01*
X117753571Y-132540428D01*
X117839285Y-132626142D01*
X117882142Y-132754714D01*
X117882142Y-132840428D01*
X117882142Y-131640428D02*
X117882142Y-132069000D01*
X116982142Y-132069000D01*
X117796428Y-130826142D02*
X117839285Y-130869000D01*
X117882142Y-130997571D01*
X117882142Y-131083285D01*
X117839285Y-131211857D01*
X117753571Y-131297571D01*
X117667857Y-131340428D01*
X117496428Y-131383285D01*
X117367857Y-131383285D01*
X117196428Y-131340428D01*
X117110714Y-131297571D01*
X117025000Y-131211857D01*
X116982142Y-131083285D01*
X116982142Y-130997571D01*
X117025000Y-130869000D01*
X117067857Y-130826142D01*
X116982142Y-130183285D02*
X117625000Y-130183285D01*
X117753571Y-130226142D01*
X117839285Y-130311857D01*
X117882142Y-130440428D01*
X117882142Y-130526142D01*
X117882142Y-129326142D02*
X117882142Y-129754714D01*
X116982142Y-129754714D01*
X117796428Y-128511857D02*
X117839285Y-128554714D01*
X117882142Y-128683285D01*
X117882142Y-128769000D01*
X117839285Y-128897571D01*
X117753571Y-128983285D01*
X117667857Y-129026142D01*
X117496428Y-129069000D01*
X117367857Y-129069000D01*
X117196428Y-129026142D01*
X117110714Y-128983285D01*
X117025000Y-128897571D01*
X116982142Y-128769000D01*
X116982142Y-128683285D01*
X117025000Y-128554714D01*
X117067857Y-128511857D01*
X137260190Y-110159095D02*
X137693523Y-111459095D01*
X138126857Y-110159095D01*
X138560190Y-111459095D02*
X138560190Y-110159095D01*
X139179238Y-111459095D02*
X139179238Y-110159095D01*
X139922095Y-111459095D01*
X139922095Y-110159095D01*
X113575714Y-114006000D02*
X113575714Y-113589333D01*
X114230476Y-113410761D02*
X114230476Y-114006000D01*
X112980476Y-114006000D01*
X112980476Y-113410761D01*
X112980476Y-112994095D02*
X114230476Y-112160761D01*
X112980476Y-112160761D02*
X114230476Y-112994095D01*
X112980476Y-111863142D02*
X112980476Y-111148857D01*
X114230476Y-111506000D02*
X112980476Y-111506000D01*
X114230476Y-110017904D02*
X113635238Y-110434571D01*
X114230476Y-110732190D02*
X112980476Y-110732190D01*
X112980476Y-110256000D01*
X113040000Y-110136952D01*
X113099523Y-110077428D01*
X113218571Y-110017904D01*
X113397142Y-110017904D01*
X113516190Y-110077428D01*
X113575714Y-110136952D01*
X113635238Y-110256000D01*
X113635238Y-110732190D01*
X113873333Y-109541714D02*
X113873333Y-108946476D01*
X114230476Y-109660761D02*
X112980476Y-109244095D01*
X114230476Y-108827428D01*
D11*
X137223571Y-112502142D02*
X138366428Y-112502142D01*
X137795000Y-113073571D02*
X137795000Y-111930714D01*
D10*
X94271714Y-120857380D02*
X94271714Y-120440714D01*
X94926476Y-120262142D02*
X94926476Y-120857380D01*
X93676476Y-120857380D01*
X93676476Y-120262142D01*
X94926476Y-119726428D02*
X93676476Y-119726428D01*
X94926476Y-119012142D01*
X93676476Y-119012142D01*
X94807428Y-117702619D02*
X94866952Y-117762142D01*
X94926476Y-117940714D01*
X94926476Y-118059761D01*
X94866952Y-118238333D01*
X94747904Y-118357380D01*
X94628857Y-118416904D01*
X94390761Y-118476428D01*
X94212190Y-118476428D01*
X93974095Y-118416904D01*
X93855047Y-118357380D01*
X93736000Y-118238333D01*
X93676476Y-118059761D01*
X93676476Y-117940714D01*
X93736000Y-117762142D01*
X93795523Y-117702619D01*
X149985190Y-134503000D02*
X149866142Y-134443476D01*
X149687571Y-134443476D01*
X149509000Y-134503000D01*
X149389952Y-134622047D01*
X149330428Y-134741095D01*
X149270904Y-134979190D01*
X149270904Y-135157761D01*
X149330428Y-135395857D01*
X149389952Y-135514904D01*
X149509000Y-135633952D01*
X149687571Y-135693476D01*
X149806619Y-135693476D01*
X149985190Y-135633952D01*
X150044714Y-135574428D01*
X150044714Y-135157761D01*
X149806619Y-135157761D01*
X150580428Y-135038714D02*
X150997095Y-135038714D01*
X151175666Y-135693476D02*
X150580428Y-135693476D01*
X150580428Y-134443476D01*
X151175666Y-134443476D01*
X151651857Y-135336333D02*
X152247095Y-135336333D01*
X151532809Y-135693476D02*
X151949476Y-134443476D01*
X152366142Y-135693476D01*
X153497095Y-135693476D02*
X153080428Y-135098238D01*
X152782809Y-135693476D02*
X152782809Y-134443476D01*
X153259000Y-134443476D01*
X153378047Y-134503000D01*
X153437571Y-134562523D01*
X153497095Y-134681571D01*
X153497095Y-134860142D01*
X153437571Y-134979190D01*
X153378047Y-135038714D01*
X153259000Y-135098238D01*
X152782809Y-135098238D01*
X134563000Y-135633952D02*
X134741571Y-135693476D01*
X135039190Y-135693476D01*
X135158238Y-135633952D01*
X135217761Y-135574428D01*
X135277285Y-135455380D01*
X135277285Y-135336333D01*
X135217761Y-135217285D01*
X135158238Y-135157761D01*
X135039190Y-135098238D01*
X134801095Y-135038714D01*
X134682047Y-134979190D01*
X134622523Y-134919666D01*
X134563000Y-134800619D01*
X134563000Y-134681571D01*
X134622523Y-134562523D01*
X134682047Y-134503000D01*
X134801095Y-134443476D01*
X135098714Y-134443476D01*
X135277285Y-134503000D01*
X135813000Y-135038714D02*
X136229666Y-135038714D01*
X136408238Y-135693476D02*
X135813000Y-135693476D01*
X135813000Y-134443476D01*
X136408238Y-134443476D01*
X137539190Y-135693476D02*
X136943952Y-135693476D01*
X136943952Y-134443476D01*
X137955857Y-135038714D02*
X138372523Y-135038714D01*
X138551095Y-135693476D02*
X137955857Y-135693476D01*
X137955857Y-134443476D01*
X138551095Y-134443476D01*
X139801095Y-135574428D02*
X139741571Y-135633952D01*
X139563000Y-135693476D01*
X139443952Y-135693476D01*
X139265380Y-135633952D01*
X139146333Y-135514904D01*
X139086809Y-135395857D01*
X139027285Y-135157761D01*
X139027285Y-134979190D01*
X139086809Y-134741095D01*
X139146333Y-134622047D01*
X139265380Y-134503000D01*
X139443952Y-134443476D01*
X139563000Y-134443476D01*
X139741571Y-134503000D01*
X139801095Y-134562523D01*
X140158238Y-134443476D02*
X140872523Y-134443476D01*
X140515380Y-135693476D02*
X140515380Y-134443476D01*
X141527285Y-134443476D02*
X141765380Y-134443476D01*
X141884428Y-134503000D01*
X142003476Y-134622047D01*
X142063000Y-134860142D01*
X142063000Y-135276809D01*
X142003476Y-135514904D01*
X141884428Y-135633952D01*
X141765380Y-135693476D01*
X141527285Y-135693476D01*
X141408238Y-135633952D01*
X141289190Y-135514904D01*
X141229666Y-135276809D01*
X141229666Y-134860142D01*
X141289190Y-134622047D01*
X141408238Y-134503000D01*
X141527285Y-134443476D01*
X143313000Y-135693476D02*
X142896333Y-135098238D01*
X142598714Y-135693476D02*
X142598714Y-134443476D01*
X143074904Y-134443476D01*
X143193952Y-134503000D01*
X143253476Y-134562523D01*
X143313000Y-134681571D01*
X143313000Y-134860142D01*
X143253476Y-134979190D01*
X143193952Y-135038714D01*
X143074904Y-135098238D01*
X142598714Y-135098238D01*
X114297952Y-122118095D02*
X114357476Y-121939523D01*
X114357476Y-121641904D01*
X114297952Y-121522857D01*
X114238428Y-121463333D01*
X114119380Y-121403809D01*
X114000333Y-121403809D01*
X113881285Y-121463333D01*
X113821761Y-121522857D01*
X113762238Y-121641904D01*
X113702714Y-121880000D01*
X113643190Y-121999047D01*
X113583666Y-122058571D01*
X113464619Y-122118095D01*
X113345571Y-122118095D01*
X113226523Y-122058571D01*
X113167000Y-121999047D01*
X113107476Y-121880000D01*
X113107476Y-121582380D01*
X113167000Y-121403809D01*
X113702714Y-120868095D02*
X113702714Y-120451428D01*
X114357476Y-120272857D02*
X114357476Y-120868095D01*
X113107476Y-120868095D01*
X113107476Y-120272857D01*
X114357476Y-119022857D02*
X113762238Y-119439523D01*
X114357476Y-119737142D02*
X113107476Y-119737142D01*
X113107476Y-119260952D01*
X113167000Y-119141904D01*
X113226523Y-119082380D01*
X113345571Y-119022857D01*
X113524142Y-119022857D01*
X113643190Y-119082380D01*
X113702714Y-119141904D01*
X113762238Y-119260952D01*
X113762238Y-119737142D01*
X113107476Y-118665714D02*
X114357476Y-118249047D01*
X113107476Y-117832380D01*
X113107476Y-117177619D02*
X113107476Y-116939523D01*
X113167000Y-116820476D01*
X113286047Y-116701428D01*
X113524142Y-116641904D01*
X113940809Y-116641904D01*
X114178904Y-116701428D01*
X114297952Y-116820476D01*
X114357476Y-116939523D01*
X114357476Y-117177619D01*
X114297952Y-117296666D01*
X114178904Y-117415714D01*
X113940809Y-117475238D01*
X113524142Y-117475238D01*
X113286047Y-117415714D01*
X113167000Y-117296666D01*
X113107476Y-117177619D01*
X85427285Y-113230714D02*
X85489190Y-113292619D01*
X85551095Y-113478333D01*
X85551095Y-113602142D01*
X85489190Y-113787857D01*
X85365380Y-113911666D01*
X85241571Y-113973571D01*
X84993952Y-114035476D01*
X84808238Y-114035476D01*
X84560619Y-113973571D01*
X84436809Y-113911666D01*
X84313000Y-113787857D01*
X84251095Y-113602142D01*
X84251095Y-113478333D01*
X84313000Y-113292619D01*
X84374904Y-113230714D01*
X85179666Y-112735476D02*
X85179666Y-112116428D01*
X85551095Y-112859285D02*
X84251095Y-112425952D01*
X85551095Y-111992619D01*
X85551095Y-111559285D02*
X84251095Y-111559285D01*
X85551095Y-110816428D01*
X84251095Y-110816428D01*
D12*
X156789428Y-112283714D02*
X156789428Y-111521809D01*
X157170380Y-111902761D02*
X156408476Y-111902761D01*
X156170380Y-110569428D02*
X156170380Y-111045619D01*
X156646571Y-111093238D01*
X156598952Y-111045619D01*
X156551333Y-110950380D01*
X156551333Y-110712285D01*
X156598952Y-110617047D01*
X156646571Y-110569428D01*
X156741809Y-110521809D01*
X156979904Y-110521809D01*
X157075142Y-110569428D01*
X157122761Y-110617047D01*
X157170380Y-110712285D01*
X157170380Y-110950380D01*
X157122761Y-111045619D01*
X157075142Y-111093238D01*
X156170380Y-110236095D02*
X157170380Y-109902761D01*
X156170380Y-109569428D01*
D11*
X138865714Y-116685142D02*
X138784761Y-116766095D01*
X138541904Y-116847047D01*
X138380000Y-116847047D01*
X138137142Y-116766095D01*
X137975238Y-116604190D01*
X137894285Y-116442285D01*
X137813333Y-116118476D01*
X137813333Y-115875619D01*
X137894285Y-115551809D01*
X137975238Y-115389904D01*
X138137142Y-115228000D01*
X138380000Y-115147047D01*
X138541904Y-115147047D01*
X138784761Y-115228000D01*
X138865714Y-115308952D01*
X139513333Y-116361333D02*
X140322857Y-116361333D01*
X139351428Y-116847047D02*
X139918095Y-115147047D01*
X140484761Y-116847047D01*
X141051428Y-116847047D02*
X141051428Y-115147047D01*
X142022857Y-116847047D01*
X142022857Y-115147047D01*
X142832380Y-116847047D02*
X142832380Y-115147047D01*
X143803809Y-116847047D01*
X143803809Y-115147047D01*
X144613333Y-115956571D02*
X145180000Y-115956571D01*
X145422857Y-116847047D02*
X144613333Y-116847047D01*
X144613333Y-115147047D01*
X145422857Y-115147047D01*
X146151428Y-116847047D02*
X146151428Y-115147047D01*
X146556190Y-115147047D01*
X146799047Y-115228000D01*
X146960952Y-115389904D01*
X147041904Y-115551809D01*
X147122857Y-115875619D01*
X147122857Y-116118476D01*
X147041904Y-116442285D01*
X146960952Y-116604190D01*
X146799047Y-116766095D01*
X146556190Y-116847047D01*
X146151428Y-116847047D01*
X149146666Y-115956571D02*
X149713333Y-115956571D01*
X149956190Y-116847047D02*
X149146666Y-116847047D01*
X149146666Y-115147047D01*
X149956190Y-115147047D01*
X151656190Y-116847047D02*
X151089523Y-116037523D01*
X150684761Y-116847047D02*
X150684761Y-115147047D01*
X151332380Y-115147047D01*
X151494285Y-115228000D01*
X151575238Y-115308952D01*
X151656190Y-115470857D01*
X151656190Y-115713714D01*
X151575238Y-115875619D01*
X151494285Y-115956571D01*
X151332380Y-116037523D01*
X150684761Y-116037523D01*
X153356190Y-116685142D02*
X153275238Y-116766095D01*
X153032380Y-116847047D01*
X152870476Y-116847047D01*
X152627619Y-116766095D01*
X152465714Y-116604190D01*
X152384761Y-116442285D01*
X152303809Y-116118476D01*
X152303809Y-115875619D01*
X152384761Y-115551809D01*
X152465714Y-115389904D01*
X152627619Y-115228000D01*
X152870476Y-115147047D01*
X153032380Y-115147047D01*
X153275238Y-115228000D01*
X153356190Y-115308952D01*
X154651428Y-115956571D02*
X154084761Y-115956571D01*
X154084761Y-116847047D02*
X154084761Y-115147047D01*
X154894285Y-115147047D01*
X157403809Y-115956571D02*
X157646666Y-116037523D01*
X157727619Y-116118476D01*
X157808571Y-116280380D01*
X157808571Y-116523238D01*
X157727619Y-116685142D01*
X157646666Y-116766095D01*
X157484761Y-116847047D01*
X156837142Y-116847047D01*
X156837142Y-115147047D01*
X157403809Y-115147047D01*
X157565714Y-115228000D01*
X157646666Y-115308952D01*
X157727619Y-115470857D01*
X157727619Y-115632761D01*
X157646666Y-115794666D01*
X157565714Y-115875619D01*
X157403809Y-115956571D01*
X156837142Y-115956571D01*
X158860952Y-115147047D02*
X159184761Y-115147047D01*
X159346666Y-115228000D01*
X159508571Y-115389904D01*
X159589523Y-115713714D01*
X159589523Y-116280380D01*
X159508571Y-116604190D01*
X159346666Y-116766095D01*
X159184761Y-116847047D01*
X158860952Y-116847047D01*
X158699047Y-116766095D01*
X158537142Y-116604190D01*
X158456190Y-116280380D01*
X158456190Y-115713714D01*
X158537142Y-115389904D01*
X158699047Y-115228000D01*
X158860952Y-115147047D01*
X160237142Y-116361333D02*
X161046666Y-116361333D01*
X160075238Y-116847047D02*
X160641904Y-115147047D01*
X161208571Y-116847047D01*
X162746666Y-116847047D02*
X162180000Y-116037523D01*
X161775238Y-116847047D02*
X161775238Y-115147047D01*
X162422857Y-115147047D01*
X162584761Y-115228000D01*
X162665714Y-115308952D01*
X162746666Y-115470857D01*
X162746666Y-115713714D01*
X162665714Y-115875619D01*
X162584761Y-115956571D01*
X162422857Y-116037523D01*
X161775238Y-116037523D01*
X163475238Y-116847047D02*
X163475238Y-115147047D01*
X163880000Y-115147047D01*
X164122857Y-115228000D01*
X164284761Y-115389904D01*
X164365714Y-115551809D01*
X164446666Y-115875619D01*
X164446666Y-116118476D01*
X164365714Y-116442285D01*
X164284761Y-116604190D01*
X164122857Y-116766095D01*
X163880000Y-116847047D01*
X163475238Y-116847047D01*
D12*
X149820380Y-111585238D02*
X150820380Y-111251904D01*
X149820380Y-110918571D01*
X150820380Y-110585238D02*
X149820380Y-110585238D01*
X150820380Y-110109047D02*
X149820380Y-110109047D01*
X150820380Y-109537619D01*
X149820380Y-109537619D01*
X153487428Y-113013904D02*
X153487428Y-112252000D01*
X153868380Y-112632952D02*
X153106476Y-112632952D01*
X152868380Y-111871047D02*
X152868380Y-111252000D01*
X153249333Y-111585333D01*
X153249333Y-111442476D01*
X153296952Y-111347238D01*
X153344571Y-111299619D01*
X153439809Y-111252000D01*
X153677904Y-111252000D01*
X153773142Y-111299619D01*
X153820761Y-111347238D01*
X153868380Y-111442476D01*
X153868380Y-111728190D01*
X153820761Y-111823428D01*
X153773142Y-111871047D01*
X152868380Y-110966285D02*
X153868380Y-110632952D01*
X152868380Y-110299619D01*
X152868380Y-110061523D02*
X152868380Y-109442476D01*
X153249333Y-109775809D01*
X153249333Y-109632952D01*
X153296952Y-109537714D01*
X153344571Y-109490095D01*
X153439809Y-109442476D01*
X153677904Y-109442476D01*
X153773142Y-109490095D01*
X153820761Y-109537714D01*
X153868380Y-109632952D01*
X153868380Y-109918666D01*
X153820761Y-110013904D01*
X153773142Y-110061523D01*
D10*
X94398714Y-113364380D02*
X94398714Y-112947714D01*
X95053476Y-112769142D02*
X95053476Y-113364380D01*
X93803476Y-113364380D01*
X93803476Y-112769142D01*
X95053476Y-112233428D02*
X93803476Y-112233428D01*
X95053476Y-111519142D01*
X93803476Y-111519142D01*
X95053476Y-110923904D02*
X93803476Y-110923904D01*
X93803476Y-110626285D01*
X93863000Y-110447714D01*
X93982047Y-110328666D01*
X94101095Y-110269142D01*
X94339190Y-110209619D01*
X94517761Y-110209619D01*
X94755857Y-110269142D01*
X94874904Y-110328666D01*
X94993952Y-110447714D01*
X95053476Y-110626285D01*
X95053476Y-110923904D01*
D12*
X145994380Y-113196666D02*
X145518190Y-113530000D01*
X145994380Y-113768095D02*
X144994380Y-113768095D01*
X144994380Y-113387142D01*
X145042000Y-113291904D01*
X145089619Y-113244285D01*
X145184857Y-113196666D01*
X145327714Y-113196666D01*
X145422952Y-113244285D01*
X145470571Y-113291904D01*
X145518190Y-113387142D01*
X145518190Y-113768095D01*
X144994380Y-112339523D02*
X144994380Y-112530000D01*
X145042000Y-112625238D01*
X145089619Y-112672857D01*
X145232476Y-112768095D01*
X145422952Y-112815714D01*
X145803904Y-112815714D01*
X145899142Y-112768095D01*
X145946761Y-112720476D01*
X145994380Y-112625238D01*
X145994380Y-112434761D01*
X145946761Y-112339523D01*
X145899142Y-112291904D01*
X145803904Y-112244285D01*
X145565809Y-112244285D01*
X145470571Y-112291904D01*
X145422952Y-112339523D01*
X145375333Y-112434761D01*
X145375333Y-112625238D01*
X145422952Y-112720476D01*
X145470571Y-112768095D01*
X145565809Y-112815714D01*
X144216380Y-113196666D02*
X143740190Y-113530000D01*
X144216380Y-113768095D02*
X143216380Y-113768095D01*
X143216380Y-113387142D01*
X143264000Y-113291904D01*
X143311619Y-113244285D01*
X143406857Y-113196666D01*
X143549714Y-113196666D01*
X143644952Y-113244285D01*
X143692571Y-113291904D01*
X143740190Y-113387142D01*
X143740190Y-113768095D01*
X143216380Y-112863333D02*
X143216380Y-112196666D01*
X144216380Y-112625238D01*
X142184380Y-113196666D02*
X141708190Y-113530000D01*
X142184380Y-113768095D02*
X141184380Y-113768095D01*
X141184380Y-113387142D01*
X141232000Y-113291904D01*
X141279619Y-113244285D01*
X141374857Y-113196666D01*
X141517714Y-113196666D01*
X141612952Y-113244285D01*
X141660571Y-113291904D01*
X141708190Y-113387142D01*
X141708190Y-113768095D01*
X141184380Y-112291904D02*
X141184380Y-112768095D01*
X141660571Y-112815714D01*
X141612952Y-112768095D01*
X141565333Y-112672857D01*
X141565333Y-112434761D01*
X141612952Y-112339523D01*
X141660571Y-112291904D01*
X141755809Y-112244285D01*
X141993904Y-112244285D01*
X142089142Y-112291904D01*
X142136761Y-112339523D01*
X142184380Y-112434761D01*
X142184380Y-112672857D01*
X142136761Y-112768095D01*
X142089142Y-112815714D01*
X125833142Y-114212666D02*
X125880761Y-114260285D01*
X125928380Y-114403142D01*
X125928380Y-114498380D01*
X125880761Y-114641238D01*
X125785523Y-114736476D01*
X125690285Y-114784095D01*
X125499809Y-114831714D01*
X125356952Y-114831714D01*
X125166476Y-114784095D01*
X125071238Y-114736476D01*
X124976000Y-114641238D01*
X124928380Y-114498380D01*
X124928380Y-114403142D01*
X124976000Y-114260285D01*
X125023619Y-114212666D01*
X125928380Y-113260285D02*
X125928380Y-113831714D01*
X125928380Y-113546000D02*
X124928380Y-113546000D01*
X125071238Y-113641238D01*
X125166476Y-113736476D01*
X125214095Y-113831714D01*
X80438666Y-108799380D02*
X80438666Y-109513666D01*
X80391047Y-109656523D01*
X80295809Y-109751761D01*
X80152952Y-109799380D01*
X80057714Y-109799380D01*
X81438666Y-109799380D02*
X80867238Y-109799380D01*
X81152952Y-109799380D02*
X81152952Y-108799380D01*
X81057714Y-108942238D01*
X80962476Y-109037476D01*
X80867238Y-109085095D01*
X108124666Y-122515380D02*
X108124666Y-123229666D01*
X108077047Y-123372523D01*
X107981809Y-123467761D01*
X107838952Y-123515380D01*
X107743714Y-123515380D01*
X108505619Y-122515380D02*
X109124666Y-122515380D01*
X108791333Y-122896333D01*
X108934190Y-122896333D01*
X109029428Y-122943952D01*
X109077047Y-122991571D01*
X109124666Y-123086809D01*
X109124666Y-123324904D01*
X109077047Y-123420142D01*
X109029428Y-123467761D01*
X108934190Y-123515380D01*
X108648476Y-123515380D01*
X108553238Y-123467761D01*
X108505619Y-123420142D01*
X99361666Y-122642380D02*
X99361666Y-123356666D01*
X99314047Y-123499523D01*
X99218809Y-123594761D01*
X99075952Y-123642380D01*
X98980714Y-123642380D01*
X100266428Y-122975714D02*
X100266428Y-123642380D01*
X100028333Y-122594761D02*
X99790238Y-123309047D01*
X100409285Y-123309047D01*
X99234666Y-114641380D02*
X99234666Y-115355666D01*
X99187047Y-115498523D01*
X99091809Y-115593761D01*
X98948952Y-115641380D01*
X98853714Y-115641380D01*
X100139428Y-114641380D02*
X99948952Y-114641380D01*
X99853714Y-114689000D01*
X99806095Y-114736619D01*
X99710857Y-114879476D01*
X99663238Y-115069952D01*
X99663238Y-115450904D01*
X99710857Y-115546142D01*
X99758476Y-115593761D01*
X99853714Y-115641380D01*
X100044190Y-115641380D01*
X100139428Y-115593761D01*
X100187047Y-115546142D01*
X100234666Y-115450904D01*
X100234666Y-115212809D01*
X100187047Y-115117571D01*
X100139428Y-115069952D01*
X100044190Y-115022333D01*
X99853714Y-115022333D01*
X99758476Y-115069952D01*
X99710857Y-115117571D01*
X99663238Y-115212809D01*
X157694380Y-139906333D02*
X158408666Y-139906333D01*
X158551523Y-139953952D01*
X158646761Y-140049190D01*
X158694380Y-140192047D01*
X158694380Y-140287285D01*
X157694380Y-139525380D02*
X157694380Y-138858714D01*
X158694380Y-139287285D01*
X132294380Y-140033333D02*
X133008666Y-140033333D01*
X133151523Y-140080952D01*
X133246761Y-140176190D01*
X133294380Y-140319047D01*
X133294380Y-140414285D01*
X132722952Y-139414285D02*
X132675333Y-139509523D01*
X132627714Y-139557142D01*
X132532476Y-139604761D01*
X132484857Y-139604761D01*
X132389619Y-139557142D01*
X132342000Y-139509523D01*
X132294380Y-139414285D01*
X132294380Y-139223809D01*
X132342000Y-139128571D01*
X132389619Y-139080952D01*
X132484857Y-139033333D01*
X132532476Y-139033333D01*
X132627714Y-139080952D01*
X132675333Y-139128571D01*
X132722952Y-139223809D01*
X132722952Y-139414285D01*
X132770571Y-139509523D01*
X132818190Y-139557142D01*
X132913428Y-139604761D01*
X133103904Y-139604761D01*
X133199142Y-139557142D01*
X133246761Y-139509523D01*
X133294380Y-139414285D01*
X133294380Y-139223809D01*
X133246761Y-139128571D01*
X133199142Y-139080952D01*
X133103904Y-139033333D01*
X132913428Y-139033333D01*
X132818190Y-139080952D01*
X132770571Y-139128571D01*
X132722952Y-139223809D01*
X93940333Y-129357380D02*
X93607000Y-128881190D01*
X93368904Y-129357380D02*
X93368904Y-128357380D01*
X93749857Y-128357380D01*
X93845095Y-128405000D01*
X93892714Y-128452619D01*
X93940333Y-128547857D01*
X93940333Y-128690714D01*
X93892714Y-128785952D01*
X93845095Y-128833571D01*
X93749857Y-128881190D01*
X93368904Y-128881190D01*
X94892714Y-129357380D02*
X94321285Y-129357380D01*
X94607000Y-129357380D02*
X94607000Y-128357380D01*
X94511761Y-128500238D01*
X94416523Y-128595476D01*
X94321285Y-128643095D01*
X84874380Y-117450666D02*
X84398190Y-117784000D01*
X84874380Y-118022095D02*
X83874380Y-118022095D01*
X83874380Y-117641142D01*
X83922000Y-117545904D01*
X83969619Y-117498285D01*
X84064857Y-117450666D01*
X84207714Y-117450666D01*
X84302952Y-117498285D01*
X84350571Y-117545904D01*
X84398190Y-117641142D01*
X84398190Y-118022095D01*
X83969619Y-117069714D02*
X83922000Y-117022095D01*
X83874380Y-116926857D01*
X83874380Y-116688761D01*
X83922000Y-116593523D01*
X83969619Y-116545904D01*
X84064857Y-116498285D01*
X84160095Y-116498285D01*
X84302952Y-116545904D01*
X84874380Y-117117333D01*
X84874380Y-116498285D01*
X160488333Y-123421380D02*
X160155000Y-122945190D01*
X159916904Y-123421380D02*
X159916904Y-122421380D01*
X160297857Y-122421380D01*
X160393095Y-122469000D01*
X160440714Y-122516619D01*
X160488333Y-122611857D01*
X160488333Y-122754714D01*
X160440714Y-122849952D01*
X160393095Y-122897571D01*
X160297857Y-122945190D01*
X159916904Y-122945190D01*
X160821666Y-122421380D02*
X161440714Y-122421380D01*
X161107380Y-122802333D01*
X161250238Y-122802333D01*
X161345476Y-122849952D01*
X161393095Y-122897571D01*
X161440714Y-122992809D01*
X161440714Y-123230904D01*
X161393095Y-123326142D01*
X161345476Y-123373761D01*
X161250238Y-123421380D01*
X160964523Y-123421380D01*
X160869285Y-123373761D01*
X160821666Y-123326142D01*
X139262591Y-123421380D02*
X138929258Y-122945190D01*
X138691162Y-123421380D02*
X138691162Y-122421380D01*
X139072115Y-122421380D01*
X139167353Y-122469000D01*
X139214972Y-122516619D01*
X139262591Y-122611857D01*
X139262591Y-122754714D01*
X139214972Y-122849952D01*
X139167353Y-122897571D01*
X139072115Y-122945190D01*
X138691162Y-122945190D01*
X140119734Y-122754714D02*
X140119734Y-123421380D01*
X139881638Y-122373761D02*
X139643543Y-123088047D01*
X140262591Y-123088047D01*
X120650095Y-120483380D02*
X120650095Y-121292904D01*
X120697714Y-121388142D01*
X120745333Y-121435761D01*
X120840571Y-121483380D01*
X121031047Y-121483380D01*
X121126285Y-121435761D01*
X121173904Y-121388142D01*
X121221523Y-121292904D01*
X121221523Y-120483380D01*
X122221523Y-121483380D02*
X121650095Y-121483380D01*
X121935809Y-121483380D02*
X121935809Y-120483380D01*
X121840571Y-120626238D01*
X121745333Y-120721476D01*
X121650095Y-120769095D01*
X164338095Y-133818380D02*
X164338095Y-134627904D01*
X164385714Y-134723142D01*
X164433333Y-134770761D01*
X164528571Y-134818380D01*
X164719047Y-134818380D01*
X164814285Y-134770761D01*
X164861904Y-134723142D01*
X164909523Y-134627904D01*
X164909523Y-133818380D01*
X165338095Y-133913619D02*
X165385714Y-133866000D01*
X165480952Y-133818380D01*
X165719047Y-133818380D01*
X165814285Y-133866000D01*
X165861904Y-133913619D01*
X165909523Y-134008857D01*
X165909523Y-134104095D01*
X165861904Y-134246952D01*
X165290476Y-134818380D01*
X165909523Y-134818380D01*
X137715666Y-108545380D02*
X137715666Y-109259666D01*
X137668047Y-109402523D01*
X137572809Y-109497761D01*
X137429952Y-109545380D01*
X137334714Y-109545380D01*
X138144238Y-108640619D02*
X138191857Y-108593000D01*
X138287095Y-108545380D01*
X138525190Y-108545380D01*
X138620428Y-108593000D01*
X138668047Y-108640619D01*
X138715666Y-108735857D01*
X138715666Y-108831095D01*
X138668047Y-108973952D01*
X138096619Y-109545380D01*
X138715666Y-109545380D01*
X125833142Y-110656666D02*
X125880761Y-110704285D01*
X125928380Y-110847142D01*
X125928380Y-110942380D01*
X125880761Y-111085238D01*
X125785523Y-111180476D01*
X125690285Y-111228095D01*
X125499809Y-111275714D01*
X125356952Y-111275714D01*
X125166476Y-111228095D01*
X125071238Y-111180476D01*
X124976000Y-111085238D01*
X124928380Y-110942380D01*
X124928380Y-110847142D01*
X124976000Y-110704285D01*
X125023619Y-110656666D01*
X125023619Y-110275714D02*
X124976000Y-110228095D01*
X124928380Y-110132857D01*
X124928380Y-109894761D01*
X124976000Y-109799523D01*
X125023619Y-109751904D01*
X125118857Y-109704285D01*
X125214095Y-109704285D01*
X125356952Y-109751904D01*
X125928380Y-110323333D01*
X125928380Y-109704285D01*
X108124666Y-114641380D02*
X108124666Y-115355666D01*
X108077047Y-115498523D01*
X107981809Y-115593761D01*
X107838952Y-115641380D01*
X107743714Y-115641380D01*
X109077047Y-114641380D02*
X108600857Y-114641380D01*
X108553238Y-115117571D01*
X108600857Y-115069952D01*
X108696095Y-115022333D01*
X108934190Y-115022333D01*
X109029428Y-115069952D01*
X109077047Y-115117571D01*
X109124666Y-115212809D01*
X109124666Y-115450904D01*
X109077047Y-115546142D01*
X109029428Y-115593761D01*
X108934190Y-115641380D01*
X108696095Y-115641380D01*
X108600857Y-115593761D01*
X108553238Y-115546142D01*
X155519380Y-113768095D02*
X154519380Y-113768095D01*
X154519380Y-113530000D01*
X154567000Y-113387142D01*
X154662238Y-113291904D01*
X154757476Y-113244285D01*
X154947952Y-113196666D01*
X155090809Y-113196666D01*
X155281285Y-113244285D01*
X155376523Y-113291904D01*
X155471761Y-113387142D01*
X155519380Y-113530000D01*
X155519380Y-113768095D01*
X154614619Y-112815714D02*
X154567000Y-112768095D01*
X154519380Y-112672857D01*
X154519380Y-112434761D01*
X154567000Y-112339523D01*
X154614619Y-112291904D01*
X154709857Y-112244285D01*
X154805095Y-112244285D01*
X154947952Y-112291904D01*
X155519380Y-112863333D01*
X155519380Y-112244285D01*
X124714095Y-133818380D02*
X124714095Y-134627904D01*
X124761714Y-134723142D01*
X124809333Y-134770761D01*
X124904571Y-134818380D01*
X125095047Y-134818380D01*
X125190285Y-134770761D01*
X125237904Y-134723142D01*
X125285523Y-134627904D01*
X125285523Y-133818380D01*
X125666476Y-133818380D02*
X126285523Y-133818380D01*
X125952190Y-134199333D01*
X126095047Y-134199333D01*
X126190285Y-134246952D01*
X126237904Y-134294571D01*
X126285523Y-134389809D01*
X126285523Y-134627904D01*
X126237904Y-134723142D01*
X126190285Y-134770761D01*
X126095047Y-134818380D01*
X125809333Y-134818380D01*
X125714095Y-134770761D01*
X125666476Y-134723142D01*
X152344380Y-113768095D02*
X151344380Y-113768095D01*
X151344380Y-113530000D01*
X151392000Y-113387142D01*
X151487238Y-113291904D01*
X151582476Y-113244285D01*
X151772952Y-113196666D01*
X151915809Y-113196666D01*
X152106285Y-113244285D01*
X152201523Y-113291904D01*
X152296761Y-113387142D01*
X152344380Y-113530000D01*
X152344380Y-113768095D01*
X151344380Y-112863333D02*
X151344380Y-112244285D01*
X151725333Y-112577619D01*
X151725333Y-112434761D01*
X151772952Y-112339523D01*
X151820571Y-112291904D01*
X151915809Y-112244285D01*
X152153904Y-112244285D01*
X152249142Y-112291904D01*
X152296761Y-112339523D01*
X152344380Y-112434761D01*
X152344380Y-112720476D01*
X152296761Y-112815714D01*
X152249142Y-112863333D01*
X80176666Y-133556285D02*
X80176666Y-133080095D01*
X80462380Y-133651523D02*
X79462380Y-133318190D01*
X80462380Y-132984857D01*
X80462380Y-132127714D02*
X80462380Y-132699142D01*
X80462380Y-132413428D02*
X79462380Y-132413428D01*
X79605238Y-132508666D01*
X79700476Y-132603904D01*
X79748095Y-132699142D01*
D11*
X90266380Y-133778523D02*
X90552095Y-133873761D01*
X91028285Y-133873761D01*
X91218761Y-133778523D01*
X91314000Y-133683285D01*
X91409238Y-133492809D01*
X91409238Y-133302333D01*
X91314000Y-133111857D01*
X91218761Y-133016619D01*
X91028285Y-132921380D01*
X90647333Y-132826142D01*
X90456857Y-132730904D01*
X90361619Y-132635666D01*
X90266380Y-132445190D01*
X90266380Y-132254714D01*
X90361619Y-132064238D01*
X90456857Y-131969000D01*
X90647333Y-131873761D01*
X91123523Y-131873761D01*
X91409238Y-131969000D01*
X93123523Y-133873761D02*
X93123523Y-132826142D01*
X93028285Y-132635666D01*
X92837809Y-132540428D01*
X92456857Y-132540428D01*
X92266380Y-132635666D01*
X93123523Y-133778523D02*
X92933047Y-133873761D01*
X92456857Y-133873761D01*
X92266380Y-133778523D01*
X92171142Y-133588047D01*
X92171142Y-133397571D01*
X92266380Y-133207095D01*
X92456857Y-133111857D01*
X92933047Y-133111857D01*
X93123523Y-133016619D01*
X94075904Y-133873761D02*
X94075904Y-132540428D01*
X94075904Y-132730904D02*
X94171142Y-132635666D01*
X94361619Y-132540428D01*
X94647333Y-132540428D01*
X94837809Y-132635666D01*
X94933047Y-132826142D01*
X94933047Y-133873761D01*
X94933047Y-132826142D02*
X95028285Y-132635666D01*
X95218761Y-132540428D01*
X95504476Y-132540428D01*
X95694952Y-132635666D01*
X95790190Y-132826142D01*
X95790190Y-133873761D01*
X96742571Y-133873761D02*
X96742571Y-132540428D01*
X96742571Y-132730904D02*
X96837809Y-132635666D01*
X97028285Y-132540428D01*
X97314000Y-132540428D01*
X97504476Y-132635666D01*
X97599714Y-132826142D01*
X97599714Y-133873761D01*
X97599714Y-132826142D02*
X97694952Y-132635666D01*
X97885428Y-132540428D01*
X98171142Y-132540428D01*
X98361619Y-132635666D01*
X98456857Y-132826142D01*
X98456857Y-133873761D01*
X99218761Y-132540428D02*
X99694952Y-133873761D01*
X100171142Y-132540428D02*
X99694952Y-133873761D01*
X99504476Y-134349952D01*
X99409238Y-134445190D01*
X99218761Y-134540428D01*
X100933047Y-133111857D02*
X102456857Y-133111857D01*
X104552095Y-133683285D02*
X104456857Y-133778523D01*
X104171142Y-133873761D01*
X103980666Y-133873761D01*
X103694952Y-133778523D01*
X103504476Y-133588047D01*
X103409238Y-133397571D01*
X103314000Y-133016619D01*
X103314000Y-132730904D01*
X103409238Y-132349952D01*
X103504476Y-132159476D01*
X103694952Y-131969000D01*
X103980666Y-131873761D01*
X104171142Y-131873761D01*
X104456857Y-131969000D01*
X104552095Y-132064238D01*
X105314000Y-132064238D02*
X105409238Y-131969000D01*
X105599714Y-131873761D01*
X106075904Y-131873761D01*
X106266380Y-131969000D01*
X106361619Y-132064238D01*
X106456857Y-132254714D01*
X106456857Y-132445190D01*
X106361619Y-132730904D01*
X105218761Y-133873761D01*
X106456857Y-133873761D01*
X108361619Y-133873761D02*
X107218761Y-133873761D01*
X107790190Y-133873761D02*
X107790190Y-131873761D01*
X107599714Y-132159476D01*
X107409238Y-132349952D01*
X107218761Y-132445190D01*
D12*
X138390333Y-125833142D02*
X138342714Y-125880761D01*
X138199857Y-125928380D01*
X138104619Y-125928380D01*
X137961761Y-125880761D01*
X137866523Y-125785523D01*
X137818904Y-125690285D01*
X137771285Y-125499809D01*
X137771285Y-125356952D01*
X137818904Y-125166476D01*
X137866523Y-125071238D01*
X137961761Y-124976000D01*
X138104619Y-124928380D01*
X138199857Y-124928380D01*
X138342714Y-124976000D01*
X138390333Y-125023619D01*
X138723666Y-124928380D02*
X139342714Y-124928380D01*
X139009380Y-125309333D01*
X139152238Y-125309333D01*
X139247476Y-125356952D01*
X139295095Y-125404571D01*
X139342714Y-125499809D01*
X139342714Y-125737904D01*
X139295095Y-125833142D01*
X139247476Y-125880761D01*
X139152238Y-125928380D01*
X138866523Y-125928380D01*
X138771285Y-125880761D01*
X138723666Y-125833142D01*
X159472333Y-125833142D02*
X159424714Y-125880761D01*
X159281857Y-125928380D01*
X159186619Y-125928380D01*
X159043761Y-125880761D01*
X158948523Y-125785523D01*
X158900904Y-125690285D01*
X158853285Y-125499809D01*
X158853285Y-125356952D01*
X158900904Y-125166476D01*
X158948523Y-125071238D01*
X159043761Y-124976000D01*
X159186619Y-124928380D01*
X159281857Y-124928380D01*
X159424714Y-124976000D01*
X159472333Y-125023619D01*
X160329476Y-125261714D02*
X160329476Y-125928380D01*
X160091380Y-124880761D02*
X159853285Y-125595047D01*
X160472333Y-125595047D01*
X149169380Y-113768095D02*
X148169380Y-113768095D01*
X148169380Y-113530000D01*
X148217000Y-113387142D01*
X148312238Y-113291904D01*
X148407476Y-113244285D01*
X148597952Y-113196666D01*
X148740809Y-113196666D01*
X148931285Y-113244285D01*
X149026523Y-113291904D01*
X149121761Y-113387142D01*
X149169380Y-113530000D01*
X149169380Y-113768095D01*
X149169380Y-112244285D02*
X149169380Y-112815714D01*
X149169380Y-112530000D02*
X148169380Y-112530000D01*
X148312238Y-112625238D01*
X148407476Y-112720476D01*
X148455095Y-112815714D01*
D13*
X146064500Y-110252742D02*
X146064500Y-110727258D01*
X145019500Y-110252742D02*
X145019500Y-110727258D01*
X144159500Y-110252742D02*
X144159500Y-110727258D01*
X143114500Y-110252742D02*
X143114500Y-110727258D01*
X142254500Y-110252742D02*
X142254500Y-110727258D01*
X141209500Y-110252742D02*
X141209500Y-110727258D01*
X122963000Y-114307252D02*
X122963000Y-113784748D01*
X124433000Y-114307252D02*
X124433000Y-113784748D01*
X83401000Y-119507000D02*
X82401000Y-119507000D01*
X77981000Y-118707000D02*
X77381000Y-118707000D01*
X81871000Y-112137000D02*
X82401000Y-111887000D01*
X77981000Y-113627000D02*
X77381000Y-113627000D01*
X77381000Y-115227000D02*
X77981000Y-115227000D01*
X77381000Y-117767000D02*
X77981000Y-117767000D01*
X77981000Y-112687000D02*
X77981000Y-111087000D01*
X77981000Y-115227000D02*
X77981000Y-113627000D01*
X83401000Y-119257000D02*
X82401000Y-119257000D01*
X77981000Y-111087000D02*
X77381000Y-111087000D01*
X77381000Y-112687000D02*
X77981000Y-112687000D01*
X78411000Y-121177000D02*
X82411000Y-121177000D01*
X77381000Y-110507000D02*
X77381000Y-120887000D01*
X82401000Y-111887000D02*
X83401000Y-111887000D01*
X83401000Y-112137000D02*
X82401000Y-112137000D01*
X82401000Y-119507000D02*
X82401000Y-111887000D01*
X83401000Y-120887000D02*
X83401000Y-110507000D01*
X77981000Y-117767000D02*
X77981000Y-116167000D01*
X77981000Y-120307000D02*
X77981000Y-118707000D01*
X77381000Y-120887000D02*
X83401000Y-120887000D01*
X77981000Y-116167000D02*
X77381000Y-116167000D01*
X77381000Y-120307000D02*
X77981000Y-120307000D01*
X83401000Y-110507000D02*
X77381000Y-110507000D01*
X82401000Y-119507000D02*
X81871000Y-119257000D01*
X81871000Y-119257000D02*
X81871000Y-112137000D01*
X105245000Y-116243000D02*
X105245000Y-116843000D01*
X110325000Y-116243000D02*
X110325000Y-116843000D01*
X105245000Y-116843000D02*
X106845000Y-116843000D01*
X106845000Y-116843000D02*
X106845000Y-116243000D01*
X107785000Y-116243000D02*
X107785000Y-116843000D01*
X111125000Y-121263000D02*
X111125000Y-122263000D01*
X112505000Y-122263000D02*
X112505000Y-116243000D01*
X104375000Y-117273000D02*
X104375000Y-121273000D01*
X106045000Y-121263000D02*
X106295000Y-120733000D01*
X106045000Y-121263000D02*
X111125000Y-121263000D01*
X111925000Y-116843000D02*
X111925000Y-116243000D01*
X106295000Y-122263000D02*
X106295000Y-121263000D01*
X104665000Y-116243000D02*
X104665000Y-122263000D01*
X106045000Y-122263000D02*
X106045000Y-121263000D01*
X107785000Y-116843000D02*
X109385000Y-116843000D01*
X109385000Y-116843000D02*
X109385000Y-116243000D01*
X104665000Y-122263000D02*
X112505000Y-122263000D01*
X110875000Y-122263000D02*
X110875000Y-121263000D01*
X110325000Y-116843000D02*
X111925000Y-116843000D01*
X112505000Y-116243000D02*
X104665000Y-116243000D01*
X106295000Y-120733000D02*
X110875000Y-120733000D01*
X110875000Y-120733000D02*
X111125000Y-121263000D01*
X98641000Y-116863000D02*
X100241000Y-116863000D01*
X101181000Y-116863000D02*
X102781000Y-116863000D01*
X97151000Y-120753000D02*
X101731000Y-120753000D01*
X102781000Y-116863000D02*
X102781000Y-116263000D01*
X103361000Y-122283000D02*
X103361000Y-116263000D01*
X101981000Y-121283000D02*
X101981000Y-122283000D01*
X95521000Y-116263000D02*
X95521000Y-122283000D01*
X96101000Y-116863000D02*
X97701000Y-116863000D01*
X101181000Y-116263000D02*
X101181000Y-116863000D01*
X96101000Y-116263000D02*
X96101000Y-116863000D01*
X95521000Y-122283000D02*
X103361000Y-122283000D01*
X96901000Y-122283000D02*
X96901000Y-121283000D01*
X95231000Y-117293000D02*
X95231000Y-121293000D01*
X103361000Y-116263000D02*
X95521000Y-116263000D01*
X101731000Y-120753000D02*
X101981000Y-121283000D01*
X98641000Y-116263000D02*
X98641000Y-116863000D01*
X96901000Y-121283000D02*
X101981000Y-121283000D01*
X97701000Y-116863000D02*
X97701000Y-116263000D01*
X101731000Y-122283000D02*
X101731000Y-121283000D01*
X100241000Y-116863000D02*
X100241000Y-116263000D01*
X97151000Y-122283000D02*
X97151000Y-121283000D01*
X96901000Y-121283000D02*
X97151000Y-120753000D01*
X96101000Y-108369000D02*
X96101000Y-108969000D01*
X100241000Y-108969000D02*
X100241000Y-108369000D01*
X101731000Y-114389000D02*
X101731000Y-113389000D01*
X101981000Y-113389000D02*
X101981000Y-114389000D01*
X98641000Y-108969000D02*
X100241000Y-108969000D01*
X103361000Y-108369000D02*
X95521000Y-108369000D01*
X95521000Y-108369000D02*
X95521000Y-114389000D01*
X98641000Y-108369000D02*
X98641000Y-108969000D01*
X96901000Y-113389000D02*
X97151000Y-112859000D01*
X95521000Y-114389000D02*
X103361000Y-114389000D01*
X97151000Y-114389000D02*
X97151000Y-113389000D01*
X103361000Y-114389000D02*
X103361000Y-108369000D01*
X95231000Y-109399000D02*
X95231000Y-113399000D01*
X101181000Y-108369000D02*
X101181000Y-108969000D01*
X96901000Y-114389000D02*
X96901000Y-113389000D01*
X97151000Y-112859000D02*
X101731000Y-112859000D01*
X101731000Y-112859000D02*
X101981000Y-113389000D01*
X101181000Y-108969000D02*
X102781000Y-108969000D01*
X96901000Y-113389000D02*
X101981000Y-113389000D01*
X102781000Y-108969000D02*
X102781000Y-108369000D01*
X96101000Y-108969000D02*
X97701000Y-108969000D01*
X97701000Y-108969000D02*
X97701000Y-108369000D01*
X156828000Y-142730000D02*
X156828000Y-136710000D01*
X153708000Y-142730000D02*
X153708000Y-142130000D01*
X147828000Y-137710000D02*
X147828000Y-136710000D01*
X155198000Y-138240000D02*
X148078000Y-138240000D01*
X148628000Y-142730000D02*
X148628000Y-142130000D01*
X148078000Y-136710000D02*
X148078000Y-137710000D01*
X151168000Y-142730000D02*
X151168000Y-142130000D01*
X148628000Y-142130000D02*
X147028000Y-142130000D01*
X152108000Y-142130000D02*
X152108000Y-142730000D01*
X149568000Y-142130000D02*
X149568000Y-142730000D01*
X156828000Y-136710000D02*
X146448000Y-136710000D01*
X151168000Y-142130000D02*
X149568000Y-142130000D01*
X155448000Y-137710000D02*
X155198000Y-138240000D01*
X147028000Y-142130000D02*
X147028000Y-142730000D01*
X155448000Y-137710000D02*
X147828000Y-137710000D01*
X155448000Y-136710000D02*
X155448000Y-137710000D01*
X153708000Y-142130000D02*
X152108000Y-142130000D01*
X156248000Y-142130000D02*
X154648000Y-142130000D01*
X155198000Y-136710000D02*
X155198000Y-137710000D01*
X148078000Y-138240000D02*
X147828000Y-137710000D01*
X157118000Y-141700000D02*
X157118000Y-137700000D01*
X146448000Y-136710000D02*
X146448000Y-142730000D01*
X154648000Y-142130000D02*
X154648000Y-142730000D01*
X156248000Y-142730000D02*
X156248000Y-142130000D01*
X146448000Y-142730000D02*
X156828000Y-142730000D01*
X138722000Y-142110000D02*
X137122000Y-142110000D01*
X141262000Y-142110000D02*
X139662000Y-142110000D01*
X144382000Y-142710000D02*
X144382000Y-136690000D01*
X144672000Y-141680000D02*
X144672000Y-137680000D01*
X143002000Y-137690000D02*
X135382000Y-137690000D01*
X142752000Y-136690000D02*
X142752000Y-137690000D01*
X143802000Y-142110000D02*
X142202000Y-142110000D01*
X143002000Y-136690000D02*
X143002000Y-137690000D01*
X143002000Y-137690000D02*
X142752000Y-138220000D01*
X135632000Y-138220000D02*
X135382000Y-137690000D01*
X135632000Y-136690000D02*
X135632000Y-137690000D01*
X142752000Y-138220000D02*
X135632000Y-138220000D01*
X144382000Y-136690000D02*
X134002000Y-136690000D01*
X139662000Y-142110000D02*
X139662000Y-142710000D01*
X142202000Y-142110000D02*
X142202000Y-142710000D01*
X134002000Y-136690000D02*
X134002000Y-142710000D01*
X134002000Y-142710000D02*
X144382000Y-142710000D01*
X143802000Y-142710000D02*
X143802000Y-142110000D01*
X135382000Y-137690000D02*
X135382000Y-136690000D01*
X136182000Y-142710000D02*
X136182000Y-142110000D01*
X138722000Y-142710000D02*
X138722000Y-142110000D01*
X137122000Y-142110000D02*
X137122000Y-142710000D01*
X141262000Y-142710000D02*
X141262000Y-142110000D01*
X136182000Y-142110000D02*
X134582000Y-142110000D01*
X134582000Y-142110000D02*
X134582000Y-142710000D01*
X97011258Y-129300500D02*
X96536742Y-129300500D01*
X97011258Y-128255500D02*
X96536742Y-128255500D01*
X86374500Y-117521258D02*
X86374500Y-117046742D01*
X85329500Y-117521258D02*
X85329500Y-117046742D01*
X160892258Y-122061500D02*
X160417742Y-122061500D01*
X160892258Y-121016500D02*
X160417742Y-121016500D01*
X139429258Y-121016500D02*
X138954742Y-121016500D01*
X139429258Y-122061500D02*
X138954742Y-122061500D01*
X122241000Y-120227000D02*
X114741000Y-120227000D01*
X114741000Y-120227000D02*
X114741000Y-108627000D01*
X114741000Y-108627000D02*
X122241000Y-108627000D01*
X122241000Y-108627000D02*
X122241000Y-120227000D01*
D14*
X166243000Y-133096000D02*
X166243000Y-117856000D01*
X145923000Y-117856000D02*
X145923000Y-133096000D01*
X166243000Y-117856000D02*
X145923000Y-117856000D01*
X145923000Y-133096000D02*
X166243000Y-133096000D01*
D13*
X126619000Y-108585000D02*
X126619000Y-116205000D01*
X136779000Y-116205000D02*
X136779000Y-108585000D01*
X126619000Y-116205000D02*
X136779000Y-116205000D01*
X126619000Y-109855000D02*
X136779000Y-109855000D01*
X136779000Y-108585000D02*
X126619000Y-108585000D01*
X124433000Y-110162748D02*
X124433000Y-110685252D01*
X122963000Y-110162748D02*
X122963000Y-110685252D01*
X104665000Y-114409000D02*
X112505000Y-114409000D01*
X105245000Y-108989000D02*
X106845000Y-108989000D01*
X105245000Y-108389000D02*
X105245000Y-108989000D01*
X104665000Y-108389000D02*
X104665000Y-114409000D01*
X112505000Y-114409000D02*
X112505000Y-108389000D01*
X107785000Y-108989000D02*
X109385000Y-108989000D01*
X106295000Y-114409000D02*
X106295000Y-113409000D01*
X104375000Y-109419000D02*
X104375000Y-113419000D01*
X111125000Y-113409000D02*
X111125000Y-114409000D01*
X110875000Y-114409000D02*
X110875000Y-113409000D01*
X106045000Y-113409000D02*
X106295000Y-112879000D01*
X110875000Y-112879000D02*
X111125000Y-113409000D01*
X106045000Y-113409000D02*
X111125000Y-113409000D01*
X106845000Y-108989000D02*
X106845000Y-108389000D01*
X106295000Y-112879000D02*
X110875000Y-112879000D01*
X111925000Y-108989000D02*
X111925000Y-108389000D01*
X110325000Y-108989000D02*
X111925000Y-108989000D01*
X109385000Y-108989000D02*
X109385000Y-108389000D01*
X107785000Y-108389000D02*
X107785000Y-108989000D01*
X106045000Y-114409000D02*
X106045000Y-113409000D01*
X110325000Y-108389000D02*
X110325000Y-108989000D01*
X112505000Y-108389000D02*
X104665000Y-108389000D01*
X154332000Y-109690000D02*
X154332000Y-111975000D01*
X154332000Y-111975000D02*
X155802000Y-111975000D01*
X155802000Y-111975000D02*
X155802000Y-109690000D01*
D14*
X124460000Y-117856000D02*
X124460000Y-133096000D01*
X124460000Y-133096000D02*
X144780000Y-133096000D01*
X144780000Y-117856000D02*
X124460000Y-117856000D01*
X144780000Y-133096000D02*
X144780000Y-117856000D01*
D13*
X151157000Y-111975000D02*
X152627000Y-111975000D01*
X151157000Y-109690000D02*
X151157000Y-111975000D01*
X152627000Y-111975000D02*
X152627000Y-109690000D01*
X78994000Y-141859000D02*
X119634000Y-141859000D01*
X119634000Y-141859000D02*
X119634000Y-124079000D01*
X119634000Y-124079000D02*
X78994000Y-124079000D01*
X78994000Y-124079000D02*
X78994000Y-141859000D01*
X77724000Y-136779000D02*
X78994000Y-136779000D01*
X78994000Y-136779000D02*
X78994000Y-129159000D01*
X78994000Y-129159000D02*
X77724000Y-129159000D01*
X77724000Y-129159000D02*
X77724000Y-136779000D01*
X135490000Y-127948563D02*
X135490000Y-126663000D01*
X134425563Y-129013000D02*
X128670000Y-129013000D01*
X136123750Y-127844250D02*
X136123750Y-127056750D01*
X135490000Y-123257437D02*
X134425563Y-122193000D01*
X135490000Y-123257437D02*
X135490000Y-124543000D01*
X128670000Y-129013000D02*
X128670000Y-126663000D01*
X134425563Y-122193000D02*
X128670000Y-122193000D01*
X128670000Y-122193000D02*
X128670000Y-124543000D01*
X135490000Y-127948563D02*
X134425563Y-129013000D01*
X136517500Y-127450500D02*
X135730000Y-127450500D01*
X149879000Y-122066000D02*
X149879000Y-124416000D01*
X156699000Y-123130437D02*
X155634563Y-122066000D01*
X155634563Y-128886000D02*
X149879000Y-128886000D01*
X156699000Y-127821563D02*
X156699000Y-126536000D01*
X149879000Y-128886000D02*
X149879000Y-126536000D01*
X156699000Y-127821563D02*
X155634563Y-128886000D01*
X155634563Y-122066000D02*
X149879000Y-122066000D01*
X157726500Y-127323500D02*
X156939000Y-127323500D01*
X157332750Y-127717250D02*
X157332750Y-126929750D01*
X156699000Y-123130437D02*
X156699000Y-124416000D01*
D15*
X162252303Y-113691239D02*
X162309527Y-113729735D01*
X162309527Y-113729735D02*
X162353749Y-113785335D01*
X162353749Y-113785335D02*
X162380167Y-113856086D01*
X162380167Y-113856086D02*
X162385510Y-113908162D01*
X162385510Y-113908162D02*
X162384903Y-113929893D01*
X162384903Y-113929893D02*
X162379822Y-113946531D01*
X162379822Y-113946531D02*
X162365855Y-113961437D01*
X162365855Y-113961437D02*
X162338589Y-113977973D01*
X162338589Y-113977973D02*
X162293612Y-113999498D01*
X162293612Y-113999498D02*
X162226511Y-114029374D01*
X162226511Y-114029374D02*
X162226171Y-114029524D01*
X162226171Y-114029524D02*
X162164407Y-114057813D01*
X162164407Y-114057813D02*
X162113759Y-114082933D01*
X162113759Y-114082933D02*
X162079404Y-114102179D01*
X162079404Y-114102179D02*
X162066518Y-114112848D01*
X162066518Y-114112848D02*
X162066514Y-114112934D01*
X162066514Y-114112934D02*
X162077872Y-114136166D01*
X162077872Y-114136166D02*
X162104431Y-114161774D01*
X162104431Y-114161774D02*
X162134923Y-114180221D01*
X162134923Y-114180221D02*
X162150370Y-114183886D01*
X162150370Y-114183886D02*
X162192515Y-114171212D01*
X162192515Y-114171212D02*
X162228808Y-114139471D01*
X162228808Y-114139471D02*
X162246517Y-114104572D01*
X162246517Y-114104572D02*
X162263552Y-114078845D01*
X162263552Y-114078845D02*
X162296922Y-114049546D01*
X162296922Y-114049546D02*
X162336149Y-114024235D01*
X162336149Y-114024235D02*
X162370756Y-114010471D01*
X162370756Y-114010471D02*
X162377993Y-114009714D01*
X162377993Y-114009714D02*
X162386139Y-114022160D01*
X162386139Y-114022160D02*
X162386630Y-114053972D01*
X162386630Y-114053972D02*
X162380643Y-114096866D01*
X162380643Y-114096866D02*
X162369357Y-114142558D01*
X162369357Y-114142558D02*
X162353950Y-114182761D01*
X162353950Y-114182761D02*
X162353171Y-114184322D01*
X162353171Y-114184322D02*
X162306804Y-114249062D01*
X162306804Y-114249062D02*
X162246711Y-114293097D01*
X162246711Y-114293097D02*
X162178465Y-114314711D01*
X162178465Y-114314711D02*
X162107638Y-114312185D01*
X162107638Y-114312185D02*
X162039804Y-114283804D01*
X162039804Y-114283804D02*
X162036788Y-114281808D01*
X162036788Y-114281808D02*
X161983427Y-114233448D01*
X161983427Y-114233448D02*
X161948340Y-114170352D01*
X161948340Y-114170352D02*
X161928922Y-114087387D01*
X161928922Y-114087387D02*
X161926316Y-114064078D01*
X161926316Y-114064078D02*
X161921701Y-113954055D01*
X161921701Y-113954055D02*
X161927233Y-113902748D01*
X161927233Y-113902748D02*
X162066514Y-113902748D01*
X162066514Y-113902748D02*
X162068324Y-113934753D01*
X162068324Y-113934753D02*
X162078222Y-113944093D01*
X162078222Y-113944093D02*
X162102898Y-113937105D01*
X162102898Y-113937105D02*
X162141795Y-113920587D01*
X162141795Y-113920587D02*
X162185275Y-113899881D01*
X162185275Y-113899881D02*
X162186356Y-113899333D01*
X162186356Y-113899333D02*
X162223209Y-113879949D01*
X162223209Y-113879949D02*
X162238000Y-113867013D01*
X162238000Y-113867013D02*
X162234353Y-113853451D01*
X162234353Y-113853451D02*
X162218995Y-113835632D01*
X162218995Y-113835632D02*
X162179923Y-113809845D01*
X162179923Y-113809845D02*
X162137846Y-113807950D01*
X162137846Y-113807950D02*
X162100103Y-113826717D01*
X162100103Y-113826717D02*
X162074034Y-113862915D01*
X162074034Y-113862915D02*
X162066514Y-113902748D01*
X162066514Y-113902748D02*
X161927233Y-113902748D01*
X161927233Y-113902748D02*
X161931194Y-113866027D01*
X161931194Y-113866027D02*
X161955550Y-113796212D01*
X161955550Y-113796212D02*
X161989456Y-113747302D01*
X161989456Y-113747302D02*
X162050653Y-113697878D01*
X162050653Y-113697878D02*
X162118063Y-113673359D01*
X162118063Y-113673359D02*
X162186880Y-113671797D01*
X162186880Y-113671797D02*
X162252303Y-113691239D01*
X162252303Y-113691239D02*
X162252303Y-113691239D01*
G36*
X161955550Y-113796212D02*
G01*
X161989456Y-113747302D01*
X162050653Y-113697878D01*
X162118063Y-113673359D01*
X162186880Y-113671797D01*
X162252303Y-113691239D01*
X162309527Y-113729735D01*
X162353749Y-113785335D01*
X162380167Y-113856086D01*
X162385510Y-113908162D01*
X162384903Y-113929893D01*
X162379822Y-113946531D01*
X162365855Y-113961437D01*
X162338589Y-113977973D01*
X162293612Y-113999498D01*
X162226511Y-114029374D01*
X162226171Y-114029524D01*
X162164407Y-114057813D01*
X162113759Y-114082933D01*
X162079404Y-114102179D01*
X162066518Y-114112848D01*
X162066514Y-114112934D01*
X162077872Y-114136166D01*
X162104431Y-114161774D01*
X162134923Y-114180221D01*
X162150370Y-114183886D01*
X162192515Y-114171212D01*
X162228808Y-114139471D01*
X162246517Y-114104572D01*
X162263552Y-114078845D01*
X162296922Y-114049546D01*
X162336149Y-114024235D01*
X162370756Y-114010471D01*
X162377993Y-114009714D01*
X162386139Y-114022160D01*
X162386630Y-114053972D01*
X162380643Y-114096866D01*
X162369357Y-114142558D01*
X162353950Y-114182761D01*
X162353171Y-114184322D01*
X162306804Y-114249062D01*
X162246711Y-114293097D01*
X162178465Y-114314711D01*
X162107638Y-114312185D01*
X162039804Y-114283804D01*
X162036788Y-114281808D01*
X161983427Y-114233448D01*
X161948340Y-114170352D01*
X161928922Y-114087387D01*
X161926316Y-114064078D01*
X161921701Y-113954055D01*
X161927233Y-113902748D01*
X162066514Y-113902748D01*
X162068324Y-113934753D01*
X162078222Y-113944093D01*
X162102898Y-113937105D01*
X162141795Y-113920587D01*
X162185275Y-113899881D01*
X162186356Y-113899333D01*
X162223209Y-113879949D01*
X162238000Y-113867013D01*
X162234353Y-113853451D01*
X162218995Y-113835632D01*
X162179923Y-113809845D01*
X162137846Y-113807950D01*
X162100103Y-113826717D01*
X162074034Y-113862915D01*
X162066514Y-113902748D01*
X161927233Y-113902748D01*
X161931194Y-113866027D01*
X161955550Y-113796212D01*
G37*
X161955550Y-113796212D02*
X161989456Y-113747302D01*
X162050653Y-113697878D01*
X162118063Y-113673359D01*
X162186880Y-113671797D01*
X162252303Y-113691239D01*
X162309527Y-113729735D01*
X162353749Y-113785335D01*
X162380167Y-113856086D01*
X162385510Y-113908162D01*
X162384903Y-113929893D01*
X162379822Y-113946531D01*
X162365855Y-113961437D01*
X162338589Y-113977973D01*
X162293612Y-113999498D01*
X162226511Y-114029374D01*
X162226171Y-114029524D01*
X162164407Y-114057813D01*
X162113759Y-114082933D01*
X162079404Y-114102179D01*
X162066518Y-114112848D01*
X162066514Y-114112934D01*
X162077872Y-114136166D01*
X162104431Y-114161774D01*
X162134923Y-114180221D01*
X162150370Y-114183886D01*
X162192515Y-114171212D01*
X162228808Y-114139471D01*
X162246517Y-114104572D01*
X162263552Y-114078845D01*
X162296922Y-114049546D01*
X162336149Y-114024235D01*
X162370756Y-114010471D01*
X162377993Y-114009714D01*
X162386139Y-114022160D01*
X162386630Y-114053972D01*
X162380643Y-114096866D01*
X162369357Y-114142558D01*
X162353950Y-114182761D01*
X162353171Y-114184322D01*
X162306804Y-114249062D01*
X162246711Y-114293097D01*
X162178465Y-114314711D01*
X162107638Y-114312185D01*
X162039804Y-114283804D01*
X162036788Y-114281808D01*
X161983427Y-114233448D01*
X161948340Y-114170352D01*
X161928922Y-114087387D01*
X161926316Y-114064078D01*
X161921701Y-113954055D01*
X161927233Y-113902748D01*
X162066514Y-113902748D01*
X162068324Y-113934753D01*
X162078222Y-113944093D01*
X162102898Y-113937105D01*
X162141795Y-113920587D01*
X162185275Y-113899881D01*
X162186356Y-113899333D01*
X162223209Y-113879949D01*
X162238000Y-113867013D01*
X162234353Y-113853451D01*
X162218995Y-113835632D01*
X162179923Y-113809845D01*
X162137846Y-113807950D01*
X162100103Y-113826717D01*
X162074034Y-113862915D01*
X162066514Y-113902748D01*
X161927233Y-113902748D01*
X161931194Y-113866027D01*
X161955550Y-113796212D01*
X165863833Y-113718663D02*
X165866048Y-113756850D01*
X165866048Y-113756850D02*
X165867784Y-113814886D01*
X165867784Y-113814886D02*
X165868899Y-113888180D01*
X165868899Y-113888180D02*
X165869257Y-113965055D01*
X165869257Y-113965055D02*
X165869257Y-114225196D01*
X165869257Y-114225196D02*
X165823326Y-114271127D01*
X165823326Y-114271127D02*
X165791675Y-114299429D01*
X165791675Y-114299429D02*
X165763890Y-114310893D01*
X165763890Y-114310893D02*
X165725915Y-114310168D01*
X165725915Y-114310168D02*
X165710840Y-114308321D01*
X165710840Y-114308321D02*
X165663726Y-114302948D01*
X165663726Y-114302948D02*
X165624756Y-114299869D01*
X165624756Y-114299869D02*
X165615257Y-114299585D01*
X165615257Y-114299585D02*
X165583233Y-114301445D01*
X165583233Y-114301445D02*
X165537432Y-114306114D01*
X165537432Y-114306114D02*
X165519674Y-114308321D01*
X165519674Y-114308321D02*
X165476057Y-114311735D01*
X165476057Y-114311735D02*
X165446745Y-114304320D01*
X165446745Y-114304320D02*
X165417680Y-114281427D01*
X165417680Y-114281427D02*
X165407188Y-114271127D01*
X165407188Y-114271127D02*
X165361257Y-114225196D01*
X165361257Y-114225196D02*
X165361257Y-113738602D01*
X165361257Y-113738602D02*
X165398226Y-113721758D01*
X165398226Y-113721758D02*
X165430059Y-113709282D01*
X165430059Y-113709282D02*
X165448683Y-113704914D01*
X165448683Y-113704914D02*
X165453458Y-113718718D01*
X165453458Y-113718718D02*
X165457921Y-113757286D01*
X165457921Y-113757286D02*
X165461775Y-113816356D01*
X165461775Y-113816356D02*
X165464722Y-113891663D01*
X165464722Y-113891663D02*
X165466143Y-113955286D01*
X165466143Y-113955286D02*
X165470114Y-114205657D01*
X165470114Y-114205657D02*
X165504759Y-114210556D01*
X165504759Y-114210556D02*
X165536268Y-114207131D01*
X165536268Y-114207131D02*
X165551708Y-114196041D01*
X165551708Y-114196041D02*
X165556023Y-114175308D01*
X165556023Y-114175308D02*
X165559708Y-114131145D01*
X165559708Y-114131145D02*
X165562469Y-114069146D01*
X165562469Y-114069146D02*
X165564012Y-113994909D01*
X165564012Y-113994909D02*
X165564235Y-113956706D01*
X165564235Y-113956706D02*
X165564457Y-113736783D01*
X165564457Y-113736783D02*
X165610166Y-113720849D01*
X165610166Y-113720849D02*
X165642518Y-113710015D01*
X165642518Y-113710015D02*
X165660115Y-113704962D01*
X165660115Y-113704962D02*
X165660623Y-113704914D01*
X165660623Y-113704914D02*
X165662388Y-113718648D01*
X165662388Y-113718648D02*
X165664329Y-113756730D01*
X165664329Y-113756730D02*
X165666282Y-113814482D01*
X165666282Y-113814482D02*
X165668084Y-113887227D01*
X165668084Y-113887227D02*
X165669343Y-113955286D01*
X165669343Y-113955286D02*
X165673314Y-114205657D01*
X165673314Y-114205657D02*
X165760400Y-114205657D01*
X165760400Y-114205657D02*
X165764396Y-113977240D01*
X165764396Y-113977240D02*
X165768392Y-113748822D01*
X165768392Y-113748822D02*
X165810847Y-113726868D01*
X165810847Y-113726868D02*
X165842192Y-113711793D01*
X165842192Y-113711793D02*
X165860744Y-113704951D01*
X165860744Y-113704951D02*
X165861279Y-113704914D01*
X165861279Y-113704914D02*
X165863833Y-113718663D01*
X165863833Y-113718663D02*
X165863833Y-113718663D01*
G36*
X165863833Y-113718663D02*
G01*
X165866048Y-113756850D01*
X165867784Y-113814886D01*
X165868899Y-113888180D01*
X165869257Y-113965055D01*
X165869257Y-114225196D01*
X165823326Y-114271127D01*
X165791675Y-114299429D01*
X165763890Y-114310893D01*
X165725915Y-114310168D01*
X165710840Y-114308321D01*
X165663726Y-114302948D01*
X165624756Y-114299869D01*
X165615257Y-114299585D01*
X165583233Y-114301445D01*
X165537432Y-114306114D01*
X165519674Y-114308321D01*
X165476057Y-114311735D01*
X165446745Y-114304320D01*
X165417680Y-114281427D01*
X165407188Y-114271127D01*
X165361257Y-114225196D01*
X165361257Y-113738602D01*
X165398226Y-113721758D01*
X165430059Y-113709282D01*
X165448683Y-113704914D01*
X165453458Y-113718718D01*
X165457921Y-113757286D01*
X165461775Y-113816356D01*
X165464722Y-113891663D01*
X165466143Y-113955286D01*
X165470114Y-114205657D01*
X165504759Y-114210556D01*
X165536268Y-114207131D01*
X165551708Y-114196041D01*
X165556023Y-114175308D01*
X165559708Y-114131145D01*
X165562469Y-114069146D01*
X165564012Y-113994909D01*
X165564235Y-113956706D01*
X165564457Y-113736783D01*
X165610166Y-113720849D01*
X165642518Y-113710015D01*
X165660115Y-113704962D01*
X165660623Y-113704914D01*
X165662388Y-113718648D01*
X165664329Y-113756730D01*
X165666282Y-113814482D01*
X165668084Y-113887227D01*
X165669343Y-113955286D01*
X165673314Y-114205657D01*
X165760400Y-114205657D01*
X165764396Y-113977240D01*
X165768392Y-113748822D01*
X165810847Y-113726868D01*
X165842192Y-113711793D01*
X165860744Y-113704951D01*
X165861279Y-113704914D01*
X165863833Y-113718663D01*
G37*
X165863833Y-113718663D02*
X165866048Y-113756850D01*
X165867784Y-113814886D01*
X165868899Y-113888180D01*
X165869257Y-113965055D01*
X165869257Y-114225196D01*
X165823326Y-114271127D01*
X165791675Y-114299429D01*
X165763890Y-114310893D01*
X165725915Y-114310168D01*
X165710840Y-114308321D01*
X165663726Y-114302948D01*
X165624756Y-114299869D01*
X165615257Y-114299585D01*
X165583233Y-114301445D01*
X165537432Y-114306114D01*
X165519674Y-114308321D01*
X165476057Y-114311735D01*
X165446745Y-114304320D01*
X165417680Y-114281427D01*
X165407188Y-114271127D01*
X165361257Y-114225196D01*
X165361257Y-113738602D01*
X165398226Y-113721758D01*
X165430059Y-113709282D01*
X165448683Y-113704914D01*
X165453458Y-113718718D01*
X165457921Y-113757286D01*
X165461775Y-113816356D01*
X165464722Y-113891663D01*
X165466143Y-113955286D01*
X165470114Y-114205657D01*
X165504759Y-114210556D01*
X165536268Y-114207131D01*
X165551708Y-114196041D01*
X165556023Y-114175308D01*
X165559708Y-114131145D01*
X165562469Y-114069146D01*
X165564012Y-113994909D01*
X165564235Y-113956706D01*
X165564457Y-113736783D01*
X165610166Y-113720849D01*
X165642518Y-113710015D01*
X165660115Y-113704962D01*
X165660623Y-113704914D01*
X165662388Y-113718648D01*
X165664329Y-113756730D01*
X165666282Y-113814482D01*
X165668084Y-113887227D01*
X165669343Y-113955286D01*
X165673314Y-114205657D01*
X165760400Y-114205657D01*
X165764396Y-113977240D01*
X165768392Y-113748822D01*
X165810847Y-113726868D01*
X165842192Y-113711793D01*
X165860744Y-113704951D01*
X165861279Y-113704914D01*
X165863833Y-113718663D01*
X165274117Y-113825358D02*
X165273933Y-113933837D01*
X165273933Y-113933837D02*
X165273219Y-114017287D01*
X165273219Y-114017287D02*
X165271675Y-114079704D01*
X165271675Y-114079704D02*
X165269001Y-114125085D01*
X165269001Y-114125085D02*
X165264894Y-114157429D01*
X165264894Y-114157429D02*
X165259055Y-114180733D01*
X165259055Y-114180733D02*
X165251182Y-114198995D01*
X165251182Y-114198995D02*
X165245221Y-114209418D01*
X165245221Y-114209418D02*
X165195855Y-114265945D01*
X165195855Y-114265945D02*
X165133264Y-114301377D01*
X165133264Y-114301377D02*
X165064013Y-114314090D01*
X165064013Y-114314090D02*
X164994668Y-114302463D01*
X164994668Y-114302463D02*
X164953375Y-114281568D01*
X164953375Y-114281568D02*
X164910025Y-114245422D01*
X164910025Y-114245422D02*
X164880481Y-114201276D01*
X164880481Y-114201276D02*
X164862655Y-114143462D01*
X164862655Y-114143462D02*
X164854463Y-114066313D01*
X164854463Y-114066313D02*
X164853302Y-114009714D01*
X164853302Y-114009714D02*
X164853458Y-114005647D01*
X164853458Y-114005647D02*
X164954857Y-114005647D01*
X164954857Y-114005647D02*
X164955476Y-114070550D01*
X164955476Y-114070550D02*
X164958314Y-114113514D01*
X164958314Y-114113514D02*
X164964840Y-114141622D01*
X164964840Y-114141622D02*
X164976523Y-114161953D01*
X164976523Y-114161953D02*
X164990483Y-114177288D01*
X164990483Y-114177288D02*
X165037365Y-114206890D01*
X165037365Y-114206890D02*
X165087701Y-114209419D01*
X165087701Y-114209419D02*
X165135276Y-114184705D01*
X165135276Y-114184705D02*
X165138979Y-114181356D01*
X165138979Y-114181356D02*
X165154783Y-114163935D01*
X165154783Y-114163935D02*
X165164693Y-114143209D01*
X165164693Y-114143209D02*
X165170058Y-114112362D01*
X165170058Y-114112362D02*
X165172228Y-114064577D01*
X165172228Y-114064577D02*
X165172571Y-114011748D01*
X165172571Y-114011748D02*
X165171827Y-113945381D01*
X165171827Y-113945381D02*
X165168748Y-113901106D01*
X165168748Y-113901106D02*
X165162061Y-113872009D01*
X165162061Y-113872009D02*
X165150496Y-113851173D01*
X165150496Y-113851173D02*
X165141013Y-113840107D01*
X165141013Y-113840107D02*
X165096960Y-113812198D01*
X165096960Y-113812198D02*
X165046224Y-113808843D01*
X165046224Y-113808843D02*
X164997796Y-113830159D01*
X164997796Y-113830159D02*
X164988450Y-113838073D01*
X164988450Y-113838073D02*
X164972540Y-113855647D01*
X164972540Y-113855647D02*
X164962610Y-113876587D01*
X164962610Y-113876587D02*
X164957278Y-113907782D01*
X164957278Y-113907782D02*
X164955163Y-113956122D01*
X164955163Y-113956122D02*
X164954857Y-114005647D01*
X164954857Y-114005647D02*
X164853458Y-114005647D01*
X164853458Y-114005647D02*
X164856810Y-113918568D01*
X164856810Y-113918568D02*
X164868726Y-113850086D01*
X164868726Y-113850086D02*
X164891135Y-113798600D01*
X164891135Y-113798600D02*
X164926124Y-113758443D01*
X164926124Y-113758443D02*
X164953375Y-113737861D01*
X164953375Y-113737861D02*
X165002907Y-113715625D01*
X165002907Y-113715625D02*
X165060316Y-113705304D01*
X165060316Y-113705304D02*
X165113682Y-113708067D01*
X165113682Y-113708067D02*
X165143543Y-113719212D01*
X165143543Y-113719212D02*
X165155261Y-113722383D01*
X165155261Y-113722383D02*
X165163037Y-113710557D01*
X165163037Y-113710557D02*
X165168465Y-113678866D01*
X165168465Y-113678866D02*
X165172571Y-113630593D01*
X165172571Y-113630593D02*
X165177067Y-113576829D01*
X165177067Y-113576829D02*
X165183313Y-113544482D01*
X165183313Y-113544482D02*
X165194676Y-113525985D01*
X165194676Y-113525985D02*
X165214528Y-113513770D01*
X165214528Y-113513770D02*
X165227000Y-113508362D01*
X165227000Y-113508362D02*
X165274171Y-113488601D01*
X165274171Y-113488601D02*
X165274117Y-113825358D01*
X165274117Y-113825358D02*
X165274117Y-113825358D01*
G36*
X164868726Y-113850086D02*
G01*
X164891135Y-113798600D01*
X164926124Y-113758443D01*
X164953375Y-113737861D01*
X165002907Y-113715625D01*
X165060316Y-113705304D01*
X165113682Y-113708067D01*
X165143543Y-113719212D01*
X165155261Y-113722383D01*
X165163037Y-113710557D01*
X165168465Y-113678866D01*
X165172571Y-113630593D01*
X165177067Y-113576829D01*
X165183313Y-113544482D01*
X165194676Y-113525985D01*
X165214528Y-113513770D01*
X165227000Y-113508362D01*
X165274171Y-113488601D01*
X165274117Y-113825358D01*
X165273933Y-113933837D01*
X165273219Y-114017287D01*
X165271675Y-114079704D01*
X165269001Y-114125085D01*
X165264894Y-114157429D01*
X165259055Y-114180733D01*
X165251182Y-114198995D01*
X165245221Y-114209418D01*
X165195855Y-114265945D01*
X165133264Y-114301377D01*
X165064013Y-114314090D01*
X164994668Y-114302463D01*
X164953375Y-114281568D01*
X164910025Y-114245422D01*
X164880481Y-114201276D01*
X164862655Y-114143462D01*
X164854463Y-114066313D01*
X164853302Y-114009714D01*
X164853458Y-114005647D01*
X164954857Y-114005647D01*
X164955476Y-114070550D01*
X164958314Y-114113514D01*
X164964840Y-114141622D01*
X164976523Y-114161953D01*
X164990483Y-114177288D01*
X165037365Y-114206890D01*
X165087701Y-114209419D01*
X165135276Y-114184705D01*
X165138979Y-114181356D01*
X165154783Y-114163935D01*
X165164693Y-114143209D01*
X165170058Y-114112362D01*
X165172228Y-114064577D01*
X165172571Y-114011748D01*
X165171827Y-113945381D01*
X165168748Y-113901106D01*
X165162061Y-113872009D01*
X165150496Y-113851173D01*
X165141013Y-113840107D01*
X165096960Y-113812198D01*
X165046224Y-113808843D01*
X164997796Y-113830159D01*
X164988450Y-113838073D01*
X164972540Y-113855647D01*
X164962610Y-113876587D01*
X164957278Y-113907782D01*
X164955163Y-113956122D01*
X164954857Y-114005647D01*
X164853458Y-114005647D01*
X164856810Y-113918568D01*
X164868726Y-113850086D01*
G37*
X164868726Y-113850086D02*
X164891135Y-113798600D01*
X164926124Y-113758443D01*
X164953375Y-113737861D01*
X165002907Y-113715625D01*
X165060316Y-113705304D01*
X165113682Y-113708067D01*
X165143543Y-113719212D01*
X165155261Y-113722383D01*
X165163037Y-113710557D01*
X165168465Y-113678866D01*
X165172571Y-113630593D01*
X165177067Y-113576829D01*
X165183313Y-113544482D01*
X165194676Y-113525985D01*
X165214528Y-113513770D01*
X165227000Y-113508362D01*
X165274171Y-113488601D01*
X165274117Y-113825358D01*
X165273933Y-113933837D01*
X165273219Y-114017287D01*
X165271675Y-114079704D01*
X165269001Y-114125085D01*
X165264894Y-114157429D01*
X165259055Y-114180733D01*
X165251182Y-114198995D01*
X165245221Y-114209418D01*
X165195855Y-114265945D01*
X165133264Y-114301377D01*
X165064013Y-114314090D01*
X164994668Y-114302463D01*
X164953375Y-114281568D01*
X164910025Y-114245422D01*
X164880481Y-114201276D01*
X164862655Y-114143462D01*
X164854463Y-114066313D01*
X164853302Y-114009714D01*
X164853458Y-114005647D01*
X164954857Y-114005647D01*
X164955476Y-114070550D01*
X164958314Y-114113514D01*
X164964840Y-114141622D01*
X164976523Y-114161953D01*
X164990483Y-114177288D01*
X165037365Y-114206890D01*
X165087701Y-114209419D01*
X165135276Y-114184705D01*
X165138979Y-114181356D01*
X165154783Y-114163935D01*
X165164693Y-114143209D01*
X165170058Y-114112362D01*
X165172228Y-114064577D01*
X165172571Y-114011748D01*
X165171827Y-113945381D01*
X165168748Y-113901106D01*
X165162061Y-113872009D01*
X165150496Y-113851173D01*
X165141013Y-113840107D01*
X165096960Y-113812198D01*
X165046224Y-113808843D01*
X164997796Y-113830159D01*
X164988450Y-113838073D01*
X164972540Y-113855647D01*
X164962610Y-113876587D01*
X164957278Y-113907782D01*
X164955163Y-113956122D01*
X164954857Y-114005647D01*
X164853458Y-114005647D01*
X164856810Y-113918568D01*
X164868726Y-113850086D01*
X164123744Y-113710968D02*
X164180616Y-113732087D01*
X164180616Y-113732087D02*
X164181267Y-113732493D01*
X164181267Y-113732493D02*
X164216440Y-113758380D01*
X164216440Y-113758380D02*
X164242407Y-113788633D01*
X164242407Y-113788633D02*
X164260670Y-113828058D01*
X164260670Y-113828058D02*
X164272732Y-113881462D01*
X164272732Y-113881462D02*
X164280096Y-113953651D01*
X164280096Y-113953651D02*
X164284264Y-114049432D01*
X164284264Y-114049432D02*
X164284629Y-114063078D01*
X164284629Y-114063078D02*
X164289876Y-114268842D01*
X164289876Y-114268842D02*
X164245716Y-114291678D01*
X164245716Y-114291678D02*
X164213763Y-114307110D01*
X164213763Y-114307110D02*
X164194470Y-114314423D01*
X164194470Y-114314423D02*
X164193578Y-114314514D01*
X164193578Y-114314514D02*
X164190239Y-114301022D01*
X164190239Y-114301022D02*
X164187587Y-114264626D01*
X164187587Y-114264626D02*
X164185956Y-114211452D01*
X164185956Y-114211452D02*
X164185600Y-114168393D01*
X164185600Y-114168393D02*
X164185592Y-114098641D01*
X164185592Y-114098641D02*
X164182403Y-114054837D01*
X164182403Y-114054837D02*
X164171288Y-114033944D01*
X164171288Y-114033944D02*
X164147501Y-114032925D01*
X164147501Y-114032925D02*
X164106296Y-114048741D01*
X164106296Y-114048741D02*
X164044086Y-114077815D01*
X164044086Y-114077815D02*
X163998341Y-114101963D01*
X163998341Y-114101963D02*
X163974813Y-114122913D01*
X163974813Y-114122913D02*
X163967896Y-114145747D01*
X163967896Y-114145747D02*
X163967886Y-114146877D01*
X163967886Y-114146877D02*
X163979299Y-114186212D01*
X163979299Y-114186212D02*
X164013092Y-114207462D01*
X164013092Y-114207462D02*
X164064809Y-114210539D01*
X164064809Y-114210539D02*
X164102061Y-114210006D01*
X164102061Y-114210006D02*
X164121703Y-114220735D01*
X164121703Y-114220735D02*
X164133952Y-114246505D01*
X164133952Y-114246505D02*
X164141002Y-114279337D01*
X164141002Y-114279337D02*
X164130842Y-114297966D01*
X164130842Y-114297966D02*
X164127017Y-114300632D01*
X164127017Y-114300632D02*
X164091001Y-114311340D01*
X164091001Y-114311340D02*
X164040566Y-114312856D01*
X164040566Y-114312856D02*
X163988626Y-114305759D01*
X163988626Y-114305759D02*
X163951822Y-114292788D01*
X163951822Y-114292788D02*
X163900938Y-114249585D01*
X163900938Y-114249585D02*
X163872014Y-114189446D01*
X163872014Y-114189446D02*
X163866286Y-114142462D01*
X163866286Y-114142462D02*
X163870657Y-114100082D01*
X163870657Y-114100082D02*
X163886475Y-114065488D01*
X163886475Y-114065488D02*
X163917797Y-114034763D01*
X163917797Y-114034763D02*
X163968678Y-114003990D01*
X163968678Y-114003990D02*
X164043176Y-113969252D01*
X164043176Y-113969252D02*
X164047714Y-113967288D01*
X164047714Y-113967288D02*
X164114821Y-113936287D01*
X164114821Y-113936287D02*
X164156232Y-113910862D01*
X164156232Y-113910862D02*
X164173981Y-113888014D01*
X164173981Y-113888014D02*
X164170107Y-113864745D01*
X164170107Y-113864745D02*
X164146643Y-113838056D01*
X164146643Y-113838056D02*
X164139627Y-113831914D01*
X164139627Y-113831914D02*
X164092630Y-113808100D01*
X164092630Y-113808100D02*
X164043933Y-113809103D01*
X164043933Y-113809103D02*
X164001522Y-113832451D01*
X164001522Y-113832451D02*
X163973384Y-113875675D01*
X163973384Y-113875675D02*
X163970769Y-113884160D01*
X163970769Y-113884160D02*
X163945308Y-113925308D01*
X163945308Y-113925308D02*
X163913001Y-113945128D01*
X163913001Y-113945128D02*
X163866286Y-113964770D01*
X163866286Y-113964770D02*
X163866286Y-113913950D01*
X163866286Y-113913950D02*
X163880496Y-113840082D01*
X163880496Y-113840082D02*
X163922675Y-113772327D01*
X163922675Y-113772327D02*
X163944624Y-113749661D01*
X163944624Y-113749661D02*
X163994517Y-113720569D01*
X163994517Y-113720569D02*
X164057967Y-113707400D01*
X164057967Y-113707400D02*
X164123744Y-113710968D01*
X164123744Y-113710968D02*
X164123744Y-113710968D01*
G36*
X164123744Y-113710968D02*
G01*
X164180616Y-113732087D01*
X164181267Y-113732493D01*
X164216440Y-113758380D01*
X164242407Y-113788633D01*
X164260670Y-113828058D01*
X164272732Y-113881462D01*
X164280096Y-113953651D01*
X164284264Y-114049432D01*
X164284629Y-114063078D01*
X164289876Y-114268842D01*
X164245716Y-114291678D01*
X164213763Y-114307110D01*
X164194470Y-114314423D01*
X164193578Y-114314514D01*
X164190239Y-114301022D01*
X164187587Y-114264626D01*
X164185956Y-114211452D01*
X164185600Y-114168393D01*
X164185592Y-114098641D01*
X164182403Y-114054837D01*
X164171288Y-114033944D01*
X164147501Y-114032925D01*
X164106296Y-114048741D01*
X164044086Y-114077815D01*
X163998341Y-114101963D01*
X163974813Y-114122913D01*
X163967896Y-114145747D01*
X163967886Y-114146877D01*
X163979299Y-114186212D01*
X164013092Y-114207462D01*
X164064809Y-114210539D01*
X164102061Y-114210006D01*
X164121703Y-114220735D01*
X164133952Y-114246505D01*
X164141002Y-114279337D01*
X164130842Y-114297966D01*
X164127017Y-114300632D01*
X164091001Y-114311340D01*
X164040566Y-114312856D01*
X163988626Y-114305759D01*
X163951822Y-114292788D01*
X163900938Y-114249585D01*
X163872014Y-114189446D01*
X163866286Y-114142462D01*
X163870657Y-114100082D01*
X163886475Y-114065488D01*
X163917797Y-114034763D01*
X163968678Y-114003990D01*
X164043176Y-113969252D01*
X164047714Y-113967288D01*
X164114821Y-113936287D01*
X164156232Y-113910862D01*
X164173981Y-113888014D01*
X164170107Y-113864745D01*
X164146643Y-113838056D01*
X164139627Y-113831914D01*
X164092630Y-113808100D01*
X164043933Y-113809103D01*
X164001522Y-113832451D01*
X163973384Y-113875675D01*
X163970769Y-113884160D01*
X163945308Y-113925308D01*
X163913001Y-113945128D01*
X163866286Y-113964770D01*
X163866286Y-113913950D01*
X163880496Y-113840082D01*
X163922675Y-113772327D01*
X163944624Y-113749661D01*
X163994517Y-113720569D01*
X164057967Y-113707400D01*
X164123744Y-113710968D01*
G37*
X164123744Y-113710968D02*
X164180616Y-113732087D01*
X164181267Y-113732493D01*
X164216440Y-113758380D01*
X164242407Y-113788633D01*
X164260670Y-113828058D01*
X164272732Y-113881462D01*
X164280096Y-113953651D01*
X164284264Y-114049432D01*
X164284629Y-114063078D01*
X164289876Y-114268842D01*
X164245716Y-114291678D01*
X164213763Y-114307110D01*
X164194470Y-114314423D01*
X164193578Y-114314514D01*
X164190239Y-114301022D01*
X164187587Y-114264626D01*
X164185956Y-114211452D01*
X164185600Y-114168393D01*
X164185592Y-114098641D01*
X164182403Y-114054837D01*
X164171288Y-114033944D01*
X164147501Y-114032925D01*
X164106296Y-114048741D01*
X164044086Y-114077815D01*
X163998341Y-114101963D01*
X163974813Y-114122913D01*
X163967896Y-114145747D01*
X163967886Y-114146877D01*
X163979299Y-114186212D01*
X164013092Y-114207462D01*
X164064809Y-114210539D01*
X164102061Y-114210006D01*
X164121703Y-114220735D01*
X164133952Y-114246505D01*
X164141002Y-114279337D01*
X164130842Y-114297966D01*
X164127017Y-114300632D01*
X164091001Y-114311340D01*
X164040566Y-114312856D01*
X163988626Y-114305759D01*
X163951822Y-114292788D01*
X163900938Y-114249585D01*
X163872014Y-114189446D01*
X163866286Y-114142462D01*
X163870657Y-114100082D01*
X163886475Y-114065488D01*
X163917797Y-114034763D01*
X163968678Y-114003990D01*
X164043176Y-113969252D01*
X164047714Y-113967288D01*
X164114821Y-113936287D01*
X164156232Y-113910862D01*
X164173981Y-113888014D01*
X164170107Y-113864745D01*
X164146643Y-113838056D01*
X164139627Y-113831914D01*
X164092630Y-113808100D01*
X164043933Y-113809103D01*
X164001522Y-113832451D01*
X163973384Y-113875675D01*
X163970769Y-113884160D01*
X163945308Y-113925308D01*
X163913001Y-113945128D01*
X163866286Y-113964770D01*
X163866286Y-113913950D01*
X163880496Y-113840082D01*
X163922675Y-113772327D01*
X163944624Y-113749661D01*
X163994517Y-113720569D01*
X164057967Y-113707400D01*
X164123744Y-113710968D01*
X166228876Y-113716335D02*
X166270667Y-113735344D01*
X166270667Y-113735344D02*
X166303469Y-113758378D01*
X166303469Y-113758378D02*
X166327503Y-113784133D01*
X166327503Y-113784133D02*
X166344097Y-113817358D01*
X166344097Y-113817358D02*
X166354577Y-113862800D01*
X166354577Y-113862800D02*
X166360271Y-113925207D01*
X166360271Y-113925207D02*
X166362507Y-114009327D01*
X166362507Y-114009327D02*
X166362743Y-114064721D01*
X166362743Y-114064721D02*
X166362743Y-114280826D01*
X166362743Y-114280826D02*
X166325774Y-114297670D01*
X166325774Y-114297670D02*
X166296656Y-114309981D01*
X166296656Y-114309981D02*
X166282231Y-114314514D01*
X166282231Y-114314514D02*
X166279472Y-114301025D01*
X166279472Y-114301025D02*
X166277282Y-114264653D01*
X166277282Y-114264653D02*
X166275942Y-114211542D01*
X166275942Y-114211542D02*
X166275657Y-114169372D01*
X166275657Y-114169372D02*
X166274434Y-114108447D01*
X166274434Y-114108447D02*
X166271136Y-114060115D01*
X166271136Y-114060115D02*
X166266321Y-114030518D01*
X166266321Y-114030518D02*
X166262496Y-114024229D01*
X166262496Y-114024229D02*
X166236783Y-114030652D01*
X166236783Y-114030652D02*
X166196418Y-114047125D01*
X166196418Y-114047125D02*
X166149679Y-114069458D01*
X166149679Y-114069458D02*
X166104845Y-114093457D01*
X166104845Y-114093457D02*
X166070193Y-114114930D01*
X166070193Y-114114930D02*
X166054002Y-114129685D01*
X166054002Y-114129685D02*
X166053938Y-114129845D01*
X166053938Y-114129845D02*
X166055330Y-114157152D01*
X166055330Y-114157152D02*
X166067818Y-114183219D01*
X166067818Y-114183219D02*
X166089743Y-114204392D01*
X166089743Y-114204392D02*
X166121743Y-114211474D01*
X166121743Y-114211474D02*
X166149092Y-114210649D01*
X166149092Y-114210649D02*
X166187826Y-114210042D01*
X166187826Y-114210042D02*
X166208158Y-114219116D01*
X166208158Y-114219116D02*
X166220369Y-114243092D01*
X166220369Y-114243092D02*
X166221909Y-114247613D01*
X166221909Y-114247613D02*
X166227203Y-114281806D01*
X166227203Y-114281806D02*
X166213047Y-114302568D01*
X166213047Y-114302568D02*
X166176148Y-114312462D01*
X166176148Y-114312462D02*
X166136289Y-114314292D01*
X166136289Y-114314292D02*
X166064562Y-114300727D01*
X166064562Y-114300727D02*
X166027432Y-114281355D01*
X166027432Y-114281355D02*
X165981576Y-114235845D01*
X165981576Y-114235845D02*
X165957256Y-114179983D01*
X165957256Y-114179983D02*
X165955073Y-114120957D01*
X165955073Y-114120957D02*
X165975629Y-114065953D01*
X165975629Y-114065953D02*
X166006549Y-114031486D01*
X166006549Y-114031486D02*
X166037420Y-114012189D01*
X166037420Y-114012189D02*
X166085942Y-113987759D01*
X166085942Y-113987759D02*
X166142485Y-113962985D01*
X166142485Y-113962985D02*
X166151910Y-113959199D01*
X166151910Y-113959199D02*
X166214019Y-113931791D01*
X166214019Y-113931791D02*
X166249822Y-113907634D01*
X166249822Y-113907634D02*
X166261337Y-113883619D01*
X166261337Y-113883619D02*
X166250580Y-113856635D01*
X166250580Y-113856635D02*
X166232114Y-113835543D01*
X166232114Y-113835543D02*
X166188469Y-113809572D01*
X166188469Y-113809572D02*
X166140446Y-113807624D01*
X166140446Y-113807624D02*
X166096406Y-113827637D01*
X166096406Y-113827637D02*
X166064709Y-113867551D01*
X166064709Y-113867551D02*
X166060549Y-113877848D01*
X166060549Y-113877848D02*
X166036327Y-113915724D01*
X166036327Y-113915724D02*
X166000965Y-113943842D01*
X166000965Y-113943842D02*
X165956343Y-113966917D01*
X165956343Y-113966917D02*
X165956343Y-113901485D01*
X165956343Y-113901485D02*
X165958969Y-113861506D01*
X165958969Y-113861506D02*
X165970230Y-113829997D01*
X165970230Y-113829997D02*
X165995199Y-113796378D01*
X165995199Y-113796378D02*
X166019169Y-113770484D01*
X166019169Y-113770484D02*
X166056441Y-113733817D01*
X166056441Y-113733817D02*
X166085401Y-113714121D01*
X166085401Y-113714121D02*
X166116505Y-113706220D01*
X166116505Y-113706220D02*
X166151713Y-113704914D01*
X166151713Y-113704914D02*
X166228876Y-113716335D01*
X166228876Y-113716335D02*
X166228876Y-113716335D01*
G36*
X166228876Y-113716335D02*
G01*
X166270667Y-113735344D01*
X166303469Y-113758378D01*
X166327503Y-113784133D01*
X166344097Y-113817358D01*
X166354577Y-113862800D01*
X166360271Y-113925207D01*
X166362507Y-114009327D01*
X166362743Y-114064721D01*
X166362743Y-114280826D01*
X166325774Y-114297670D01*
X166296656Y-114309981D01*
X166282231Y-114314514D01*
X166279472Y-114301025D01*
X166277282Y-114264653D01*
X166275942Y-114211542D01*
X166275657Y-114169372D01*
X166274434Y-114108447D01*
X166271136Y-114060115D01*
X166266321Y-114030518D01*
X166262496Y-114024229D01*
X166236783Y-114030652D01*
X166196418Y-114047125D01*
X166149679Y-114069458D01*
X166104845Y-114093457D01*
X166070193Y-114114930D01*
X166054002Y-114129685D01*
X166053938Y-114129845D01*
X166055330Y-114157152D01*
X166067818Y-114183219D01*
X166089743Y-114204392D01*
X166121743Y-114211474D01*
X166149092Y-114210649D01*
X166187826Y-114210042D01*
X166208158Y-114219116D01*
X166220369Y-114243092D01*
X166221909Y-114247613D01*
X166227203Y-114281806D01*
X166213047Y-114302568D01*
X166176148Y-114312462D01*
X166136289Y-114314292D01*
X166064562Y-114300727D01*
X166027432Y-114281355D01*
X165981576Y-114235845D01*
X165957256Y-114179983D01*
X165955073Y-114120957D01*
X165975629Y-114065953D01*
X166006549Y-114031486D01*
X166037420Y-114012189D01*
X166085942Y-113987759D01*
X166142485Y-113962985D01*
X166151910Y-113959199D01*
X166214019Y-113931791D01*
X166249822Y-113907634D01*
X166261337Y-113883619D01*
X166250580Y-113856635D01*
X166232114Y-113835543D01*
X166188469Y-113809572D01*
X166140446Y-113807624D01*
X166096406Y-113827637D01*
X166064709Y-113867551D01*
X166060549Y-113877848D01*
X166036327Y-113915724D01*
X166000965Y-113943842D01*
X165956343Y-113966917D01*
X165956343Y-113901485D01*
X165958969Y-113861506D01*
X165970230Y-113829997D01*
X165995199Y-113796378D01*
X166019169Y-113770484D01*
X166056441Y-113733817D01*
X166085401Y-113714121D01*
X166116505Y-113706220D01*
X166151713Y-113704914D01*
X166228876Y-113716335D01*
G37*
X166228876Y-113716335D02*
X166270667Y-113735344D01*
X166303469Y-113758378D01*
X166327503Y-113784133D01*
X166344097Y-113817358D01*
X166354577Y-113862800D01*
X166360271Y-113925207D01*
X166362507Y-114009327D01*
X166362743Y-114064721D01*
X166362743Y-114280826D01*
X166325774Y-114297670D01*
X166296656Y-114309981D01*
X166282231Y-114314514D01*
X166279472Y-114301025D01*
X166277282Y-114264653D01*
X166275942Y-114211542D01*
X166275657Y-114169372D01*
X166274434Y-114108447D01*
X166271136Y-114060115D01*
X166266321Y-114030518D01*
X166262496Y-114024229D01*
X166236783Y-114030652D01*
X166196418Y-114047125D01*
X166149679Y-114069458D01*
X166104845Y-114093457D01*
X166070193Y-114114930D01*
X166054002Y-114129685D01*
X166053938Y-114129845D01*
X166055330Y-114157152D01*
X166067818Y-114183219D01*
X166089743Y-114204392D01*
X166121743Y-114211474D01*
X166149092Y-114210649D01*
X166187826Y-114210042D01*
X166208158Y-114219116D01*
X166220369Y-114243092D01*
X166221909Y-114247613D01*
X166227203Y-114281806D01*
X166213047Y-114302568D01*
X166176148Y-114312462D01*
X166136289Y-114314292D01*
X166064562Y-114300727D01*
X166027432Y-114281355D01*
X165981576Y-114235845D01*
X165957256Y-114179983D01*
X165955073Y-114120957D01*
X165975629Y-114065953D01*
X166006549Y-114031486D01*
X166037420Y-114012189D01*
X166085942Y-113987759D01*
X166142485Y-113962985D01*
X166151910Y-113959199D01*
X166214019Y-113931791D01*
X166249822Y-113907634D01*
X166261337Y-113883619D01*
X166250580Y-113856635D01*
X166232114Y-113835543D01*
X166188469Y-113809572D01*
X166140446Y-113807624D01*
X166096406Y-113827637D01*
X166064709Y-113867551D01*
X166060549Y-113877848D01*
X166036327Y-113915724D01*
X166000965Y-113943842D01*
X165956343Y-113966917D01*
X165956343Y-113901485D01*
X165958969Y-113861506D01*
X165970230Y-113829997D01*
X165995199Y-113796378D01*
X166019169Y-113770484D01*
X166056441Y-113733817D01*
X166085401Y-113714121D01*
X166116505Y-113706220D01*
X166151713Y-113704914D01*
X166228876Y-113716335D01*
X162800093Y-113687780D02*
X162846672Y-113714723D01*
X162846672Y-113714723D02*
X162879057Y-113741466D01*
X162879057Y-113741466D02*
X162902742Y-113769484D01*
X162902742Y-113769484D02*
X162919059Y-113803748D01*
X162919059Y-113803748D02*
X162929339Y-113849227D01*
X162929339Y-113849227D02*
X162934914Y-113910892D01*
X162934914Y-113910892D02*
X162937116Y-113993711D01*
X162937116Y-113993711D02*
X162937371Y-114053246D01*
X162937371Y-114053246D02*
X162937371Y-114272391D01*
X162937371Y-114272391D02*
X162875686Y-114300044D01*
X162875686Y-114300044D02*
X162814000Y-114327697D01*
X162814000Y-114327697D02*
X162806743Y-114087670D01*
X162806743Y-114087670D02*
X162803744Y-113998028D01*
X162803744Y-113998028D02*
X162800598Y-113932962D01*
X162800598Y-113932962D02*
X162796701Y-113888026D01*
X162796701Y-113888026D02*
X162791447Y-113858770D01*
X162791447Y-113858770D02*
X162784231Y-113840748D01*
X162784231Y-113840748D02*
X162774450Y-113829511D01*
X162774450Y-113829511D02*
X162771312Y-113827079D01*
X162771312Y-113827079D02*
X162723761Y-113808083D01*
X162723761Y-113808083D02*
X162675697Y-113815600D01*
X162675697Y-113815600D02*
X162647086Y-113835543D01*
X162647086Y-113835543D02*
X162635447Y-113849675D01*
X162635447Y-113849675D02*
X162627391Y-113868220D01*
X162627391Y-113868220D02*
X162622271Y-113896334D01*
X162622271Y-113896334D02*
X162619441Y-113939173D01*
X162619441Y-113939173D02*
X162618256Y-114001895D01*
X162618256Y-114001895D02*
X162618057Y-114067261D01*
X162618057Y-114067261D02*
X162618018Y-114149268D01*
X162618018Y-114149268D02*
X162616614Y-114207316D01*
X162616614Y-114207316D02*
X162611914Y-114246465D01*
X162611914Y-114246465D02*
X162601987Y-114271780D01*
X162601987Y-114271780D02*
X162584903Y-114288323D01*
X162584903Y-114288323D02*
X162558732Y-114301156D01*
X162558732Y-114301156D02*
X162523775Y-114314491D01*
X162523775Y-114314491D02*
X162485596Y-114329007D01*
X162485596Y-114329007D02*
X162490141Y-114071389D01*
X162490141Y-114071389D02*
X162491971Y-113978519D01*
X162491971Y-113978519D02*
X162494112Y-113909889D01*
X162494112Y-113909889D02*
X162497181Y-113860711D01*
X162497181Y-113860711D02*
X162501794Y-113826198D01*
X162501794Y-113826198D02*
X162508568Y-113801562D01*
X162508568Y-113801562D02*
X162518119Y-113782016D01*
X162518119Y-113782016D02*
X162529634Y-113764770D01*
X162529634Y-113764770D02*
X162585190Y-113709680D01*
X162585190Y-113709680D02*
X162652980Y-113677822D01*
X162652980Y-113677822D02*
X162726713Y-113670191D01*
X162726713Y-113670191D02*
X162800093Y-113687780D01*
X162800093Y-113687780D02*
X162800093Y-113687780D01*
G36*
X162800093Y-113687780D02*
G01*
X162846672Y-113714723D01*
X162879057Y-113741466D01*
X162902742Y-113769484D01*
X162919059Y-113803748D01*
X162929339Y-113849227D01*
X162934914Y-113910892D01*
X162937116Y-113993711D01*
X162937371Y-114053246D01*
X162937371Y-114272391D01*
X162875686Y-114300044D01*
X162814000Y-114327697D01*
X162806743Y-114087670D01*
X162803744Y-113998028D01*
X162800598Y-113932962D01*
X162796701Y-113888026D01*
X162791447Y-113858770D01*
X162784231Y-113840748D01*
X162774450Y-113829511D01*
X162771312Y-113827079D01*
X162723761Y-113808083D01*
X162675697Y-113815600D01*
X162647086Y-113835543D01*
X162635447Y-113849675D01*
X162627391Y-113868220D01*
X162622271Y-113896334D01*
X162619441Y-113939173D01*
X162618256Y-114001895D01*
X162618057Y-114067261D01*
X162618018Y-114149268D01*
X162616614Y-114207316D01*
X162611914Y-114246465D01*
X162601987Y-114271780D01*
X162584903Y-114288323D01*
X162558732Y-114301156D01*
X162523775Y-114314491D01*
X162485596Y-114329007D01*
X162490141Y-114071389D01*
X162491971Y-113978519D01*
X162494112Y-113909889D01*
X162497181Y-113860711D01*
X162501794Y-113826198D01*
X162508568Y-113801562D01*
X162518119Y-113782016D01*
X162529634Y-113764770D01*
X162585190Y-113709680D01*
X162652980Y-113677822D01*
X162726713Y-113670191D01*
X162800093Y-113687780D01*
G37*
X162800093Y-113687780D02*
X162846672Y-113714723D01*
X162879057Y-113741466D01*
X162902742Y-113769484D01*
X162919059Y-113803748D01*
X162929339Y-113849227D01*
X162934914Y-113910892D01*
X162937116Y-113993711D01*
X162937371Y-114053246D01*
X162937371Y-114272391D01*
X162875686Y-114300044D01*
X162814000Y-114327697D01*
X162806743Y-114087670D01*
X162803744Y-113998028D01*
X162800598Y-113932962D01*
X162796701Y-113888026D01*
X162791447Y-113858770D01*
X162784231Y-113840748D01*
X162774450Y-113829511D01*
X162771312Y-113827079D01*
X162723761Y-113808083D01*
X162675697Y-113815600D01*
X162647086Y-113835543D01*
X162635447Y-113849675D01*
X162627391Y-113868220D01*
X162622271Y-113896334D01*
X162619441Y-113939173D01*
X162618256Y-114001895D01*
X162618057Y-114067261D01*
X162618018Y-114149268D01*
X162616614Y-114207316D01*
X162611914Y-114246465D01*
X162601987Y-114271780D01*
X162584903Y-114288323D01*
X162558732Y-114301156D01*
X162523775Y-114314491D01*
X162485596Y-114329007D01*
X162490141Y-114071389D01*
X162491971Y-113978519D01*
X162494112Y-113909889D01*
X162497181Y-113860711D01*
X162501794Y-113826198D01*
X162508568Y-113801562D01*
X162518119Y-113782016D01*
X162529634Y-113764770D01*
X162585190Y-113709680D01*
X162652980Y-113677822D01*
X162726713Y-113670191D01*
X162800093Y-113687780D01*
X164187910Y-109002348D02*
X164266454Y-109002778D01*
X164266454Y-109002778D02*
X164323298Y-109003942D01*
X164323298Y-109003942D02*
X164362105Y-109006207D01*
X164362105Y-109006207D02*
X164386538Y-109009940D01*
X164386538Y-109009940D02*
X164400262Y-109015506D01*
X164400262Y-109015506D02*
X164406940Y-109023273D01*
X164406940Y-109023273D02*
X164410236Y-109033605D01*
X164410236Y-109033605D02*
X164410556Y-109034943D01*
X164410556Y-109034943D02*
X164415562Y-109059079D01*
X164415562Y-109059079D02*
X164424829Y-109106701D01*
X164424829Y-109106701D02*
X164437392Y-109172741D01*
X164437392Y-109172741D02*
X164452287Y-109252128D01*
X164452287Y-109252128D02*
X164468551Y-109339796D01*
X164468551Y-109339796D02*
X164469119Y-109342875D01*
X164469119Y-109342875D02*
X164485410Y-109428789D01*
X164485410Y-109428789D02*
X164500652Y-109504696D01*
X164500652Y-109504696D02*
X164513861Y-109566045D01*
X164513861Y-109566045D02*
X164524054Y-109608282D01*
X164524054Y-109608282D02*
X164530248Y-109626855D01*
X164530248Y-109626855D02*
X164530543Y-109627184D01*
X164530543Y-109627184D02*
X164548788Y-109636253D01*
X164548788Y-109636253D02*
X164586405Y-109651367D01*
X164586405Y-109651367D02*
X164635271Y-109669262D01*
X164635271Y-109669262D02*
X164635543Y-109669358D01*
X164635543Y-109669358D02*
X164697093Y-109692493D01*
X164697093Y-109692493D02*
X164769657Y-109721965D01*
X164769657Y-109721965D02*
X164838057Y-109751597D01*
X164838057Y-109751597D02*
X164841294Y-109753062D01*
X164841294Y-109753062D02*
X164952702Y-109803626D01*
X164952702Y-109803626D02*
X165199399Y-109635160D01*
X165199399Y-109635160D02*
X165275077Y-109583803D01*
X165275077Y-109583803D02*
X165343631Y-109537889D01*
X165343631Y-109537889D02*
X165401088Y-109500030D01*
X165401088Y-109500030D02*
X165443476Y-109472837D01*
X165443476Y-109472837D02*
X165466825Y-109458921D01*
X165466825Y-109458921D02*
X165469042Y-109457889D01*
X165469042Y-109457889D02*
X165486010Y-109462484D01*
X165486010Y-109462484D02*
X165517701Y-109484655D01*
X165517701Y-109484655D02*
X165565352Y-109525447D01*
X165565352Y-109525447D02*
X165630198Y-109585905D01*
X165630198Y-109585905D02*
X165696397Y-109650227D01*
X165696397Y-109650227D02*
X165760214Y-109713612D01*
X165760214Y-109713612D02*
X165817329Y-109771451D01*
X165817329Y-109771451D02*
X165864305Y-109820175D01*
X165864305Y-109820175D02*
X165897703Y-109856210D01*
X165897703Y-109856210D02*
X165914085Y-109875984D01*
X165914085Y-109875984D02*
X165914694Y-109877002D01*
X165914694Y-109877002D02*
X165916505Y-109890572D01*
X165916505Y-109890572D02*
X165909683Y-109912733D01*
X165909683Y-109912733D02*
X165892540Y-109946478D01*
X165892540Y-109946478D02*
X165863393Y-109994800D01*
X165863393Y-109994800D02*
X165820555Y-110060692D01*
X165820555Y-110060692D02*
X165763448Y-110145517D01*
X165763448Y-110145517D02*
X165712766Y-110220177D01*
X165712766Y-110220177D02*
X165667461Y-110287140D01*
X165667461Y-110287140D02*
X165630150Y-110342516D01*
X165630150Y-110342516D02*
X165603452Y-110382420D01*
X165603452Y-110382420D02*
X165589985Y-110402962D01*
X165589985Y-110402962D02*
X165589137Y-110404356D01*
X165589137Y-110404356D02*
X165590781Y-110424038D01*
X165590781Y-110424038D02*
X165603245Y-110462293D01*
X165603245Y-110462293D02*
X165624048Y-110511889D01*
X165624048Y-110511889D02*
X165631462Y-110527728D01*
X165631462Y-110527728D02*
X165663814Y-110598290D01*
X165663814Y-110598290D02*
X165698328Y-110678353D01*
X165698328Y-110678353D02*
X165726365Y-110747629D01*
X165726365Y-110747629D02*
X165746568Y-110799045D01*
X165746568Y-110799045D02*
X165762615Y-110838119D01*
X165762615Y-110838119D02*
X165771888Y-110858541D01*
X165771888Y-110858541D02*
X165773041Y-110860114D01*
X165773041Y-110860114D02*
X165790096Y-110862721D01*
X165790096Y-110862721D02*
X165830298Y-110869863D01*
X165830298Y-110869863D02*
X165888302Y-110880523D01*
X165888302Y-110880523D02*
X165958763Y-110893685D01*
X165958763Y-110893685D02*
X166036335Y-110908333D01*
X166036335Y-110908333D02*
X166115672Y-110923449D01*
X166115672Y-110923449D02*
X166191431Y-110938018D01*
X166191431Y-110938018D02*
X166258264Y-110951022D01*
X166258264Y-110951022D02*
X166310828Y-110961445D01*
X166310828Y-110961445D02*
X166343776Y-110968270D01*
X166343776Y-110968270D02*
X166351857Y-110970199D01*
X166351857Y-110970199D02*
X166360205Y-110974962D01*
X166360205Y-110974962D02*
X166366506Y-110985718D01*
X166366506Y-110985718D02*
X166371045Y-111006098D01*
X166371045Y-111006098D02*
X166374104Y-111039734D01*
X166374104Y-111039734D02*
X166375967Y-111090255D01*
X166375967Y-111090255D02*
X166376918Y-111161292D01*
X166376918Y-111161292D02*
X166377240Y-111256476D01*
X166377240Y-111256476D02*
X166377257Y-111295492D01*
X166377257Y-111295492D02*
X166377257Y-111612799D01*
X166377257Y-111612799D02*
X166301057Y-111627839D01*
X166301057Y-111627839D02*
X166258663Y-111635995D01*
X166258663Y-111635995D02*
X166195400Y-111647899D01*
X166195400Y-111647899D02*
X166118962Y-111662116D01*
X166118962Y-111662116D02*
X166037043Y-111677210D01*
X166037043Y-111677210D02*
X166014400Y-111681355D01*
X166014400Y-111681355D02*
X165938806Y-111696053D01*
X165938806Y-111696053D02*
X165872953Y-111710505D01*
X165872953Y-111710505D02*
X165822366Y-111723375D01*
X165822366Y-111723375D02*
X165792574Y-111733322D01*
X165792574Y-111733322D02*
X165787612Y-111736287D01*
X165787612Y-111736287D02*
X165775426Y-111757283D01*
X165775426Y-111757283D02*
X165757953Y-111797967D01*
X165757953Y-111797967D02*
X165738577Y-111850322D01*
X165738577Y-111850322D02*
X165734734Y-111861600D01*
X165734734Y-111861600D02*
X165709339Y-111931523D01*
X165709339Y-111931523D02*
X165677817Y-112010418D01*
X165677817Y-112010418D02*
X165646969Y-112081266D01*
X165646969Y-112081266D02*
X165646817Y-112081595D01*
X165646817Y-112081595D02*
X165595447Y-112192733D01*
X165595447Y-112192733D02*
X165764399Y-112441253D01*
X165764399Y-112441253D02*
X165933352Y-112689772D01*
X165933352Y-112689772D02*
X165716429Y-112907058D01*
X165716429Y-112907058D02*
X165650819Y-112971726D01*
X165650819Y-112971726D02*
X165590979Y-113028733D01*
X165590979Y-113028733D02*
X165540267Y-113075033D01*
X165540267Y-113075033D02*
X165502046Y-113107584D01*
X165502046Y-113107584D02*
X165479675Y-113123343D01*
X165479675Y-113123343D02*
X165476466Y-113124343D01*
X165476466Y-113124343D02*
X165457626Y-113116469D01*
X165457626Y-113116469D02*
X165419180Y-113094578D01*
X165419180Y-113094578D02*
X165365330Y-113061267D01*
X165365330Y-113061267D02*
X165300276Y-113019131D01*
X165300276Y-113019131D02*
X165229940Y-112971943D01*
X165229940Y-112971943D02*
X165158555Y-112923810D01*
X165158555Y-112923810D02*
X165094908Y-112881928D01*
X165094908Y-112881928D02*
X165043041Y-112848871D01*
X165043041Y-112848871D02*
X165006995Y-112827218D01*
X165006995Y-112827218D02*
X164990867Y-112819543D01*
X164990867Y-112819543D02*
X164971189Y-112826037D01*
X164971189Y-112826037D02*
X164933875Y-112843150D01*
X164933875Y-112843150D02*
X164886621Y-112867326D01*
X164886621Y-112867326D02*
X164881612Y-112870013D01*
X164881612Y-112870013D02*
X164817977Y-112901927D01*
X164817977Y-112901927D02*
X164774341Y-112917579D01*
X164774341Y-112917579D02*
X164747202Y-112917745D01*
X164747202Y-112917745D02*
X164733057Y-112903204D01*
X164733057Y-112903204D02*
X164732975Y-112903000D01*
X164732975Y-112903000D02*
X164725905Y-112885779D01*
X164725905Y-112885779D02*
X164709042Y-112844899D01*
X164709042Y-112844899D02*
X164683695Y-112783525D01*
X164683695Y-112783525D02*
X164651171Y-112704819D01*
X164651171Y-112704819D02*
X164612778Y-112611947D01*
X164612778Y-112611947D02*
X164569822Y-112508072D01*
X164569822Y-112508072D02*
X164528222Y-112407502D01*
X164528222Y-112407502D02*
X164482504Y-112296516D01*
X164482504Y-112296516D02*
X164440526Y-112193703D01*
X164440526Y-112193703D02*
X164403548Y-112102215D01*
X164403548Y-112102215D02*
X164372827Y-112025201D01*
X164372827Y-112025201D02*
X164349622Y-111965815D01*
X164349622Y-111965815D02*
X164335190Y-111927209D01*
X164335190Y-111927209D02*
X164330743Y-111912800D01*
X164330743Y-111912800D02*
X164341896Y-111896272D01*
X164341896Y-111896272D02*
X164371069Y-111869930D01*
X164371069Y-111869930D02*
X164409971Y-111840887D01*
X164409971Y-111840887D02*
X164520757Y-111749039D01*
X164520757Y-111749039D02*
X164607351Y-111643759D01*
X164607351Y-111643759D02*
X164668716Y-111527266D01*
X164668716Y-111527266D02*
X164703815Y-111401776D01*
X164703815Y-111401776D02*
X164711608Y-111269507D01*
X164711608Y-111269507D02*
X164705943Y-111208457D01*
X164705943Y-111208457D02*
X164675078Y-111081795D01*
X164675078Y-111081795D02*
X164621920Y-110969941D01*
X164621920Y-110969941D02*
X164549767Y-110874001D01*
X164549767Y-110874001D02*
X164461917Y-110795076D01*
X164461917Y-110795076D02*
X164361665Y-110734270D01*
X164361665Y-110734270D02*
X164252310Y-110692687D01*
X164252310Y-110692687D02*
X164137147Y-110671428D01*
X164137147Y-110671428D02*
X164019475Y-110671599D01*
X164019475Y-110671599D02*
X163902590Y-110694301D01*
X163902590Y-110694301D02*
X163789789Y-110740638D01*
X163789789Y-110740638D02*
X163684369Y-110811713D01*
X163684369Y-110811713D02*
X163640368Y-110851911D01*
X163640368Y-110851911D02*
X163555979Y-110955129D01*
X163555979Y-110955129D02*
X163497222Y-111067925D01*
X163497222Y-111067925D02*
X163463704Y-111187010D01*
X163463704Y-111187010D02*
X163455035Y-111309095D01*
X163455035Y-111309095D02*
X163470823Y-111430893D01*
X163470823Y-111430893D02*
X163510678Y-111549116D01*
X163510678Y-111549116D02*
X163574207Y-111660475D01*
X163574207Y-111660475D02*
X163661021Y-111761684D01*
X163661021Y-111761684D02*
X163758029Y-111840887D01*
X163758029Y-111840887D02*
X163798437Y-111871162D01*
X163798437Y-111871162D02*
X163826982Y-111897219D01*
X163826982Y-111897219D02*
X163837257Y-111912825D01*
X163837257Y-111912825D02*
X163831877Y-111929843D01*
X163831877Y-111929843D02*
X163816575Y-111970500D01*
X163816575Y-111970500D02*
X163792612Y-112031642D01*
X163792612Y-112031642D02*
X163761244Y-112110119D01*
X163761244Y-112110119D02*
X163723732Y-112202780D01*
X163723732Y-112202780D02*
X163681333Y-112306472D01*
X163681333Y-112306472D02*
X163639663Y-112407526D01*
X163639663Y-112407526D02*
X163593690Y-112518607D01*
X163593690Y-112518607D02*
X163551107Y-112621541D01*
X163551107Y-112621541D02*
X163513221Y-112713165D01*
X163513221Y-112713165D02*
X163481340Y-112790316D01*
X163481340Y-112790316D02*
X163456771Y-112849831D01*
X163456771Y-112849831D02*
X163440820Y-112888544D01*
X163440820Y-112888544D02*
X163434910Y-112903000D01*
X163434910Y-112903000D02*
X163420948Y-112917685D01*
X163420948Y-112917685D02*
X163393940Y-112917642D01*
X163393940Y-112917642D02*
X163350413Y-112902099D01*
X163350413Y-112902099D02*
X163286890Y-112870284D01*
X163286890Y-112870284D02*
X163286388Y-112870013D01*
X163286388Y-112870013D02*
X163238560Y-112845323D01*
X163238560Y-112845323D02*
X163199897Y-112827338D01*
X163199897Y-112827338D02*
X163178095Y-112819614D01*
X163178095Y-112819614D02*
X163177133Y-112819543D01*
X163177133Y-112819543D02*
X163160721Y-112827378D01*
X163160721Y-112827378D02*
X163124487Y-112849165D01*
X163124487Y-112849165D02*
X163072474Y-112882328D01*
X163072474Y-112882328D02*
X163008725Y-112924291D01*
X163008725Y-112924291D02*
X162938060Y-112971943D01*
X162938060Y-112971943D02*
X162866116Y-113020191D01*
X162866116Y-113020191D02*
X162801274Y-113062151D01*
X162801274Y-113062151D02*
X162747735Y-113095227D01*
X162747735Y-113095227D02*
X162709697Y-113116821D01*
X162709697Y-113116821D02*
X162691533Y-113124343D01*
X162691533Y-113124343D02*
X162674808Y-113114457D01*
X162674808Y-113114457D02*
X162641180Y-113086826D01*
X162641180Y-113086826D02*
X162594010Y-113044495D01*
X162594010Y-113044495D02*
X162536658Y-112990505D01*
X162536658Y-112990505D02*
X162472484Y-112927899D01*
X162472484Y-112927899D02*
X162451497Y-112906983D01*
X162451497Y-112906983D02*
X162234499Y-112689623D01*
X162234499Y-112689623D02*
X162399668Y-112447220D01*
X162399668Y-112447220D02*
X162449864Y-112372781D01*
X162449864Y-112372781D02*
X162493919Y-112305972D01*
X162493919Y-112305972D02*
X162529362Y-112250665D01*
X162529362Y-112250665D02*
X162553719Y-112210729D01*
X162553719Y-112210729D02*
X162564522Y-112190036D01*
X162564522Y-112190036D02*
X162564838Y-112188563D01*
X162564838Y-112188563D02*
X162559143Y-112169058D01*
X162559143Y-112169058D02*
X162543826Y-112129822D01*
X162543826Y-112129822D02*
X162521537Y-112077430D01*
X162521537Y-112077430D02*
X162505893Y-112042355D01*
X162505893Y-112042355D02*
X162476641Y-111975201D01*
X162476641Y-111975201D02*
X162449094Y-111907358D01*
X162449094Y-111907358D02*
X162427737Y-111850034D01*
X162427737Y-111850034D02*
X162421935Y-111832572D01*
X162421935Y-111832572D02*
X162405452Y-111785938D01*
X162405452Y-111785938D02*
X162389340Y-111749905D01*
X162389340Y-111749905D02*
X162380490Y-111736287D01*
X162380490Y-111736287D02*
X162360960Y-111727952D01*
X162360960Y-111727952D02*
X162318334Y-111716137D01*
X162318334Y-111716137D02*
X162258145Y-111702181D01*
X162258145Y-111702181D02*
X162185922Y-111687422D01*
X162185922Y-111687422D02*
X162153600Y-111681355D01*
X162153600Y-111681355D02*
X162071522Y-111666273D01*
X162071522Y-111666273D02*
X161992795Y-111651669D01*
X161992795Y-111651669D02*
X161925109Y-111638980D01*
X161925109Y-111638980D02*
X161876160Y-111629642D01*
X161876160Y-111629642D02*
X161866943Y-111627839D01*
X161866943Y-111627839D02*
X161790743Y-111612799D01*
X161790743Y-111612799D02*
X161790743Y-111295492D01*
X161790743Y-111295492D02*
X161790914Y-111191154D01*
X161790914Y-111191154D02*
X161791616Y-111112213D01*
X161791616Y-111112213D02*
X161793134Y-111055038D01*
X161793134Y-111055038D02*
X161795749Y-111015999D01*
X161795749Y-111015999D02*
X161799746Y-110991465D01*
X161799746Y-110991465D02*
X161805409Y-110977805D01*
X161805409Y-110977805D02*
X161813020Y-110971389D01*
X161813020Y-110971389D02*
X161816143Y-110970199D01*
X161816143Y-110970199D02*
X161834978Y-110965980D01*
X161834978Y-110965980D02*
X161876588Y-110957562D01*
X161876588Y-110957562D02*
X161935630Y-110945961D01*
X161935630Y-110945961D02*
X162006757Y-110932195D01*
X162006757Y-110932195D02*
X162084625Y-110917280D01*
X162084625Y-110917280D02*
X162163887Y-110902232D01*
X162163887Y-110902232D02*
X162239198Y-110888069D01*
X162239198Y-110888069D02*
X162305213Y-110875806D01*
X162305213Y-110875806D02*
X162356587Y-110866461D01*
X162356587Y-110866461D02*
X162387975Y-110861050D01*
X162387975Y-110861050D02*
X162394959Y-110860114D01*
X162394959Y-110860114D02*
X162401285Y-110847596D01*
X162401285Y-110847596D02*
X162415290Y-110814246D01*
X162415290Y-110814246D02*
X162434355Y-110766377D01*
X162434355Y-110766377D02*
X162441634Y-110747629D01*
X162441634Y-110747629D02*
X162470996Y-110675195D01*
X162470996Y-110675195D02*
X162505571Y-110595170D01*
X162505571Y-110595170D02*
X162536537Y-110527728D01*
X162536537Y-110527728D02*
X162559323Y-110476159D01*
X162559323Y-110476159D02*
X162574482Y-110433785D01*
X162574482Y-110433785D02*
X162579542Y-110407834D01*
X162579542Y-110407834D02*
X162578736Y-110404356D01*
X162578736Y-110404356D02*
X162568041Y-110387936D01*
X162568041Y-110387936D02*
X162543620Y-110351417D01*
X162543620Y-110351417D02*
X162508095Y-110298687D01*
X162508095Y-110298687D02*
X162464087Y-110233635D01*
X162464087Y-110233635D02*
X162414217Y-110160151D01*
X162414217Y-110160151D02*
X162404356Y-110145645D01*
X162404356Y-110145645D02*
X162346492Y-110059704D01*
X162346492Y-110059704D02*
X162303956Y-109994261D01*
X162303956Y-109994261D02*
X162275054Y-109946304D01*
X162275054Y-109946304D02*
X162258090Y-109912820D01*
X162258090Y-109912820D02*
X162251367Y-109890795D01*
X162251367Y-109890795D02*
X162253190Y-109877217D01*
X162253190Y-109877217D02*
X162253236Y-109877131D01*
X162253236Y-109877131D02*
X162267586Y-109859297D01*
X162267586Y-109859297D02*
X162299323Y-109824817D01*
X162299323Y-109824817D02*
X162345010Y-109777268D01*
X162345010Y-109777268D02*
X162401204Y-109720222D01*
X162401204Y-109720222D02*
X162464468Y-109657255D01*
X162464468Y-109657255D02*
X162471602Y-109650227D01*
X162471602Y-109650227D02*
X162551330Y-109573020D01*
X162551330Y-109573020D02*
X162612857Y-109516330D01*
X162612857Y-109516330D02*
X162657421Y-109479110D01*
X162657421Y-109479110D02*
X162686257Y-109460315D01*
X162686257Y-109460315D02*
X162698958Y-109457889D01*
X162698958Y-109457889D02*
X162717494Y-109468471D01*
X162717494Y-109468471D02*
X162755961Y-109492916D01*
X162755961Y-109492916D02*
X162810386Y-109528612D01*
X162810386Y-109528612D02*
X162876798Y-109572947D01*
X162876798Y-109572947D02*
X162951225Y-109623311D01*
X162951225Y-109623311D02*
X162968601Y-109635160D01*
X162968601Y-109635160D02*
X163215297Y-109803626D01*
X163215297Y-109803626D02*
X163326706Y-109753062D01*
X163326706Y-109753062D02*
X163394457Y-109723595D01*
X163394457Y-109723595D02*
X163467183Y-109693959D01*
X163467183Y-109693959D02*
X163529703Y-109670330D01*
X163529703Y-109670330D02*
X163532457Y-109669358D01*
X163532457Y-109669358D02*
X163581360Y-109651457D01*
X163581360Y-109651457D02*
X163619057Y-109636320D01*
X163619057Y-109636320D02*
X163637425Y-109627210D01*
X163637425Y-109627210D02*
X163637456Y-109627184D01*
X163637456Y-109627184D02*
X163643285Y-109610717D01*
X163643285Y-109610717D02*
X163653192Y-109570219D01*
X163653192Y-109570219D02*
X163666195Y-109510242D01*
X163666195Y-109510242D02*
X163681309Y-109435340D01*
X163681309Y-109435340D02*
X163697552Y-109350064D01*
X163697552Y-109350064D02*
X163698881Y-109342875D01*
X163698881Y-109342875D02*
X163715175Y-109255014D01*
X163715175Y-109255014D02*
X163730133Y-109175260D01*
X163730133Y-109175260D02*
X163742791Y-109108681D01*
X163742791Y-109108681D02*
X163752186Y-109060347D01*
X163752186Y-109060347D02*
X163757354Y-109035325D01*
X163757354Y-109035325D02*
X163757444Y-109034943D01*
X163757444Y-109034943D02*
X163760589Y-109024299D01*
X163760589Y-109024299D02*
X163766704Y-109016262D01*
X163766704Y-109016262D02*
X163779453Y-109010467D01*
X163779453Y-109010467D02*
X163802500Y-109006547D01*
X163802500Y-109006547D02*
X163839509Y-109004135D01*
X163839509Y-109004135D02*
X163894144Y-109002865D01*
X163894144Y-109002865D02*
X163970067Y-109002371D01*
X163970067Y-109002371D02*
X164070944Y-109002286D01*
X164070944Y-109002286D02*
X164084000Y-109002286D01*
X164084000Y-109002286D02*
X164187910Y-109002348D01*
X164187910Y-109002348D02*
X164187910Y-109002348D01*
G36*
X164187910Y-109002348D02*
G01*
X164266454Y-109002778D01*
X164323298Y-109003942D01*
X164362105Y-109006207D01*
X164386538Y-109009940D01*
X164400262Y-109015506D01*
X164406940Y-109023273D01*
X164410236Y-109033605D01*
X164410556Y-109034943D01*
X164415562Y-109059079D01*
X164424829Y-109106701D01*
X164437392Y-109172741D01*
X164452287Y-109252128D01*
X164468551Y-109339796D01*
X164469119Y-109342875D01*
X164485410Y-109428789D01*
X164500652Y-109504696D01*
X164513861Y-109566045D01*
X164524054Y-109608282D01*
X164530248Y-109626855D01*
X164530543Y-109627184D01*
X164548788Y-109636253D01*
X164586405Y-109651367D01*
X164635271Y-109669262D01*
X164635543Y-109669358D01*
X164697093Y-109692493D01*
X164769657Y-109721965D01*
X164838057Y-109751597D01*
X164841294Y-109753062D01*
X164952702Y-109803626D01*
X165199399Y-109635160D01*
X165275077Y-109583803D01*
X165343631Y-109537889D01*
X165401088Y-109500030D01*
X165443476Y-109472837D01*
X165466825Y-109458921D01*
X165469042Y-109457889D01*
X165486010Y-109462484D01*
X165517701Y-109484655D01*
X165565352Y-109525447D01*
X165630198Y-109585905D01*
X165696397Y-109650227D01*
X165760214Y-109713612D01*
X165817329Y-109771451D01*
X165864305Y-109820175D01*
X165897703Y-109856210D01*
X165914085Y-109875984D01*
X165914694Y-109877002D01*
X165916505Y-109890572D01*
X165909683Y-109912733D01*
X165892540Y-109946478D01*
X165863393Y-109994800D01*
X165820555Y-110060692D01*
X165763448Y-110145517D01*
X165712766Y-110220177D01*
X165667461Y-110287140D01*
X165630150Y-110342516D01*
X165603452Y-110382420D01*
X165589985Y-110402962D01*
X165589137Y-110404356D01*
X165590781Y-110424038D01*
X165603245Y-110462293D01*
X165624048Y-110511889D01*
X165631462Y-110527728D01*
X165663814Y-110598290D01*
X165698328Y-110678353D01*
X165726365Y-110747629D01*
X165746568Y-110799045D01*
X165762615Y-110838119D01*
X165771888Y-110858541D01*
X165773041Y-110860114D01*
X165790096Y-110862721D01*
X165830298Y-110869863D01*
X165888302Y-110880523D01*
X165958763Y-110893685D01*
X166036335Y-110908333D01*
X166115672Y-110923449D01*
X166191431Y-110938018D01*
X166258264Y-110951022D01*
X166310828Y-110961445D01*
X166343776Y-110968270D01*
X166351857Y-110970199D01*
X166360205Y-110974962D01*
X166366506Y-110985718D01*
X166371045Y-111006098D01*
X166374104Y-111039734D01*
X166375967Y-111090255D01*
X166376918Y-111161292D01*
X166377240Y-111256476D01*
X166377257Y-111295492D01*
X166377257Y-111612799D01*
X166301057Y-111627839D01*
X166258663Y-111635995D01*
X166195400Y-111647899D01*
X166118962Y-111662116D01*
X166037043Y-111677210D01*
X166014400Y-111681355D01*
X165938806Y-111696053D01*
X165872953Y-111710505D01*
X165822366Y-111723375D01*
X165792574Y-111733322D01*
X165787612Y-111736287D01*
X165775426Y-111757283D01*
X165757953Y-111797967D01*
X165738577Y-111850322D01*
X165734734Y-111861600D01*
X165709339Y-111931523D01*
X165677817Y-112010418D01*
X165646969Y-112081266D01*
X165646817Y-112081595D01*
X165595447Y-112192733D01*
X165764399Y-112441253D01*
X165933352Y-112689772D01*
X165716429Y-112907058D01*
X165650819Y-112971726D01*
X165590979Y-113028733D01*
X165540267Y-113075033D01*
X165502046Y-113107584D01*
X165479675Y-113123343D01*
X165476466Y-113124343D01*
X165457626Y-113116469D01*
X165419180Y-113094578D01*
X165365330Y-113061267D01*
X165300276Y-113019131D01*
X165229940Y-112971943D01*
X165158555Y-112923810D01*
X165094908Y-112881928D01*
X165043041Y-112848871D01*
X165006995Y-112827218D01*
X164990867Y-112819543D01*
X164971189Y-112826037D01*
X164933875Y-112843150D01*
X164886621Y-112867326D01*
X164881612Y-112870013D01*
X164817977Y-112901927D01*
X164774341Y-112917579D01*
X164747202Y-112917745D01*
X164733057Y-112903204D01*
X164732975Y-112903000D01*
X164725905Y-112885779D01*
X164709042Y-112844899D01*
X164683695Y-112783525D01*
X164651171Y-112704819D01*
X164612778Y-112611947D01*
X164569822Y-112508072D01*
X164528222Y-112407502D01*
X164482504Y-112296516D01*
X164440526Y-112193703D01*
X164403548Y-112102215D01*
X164372827Y-112025201D01*
X164349622Y-111965815D01*
X164335190Y-111927209D01*
X164330743Y-111912800D01*
X164341896Y-111896272D01*
X164371069Y-111869930D01*
X164409971Y-111840887D01*
X164520757Y-111749039D01*
X164607351Y-111643759D01*
X164668716Y-111527266D01*
X164703815Y-111401776D01*
X164711608Y-111269507D01*
X164705943Y-111208457D01*
X164675078Y-111081795D01*
X164621920Y-110969941D01*
X164549767Y-110874001D01*
X164461917Y-110795076D01*
X164361665Y-110734270D01*
X164252310Y-110692687D01*
X164137147Y-110671428D01*
X164019475Y-110671599D01*
X163902590Y-110694301D01*
X163789789Y-110740638D01*
X163684369Y-110811713D01*
X163640368Y-110851911D01*
X163555979Y-110955129D01*
X163497222Y-111067925D01*
X163463704Y-111187010D01*
X163455035Y-111309095D01*
X163470823Y-111430893D01*
X163510678Y-111549116D01*
X163574207Y-111660475D01*
X163661021Y-111761684D01*
X163758029Y-111840887D01*
X163798437Y-111871162D01*
X163826982Y-111897219D01*
X163837257Y-111912825D01*
X163831877Y-111929843D01*
X163816575Y-111970500D01*
X163792612Y-112031642D01*
X163761244Y-112110119D01*
X163723732Y-112202780D01*
X163681333Y-112306472D01*
X163639663Y-112407526D01*
X163593690Y-112518607D01*
X163551107Y-112621541D01*
X163513221Y-112713165D01*
X163481340Y-112790316D01*
X163456771Y-112849831D01*
X163440820Y-112888544D01*
X163434910Y-112903000D01*
X163420948Y-112917685D01*
X163393940Y-112917642D01*
X163350413Y-112902099D01*
X163286890Y-112870284D01*
X163286388Y-112870013D01*
X163238560Y-112845323D01*
X163199897Y-112827338D01*
X163178095Y-112819614D01*
X163177133Y-112819543D01*
X163160721Y-112827378D01*
X163124487Y-112849165D01*
X163072474Y-112882328D01*
X163008725Y-112924291D01*
X162938060Y-112971943D01*
X162866116Y-113020191D01*
X162801274Y-113062151D01*
X162747735Y-113095227D01*
X162709697Y-113116821D01*
X162691533Y-113124343D01*
X162674808Y-113114457D01*
X162641180Y-113086826D01*
X162594010Y-113044495D01*
X162536658Y-112990505D01*
X162472484Y-112927899D01*
X162451497Y-112906983D01*
X162234499Y-112689623D01*
X162399668Y-112447220D01*
X162449864Y-112372781D01*
X162493919Y-112305972D01*
X162529362Y-112250665D01*
X162553719Y-112210729D01*
X162564522Y-112190036D01*
X162564838Y-112188563D01*
X162559143Y-112169058D01*
X162543826Y-112129822D01*
X162521537Y-112077430D01*
X162505893Y-112042355D01*
X162476641Y-111975201D01*
X162449094Y-111907358D01*
X162427737Y-111850034D01*
X162421935Y-111832572D01*
X162405452Y-111785938D01*
X162389340Y-111749905D01*
X162380490Y-111736287D01*
X162360960Y-111727952D01*
X162318334Y-111716137D01*
X162258145Y-111702181D01*
X162185922Y-111687422D01*
X162153600Y-111681355D01*
X162071522Y-111666273D01*
X161992795Y-111651669D01*
X161925109Y-111638980D01*
X161876160Y-111629642D01*
X161866943Y-111627839D01*
X161790743Y-111612799D01*
X161790743Y-111295492D01*
X161790914Y-111191154D01*
X161791616Y-111112213D01*
X161793134Y-111055038D01*
X161795749Y-111015999D01*
X161799746Y-110991465D01*
X161805409Y-110977805D01*
X161813020Y-110971389D01*
X161816143Y-110970199D01*
X161834978Y-110965980D01*
X161876588Y-110957562D01*
X161935630Y-110945961D01*
X162006757Y-110932195D01*
X162084625Y-110917280D01*
X162163887Y-110902232D01*
X162239198Y-110888069D01*
X162305213Y-110875806D01*
X162356587Y-110866461D01*
X162387975Y-110861050D01*
X162394959Y-110860114D01*
X162401285Y-110847596D01*
X162415290Y-110814246D01*
X162434355Y-110766377D01*
X162441634Y-110747629D01*
X162470996Y-110675195D01*
X162505571Y-110595170D01*
X162536537Y-110527728D01*
X162559323Y-110476159D01*
X162574482Y-110433785D01*
X162579542Y-110407834D01*
X162578736Y-110404356D01*
X162568041Y-110387936D01*
X162543620Y-110351417D01*
X162508095Y-110298687D01*
X162464087Y-110233635D01*
X162414217Y-110160151D01*
X162404356Y-110145645D01*
X162346492Y-110059704D01*
X162303956Y-109994261D01*
X162275054Y-109946304D01*
X162258090Y-109912820D01*
X162251367Y-109890795D01*
X162253190Y-109877217D01*
X162253236Y-109877131D01*
X162267586Y-109859297D01*
X162299323Y-109824817D01*
X162345010Y-109777268D01*
X162401204Y-109720222D01*
X162464468Y-109657255D01*
X162471602Y-109650227D01*
X162551330Y-109573020D01*
X162612857Y-109516330D01*
X162657421Y-109479110D01*
X162686257Y-109460315D01*
X162698958Y-109457889D01*
X162717494Y-109468471D01*
X162755961Y-109492916D01*
X162810386Y-109528612D01*
X162876798Y-109572947D01*
X162951225Y-109623311D01*
X162968601Y-109635160D01*
X163215297Y-109803626D01*
X163326706Y-109753062D01*
X163394457Y-109723595D01*
X163467183Y-109693959D01*
X163529703Y-109670330D01*
X163532457Y-109669358D01*
X163581360Y-109651457D01*
X163619057Y-109636320D01*
X163637425Y-109627210D01*
X163637456Y-109627184D01*
X163643285Y-109610717D01*
X163653192Y-109570219D01*
X163666195Y-109510242D01*
X163681309Y-109435340D01*
X163697552Y-109350064D01*
X163698881Y-109342875D01*
X163715175Y-109255014D01*
X163730133Y-109175260D01*
X163742791Y-109108681D01*
X163752186Y-109060347D01*
X163757354Y-109035325D01*
X163757444Y-109034943D01*
X163760589Y-109024299D01*
X163766704Y-109016262D01*
X163779453Y-109010467D01*
X163802500Y-109006547D01*
X163839509Y-109004135D01*
X163894144Y-109002865D01*
X163970067Y-109002371D01*
X164070944Y-109002286D01*
X164084000Y-109002286D01*
X164187910Y-109002348D01*
G37*
X164187910Y-109002348D02*
X164266454Y-109002778D01*
X164323298Y-109003942D01*
X164362105Y-109006207D01*
X164386538Y-109009940D01*
X164400262Y-109015506D01*
X164406940Y-109023273D01*
X164410236Y-109033605D01*
X164410556Y-109034943D01*
X164415562Y-109059079D01*
X164424829Y-109106701D01*
X164437392Y-109172741D01*
X164452287Y-109252128D01*
X164468551Y-109339796D01*
X164469119Y-109342875D01*
X164485410Y-109428789D01*
X164500652Y-109504696D01*
X164513861Y-109566045D01*
X164524054Y-109608282D01*
X164530248Y-109626855D01*
X164530543Y-109627184D01*
X164548788Y-109636253D01*
X164586405Y-109651367D01*
X164635271Y-109669262D01*
X164635543Y-109669358D01*
X164697093Y-109692493D01*
X164769657Y-109721965D01*
X164838057Y-109751597D01*
X164841294Y-109753062D01*
X164952702Y-109803626D01*
X165199399Y-109635160D01*
X165275077Y-109583803D01*
X165343631Y-109537889D01*
X165401088Y-109500030D01*
X165443476Y-109472837D01*
X165466825Y-109458921D01*
X165469042Y-109457889D01*
X165486010Y-109462484D01*
X165517701Y-109484655D01*
X165565352Y-109525447D01*
X165630198Y-109585905D01*
X165696397Y-109650227D01*
X165760214Y-109713612D01*
X165817329Y-109771451D01*
X165864305Y-109820175D01*
X165897703Y-109856210D01*
X165914085Y-109875984D01*
X165914694Y-109877002D01*
X165916505Y-109890572D01*
X165909683Y-109912733D01*
X165892540Y-109946478D01*
X165863393Y-109994800D01*
X165820555Y-110060692D01*
X165763448Y-110145517D01*
X165712766Y-110220177D01*
X165667461Y-110287140D01*
X165630150Y-110342516D01*
X165603452Y-110382420D01*
X165589985Y-110402962D01*
X165589137Y-110404356D01*
X165590781Y-110424038D01*
X165603245Y-110462293D01*
X165624048Y-110511889D01*
X165631462Y-110527728D01*
X165663814Y-110598290D01*
X165698328Y-110678353D01*
X165726365Y-110747629D01*
X165746568Y-110799045D01*
X165762615Y-110838119D01*
X165771888Y-110858541D01*
X165773041Y-110860114D01*
X165790096Y-110862721D01*
X165830298Y-110869863D01*
X165888302Y-110880523D01*
X165958763Y-110893685D01*
X166036335Y-110908333D01*
X166115672Y-110923449D01*
X166191431Y-110938018D01*
X166258264Y-110951022D01*
X166310828Y-110961445D01*
X166343776Y-110968270D01*
X166351857Y-110970199D01*
X166360205Y-110974962D01*
X166366506Y-110985718D01*
X166371045Y-111006098D01*
X166374104Y-111039734D01*
X166375967Y-111090255D01*
X166376918Y-111161292D01*
X166377240Y-111256476D01*
X166377257Y-111295492D01*
X166377257Y-111612799D01*
X166301057Y-111627839D01*
X166258663Y-111635995D01*
X166195400Y-111647899D01*
X166118962Y-111662116D01*
X166037043Y-111677210D01*
X166014400Y-111681355D01*
X165938806Y-111696053D01*
X165872953Y-111710505D01*
X165822366Y-111723375D01*
X165792574Y-111733322D01*
X165787612Y-111736287D01*
X165775426Y-111757283D01*
X165757953Y-111797967D01*
X165738577Y-111850322D01*
X165734734Y-111861600D01*
X165709339Y-111931523D01*
X165677817Y-112010418D01*
X165646969Y-112081266D01*
X165646817Y-112081595D01*
X165595447Y-112192733D01*
X165764399Y-112441253D01*
X165933352Y-112689772D01*
X165716429Y-112907058D01*
X165650819Y-112971726D01*
X165590979Y-113028733D01*
X165540267Y-113075033D01*
X165502046Y-113107584D01*
X165479675Y-113123343D01*
X165476466Y-113124343D01*
X165457626Y-113116469D01*
X165419180Y-113094578D01*
X165365330Y-113061267D01*
X165300276Y-113019131D01*
X165229940Y-112971943D01*
X165158555Y-112923810D01*
X165094908Y-112881928D01*
X165043041Y-112848871D01*
X165006995Y-112827218D01*
X164990867Y-112819543D01*
X164971189Y-112826037D01*
X164933875Y-112843150D01*
X164886621Y-112867326D01*
X164881612Y-112870013D01*
X164817977Y-112901927D01*
X164774341Y-112917579D01*
X164747202Y-112917745D01*
X164733057Y-112903204D01*
X164732975Y-112903000D01*
X164725905Y-112885779D01*
X164709042Y-112844899D01*
X164683695Y-112783525D01*
X164651171Y-112704819D01*
X164612778Y-112611947D01*
X164569822Y-112508072D01*
X164528222Y-112407502D01*
X164482504Y-112296516D01*
X164440526Y-112193703D01*
X164403548Y-112102215D01*
X164372827Y-112025201D01*
X164349622Y-111965815D01*
X164335190Y-111927209D01*
X164330743Y-111912800D01*
X164341896Y-111896272D01*
X164371069Y-111869930D01*
X164409971Y-111840887D01*
X164520757Y-111749039D01*
X164607351Y-111643759D01*
X164668716Y-111527266D01*
X164703815Y-111401776D01*
X164711608Y-111269507D01*
X164705943Y-111208457D01*
X164675078Y-111081795D01*
X164621920Y-110969941D01*
X164549767Y-110874001D01*
X164461917Y-110795076D01*
X164361665Y-110734270D01*
X164252310Y-110692687D01*
X164137147Y-110671428D01*
X164019475Y-110671599D01*
X163902590Y-110694301D01*
X163789789Y-110740638D01*
X163684369Y-110811713D01*
X163640368Y-110851911D01*
X163555979Y-110955129D01*
X163497222Y-111067925D01*
X163463704Y-111187010D01*
X163455035Y-111309095D01*
X163470823Y-111430893D01*
X163510678Y-111549116D01*
X163574207Y-111660475D01*
X163661021Y-111761684D01*
X163758029Y-111840887D01*
X163798437Y-111871162D01*
X163826982Y-111897219D01*
X163837257Y-111912825D01*
X163831877Y-111929843D01*
X163816575Y-111970500D01*
X163792612Y-112031642D01*
X163761244Y-112110119D01*
X163723732Y-112202780D01*
X163681333Y-112306472D01*
X163639663Y-112407526D01*
X163593690Y-112518607D01*
X163551107Y-112621541D01*
X163513221Y-112713165D01*
X163481340Y-112790316D01*
X163456771Y-112849831D01*
X163440820Y-112888544D01*
X163434910Y-112903000D01*
X163420948Y-112917685D01*
X163393940Y-112917642D01*
X163350413Y-112902099D01*
X163286890Y-112870284D01*
X163286388Y-112870013D01*
X163238560Y-112845323D01*
X163199897Y-112827338D01*
X163178095Y-112819614D01*
X163177133Y-112819543D01*
X163160721Y-112827378D01*
X163124487Y-112849165D01*
X163072474Y-112882328D01*
X163008725Y-112924291D01*
X162938060Y-112971943D01*
X162866116Y-113020191D01*
X162801274Y-113062151D01*
X162747735Y-113095227D01*
X162709697Y-113116821D01*
X162691533Y-113124343D01*
X162674808Y-113114457D01*
X162641180Y-113086826D01*
X162594010Y-113044495D01*
X162536658Y-112990505D01*
X162472484Y-112927899D01*
X162451497Y-112906983D01*
X162234499Y-112689623D01*
X162399668Y-112447220D01*
X162449864Y-112372781D01*
X162493919Y-112305972D01*
X162529362Y-112250665D01*
X162553719Y-112210729D01*
X162564522Y-112190036D01*
X162564838Y-112188563D01*
X162559143Y-112169058D01*
X162543826Y-112129822D01*
X162521537Y-112077430D01*
X162505893Y-112042355D01*
X162476641Y-111975201D01*
X162449094Y-111907358D01*
X162427737Y-111850034D01*
X162421935Y-111832572D01*
X162405452Y-111785938D01*
X162389340Y-111749905D01*
X162380490Y-111736287D01*
X162360960Y-111727952D01*
X162318334Y-111716137D01*
X162258145Y-111702181D01*
X162185922Y-111687422D01*
X162153600Y-111681355D01*
X162071522Y-111666273D01*
X161992795Y-111651669D01*
X161925109Y-111638980D01*
X161876160Y-111629642D01*
X161866943Y-111627839D01*
X161790743Y-111612799D01*
X161790743Y-111295492D01*
X161790914Y-111191154D01*
X161791616Y-111112213D01*
X161793134Y-111055038D01*
X161795749Y-111015999D01*
X161799746Y-110991465D01*
X161805409Y-110977805D01*
X161813020Y-110971389D01*
X161816143Y-110970199D01*
X161834978Y-110965980D01*
X161876588Y-110957562D01*
X161935630Y-110945961D01*
X162006757Y-110932195D01*
X162084625Y-110917280D01*
X162163887Y-110902232D01*
X162239198Y-110888069D01*
X162305213Y-110875806D01*
X162356587Y-110866461D01*
X162387975Y-110861050D01*
X162394959Y-110860114D01*
X162401285Y-110847596D01*
X162415290Y-110814246D01*
X162434355Y-110766377D01*
X162441634Y-110747629D01*
X162470996Y-110675195D01*
X162505571Y-110595170D01*
X162536537Y-110527728D01*
X162559323Y-110476159D01*
X162574482Y-110433785D01*
X162579542Y-110407834D01*
X162578736Y-110404356D01*
X162568041Y-110387936D01*
X162543620Y-110351417D01*
X162508095Y-110298687D01*
X162464087Y-110233635D01*
X162414217Y-110160151D01*
X162404356Y-110145645D01*
X162346492Y-110059704D01*
X162303956Y-109994261D01*
X162275054Y-109946304D01*
X162258090Y-109912820D01*
X162251367Y-109890795D01*
X162253190Y-109877217D01*
X162253236Y-109877131D01*
X162267586Y-109859297D01*
X162299323Y-109824817D01*
X162345010Y-109777268D01*
X162401204Y-109720222D01*
X162464468Y-109657255D01*
X162471602Y-109650227D01*
X162551330Y-109573020D01*
X162612857Y-109516330D01*
X162657421Y-109479110D01*
X162686257Y-109460315D01*
X162698958Y-109457889D01*
X162717494Y-109468471D01*
X162755961Y-109492916D01*
X162810386Y-109528612D01*
X162876798Y-109572947D01*
X162951225Y-109623311D01*
X162968601Y-109635160D01*
X163215297Y-109803626D01*
X163326706Y-109753062D01*
X163394457Y-109723595D01*
X163467183Y-109693959D01*
X163529703Y-109670330D01*
X163532457Y-109669358D01*
X163581360Y-109651457D01*
X163619057Y-109636320D01*
X163637425Y-109627210D01*
X163637456Y-109627184D01*
X163643285Y-109610717D01*
X163653192Y-109570219D01*
X163666195Y-109510242D01*
X163681309Y-109435340D01*
X163697552Y-109350064D01*
X163698881Y-109342875D01*
X163715175Y-109255014D01*
X163730133Y-109175260D01*
X163742791Y-109108681D01*
X163752186Y-109060347D01*
X163757354Y-109035325D01*
X163757444Y-109034943D01*
X163760589Y-109024299D01*
X163766704Y-109016262D01*
X163779453Y-109010467D01*
X163802500Y-109006547D01*
X163839509Y-109004135D01*
X163894144Y-109002865D01*
X163970067Y-109002371D01*
X164070944Y-109002286D01*
X164084000Y-109002286D01*
X164187910Y-109002348D01*
X166736600Y-113718752D02*
X166753948Y-113726334D01*
X166753948Y-113726334D02*
X166795356Y-113759128D01*
X166795356Y-113759128D02*
X166830765Y-113806547D01*
X166830765Y-113806547D02*
X166852664Y-113857151D01*
X166852664Y-113857151D02*
X166856229Y-113882098D01*
X166856229Y-113882098D02*
X166844279Y-113916927D01*
X166844279Y-113916927D02*
X166818067Y-113935357D01*
X166818067Y-113935357D02*
X166789964Y-113946516D01*
X166789964Y-113946516D02*
X166777095Y-113948572D01*
X166777095Y-113948572D02*
X166770829Y-113933649D01*
X166770829Y-113933649D02*
X166758456Y-113901175D01*
X166758456Y-113901175D02*
X166753028Y-113886502D01*
X166753028Y-113886502D02*
X166722590Y-113835744D01*
X166722590Y-113835744D02*
X166678520Y-113810427D01*
X166678520Y-113810427D02*
X166622010Y-113811206D01*
X166622010Y-113811206D02*
X166617825Y-113812203D01*
X166617825Y-113812203D02*
X166587655Y-113826507D01*
X166587655Y-113826507D02*
X166565476Y-113854393D01*
X166565476Y-113854393D02*
X166550327Y-113899287D01*
X166550327Y-113899287D02*
X166541250Y-113964615D01*
X166541250Y-113964615D02*
X166537286Y-114053804D01*
X166537286Y-114053804D02*
X166536914Y-114101261D01*
X166536914Y-114101261D02*
X166536730Y-114176071D01*
X166536730Y-114176071D02*
X166535522Y-114227069D01*
X166535522Y-114227069D02*
X166532309Y-114259471D01*
X166532309Y-114259471D02*
X166526109Y-114278495D01*
X166526109Y-114278495D02*
X166515940Y-114289356D01*
X166515940Y-114289356D02*
X166500819Y-114297272D01*
X166500819Y-114297272D02*
X166499946Y-114297670D01*
X166499946Y-114297670D02*
X166470828Y-114309981D01*
X166470828Y-114309981D02*
X166456403Y-114314514D01*
X166456403Y-114314514D02*
X166454186Y-114300809D01*
X166454186Y-114300809D02*
X166452289Y-114262925D01*
X166452289Y-114262925D02*
X166450847Y-114205715D01*
X166450847Y-114205715D02*
X166449998Y-114134027D01*
X166449998Y-114134027D02*
X166449829Y-114081565D01*
X166449829Y-114081565D02*
X166450692Y-113980047D01*
X166450692Y-113980047D02*
X166454070Y-113903032D01*
X166454070Y-113903032D02*
X166461142Y-113846023D01*
X166461142Y-113846023D02*
X166473088Y-113804526D01*
X166473088Y-113804526D02*
X166491090Y-113774043D01*
X166491090Y-113774043D02*
X166516327Y-113750080D01*
X166516327Y-113750080D02*
X166541247Y-113733355D01*
X166541247Y-113733355D02*
X166601171Y-113711097D01*
X166601171Y-113711097D02*
X166670911Y-113706076D01*
X166670911Y-113706076D02*
X166736600Y-113718752D01*
X166736600Y-113718752D02*
X166736600Y-113718752D01*
G36*
X166736600Y-113718752D02*
G01*
X166753948Y-113726334D01*
X166795356Y-113759128D01*
X166830765Y-113806547D01*
X166852664Y-113857151D01*
X166856229Y-113882098D01*
X166844279Y-113916927D01*
X166818067Y-113935357D01*
X166789964Y-113946516D01*
X166777095Y-113948572D01*
X166770829Y-113933649D01*
X166758456Y-113901175D01*
X166753028Y-113886502D01*
X166722590Y-113835744D01*
X166678520Y-113810427D01*
X166622010Y-113811206D01*
X166617825Y-113812203D01*
X166587655Y-113826507D01*
X166565476Y-113854393D01*
X166550327Y-113899287D01*
X166541250Y-113964615D01*
X166537286Y-114053804D01*
X166536914Y-114101261D01*
X166536730Y-114176071D01*
X166535522Y-114227069D01*
X166532309Y-114259471D01*
X166526109Y-114278495D01*
X166515940Y-114289356D01*
X166500819Y-114297272D01*
X166499946Y-114297670D01*
X166470828Y-114309981D01*
X166456403Y-114314514D01*
X166454186Y-114300809D01*
X166452289Y-114262925D01*
X166450847Y-114205715D01*
X166449998Y-114134027D01*
X166449829Y-114081565D01*
X166450692Y-113980047D01*
X166454070Y-113903032D01*
X166461142Y-113846023D01*
X166473088Y-113804526D01*
X166491090Y-113774043D01*
X166516327Y-113750080D01*
X166541247Y-113733355D01*
X166601171Y-113711097D01*
X166670911Y-113706076D01*
X166736600Y-113718752D01*
G37*
X166736600Y-113718752D02*
X166753948Y-113726334D01*
X166795356Y-113759128D01*
X166830765Y-113806547D01*
X166852664Y-113857151D01*
X166856229Y-113882098D01*
X166844279Y-113916927D01*
X166818067Y-113935357D01*
X166789964Y-113946516D01*
X166777095Y-113948572D01*
X166770829Y-113933649D01*
X166758456Y-113901175D01*
X166753028Y-113886502D01*
X166722590Y-113835744D01*
X166678520Y-113810427D01*
X166622010Y-113811206D01*
X166617825Y-113812203D01*
X166587655Y-113826507D01*
X166565476Y-113854393D01*
X166550327Y-113899287D01*
X166541250Y-113964615D01*
X166537286Y-114053804D01*
X166536914Y-114101261D01*
X166536730Y-114176071D01*
X166535522Y-114227069D01*
X166532309Y-114259471D01*
X166526109Y-114278495D01*
X166515940Y-114289356D01*
X166500819Y-114297272D01*
X166499946Y-114297670D01*
X166470828Y-114309981D01*
X166456403Y-114314514D01*
X166454186Y-114300809D01*
X166452289Y-114262925D01*
X166450847Y-114205715D01*
X166449998Y-114134027D01*
X166449829Y-114081565D01*
X166450692Y-113980047D01*
X166454070Y-113903032D01*
X166461142Y-113846023D01*
X166473088Y-113804526D01*
X166491090Y-113774043D01*
X166516327Y-113750080D01*
X166541247Y-113733355D01*
X166601171Y-113711097D01*
X166670911Y-113706076D01*
X166736600Y-113718752D01*
X161683744Y-113679918D02*
X161739201Y-113707568D01*
X161739201Y-113707568D02*
X161788148Y-113758480D01*
X161788148Y-113758480D02*
X161801629Y-113777338D01*
X161801629Y-113777338D02*
X161816314Y-113802015D01*
X161816314Y-113802015D02*
X161825842Y-113828816D01*
X161825842Y-113828816D02*
X161831293Y-113864587D01*
X161831293Y-113864587D02*
X161833747Y-113916169D01*
X161833747Y-113916169D02*
X161834286Y-113984267D01*
X161834286Y-113984267D02*
X161831852Y-114077588D01*
X161831852Y-114077588D02*
X161823394Y-114147657D01*
X161823394Y-114147657D02*
X161807174Y-114199931D01*
X161807174Y-114199931D02*
X161781454Y-114239869D01*
X161781454Y-114239869D02*
X161744497Y-114272929D01*
X161744497Y-114272929D02*
X161741782Y-114274886D01*
X161741782Y-114274886D02*
X161705360Y-114294908D01*
X161705360Y-114294908D02*
X161661502Y-114304815D01*
X161661502Y-114304815D02*
X161605724Y-114307257D01*
X161605724Y-114307257D02*
X161515048Y-114307257D01*
X161515048Y-114307257D02*
X161515010Y-114395283D01*
X161515010Y-114395283D02*
X161514166Y-114444308D01*
X161514166Y-114444308D02*
X161509024Y-114473065D01*
X161509024Y-114473065D02*
X161495587Y-114490311D01*
X161495587Y-114490311D02*
X161469858Y-114504808D01*
X161469858Y-114504808D02*
X161463679Y-114507769D01*
X161463679Y-114507769D02*
X161434764Y-114521648D01*
X161434764Y-114521648D02*
X161412376Y-114530414D01*
X161412376Y-114530414D02*
X161395729Y-114531171D01*
X161395729Y-114531171D02*
X161384036Y-114521023D01*
X161384036Y-114521023D02*
X161376510Y-114497073D01*
X161376510Y-114497073D02*
X161372366Y-114456426D01*
X161372366Y-114456426D02*
X161370815Y-114396186D01*
X161370815Y-114396186D02*
X161371071Y-114313455D01*
X161371071Y-114313455D02*
X161372349Y-114205339D01*
X161372349Y-114205339D02*
X161372748Y-114173000D01*
X161372748Y-114173000D02*
X161374185Y-114061524D01*
X161374185Y-114061524D02*
X161375472Y-113988603D01*
X161375472Y-113988603D02*
X161514971Y-113988603D01*
X161514971Y-113988603D02*
X161515755Y-114050499D01*
X161515755Y-114050499D02*
X161519240Y-114090997D01*
X161519240Y-114090997D02*
X161527124Y-114117708D01*
X161527124Y-114117708D02*
X161541105Y-114138244D01*
X161541105Y-114138244D02*
X161550597Y-114148260D01*
X161550597Y-114148260D02*
X161589404Y-114177567D01*
X161589404Y-114177567D02*
X161623763Y-114179952D01*
X161623763Y-114179952D02*
X161659216Y-114155750D01*
X161659216Y-114155750D02*
X161660114Y-114154857D01*
X161660114Y-114154857D02*
X161674539Y-114136153D01*
X161674539Y-114136153D02*
X161683313Y-114110732D01*
X161683313Y-114110732D02*
X161687739Y-114071584D01*
X161687739Y-114071584D02*
X161689118Y-114011697D01*
X161689118Y-114011697D02*
X161689143Y-113998430D01*
X161689143Y-113998430D02*
X161685812Y-113915901D01*
X161685812Y-113915901D02*
X161674969Y-113858691D01*
X161674969Y-113858691D02*
X161655340Y-113823766D01*
X161655340Y-113823766D02*
X161625650Y-113808094D01*
X161625650Y-113808094D02*
X161608491Y-113806514D01*
X161608491Y-113806514D02*
X161567766Y-113813926D01*
X161567766Y-113813926D02*
X161539832Y-113838330D01*
X161539832Y-113838330D02*
X161523017Y-113882980D01*
X161523017Y-113882980D02*
X161515650Y-113951130D01*
X161515650Y-113951130D02*
X161514971Y-113988603D01*
X161514971Y-113988603D02*
X161375472Y-113988603D01*
X161375472Y-113988603D02*
X161375708Y-113975245D01*
X161375708Y-113975245D02*
X161377677Y-113910333D01*
X161377677Y-113910333D02*
X161380450Y-113862958D01*
X161380450Y-113862958D02*
X161384388Y-113829290D01*
X161384388Y-113829290D02*
X161389849Y-113805498D01*
X161389849Y-113805498D02*
X161397192Y-113787753D01*
X161397192Y-113787753D02*
X161406777Y-113772224D01*
X161406777Y-113772224D02*
X161410887Y-113766381D01*
X161410887Y-113766381D02*
X161465405Y-113711185D01*
X161465405Y-113711185D02*
X161534336Y-113679890D01*
X161534336Y-113679890D02*
X161614072Y-113671165D01*
X161614072Y-113671165D02*
X161683744Y-113679918D01*
X161683744Y-113679918D02*
X161683744Y-113679918D01*
G36*
X161377677Y-113910333D02*
G01*
X161380450Y-113862958D01*
X161384388Y-113829290D01*
X161389849Y-113805498D01*
X161397192Y-113787753D01*
X161406777Y-113772224D01*
X161410887Y-113766381D01*
X161465405Y-113711185D01*
X161534336Y-113679890D01*
X161614072Y-113671165D01*
X161683744Y-113679918D01*
X161739201Y-113707568D01*
X161788148Y-113758480D01*
X161801629Y-113777338D01*
X161816314Y-113802015D01*
X161825842Y-113828816D01*
X161831293Y-113864587D01*
X161833747Y-113916169D01*
X161834286Y-113984267D01*
X161831852Y-114077588D01*
X161823394Y-114147657D01*
X161807174Y-114199931D01*
X161781454Y-114239869D01*
X161744497Y-114272929D01*
X161741782Y-114274886D01*
X161705360Y-114294908D01*
X161661502Y-114304815D01*
X161605724Y-114307257D01*
X161515048Y-114307257D01*
X161515010Y-114395283D01*
X161514166Y-114444308D01*
X161509024Y-114473065D01*
X161495587Y-114490311D01*
X161469858Y-114504808D01*
X161463679Y-114507769D01*
X161434764Y-114521648D01*
X161412376Y-114530414D01*
X161395729Y-114531171D01*
X161384036Y-114521023D01*
X161376510Y-114497073D01*
X161372366Y-114456426D01*
X161370815Y-114396186D01*
X161371071Y-114313455D01*
X161372349Y-114205339D01*
X161372748Y-114173000D01*
X161374185Y-114061524D01*
X161375472Y-113988603D01*
X161514971Y-113988603D01*
X161515755Y-114050499D01*
X161519240Y-114090997D01*
X161527124Y-114117708D01*
X161541105Y-114138244D01*
X161550597Y-114148260D01*
X161589404Y-114177567D01*
X161623763Y-114179952D01*
X161659216Y-114155750D01*
X161660114Y-114154857D01*
X161674539Y-114136153D01*
X161683313Y-114110732D01*
X161687739Y-114071584D01*
X161689118Y-114011697D01*
X161689143Y-113998430D01*
X161685812Y-113915901D01*
X161674969Y-113858691D01*
X161655340Y-113823766D01*
X161625650Y-113808094D01*
X161608491Y-113806514D01*
X161567766Y-113813926D01*
X161539832Y-113838330D01*
X161523017Y-113882980D01*
X161515650Y-113951130D01*
X161514971Y-113988603D01*
X161375472Y-113988603D01*
X161375708Y-113975245D01*
X161377677Y-113910333D01*
G37*
X161377677Y-113910333D02*
X161380450Y-113862958D01*
X161384388Y-113829290D01*
X161389849Y-113805498D01*
X161397192Y-113787753D01*
X161406777Y-113772224D01*
X161410887Y-113766381D01*
X161465405Y-113711185D01*
X161534336Y-113679890D01*
X161614072Y-113671165D01*
X161683744Y-113679918D01*
X161739201Y-113707568D01*
X161788148Y-113758480D01*
X161801629Y-113777338D01*
X161816314Y-113802015D01*
X161825842Y-113828816D01*
X161831293Y-113864587D01*
X161833747Y-113916169D01*
X161834286Y-113984267D01*
X161831852Y-114077588D01*
X161823394Y-114147657D01*
X161807174Y-114199931D01*
X161781454Y-114239869D01*
X161744497Y-114272929D01*
X161741782Y-114274886D01*
X161705360Y-114294908D01*
X161661502Y-114304815D01*
X161605724Y-114307257D01*
X161515048Y-114307257D01*
X161515010Y-114395283D01*
X161514166Y-114444308D01*
X161509024Y-114473065D01*
X161495587Y-114490311D01*
X161469858Y-114504808D01*
X161463679Y-114507769D01*
X161434764Y-114521648D01*
X161412376Y-114530414D01*
X161395729Y-114531171D01*
X161384036Y-114521023D01*
X161376510Y-114497073D01*
X161372366Y-114456426D01*
X161370815Y-114396186D01*
X161371071Y-114313455D01*
X161372349Y-114205339D01*
X161372748Y-114173000D01*
X161374185Y-114061524D01*
X161375472Y-113988603D01*
X161514971Y-113988603D01*
X161515755Y-114050499D01*
X161519240Y-114090997D01*
X161527124Y-114117708D01*
X161541105Y-114138244D01*
X161550597Y-114148260D01*
X161589404Y-114177567D01*
X161623763Y-114179952D01*
X161659216Y-114155750D01*
X161660114Y-114154857D01*
X161674539Y-114136153D01*
X161683313Y-114110732D01*
X161687739Y-114071584D01*
X161689118Y-114011697D01*
X161689143Y-113998430D01*
X161685812Y-113915901D01*
X161674969Y-113858691D01*
X161655340Y-113823766D01*
X161625650Y-113808094D01*
X161608491Y-113806514D01*
X161567766Y-113813926D01*
X161539832Y-113838330D01*
X161523017Y-113882980D01*
X161515650Y-113951130D01*
X161514971Y-113988603D01*
X161375472Y-113988603D01*
X161375708Y-113975245D01*
X161377677Y-113910333D01*
X163459886Y-113611289D02*
X163464139Y-113670613D01*
X163464139Y-113670613D02*
X163469025Y-113705572D01*
X163469025Y-113705572D02*
X163475795Y-113720820D01*
X163475795Y-113720820D02*
X163485702Y-113721015D01*
X163485702Y-113721015D02*
X163488914Y-113719195D01*
X163488914Y-113719195D02*
X163531644Y-113706015D01*
X163531644Y-113706015D02*
X163587227Y-113706785D01*
X163587227Y-113706785D02*
X163643737Y-113720333D01*
X163643737Y-113720333D02*
X163679082Y-113737861D01*
X163679082Y-113737861D02*
X163715321Y-113765861D01*
X163715321Y-113765861D02*
X163741813Y-113797549D01*
X163741813Y-113797549D02*
X163759999Y-113837813D01*
X163759999Y-113837813D02*
X163771322Y-113891543D01*
X163771322Y-113891543D02*
X163777222Y-113963626D01*
X163777222Y-113963626D02*
X163779143Y-114058951D01*
X163779143Y-114058951D02*
X163779177Y-114077237D01*
X163779177Y-114077237D02*
X163779200Y-114282646D01*
X163779200Y-114282646D02*
X163733491Y-114298580D01*
X163733491Y-114298580D02*
X163701027Y-114309420D01*
X163701027Y-114309420D02*
X163683215Y-114314468D01*
X163683215Y-114314468D02*
X163682691Y-114314514D01*
X163682691Y-114314514D02*
X163680937Y-114300828D01*
X163680937Y-114300828D02*
X163679444Y-114263076D01*
X163679444Y-114263076D02*
X163678326Y-114206224D01*
X163678326Y-114206224D02*
X163677697Y-114135234D01*
X163677697Y-114135234D02*
X163677600Y-114092073D01*
X163677600Y-114092073D02*
X163677398Y-114006973D01*
X163677398Y-114006973D02*
X163676358Y-113945981D01*
X163676358Y-113945981D02*
X163673831Y-113904177D01*
X163673831Y-113904177D02*
X163669164Y-113876642D01*
X163669164Y-113876642D02*
X163661707Y-113858456D01*
X163661707Y-113858456D02*
X163650811Y-113844698D01*
X163650811Y-113844698D02*
X163644007Y-113838073D01*
X163644007Y-113838073D02*
X163597272Y-113811375D01*
X163597272Y-113811375D02*
X163546272Y-113809375D01*
X163546272Y-113809375D02*
X163500001Y-113831955D01*
X163500001Y-113831955D02*
X163491444Y-113840107D01*
X163491444Y-113840107D02*
X163478893Y-113855436D01*
X163478893Y-113855436D02*
X163470188Y-113873618D01*
X163470188Y-113873618D02*
X163464631Y-113899909D01*
X163464631Y-113899909D02*
X163461526Y-113939562D01*
X163461526Y-113939562D02*
X163460176Y-113997832D01*
X163460176Y-113997832D02*
X163459886Y-114078173D01*
X163459886Y-114078173D02*
X163459886Y-114282646D01*
X163459886Y-114282646D02*
X163414177Y-114298580D01*
X163414177Y-114298580D02*
X163381713Y-114309420D01*
X163381713Y-114309420D02*
X163363901Y-114314468D01*
X163363901Y-114314468D02*
X163363377Y-114314514D01*
X163363377Y-114314514D02*
X163362037Y-114300623D01*
X163362037Y-114300623D02*
X163360828Y-114261439D01*
X163360828Y-114261439D02*
X163359801Y-114200700D01*
X163359801Y-114200700D02*
X163359002Y-114122141D01*
X163359002Y-114122141D02*
X163358481Y-114029498D01*
X163358481Y-114029498D02*
X163358286Y-113926509D01*
X163358286Y-113926509D02*
X163358286Y-113529342D01*
X163358286Y-113529342D02*
X163405457Y-113509444D01*
X163405457Y-113509444D02*
X163452629Y-113489547D01*
X163452629Y-113489547D02*
X163459886Y-113611289D01*
X163459886Y-113611289D02*
X163459886Y-113611289D01*
G36*
X163459886Y-113611289D02*
G01*
X163464139Y-113670613D01*
X163469025Y-113705572D01*
X163475795Y-113720820D01*
X163485702Y-113721015D01*
X163488914Y-113719195D01*
X163531644Y-113706015D01*
X163587227Y-113706785D01*
X163643737Y-113720333D01*
X163679082Y-113737861D01*
X163715321Y-113765861D01*
X163741813Y-113797549D01*
X163759999Y-113837813D01*
X163771322Y-113891543D01*
X163777222Y-113963626D01*
X163779143Y-114058951D01*
X163779177Y-114077237D01*
X163779200Y-114282646D01*
X163733491Y-114298580D01*
X163701027Y-114309420D01*
X163683215Y-114314468D01*
X163682691Y-114314514D01*
X163680937Y-114300828D01*
X163679444Y-114263076D01*
X163678326Y-114206224D01*
X163677697Y-114135234D01*
X163677600Y-114092073D01*
X163677398Y-114006973D01*
X163676358Y-113945981D01*
X163673831Y-113904177D01*
X163669164Y-113876642D01*
X163661707Y-113858456D01*
X163650811Y-113844698D01*
X163644007Y-113838073D01*
X163597272Y-113811375D01*
X163546272Y-113809375D01*
X163500001Y-113831955D01*
X163491444Y-113840107D01*
X163478893Y-113855436D01*
X163470188Y-113873618D01*
X163464631Y-113899909D01*
X163461526Y-113939562D01*
X163460176Y-113997832D01*
X163459886Y-114078173D01*
X163459886Y-114282646D01*
X163414177Y-114298580D01*
X163381713Y-114309420D01*
X163363901Y-114314468D01*
X163363377Y-114314514D01*
X163362037Y-114300623D01*
X163360828Y-114261439D01*
X163359801Y-114200700D01*
X163359002Y-114122141D01*
X163358481Y-114029498D01*
X163358286Y-113926509D01*
X163358286Y-113529342D01*
X163405457Y-113509444D01*
X163452629Y-113489547D01*
X163459886Y-113611289D01*
G37*
X163459886Y-113611289D02*
X163464139Y-113670613D01*
X163469025Y-113705572D01*
X163475795Y-113720820D01*
X163485702Y-113721015D01*
X163488914Y-113719195D01*
X163531644Y-113706015D01*
X163587227Y-113706785D01*
X163643737Y-113720333D01*
X163679082Y-113737861D01*
X163715321Y-113765861D01*
X163741813Y-113797549D01*
X163759999Y-113837813D01*
X163771322Y-113891543D01*
X163777222Y-113963626D01*
X163779143Y-114058951D01*
X163779177Y-114077237D01*
X163779200Y-114282646D01*
X163733491Y-114298580D01*
X163701027Y-114309420D01*
X163683215Y-114314468D01*
X163682691Y-114314514D01*
X163680937Y-114300828D01*
X163679444Y-114263076D01*
X163678326Y-114206224D01*
X163677697Y-114135234D01*
X163677600Y-114092073D01*
X163677398Y-114006973D01*
X163676358Y-113945981D01*
X163673831Y-113904177D01*
X163669164Y-113876642D01*
X163661707Y-113858456D01*
X163650811Y-113844698D01*
X163644007Y-113838073D01*
X163597272Y-113811375D01*
X163546272Y-113809375D01*
X163500001Y-113831955D01*
X163491444Y-113840107D01*
X163478893Y-113855436D01*
X163470188Y-113873618D01*
X163464631Y-113899909D01*
X163461526Y-113939562D01*
X163460176Y-113997832D01*
X163459886Y-114078173D01*
X163459886Y-114282646D01*
X163414177Y-114298580D01*
X163381713Y-114309420D01*
X163363901Y-114314468D01*
X163363377Y-114314514D01*
X163362037Y-114300623D01*
X163360828Y-114261439D01*
X163359801Y-114200700D01*
X163359002Y-114122141D01*
X163358481Y-114029498D01*
X163358286Y-113926509D01*
X163358286Y-113529342D01*
X163405457Y-113509444D01*
X163452629Y-113489547D01*
X163459886Y-113611289D01*
X167237595Y-113726966D02*
X167295021Y-113764497D01*
X167295021Y-113764497D02*
X167322719Y-113798096D01*
X167322719Y-113798096D02*
X167344662Y-113859064D01*
X167344662Y-113859064D02*
X167346405Y-113907308D01*
X167346405Y-113907308D02*
X167342457Y-113971816D01*
X167342457Y-113971816D02*
X167193686Y-114036934D01*
X167193686Y-114036934D02*
X167121349Y-114070202D01*
X167121349Y-114070202D02*
X167074084Y-114096964D01*
X167074084Y-114096964D02*
X167049507Y-114120144D01*
X167049507Y-114120144D02*
X167045237Y-114142667D01*
X167045237Y-114142667D02*
X167058889Y-114167455D01*
X167058889Y-114167455D02*
X167073943Y-114183886D01*
X167073943Y-114183886D02*
X167117746Y-114210235D01*
X167117746Y-114210235D02*
X167165389Y-114212081D01*
X167165389Y-114212081D02*
X167209145Y-114191546D01*
X167209145Y-114191546D02*
X167241289Y-114150752D01*
X167241289Y-114150752D02*
X167247038Y-114136347D01*
X167247038Y-114136347D02*
X167274576Y-114091356D01*
X167274576Y-114091356D02*
X167306258Y-114072182D01*
X167306258Y-114072182D02*
X167349714Y-114055779D01*
X167349714Y-114055779D02*
X167349714Y-114117966D01*
X167349714Y-114117966D02*
X167345872Y-114160283D01*
X167345872Y-114160283D02*
X167330823Y-114195969D01*
X167330823Y-114195969D02*
X167299280Y-114236943D01*
X167299280Y-114236943D02*
X167294592Y-114242267D01*
X167294592Y-114242267D02*
X167259506Y-114278720D01*
X167259506Y-114278720D02*
X167229347Y-114298283D01*
X167229347Y-114298283D02*
X167191615Y-114307283D01*
X167191615Y-114307283D02*
X167160335Y-114310230D01*
X167160335Y-114310230D02*
X167104385Y-114310965D01*
X167104385Y-114310965D02*
X167064555Y-114301660D01*
X167064555Y-114301660D02*
X167039708Y-114287846D01*
X167039708Y-114287846D02*
X167000656Y-114257467D01*
X167000656Y-114257467D02*
X166973625Y-114224613D01*
X166973625Y-114224613D02*
X166956517Y-114183294D01*
X166956517Y-114183294D02*
X166947238Y-114127521D01*
X166947238Y-114127521D02*
X166943693Y-114051305D01*
X166943693Y-114051305D02*
X166943410Y-114012622D01*
X166943410Y-114012622D02*
X166944372Y-113966247D01*
X166944372Y-113966247D02*
X167032007Y-113966247D01*
X167032007Y-113966247D02*
X167033023Y-113991126D01*
X167033023Y-113991126D02*
X167035556Y-113995200D01*
X167035556Y-113995200D02*
X167052274Y-113989665D01*
X167052274Y-113989665D02*
X167088249Y-113975017D01*
X167088249Y-113975017D02*
X167136331Y-113954190D01*
X167136331Y-113954190D02*
X167146386Y-113949714D01*
X167146386Y-113949714D02*
X167207152Y-113918814D01*
X167207152Y-113918814D02*
X167240632Y-113891657D01*
X167240632Y-113891657D02*
X167247990Y-113866220D01*
X167247990Y-113866220D02*
X167230391Y-113840481D01*
X167230391Y-113840481D02*
X167215856Y-113829109D01*
X167215856Y-113829109D02*
X167163410Y-113806364D01*
X167163410Y-113806364D02*
X167114322Y-113810122D01*
X167114322Y-113810122D02*
X167073227Y-113837884D01*
X167073227Y-113837884D02*
X167044758Y-113887152D01*
X167044758Y-113887152D02*
X167035631Y-113926257D01*
X167035631Y-113926257D02*
X167032007Y-113966247D01*
X167032007Y-113966247D02*
X166944372Y-113966247D01*
X166944372Y-113966247D02*
X166945285Y-113922249D01*
X166945285Y-113922249D02*
X166952196Y-113855384D01*
X166952196Y-113855384D02*
X166965884Y-113806695D01*
X166965884Y-113806695D02*
X166988096Y-113770849D01*
X166988096Y-113770849D02*
X167020574Y-113742513D01*
X167020574Y-113742513D02*
X167034733Y-113733355D01*
X167034733Y-113733355D02*
X167099053Y-113709507D01*
X167099053Y-113709507D02*
X167169473Y-113708006D01*
X167169473Y-113708006D02*
X167237595Y-113726966D01*
X167237595Y-113726966D02*
X167237595Y-113726966D01*
G36*
X166952196Y-113855384D02*
G01*
X166965884Y-113806695D01*
X166988096Y-113770849D01*
X167020574Y-113742513D01*
X167034733Y-113733355D01*
X167099053Y-113709507D01*
X167169473Y-113708006D01*
X167237595Y-113726966D01*
X167295021Y-113764497D01*
X167322719Y-113798096D01*
X167344662Y-113859064D01*
X167346405Y-113907308D01*
X167342457Y-113971816D01*
X167193686Y-114036934D01*
X167121349Y-114070202D01*
X167074084Y-114096964D01*
X167049507Y-114120144D01*
X167045237Y-114142667D01*
X167058889Y-114167455D01*
X167073943Y-114183886D01*
X167117746Y-114210235D01*
X167165389Y-114212081D01*
X167209145Y-114191546D01*
X167241289Y-114150752D01*
X167247038Y-114136347D01*
X167274576Y-114091356D01*
X167306258Y-114072182D01*
X167349714Y-114055779D01*
X167349714Y-114117966D01*
X167345872Y-114160283D01*
X167330823Y-114195969D01*
X167299280Y-114236943D01*
X167294592Y-114242267D01*
X167259506Y-114278720D01*
X167229347Y-114298283D01*
X167191615Y-114307283D01*
X167160335Y-114310230D01*
X167104385Y-114310965D01*
X167064555Y-114301660D01*
X167039708Y-114287846D01*
X167000656Y-114257467D01*
X166973625Y-114224613D01*
X166956517Y-114183294D01*
X166947238Y-114127521D01*
X166943693Y-114051305D01*
X166943410Y-114012622D01*
X166944372Y-113966247D01*
X167032007Y-113966247D01*
X167033023Y-113991126D01*
X167035556Y-113995200D01*
X167052274Y-113989665D01*
X167088249Y-113975017D01*
X167136331Y-113954190D01*
X167146386Y-113949714D01*
X167207152Y-113918814D01*
X167240632Y-113891657D01*
X167247990Y-113866220D01*
X167230391Y-113840481D01*
X167215856Y-113829109D01*
X167163410Y-113806364D01*
X167114322Y-113810122D01*
X167073227Y-113837884D01*
X167044758Y-113887152D01*
X167035631Y-113926257D01*
X167032007Y-113966247D01*
X166944372Y-113966247D01*
X166945285Y-113922249D01*
X166952196Y-113855384D01*
G37*
X166952196Y-113855384D02*
X166965884Y-113806695D01*
X166988096Y-113770849D01*
X167020574Y-113742513D01*
X167034733Y-113733355D01*
X167099053Y-113709507D01*
X167169473Y-113708006D01*
X167237595Y-113726966D01*
X167295021Y-113764497D01*
X167322719Y-113798096D01*
X167344662Y-113859064D01*
X167346405Y-113907308D01*
X167342457Y-113971816D01*
X167193686Y-114036934D01*
X167121349Y-114070202D01*
X167074084Y-114096964D01*
X167049507Y-114120144D01*
X167045237Y-114142667D01*
X167058889Y-114167455D01*
X167073943Y-114183886D01*
X167117746Y-114210235D01*
X167165389Y-114212081D01*
X167209145Y-114191546D01*
X167241289Y-114150752D01*
X167247038Y-114136347D01*
X167274576Y-114091356D01*
X167306258Y-114072182D01*
X167349714Y-114055779D01*
X167349714Y-114117966D01*
X167345872Y-114160283D01*
X167330823Y-114195969D01*
X167299280Y-114236943D01*
X167294592Y-114242267D01*
X167259506Y-114278720D01*
X167229347Y-114298283D01*
X167191615Y-114307283D01*
X167160335Y-114310230D01*
X167104385Y-114310965D01*
X167064555Y-114301660D01*
X167039708Y-114287846D01*
X167000656Y-114257467D01*
X166973625Y-114224613D01*
X166956517Y-114183294D01*
X166947238Y-114127521D01*
X166943693Y-114051305D01*
X166943410Y-114012622D01*
X166944372Y-113966247D01*
X167032007Y-113966247D01*
X167033023Y-113991126D01*
X167035556Y-113995200D01*
X167052274Y-113989665D01*
X167088249Y-113975017D01*
X167136331Y-113954190D01*
X167146386Y-113949714D01*
X167207152Y-113918814D01*
X167240632Y-113891657D01*
X167247990Y-113866220D01*
X167230391Y-113840481D01*
X167215856Y-113829109D01*
X167163410Y-113806364D01*
X167114322Y-113810122D01*
X167073227Y-113837884D01*
X167044758Y-113887152D01*
X167035631Y-113926257D01*
X167032007Y-113966247D01*
X166944372Y-113966247D01*
X166945285Y-113922249D01*
X166952196Y-113855384D01*
X164613926Y-113709755D02*
X164679858Y-113734084D01*
X164679858Y-113734084D02*
X164733273Y-113777117D01*
X164733273Y-113777117D02*
X164754164Y-113807409D01*
X164754164Y-113807409D02*
X164776939Y-113862994D01*
X164776939Y-113862994D02*
X164776466Y-113903186D01*
X164776466Y-113903186D02*
X164752562Y-113930217D01*
X164752562Y-113930217D02*
X164743717Y-113934813D01*
X164743717Y-113934813D02*
X164705530Y-113949144D01*
X164705530Y-113949144D02*
X164686028Y-113945472D01*
X164686028Y-113945472D02*
X164679422Y-113921407D01*
X164679422Y-113921407D02*
X164679086Y-113908114D01*
X164679086Y-113908114D02*
X164666992Y-113859210D01*
X164666992Y-113859210D02*
X164635471Y-113824999D01*
X164635471Y-113824999D02*
X164591659Y-113808476D01*
X164591659Y-113808476D02*
X164542695Y-113812634D01*
X164542695Y-113812634D02*
X164502894Y-113834227D01*
X164502894Y-113834227D02*
X164489450Y-113846544D01*
X164489450Y-113846544D02*
X164479921Y-113861487D01*
X164479921Y-113861487D02*
X164473485Y-113884075D01*
X164473485Y-113884075D02*
X164469317Y-113919328D01*
X164469317Y-113919328D02*
X164466597Y-113972266D01*
X164466597Y-113972266D02*
X164464502Y-114047907D01*
X164464502Y-114047907D02*
X164463960Y-114071857D01*
X164463960Y-114071857D02*
X164461981Y-114153790D01*
X164461981Y-114153790D02*
X164459731Y-114211455D01*
X164459731Y-114211455D02*
X164456357Y-114249608D01*
X164456357Y-114249608D02*
X164451006Y-114273004D01*
X164451006Y-114273004D02*
X164442824Y-114286398D01*
X164442824Y-114286398D02*
X164430959Y-114294545D01*
X164430959Y-114294545D02*
X164423362Y-114298144D01*
X164423362Y-114298144D02*
X164391102Y-114310452D01*
X164391102Y-114310452D02*
X164372111Y-114314514D01*
X164372111Y-114314514D02*
X164365836Y-114300948D01*
X164365836Y-114300948D02*
X164362006Y-114259934D01*
X164362006Y-114259934D02*
X164360600Y-114190999D01*
X164360600Y-114190999D02*
X164361598Y-114093669D01*
X164361598Y-114093669D02*
X164361908Y-114078657D01*
X164361908Y-114078657D02*
X164364101Y-113989859D01*
X164364101Y-113989859D02*
X164366693Y-113925019D01*
X164366693Y-113925019D02*
X164370382Y-113879067D01*
X164370382Y-113879067D02*
X164375864Y-113846935D01*
X164375864Y-113846935D02*
X164383835Y-113823553D01*
X164383835Y-113823553D02*
X164394993Y-113803852D01*
X164394993Y-113803852D02*
X164400830Y-113795410D01*
X164400830Y-113795410D02*
X164434296Y-113758057D01*
X164434296Y-113758057D02*
X164471727Y-113729003D01*
X164471727Y-113729003D02*
X164476309Y-113726467D01*
X164476309Y-113726467D02*
X164543426Y-113706443D01*
X164543426Y-113706443D02*
X164613926Y-113709755D01*
X164613926Y-113709755D02*
X164613926Y-113709755D01*
G36*
X164613926Y-113709755D02*
G01*
X164679858Y-113734084D01*
X164733273Y-113777117D01*
X164754164Y-113807409D01*
X164776939Y-113862994D01*
X164776466Y-113903186D01*
X164752562Y-113930217D01*
X164743717Y-113934813D01*
X164705530Y-113949144D01*
X164686028Y-113945472D01*
X164679422Y-113921407D01*
X164679086Y-113908114D01*
X164666992Y-113859210D01*
X164635471Y-113824999D01*
X164591659Y-113808476D01*
X164542695Y-113812634D01*
X164502894Y-113834227D01*
X164489450Y-113846544D01*
X164479921Y-113861487D01*
X164473485Y-113884075D01*
X164469317Y-113919328D01*
X164466597Y-113972266D01*
X164464502Y-114047907D01*
X164463960Y-114071857D01*
X164461981Y-114153790D01*
X164459731Y-114211455D01*
X164456357Y-114249608D01*
X164451006Y-114273004D01*
X164442824Y-114286398D01*
X164430959Y-114294545D01*
X164423362Y-114298144D01*
X164391102Y-114310452D01*
X164372111Y-114314514D01*
X164365836Y-114300948D01*
X164362006Y-114259934D01*
X164360600Y-114190999D01*
X164361598Y-114093669D01*
X164361908Y-114078657D01*
X164364101Y-113989859D01*
X164366693Y-113925019D01*
X164370382Y-113879067D01*
X164375864Y-113846935D01*
X164383835Y-113823553D01*
X164394993Y-113803852D01*
X164400830Y-113795410D01*
X164434296Y-113758057D01*
X164471727Y-113729003D01*
X164476309Y-113726467D01*
X164543426Y-113706443D01*
X164613926Y-113709755D01*
G37*
X164613926Y-113709755D02*
X164679858Y-113734084D01*
X164733273Y-113777117D01*
X164754164Y-113807409D01*
X164776939Y-113862994D01*
X164776466Y-113903186D01*
X164752562Y-113930217D01*
X164743717Y-113934813D01*
X164705530Y-113949144D01*
X164686028Y-113945472D01*
X164679422Y-113921407D01*
X164679086Y-113908114D01*
X164666992Y-113859210D01*
X164635471Y-113824999D01*
X164591659Y-113808476D01*
X164542695Y-113812634D01*
X164502894Y-113834227D01*
X164489450Y-113846544D01*
X164479921Y-113861487D01*
X164473485Y-113884075D01*
X164469317Y-113919328D01*
X164466597Y-113972266D01*
X164464502Y-114047907D01*
X164463960Y-114071857D01*
X164461981Y-114153790D01*
X164459731Y-114211455D01*
X164456357Y-114249608D01*
X164451006Y-114273004D01*
X164442824Y-114286398D01*
X164430959Y-114294545D01*
X164423362Y-114298144D01*
X164391102Y-114310452D01*
X164372111Y-114314514D01*
X164365836Y-114300948D01*
X164362006Y-114259934D01*
X164360600Y-114190999D01*
X164361598Y-114093669D01*
X164361908Y-114078657D01*
X164364101Y-113989859D01*
X164366693Y-113925019D01*
X164370382Y-113879067D01*
X164375864Y-113846935D01*
X164383835Y-113823553D01*
X164394993Y-113803852D01*
X164400830Y-113795410D01*
X164434296Y-113758057D01*
X164471727Y-113729003D01*
X164476309Y-113726467D01*
X164543426Y-113706443D01*
X164613926Y-113709755D01*
X161125115Y-113681962D02*
X161193145Y-113717733D01*
X161193145Y-113717733D02*
X161243351Y-113775301D01*
X161243351Y-113775301D02*
X161261185Y-113812312D01*
X161261185Y-113812312D02*
X161275063Y-113867882D01*
X161275063Y-113867882D02*
X161282167Y-113938096D01*
X161282167Y-113938096D02*
X161282840Y-114014727D01*
X161282840Y-114014727D02*
X161277427Y-114089552D01*
X161277427Y-114089552D02*
X161266270Y-114154342D01*
X161266270Y-114154342D02*
X161249714Y-114200873D01*
X161249714Y-114200873D02*
X161244626Y-114208887D01*
X161244626Y-114208887D02*
X161184355Y-114268707D01*
X161184355Y-114268707D02*
X161112769Y-114304535D01*
X161112769Y-114304535D02*
X161035092Y-114315020D01*
X161035092Y-114315020D02*
X160956548Y-114298810D01*
X160956548Y-114298810D02*
X160934689Y-114289092D01*
X160934689Y-114289092D02*
X160892122Y-114259143D01*
X160892122Y-114259143D02*
X160854763Y-114219433D01*
X160854763Y-114219433D02*
X160851232Y-114214397D01*
X160851232Y-114214397D02*
X160836881Y-114190124D01*
X160836881Y-114190124D02*
X160827394Y-114164178D01*
X160827394Y-114164178D02*
X160821790Y-114130022D01*
X160821790Y-114130022D02*
X160819086Y-114081119D01*
X160819086Y-114081119D02*
X160818299Y-114010935D01*
X160818299Y-114010935D02*
X160818286Y-113995200D01*
X160818286Y-113995200D02*
X160818322Y-113990192D01*
X160818322Y-113990192D02*
X160963429Y-113990192D01*
X160963429Y-113990192D02*
X160964273Y-114056430D01*
X160964273Y-114056430D02*
X160967596Y-114100386D01*
X160967596Y-114100386D02*
X160974583Y-114128779D01*
X160974583Y-114128779D02*
X160986416Y-114148325D01*
X160986416Y-114148325D02*
X160992457Y-114154857D01*
X160992457Y-114154857D02*
X161027186Y-114179680D01*
X161027186Y-114179680D02*
X161060903Y-114178548D01*
X161060903Y-114178548D02*
X161094995Y-114157016D01*
X161094995Y-114157016D02*
X161115329Y-114134029D01*
X161115329Y-114134029D02*
X161127371Y-114100478D01*
X161127371Y-114100478D02*
X161134134Y-114047569D01*
X161134134Y-114047569D02*
X161134598Y-114041399D01*
X161134598Y-114041399D02*
X161135752Y-113945513D01*
X161135752Y-113945513D02*
X161123688Y-113874299D01*
X161123688Y-113874299D02*
X161098570Y-113828194D01*
X161098570Y-113828194D02*
X161060560Y-113807635D01*
X161060560Y-113807635D02*
X161046992Y-113806514D01*
X161046992Y-113806514D02*
X161011364Y-113812152D01*
X161011364Y-113812152D02*
X160986994Y-113831686D01*
X160986994Y-113831686D02*
X160972093Y-113869042D01*
X160972093Y-113869042D02*
X160964875Y-113928150D01*
X160964875Y-113928150D02*
X160963429Y-113990192D01*
X160963429Y-113990192D02*
X160818322Y-113990192D01*
X160818322Y-113990192D02*
X160818826Y-113920413D01*
X160818826Y-113920413D02*
X160821096Y-113868159D01*
X160821096Y-113868159D02*
X160826068Y-113831949D01*
X160826068Y-113831949D02*
X160834713Y-113805299D01*
X160834713Y-113805299D02*
X160848005Y-113781722D01*
X160848005Y-113781722D02*
X160850943Y-113777338D01*
X160850943Y-113777338D02*
X160900313Y-113718249D01*
X160900313Y-113718249D02*
X160954109Y-113683947D01*
X160954109Y-113683947D02*
X161019602Y-113670331D01*
X161019602Y-113670331D02*
X161041842Y-113669665D01*
X161041842Y-113669665D02*
X161125115Y-113681962D01*
X161125115Y-113681962D02*
X161125115Y-113681962D01*
G36*
X160821096Y-113868159D02*
G01*
X160826068Y-113831949D01*
X160834713Y-113805299D01*
X160848005Y-113781722D01*
X160850943Y-113777338D01*
X160900313Y-113718249D01*
X160954109Y-113683947D01*
X161019602Y-113670331D01*
X161041842Y-113669665D01*
X161125115Y-113681962D01*
X161193145Y-113717733D01*
X161243351Y-113775301D01*
X161261185Y-113812312D01*
X161275063Y-113867882D01*
X161282167Y-113938096D01*
X161282840Y-114014727D01*
X161277427Y-114089552D01*
X161266270Y-114154342D01*
X161249714Y-114200873D01*
X161244626Y-114208887D01*
X161184355Y-114268707D01*
X161112769Y-114304535D01*
X161035092Y-114315020D01*
X160956548Y-114298810D01*
X160934689Y-114289092D01*
X160892122Y-114259143D01*
X160854763Y-114219433D01*
X160851232Y-114214397D01*
X160836881Y-114190124D01*
X160827394Y-114164178D01*
X160821790Y-114130022D01*
X160819086Y-114081119D01*
X160818299Y-114010935D01*
X160818286Y-113995200D01*
X160818322Y-113990192D01*
X160963429Y-113990192D01*
X160964273Y-114056430D01*
X160967596Y-114100386D01*
X160974583Y-114128779D01*
X160986416Y-114148325D01*
X160992457Y-114154857D01*
X161027186Y-114179680D01*
X161060903Y-114178548D01*
X161094995Y-114157016D01*
X161115329Y-114134029D01*
X161127371Y-114100478D01*
X161134134Y-114047569D01*
X161134598Y-114041399D01*
X161135752Y-113945513D01*
X161123688Y-113874299D01*
X161098570Y-113828194D01*
X161060560Y-113807635D01*
X161046992Y-113806514D01*
X161011364Y-113812152D01*
X160986994Y-113831686D01*
X160972093Y-113869042D01*
X160964875Y-113928150D01*
X160963429Y-113990192D01*
X160818322Y-113990192D01*
X160818826Y-113920413D01*
X160821096Y-113868159D01*
G37*
X160821096Y-113868159D02*
X160826068Y-113831949D01*
X160834713Y-113805299D01*
X160848005Y-113781722D01*
X160850943Y-113777338D01*
X160900313Y-113718249D01*
X160954109Y-113683947D01*
X161019602Y-113670331D01*
X161041842Y-113669665D01*
X161125115Y-113681962D01*
X161193145Y-113717733D01*
X161243351Y-113775301D01*
X161261185Y-113812312D01*
X161275063Y-113867882D01*
X161282167Y-113938096D01*
X161282840Y-114014727D01*
X161277427Y-114089552D01*
X161266270Y-114154342D01*
X161249714Y-114200873D01*
X161244626Y-114208887D01*
X161184355Y-114268707D01*
X161112769Y-114304535D01*
X161035092Y-114315020D01*
X160956548Y-114298810D01*
X160934689Y-114289092D01*
X160892122Y-114259143D01*
X160854763Y-114219433D01*
X160851232Y-114214397D01*
X160836881Y-114190124D01*
X160827394Y-114164178D01*
X160821790Y-114130022D01*
X160819086Y-114081119D01*
X160818299Y-114010935D01*
X160818286Y-113995200D01*
X160818322Y-113990192D01*
X160963429Y-113990192D01*
X160964273Y-114056430D01*
X160967596Y-114100386D01*
X160974583Y-114128779D01*
X160986416Y-114148325D01*
X160992457Y-114154857D01*
X161027186Y-114179680D01*
X161060903Y-114178548D01*
X161094995Y-114157016D01*
X161115329Y-114134029D01*
X161127371Y-114100478D01*
X161134134Y-114047569D01*
X161134598Y-114041399D01*
X161135752Y-113945513D01*
X161123688Y-113874299D01*
X161098570Y-113828194D01*
X161060560Y-113807635D01*
X161046992Y-113806514D01*
X161011364Y-113812152D01*
X160986994Y-113831686D01*
X160972093Y-113869042D01*
X160964875Y-113928150D01*
X160963429Y-113990192D01*
X160818322Y-113990192D01*
X160818826Y-113920413D01*
X160821096Y-113868159D01*
D13*
X149452000Y-111975000D02*
X149452000Y-109690000D01*
X147982000Y-109690000D02*
X147982000Y-111975000D01*
X147982000Y-111975000D02*
X149452000Y-111975000D01*
M02*
